<svg xmlns="http://www.w3.org/2000/svg" xmlns:xlink="http://www.w3.org/1999/xlink" width="500" zoomAndPan="magnify" viewBox="0 0 375 374.999991" height="500" preserveAspectRatio="xMidYMid meet" version="1.0"><defs><clipPath id="60dc394594"><path d="M 291 119 L 332.25 119 L 332.25 136 L 291 136 Z M 291 119 " clip-rule="nonzero"/></clipPath><clipPath id="b8a6f1eab9"><path d="M 37.5 119 L 79 119 L 79 136 L 37.5 136 Z M 37.5 119 " clip-rule="nonzero"/></clipPath></defs><path fill="#333333" d="M 183.40625 43.121094 C 178.992188 43.121094 175.378906 39.507812 175.378906 35.09375 L 175.378906 9.933594 C 175.378906 5.519531 178.992188 1.910156 183.40625 1.910156 C 187.820312 1.910156 191.429688 5.519531 191.429688 9.933594 L 191.429688 35.09375 C 191.429688 39.507812 187.820312 43.121094 183.40625 43.121094 Z M 183.40625 43.121094 " fill-opacity="1" fill-rule="nonzero"/><g clip-path="url(#60dc394594)"><path fill="#333333" d="M 324.214844 135.734375 L 299.054688 135.734375 C 294.640625 135.734375 291.027344 132.125 291.027344 127.710938 C 291.027344 123.296875 294.640625 119.683594 299.054688 119.683594 L 324.214844 119.683594 C 328.628906 119.683594 332.238281 123.296875 332.238281 127.710938 C 332.238281 132.125 328.628906 135.734375 324.214844 135.734375 Z M 324.214844 135.734375 " fill-opacity="1" fill-rule="nonzero"/></g><g clip-path="url(#b8a6f1eab9)"><path fill="#333333" d="M 70.6875 135.734375 L 45.527344 135.734375 C 41.113281 135.734375 37.5 132.125 37.5 127.710938 C 37.5 123.296875 41.113281 119.683594 45.527344 119.683594 L 70.6875 119.683594 C 75.101562 119.683594 78.710938 123.296875 78.710938 127.710938 C 78.710938 132.125 75.101562 135.734375 70.6875 135.734375 Z M 70.6875 135.734375 " fill-opacity="1" fill-rule="nonzero"/></g><path fill="#333333" d="M 102.144531 77.550781 C 100.097656 77.550781 98.054688 76.746094 96.488281 75.183594 L 78.710938 57.40625 C 75.582031 54.273438 75.582031 49.179688 78.710938 46.050781 C 81.839844 42.917969 86.9375 42.917969 90.066406 46.050781 L 107.84375 63.824219 C 110.972656 66.957031 110.972656 72.050781 107.84375 75.183594 C 106.238281 76.746094 104.191406 77.550781 102.144531 77.550781 Z M 102.144531 77.550781 " fill-opacity="1" fill-rule="nonzero"/><path fill="#333333" d="M 266.46875 77.550781 C 264.421875 77.550781 262.375 76.746094 260.8125 75.183594 C 257.683594 72.050781 257.683594 66.957031 260.8125 63.824219 L 278.589844 46.050781 C 281.71875 42.917969 286.816406 42.917969 289.945312 46.050781 C 293.074219 49.179688 293.074219 54.273438 289.945312 57.40625 L 272.167969 75.183594 C 270.601562 76.746094 268.554688 77.550781 266.46875 77.550781 Z M 266.46875 77.550781 " fill-opacity="1" fill-rule="nonzero"/><path fill="#333333" d="M 236.613281 269.242188 L 134.691406 269.242188 C 130.277344 269.242188 126.664062 265.628906 126.664062 261.214844 L 126.664062 256.839844 C 126.664062 239.464844 120.765625 222.25 109.609375 207.003906 C 97.730469 190.789062 91.433594 171.570312 91.433594 151.425781 C 91.433594 125.542969 102.265625 100.503906 121.167969 82.765625 C 140.308594 64.789062 165.386719 55.761719 191.671875 57.40625 C 240.347656 60.453125 279.070312 101.0625 279.871094 149.859375 C 280.234375 171.488281 273.453125 191.953125 260.25 209.007812 C 250.21875 222.011719 244.679688 239.0625 244.679688 257.042969 L 244.679688 261.253906 C 244.640625 265.667969 241.070312 269.242188 236.613281 269.242188 Z M 142.675781 253.1875 L 228.710938 253.1875 C 229.472656 233.085938 236.09375 214.023438 247.570312 199.175781 C 258.523438 185.011719 264.140625 168.039062 263.863281 150.101562 C 263.179688 109.613281 231.078125 75.902344 190.707031 73.417969 C 168.878906 72.050781 148.09375 79.515625 132.203125 94.441406 C 116.3125 109.371094 107.523438 129.636719 107.523438 151.425781 C 107.523438 168.160156 112.738281 184.089844 122.570312 197.53125 C 134.972656 214.507812 141.871094 233.6875 142.675781 253.1875 Z M 142.675781 253.1875 " fill-opacity="1" fill-rule="nonzero"/><path fill="#333333" d="M 237.578125 300.179688 L 133.765625 300.179688 C 129.351562 300.179688 125.742188 296.566406 125.742188 292.152344 C 125.742188 287.738281 129.351562 284.128906 133.765625 284.128906 L 237.539062 284.128906 C 241.953125 284.128906 245.5625 287.738281 245.5625 292.152344 C 245.5625 296.566406 241.992188 300.179688 237.578125 300.179688 Z M 237.578125 300.179688 " fill-opacity="1" fill-rule="nonzero"/><path fill="#333333" d="M 185.652344 373.050781 C 160.25 373.050781 139.546875 352.386719 139.546875 326.945312 L 139.546875 320.804688 C 139.546875 316.390625 143.15625 312.78125 147.570312 312.78125 L 223.695312 312.78125 C 228.109375 312.78125 231.71875 316.390625 231.71875 320.804688 L 231.71875 326.945312 C 231.757812 352.386719 211.09375 373.050781 185.652344 373.050781 Z M 155.675781 328.832031 C 156.640625 344.519531 169.722656 357 185.652344 357 C 201.582031 357 214.664062 344.519531 215.628906 328.832031 Z M 155.675781 328.832031 " fill-opacity="1" fill-rule="nonzero"/><path fill="#333333" d="M 201.101562 269.242188 L 170.242188 269.242188 C 166.550781 269.242188 163.339844 266.753906 162.457031 263.179688 L 139.828125 173.054688 C 139.023438 169.882812 140.226562 166.554688 142.835938 164.628906 C 145.445312 162.699219 148.976562 162.539062 151.785156 164.226562 L 165.75 172.691406 L 178.550781 147.734375 C 179.914062 145.042969 182.683594 143.359375 185.691406 143.359375 C 188.703125 143.359375 191.472656 145.042969 192.835938 147.734375 L 205.636719 172.691406 L 219.601562 164.226562 C 222.371094 162.539062 225.902344 162.699219 228.550781 164.628906 C 231.15625 166.554688 232.359375 169.882812 231.558594 173.054688 L 208.925781 263.179688 C 208.003906 266.753906 204.792969 269.242188 201.101562 269.242188 Z M 176.503906 253.1875 L 194.882812 253.1875 L 211.214844 188.101562 L 206.597656 190.910156 C 204.671875 192.074219 202.386719 192.394531 200.257812 191.792969 C 198.132812 191.191406 196.328125 189.707031 195.28125 187.742188 L 185.691406 169 L 176.101562 187.742188 C 175.097656 189.707031 173.292969 191.191406 171.125 191.792969 C 169 192.394531 166.671875 192.074219 164.785156 190.910156 L 160.171875 188.101562 Z M 176.503906 253.1875 " fill-opacity="1" fill-rule="nonzero"/></svg>