<svg xmlns="http://www.w3.org/2000/svg" xmlns:xlink="http://www.w3.org/1999/xlink" width="500" zoomAndPan="magnify" viewBox="0 0 375 374.999991" height="500" preserveAspectRatio="xMidYMid meet" version="1.0"><defs><clipPath id="43bdfe9a5e"><path d="M 0 7.160156 L 374 7.160156 L 374 367.910156 L 0 367.910156 Z M 0 7.160156 " clip-rule="nonzero"/></clipPath></defs><g clip-path="url(#43bdfe9a5e)"><path fill="#333333" d="M 187.089844 137.359375 C 197.910156 137.359375 207.714844 132.960938 214.820312 125.867188 C 221.933594 118.753906 226.339844 108.9375 226.339844 98.117188 C 226.339844 87.484375 222.082031 77.820312 215.175781 70.734375 L 214.839844 70.367188 C 207.742188 63.273438 197.917969 58.875 187.078125 58.875 C 176.425781 58.875 166.753906 63.132812 159.6875 70.042969 L 159.332031 70.367188 C 152.234375 77.464844 147.835938 87.289062 147.835938 98.117188 C 147.835938 108.957031 152.234375 118.761719 159.332031 125.867188 L 159.359375 125.867188 C 166.464844 132.972656 176.269531 137.359375 187.089844 137.359375 Z M 167.828125 78.855469 L 168.097656 78.566406 C 173 73.8125 179.703125 70.882812 187.097656 70.882812 C 194.625 70.882812 201.441406 73.9375 206.371094 78.855469 L 206.667969 79.136719 C 211.421875 84.027344 214.351562 90.722656 214.351562 98.117188 C 214.351562 105.652344 211.308594 112.46875 206.398438 117.378906 C 201.46875 122.308594 194.652344 125.351562 187.109375 125.351562 C 179.574219 125.351562 172.757812 122.308594 167.835938 117.378906 C 162.90625 112.449219 159.863281 105.644531 159.863281 98.117188 C 159.855469 90.601562 162.898438 83.785156 167.828125 78.855469 Z M 372.957031 358.753906 L 297.476562 234.191406 C 296.515625 232.167969 294.453125 230.773438 292.0625 230.773438 L 224.511719 230.785156 C 250.886719 184.390625 281.007812 128.050781 281.007812 101.070312 C 281.007812 75.140625 270.496094 51.65625 253.5 34.664062 C 236.5 17.671875 213.027344 7.160156 187.097656 7.160156 C 161.171875 7.160156 137.6875 17.671875 120.695312 34.664062 C 103.703125 51.65625 93.1875 75.128906 93.1875 101.070312 C 93.1875 128.15625 123.28125 184.410156 149.667969 230.773438 L 82.132812 230.773438 L 82.132812 230.804688 C 80.117188 230.804688 78.148438 231.828125 77.027344 233.679688 L 1.539062 358.25 C 0.792969 359.25 0.34375 360.5 0.34375 361.84375 C 0.34375 365.160156 3.035156 367.847656 6.347656 367.847656 L 367.839844 367.847656 L 367.839844 367.820312 C 368.894531 367.820312 369.96875 367.539062 370.929688 366.960938 C 373.757812 365.242188 374.65625 361.574219 372.957031 358.753906 Z M 132.234375 331.460938 L 128.453125 355.839844 L 112.085938 355.839844 L 115.597656 333.246094 C 116.101562 329.988281 113.871094 326.925781 110.601562 326.421875 C 110.292969 326.375 109.984375 326.347656 109.6875 326.347656 L 109.6875 326.316406 L 34.851562 326.316406 L 44.695312 310.070312 L 114.066406 310.070312 C 117.25 310.070312 119.855469 307.597656 120.050781 304.460938 L 129.640625 242.761719 L 146.007812 242.761719 L 136.625 303.152344 C 136.121094 306.410156 138.351562 309.472656 141.617188 309.980469 C 141.945312 310.027344 142.261719 310.054688 142.570312 310.054688 L 330.257812 311.359375 L 340.101562 327.605469 L 138.164062 326.347656 C 135.15625 326.347656 132.65625 328.566406 132.234375 331.460938 Z M 217.65625 242.78125 L 288.710938 242.78125 L 322.996094 299.363281 L 149.519531 298.160156 L 157.78125 244.957031 L 163.113281 254.191406 C 170.703125 267.355469 177.324219 278.832031 181.832031 287.261719 C 181.953125 287.488281 182.085938 287.703125 182.234375 287.898438 C 182.269531 287.953125 182.316406 288.007812 182.355469 288.054688 C 182.484375 288.234375 182.636719 288.402344 182.785156 288.558594 C 182.8125 288.589844 182.839844 288.625 182.878906 288.652344 C 183.066406 288.839844 183.261719 289.007812 183.464844 289.167969 C 183.511719 289.203125 183.558594 289.234375 183.605469 289.269531 C 183.832031 289.429688 184.054688 289.578125 184.289062 289.699219 C 184.289062 289.699219 184.296875 289.699219 184.296875 289.707031 C 184.476562 289.800781 184.652344 289.886719 184.839844 289.960938 C 184.949219 290.007812 185.054688 290.035156 185.164062 290.082031 C 185.242188 290.109375 185.304688 290.136719 185.378906 290.15625 C 185.511719 290.195312 185.640625 290.230469 185.78125 290.257812 C 185.839844 290.269531 185.894531 290.289062 185.949219 290.296875 C 186.082031 290.324219 186.203125 290.335938 186.332031 290.351562 C 186.398438 290.363281 186.464844 290.371094 186.527344 290.378906 C 186.640625 290.390625 186.742188 290.390625 186.855469 290.398438 C 186.941406 290.398438 187.03125 290.410156 187.117188 290.410156 C 187.203125 290.410156 187.292969 290.398438 187.378906 290.398438 C 187.492188 290.390625 187.59375 290.390625 187.707031 290.378906 C 187.769531 290.371094 187.835938 290.363281 187.902344 290.351562 C 188.03125 290.335938 188.152344 290.316406 188.285156 290.296875 C 188.339844 290.289062 188.394531 290.269531 188.453125 290.257812 C 188.582031 290.230469 188.714844 290.203125 188.855469 290.15625 C 188.929688 290.136719 189.003906 290.101562 189.070312 290.082031 C 189.179688 290.042969 189.285156 290.007812 189.394531 289.96875 C 189.582031 289.894531 189.757812 289.8125 189.925781 289.71875 C 189.925781 289.71875 189.9375 289.71875 189.9375 289.707031 C 190.171875 289.578125 190.402344 289.4375 190.617188 289.277344 C 190.664062 289.242188 190.710938 289.214844 190.757812 289.175781 C 190.964844 289.019531 191.160156 288.851562 191.347656 288.664062 C 191.375 288.636719 191.402344 288.597656 191.429688 288.570312 C 191.582031 288.410156 191.730469 288.242188 191.859375 288.066406 C 191.898438 288.007812 191.945312 287.960938 191.980469 287.90625 C 192.121094 287.703125 192.261719 287.496094 192.382812 287.261719 C 194.277344 283.714844 196.558594 279.605469 199.125 275.070312 C 199.207031 274.917969 199.292969 274.769531 199.375 274.609375 C 199.542969 274.3125 199.710938 274.011719 199.878906 273.714844 C 200.105469 273.3125 200.328125 272.921875 200.5625 272.519531 C 200.597656 272.453125 200.636719 272.398438 200.664062 272.332031 C 201.019531 271.699219 201.382812 271.0625 201.757812 270.417969 C 201.960938 270.0625 202.167969 269.699219 202.375 269.335938 C 202.570312 268.992188 202.765625 268.644531 202.972656 268.289062 C 205.464844 263.921875 208.164062 259.253906 210.992188 254.339844 C 211.289062 253.816406 211.589844 253.296875 211.898438 252.773438 Z M 129.183594 43.152344 C 144 28.335938 164.476562 19.167969 187.097656 19.167969 C 209.722656 19.167969 230.195312 28.335938 245.015625 43.152344 C 259.832031 57.96875 269 78.445312 269 101.070312 C 269 126.894531 235.890625 186.921875 209.160156 233.558594 C 209.105469 233.640625 209.050781 233.714844 208.992188 233.800781 L 200.691406 248.273438 C 198.152344 252.6875 195.714844 256.917969 193.429688 260.90625 C 191.160156 264.871094 189.03125 268.597656 187.097656 272.042969 C 183.207031 265.105469 178.546875 257.03125 173.449219 248.199219 C 173.390625 248.105469 173.335938 248.011719 173.28125 247.90625 L 165.324219 234.0625 C 165.195312 233.808594 165.054688 233.574219 164.894531 233.34375 C 138.183594 186.753906 105.1875 126.96875 105.1875 101.066406 C 105.195312 78.445312 114.363281 57.96875 129.183594 43.152344 Z M 85.476562 242.78125 L 117.539062 242.78125 L 108.949219 298.082031 L 51.96875 298.082031 Z M 27.578125 338.335938 L 102.695312 338.335938 L 99.976562 355.839844 L 16.972656 355.839844 Z M 140.554688 355.839844 L 143.273438 338.34375 L 347.382812 339.613281 L 357.214844 355.839844 Z M 140.554688 355.839844 " fill-opacity="1" fill-rule="nonzero"/></g></svg>