<svg xmlns="http://www.w3.org/2000/svg" xmlns:xlink="http://www.w3.org/1999/xlink" width="500" zoomAndPan="magnify" viewBox="0 0 375 374.999991" height="500" preserveAspectRatio="xMidYMid meet" version="1.0"><defs><clipPath id="a218cf3278"><path d="M 0 6.816406 L 375 6.816406 L 375 368.316406 L 0 368.316406 Z M 0 6.816406 " clip-rule="nonzero"/></clipPath></defs><g clip-path="url(#a218cf3278)"><path fill="#333333" d="M 152.703125 316.515625 L 67.277344 316.261719 C 66.824219 316.261719 66.375 316.21875 65.929688 316.128906 C 65.488281 316.042969 65.054688 315.910156 64.636719 315.738281 C 64.21875 315.566406 63.820312 315.351562 63.445312 315.101562 C 63.070312 314.847656 62.71875 314.5625 62.402344 314.242188 C 62.082031 313.921875 61.792969 313.574219 61.542969 313.199219 C 61.292969 312.820312 61.078125 312.425781 60.90625 312.007812 C 60.730469 311.585938 60.601562 311.15625 60.511719 310.710938 C 60.425781 310.269531 60.378906 309.820312 60.378906 309.367188 C 60.378906 308.914062 60.425781 308.464844 60.511719 308.023438 C 60.601562 307.578125 60.730469 307.144531 60.90625 306.726562 C 61.078125 306.308594 61.292969 305.914062 61.542969 305.535156 C 61.792969 305.160156 62.082031 304.8125 62.402344 304.492188 C 62.71875 304.171875 63.070312 303.882812 63.445312 303.632812 C 63.820312 303.382812 64.21875 303.167969 64.636719 302.996094 C 65.054688 302.824219 65.488281 302.691406 65.929688 302.601562 C 66.375 302.515625 66.824219 302.472656 67.277344 302.472656 L 152.707031 302.722656 C 153.160156 302.722656 153.609375 302.769531 154.050781 302.855469 C 154.496094 302.945312 154.925781 303.074219 155.34375 303.25 C 155.761719 303.421875 156.160156 303.636719 156.539062 303.886719 C 156.914062 304.140625 157.261719 304.425781 157.582031 304.746094 C 157.902344 305.066406 158.1875 305.414062 158.4375 305.789062 C 158.691406 306.167969 158.902344 306.566406 159.078125 306.984375 C 159.25 307.402344 159.378906 307.832031 159.46875 308.277344 C 159.554688 308.722656 159.601562 309.167969 159.601562 309.621094 C 159.601562 310.074219 159.554688 310.523438 159.46875 310.96875 C 159.378906 311.410156 159.246094 311.84375 159.074219 312.261719 C 158.902344 312.679688 158.6875 313.078125 158.4375 313.453125 C 158.183594 313.828125 157.898438 314.175781 157.578125 314.496094 C 157.257812 314.816406 156.910156 315.105469 156.535156 315.355469 C 156.15625 315.605469 155.757812 315.820312 155.339844 315.992188 C 154.921875 316.164062 154.492188 316.296875 154.046875 316.382812 C 153.601562 316.472656 153.15625 316.515625 152.703125 316.515625 Z M 220.316406 254.449219 L 67.277344 253.410156 C 66.824219 253.410156 66.375 253.457031 65.929688 253.542969 C 65.488281 253.632812 65.054688 253.761719 64.636719 253.9375 C 64.21875 254.109375 63.820312 254.320312 63.445312 254.574219 C 63.070312 254.824219 62.71875 255.109375 62.402344 255.429688 C 62.082031 255.75 61.792969 256.101562 61.542969 256.476562 C 61.292969 256.851562 61.078125 257.25 60.90625 257.667969 C 60.730469 258.085938 60.601562 258.519531 60.511719 258.960938 C 60.425781 259.40625 60.378906 259.855469 60.378906 260.308594 C 60.378906 260.761719 60.425781 261.207031 60.511719 261.652344 C 60.601562 262.097656 60.730469 262.527344 60.90625 262.945312 C 61.078125 263.363281 61.292969 263.761719 61.542969 264.140625 C 61.792969 264.515625 62.082031 264.863281 62.402344 265.183594 C 62.71875 265.503906 63.070312 265.789062 63.445312 266.042969 C 63.820312 266.292969 64.21875 266.503906 64.636719 266.679688 C 65.054688 266.851562 65.488281 266.984375 65.929688 267.070312 C 66.375 267.160156 66.824219 267.203125 67.277344 267.203125 L 220.320312 268.222656 C 220.773438 268.222656 221.222656 268.179688 221.667969 268.089844 C 222.109375 268.003906 222.542969 267.871094 222.960938 267.699219 C 223.378906 267.523438 223.777344 267.3125 224.152344 267.0625 C 224.527344 266.808594 224.875 266.523438 225.195312 266.203125 C 225.515625 265.882812 225.800781 265.535156 226.054688 265.15625 C 226.304688 264.78125 226.519531 264.382812 226.691406 263.964844 C 226.863281 263.546875 226.996094 263.117188 227.082031 262.671875 C 227.171875 262.226562 227.214844 261.777344 227.214844 261.324219 C 227.214844 260.875 227.171875 260.425781 227.082031 259.980469 C 226.992188 259.535156 226.863281 259.105469 226.6875 258.6875 C 226.515625 258.269531 226.304688 257.871094 226.050781 257.496094 C 225.800781 257.117188 225.515625 256.769531 225.195312 256.449219 C 224.875 256.128906 224.523438 255.84375 224.148438 255.59375 C 223.773438 255.339844 223.375 255.128906 222.957031 254.957031 C 222.539062 254.78125 222.105469 254.652344 221.660156 254.5625 C 221.21875 254.476562 220.769531 254.433594 220.316406 254.433594 Z M 220.316406 202.882812 L 67.277344 201.847656 C 66.824219 201.847656 66.375 201.890625 65.929688 201.980469 C 65.488281 202.066406 65.054688 202.199219 64.636719 202.371094 C 64.21875 202.542969 63.820312 202.757812 63.445312 203.007812 C 63.070312 203.261719 62.71875 203.546875 62.402344 203.867188 C 62.082031 204.1875 61.792969 204.535156 61.542969 204.910156 C 61.292969 205.289062 61.078125 205.683594 60.90625 206.105469 C 60.730469 206.523438 60.601562 206.953125 60.511719 207.398438 C 60.425781 207.839844 60.378906 208.289062 60.378906 208.742188 C 60.378906 209.195312 60.425781 209.644531 60.511719 210.089844 C 60.601562 210.53125 60.730469 210.964844 60.90625 211.382812 C 61.078125 211.800781 61.292969 212.199219 61.542969 212.574219 C 61.792969 212.949219 62.082031 213.296875 62.402344 213.617188 C 62.71875 213.9375 63.070312 214.226562 63.445312 214.476562 C 63.820312 214.726562 64.21875 214.941406 64.636719 215.113281 C 65.054688 215.289062 65.488281 215.417969 65.929688 215.507812 C 66.375 215.59375 66.824219 215.640625 67.277344 215.640625 L 220.320312 216.65625 C 220.773438 216.65625 221.222656 216.609375 221.667969 216.523438 C 222.109375 216.433594 222.542969 216.300781 222.960938 216.128906 C 223.378906 215.957031 223.777344 215.742188 224.152344 215.492188 C 224.527344 215.238281 224.875 214.953125 225.195312 214.632812 C 225.515625 214.3125 225.800781 213.964844 226.054688 213.589844 C 226.304688 213.210938 226.519531 212.8125 226.691406 212.394531 C 226.863281 211.976562 226.996094 211.546875 227.082031 211.101562 C 227.171875 210.65625 227.214844 210.210938 227.214844 209.757812 C 227.214844 209.304688 227.171875 208.855469 227.082031 208.410156 C 226.992188 207.96875 226.863281 207.535156 226.6875 207.117188 C 226.515625 206.699219 226.304688 206.300781 226.050781 205.925781 C 225.800781 205.550781 225.515625 205.199219 225.195312 204.878906 C 224.875 204.5625 224.523438 204.273438 224.148438 204.023438 C 223.773438 203.773438 223.375 203.558594 222.957031 203.386719 C 222.539062 203.214844 222.105469 203.082031 221.660156 202.996094 C 221.21875 202.90625 220.769531 202.863281 220.316406 202.863281 Z M 220.316406 153.417969 L 67.277344 152.382812 C 66.824219 152.382812 66.375 152.425781 65.929688 152.515625 C 65.488281 152.601562 65.054688 152.734375 64.636719 152.90625 C 64.21875 153.082031 63.820312 153.292969 63.445312 153.542969 C 63.070312 153.796875 62.71875 154.082031 62.402344 154.402344 C 62.082031 154.722656 61.792969 155.070312 61.542969 155.449219 C 61.292969 155.824219 61.078125 156.222656 60.90625 156.640625 C 60.730469 157.058594 60.601562 157.488281 60.511719 157.933594 C 60.425781 158.378906 60.378906 158.824219 60.378906 159.277344 C 60.378906 159.730469 60.425781 160.179688 60.511719 160.625 C 60.601562 161.066406 60.730469 161.5 60.90625 161.917969 C 61.078125 162.335938 61.292969 162.734375 61.542969 163.109375 C 61.792969 163.488281 62.082031 163.835938 62.402344 164.15625 C 62.71875 164.476562 63.070312 164.761719 63.445312 165.011719 C 63.820312 165.265625 64.21875 165.476562 64.636719 165.648438 C 65.054688 165.824219 65.488281 165.953125 65.929688 166.042969 C 66.375 166.128906 66.824219 166.175781 67.277344 166.175781 L 220.320312 167.191406 C 220.773438 167.191406 221.222656 167.144531 221.667969 167.058594 C 222.109375 166.96875 222.542969 166.839844 222.960938 166.664062 C 223.378906 166.492188 223.777344 166.277344 224.152344 166.027344 C 224.527344 165.777344 224.875 165.488281 225.195312 165.167969 C 225.515625 164.847656 225.800781 164.5 226.054688 164.125 C 226.304688 163.746094 226.519531 163.351562 226.691406 162.933594 C 226.863281 162.511719 226.996094 162.082031 227.082031 161.636719 C 227.171875 161.195312 227.214844 160.746094 227.214844 160.292969 C 227.214844 159.839844 227.171875 159.390625 227.082031 158.945312 C 226.992188 158.503906 226.863281 158.070312 226.6875 157.652344 C 226.515625 157.234375 226.304688 156.839844 226.050781 156.460938 C 225.800781 156.085938 225.515625 155.738281 225.195312 155.417969 C 224.875 155.097656 224.523438 154.8125 224.148438 154.558594 C 223.773438 154.308594 223.375 154.097656 222.957031 153.921875 C 222.539062 153.75 222.105469 153.617188 221.660156 153.53125 C 221.21875 153.441406 220.769531 153.398438 220.316406 153.398438 Z M 373.738281 108.363281 L 362.972656 128.941406 L 294.390625 259.933594 C 294.390625 260.082031 294.472656 260.203125 294.472656 260.347656 L 294.472656 362.261719 C 294.472656 362.65625 294.433594 363.046875 294.359375 363.4375 C 294.28125 363.824219 294.167969 364.199219 294.015625 364.566406 C 293.863281 364.929688 293.679688 365.277344 293.457031 365.605469 C 293.238281 365.933594 292.988281 366.238281 292.710938 366.519531 C 292.429688 366.800781 292.125 367.046875 291.796875 367.269531 C 291.46875 367.488281 291.121094 367.671875 290.753906 367.824219 C 290.390625 367.976562 290.011719 368.089844 289.625 368.167969 C 289.238281 368.246094 288.847656 368.285156 288.449219 368.285156 L 6.175781 368.285156 C 5.78125 368.28125 5.390625 368.246094 5.003906 368.167969 C 4.613281 368.089844 4.238281 367.976562 3.871094 367.824219 C 3.507812 367.671875 3.160156 367.488281 2.832031 367.265625 C 2.503906 367.046875 2.199219 366.796875 1.917969 366.519531 C 1.640625 366.238281 1.390625 365.933594 1.171875 365.605469 C 0.949219 365.277344 0.765625 364.929688 0.613281 364.566406 C 0.460938 364.199219 0.347656 363.824219 0.269531 363.433594 C 0.191406 363.046875 0.15625 362.65625 0.152344 362.261719 L 0.152344 12.855469 C 0.152344 12.457031 0.191406 12.066406 0.269531 11.679688 C 0.34375 11.289062 0.457031 10.914062 0.609375 10.546875 C 0.761719 10.179688 0.945312 9.832031 1.164062 9.503906 C 1.386719 9.171875 1.636719 8.867188 1.914062 8.589844 C 2.195312 8.308594 2.5 8.058594 2.828125 7.835938 C 3.15625 7.617188 3.503906 7.429688 3.871094 7.277344 C 4.234375 7.128906 4.613281 7.011719 5 6.933594 C 5.386719 6.859375 5.78125 6.820312 6.175781 6.816406 L 203.488281 6.816406 C 204.386719 6.820312 205.242188 7.015625 206.050781 7.398438 C 206.859375 7.785156 207.550781 8.324219 208.121094 9.015625 L 292.75 97.386719 C 293.304688 97.960938 293.722656 98.621094 294.007812 99.371094 C 294.074219 99.609375 294.121094 99.851562 294.152344 100.097656 C 294.304688 100.566406 294.394531 101.050781 294.421875 101.542969 L 294.421875 163.355469 L 334.097656 87.601562 C 334.28125 87.25 334.492188 86.921875 334.738281 86.617188 C 334.984375 86.308594 335.261719 86.027344 335.5625 85.773438 C 335.863281 85.523438 336.1875 85.300781 336.53125 85.113281 C 336.875 84.921875 337.238281 84.769531 337.613281 84.652344 C 337.988281 84.535156 338.371094 84.453125 338.761719 84.410156 C 339.152344 84.371094 339.546875 84.367188 339.9375 84.402344 C 340.328125 84.4375 340.714844 84.507812 341.09375 84.621094 C 341.46875 84.730469 341.832031 84.878906 342.179688 85.0625 L 371.183594 100.234375 L 371.210938 100.234375 C 371.5625 100.414062 371.890625 100.628906 372.199219 100.878906 C 372.507812 101.125 372.789062 101.398438 373.042969 101.703125 C 373.296875 102.003906 373.519531 102.332031 373.707031 102.679688 C 373.898438 103.023438 374.050781 103.386719 374.167969 103.765625 C 374.289062 104.144531 374.367188 104.527344 374.40625 104.921875 C 374.449219 105.316406 374.449219 105.707031 374.414062 106.101562 C 374.375 106.496094 374.300781 106.882812 374.1875 107.261719 C 374.074219 107.640625 373.925781 108.003906 373.738281 108.351562 Z M 209.488281 95.550781 L 274.367188 95.550781 L 209.488281 27.792969 Z M 282.4375 271.84375 L 260.109375 289.261719 C 259.664062 289.652344 259.171875 289.96875 258.632812 290.210938 C 258.097656 290.453125 257.535156 290.617188 256.949219 290.691406 C 256.363281 290.769531 255.78125 290.761719 255.195312 290.664062 C 254.613281 290.566406 254.058594 290.390625 253.527344 290.128906 C 253 289.867188 252.519531 289.535156 252.085938 289.132812 C 251.65625 288.730469 251.292969 288.269531 250.996094 287.761719 C 250.699219 287.25 250.484375 286.707031 250.351562 286.132812 C 250.214844 285.554688 250.167969 284.972656 250.203125 284.382812 L 252.429688 244.847656 L 252.457031 244.746094 L 282.4375 186.359375 L 282.4375 107.574219 L 203.496094 107.574219 C 203.097656 107.574219 202.707031 107.539062 202.320312 107.460938 C 201.929688 107.382812 201.554688 107.269531 201.1875 107.117188 C 200.824219 106.964844 200.476562 106.78125 200.144531 106.558594 C 199.816406 106.339844 199.511719 106.089844 199.234375 105.808594 C 198.953125 105.53125 198.703125 105.226562 198.484375 104.898438 C 198.261719 104.566406 198.078125 104.222656 197.925781 103.855469 C 197.773438 103.488281 197.660156 103.113281 197.582031 102.722656 C 197.507812 102.335938 197.46875 101.945312 197.46875 101.546875 L 197.46875 18.839844 L 12.203125 18.839844 L 12.203125 356.222656 L 282.4375 356.222656 Z M 262.917969 271.84375 L 276.355469 261.332031 L 263.839844 254.78125 Z M 349.558594 128.695312 L 331.171875 119.042969 L 294.007812 190.066406 L 293.957031 190.160156 L 266.457031 242.617188 L 276.246094 247.746094 L 284.851562 252.25 Z M 360.34375 108.085938 L 341.957031 98.464844 L 336.734375 108.421875 L 355.121094 118.046875 Z M 67.277344 107.464844 L 146.042969 108.480469 C 146.496094 108.480469 146.945312 108.4375 147.390625 108.347656 C 147.835938 108.261719 148.265625 108.128906 148.683594 107.957031 C 149.101562 107.785156 149.5 107.570312 149.875 107.320312 C 150.253906 107.066406 150.601562 106.78125 150.921875 106.460938 C 151.242188 106.140625 151.527344 105.792969 151.777344 105.417969 C 152.03125 105.039062 152.242188 104.644531 152.417969 104.222656 C 152.589844 103.804688 152.71875 103.375 152.808594 102.929688 C 152.898438 102.488281 152.941406 102.039062 152.941406 101.585938 C 152.941406 101.132812 152.898438 100.683594 152.808594 100.238281 C 152.71875 99.796875 152.589844 99.363281 152.417969 98.945312 C 152.242188 98.527344 152.03125 98.128906 151.777344 97.753906 C 151.527344 97.378906 151.242188 97.027344 150.921875 96.710938 C 150.601562 96.390625 150.253906 96.101562 149.875 95.851562 C 149.5 95.601562 149.101562 95.386719 148.683594 95.214844 C 148.265625 95.039062 147.835938 94.910156 147.390625 94.820312 C 146.945312 94.734375 146.496094 94.6875 146.042969 94.6875 L 67.277344 93.671875 C 66.824219 93.671875 66.375 93.71875 65.929688 93.804688 C 65.488281 93.894531 65.054688 94.023438 64.636719 94.199219 C 64.21875 94.371094 63.820312 94.582031 63.445312 94.835938 C 63.070312 95.085938 62.71875 95.371094 62.402344 95.691406 C 62.082031 96.011719 61.792969 96.363281 61.542969 96.738281 C 61.292969 97.113281 61.078125 97.511719 60.90625 97.929688 C 60.730469 98.347656 60.601562 98.78125 60.511719 99.222656 C 60.425781 99.667969 60.378906 100.117188 60.378906 100.570312 C 60.378906 101.023438 60.425781 101.46875 60.511719 101.914062 C 60.601562 102.359375 60.730469 102.789062 60.90625 103.207031 C 61.078125 103.625 61.292969 104.023438 61.542969 104.402344 C 61.792969 104.777344 62.082031 105.125 62.402344 105.445312 C 62.71875 105.765625 63.070312 106.050781 63.445312 106.304688 C 63.820312 106.554688 64.21875 106.765625 64.636719 106.941406 C 65.054688 107.113281 65.488281 107.246094 65.929688 107.332031 C 66.375 107.421875 66.824219 107.464844 67.277344 107.464844 Z M 67.277344 67.808594 L 146.042969 68.824219 C 146.496094 68.824219 146.945312 68.78125 147.390625 68.691406 C 147.835938 68.601562 148.265625 68.472656 148.683594 68.300781 C 149.101562 68.125 149.5 67.914062 149.875 67.660156 C 150.253906 67.410156 150.601562 67.125 150.921875 66.804688 C 151.242188 66.484375 151.527344 66.136719 151.777344 65.757812 C 152.03125 65.382812 152.242188 64.984375 152.417969 64.566406 C 152.589844 64.148438 152.71875 63.71875 152.808594 63.273438 C 152.898438 62.828125 152.941406 62.378906 152.941406 61.929688 C 152.941406 61.476562 152.898438 61.027344 152.808594 60.582031 C 152.71875 60.136719 152.589844 59.707031 152.417969 59.289062 C 152.242188 58.871094 152.03125 58.472656 151.777344 58.097656 C 151.527344 57.71875 151.242188 57.371094 150.921875 57.050781 C 150.601562 56.730469 150.253906 56.445312 149.875 56.195312 C 149.5 55.941406 149.101562 55.730469 148.683594 55.554688 C 148.265625 55.382812 147.835938 55.253906 147.390625 55.164062 C 146.945312 55.074219 146.496094 55.03125 146.042969 55.03125 L 67.277344 54.015625 C 66.824219 54.015625 66.375 54.058594 65.929688 54.148438 C 65.488281 54.238281 65.054688 54.367188 64.636719 54.539062 C 64.21875 54.714844 63.820312 54.925781 63.445312 55.179688 C 63.070312 55.429688 62.71875 55.714844 62.402344 56.035156 C 62.082031 56.355469 61.792969 56.703125 61.542969 57.082031 C 61.292969 57.457031 61.078125 57.855469 60.90625 58.273438 C 60.730469 58.691406 60.601562 59.121094 60.511719 59.566406 C 60.425781 60.011719 60.378906 60.457031 60.378906 60.910156 C 60.378906 61.363281 60.425781 61.8125 60.511719 62.257812 C 60.601562 62.703125 60.730469 63.132812 60.90625 63.550781 C 61.078125 63.96875 61.292969 64.367188 61.542969 64.742188 C 61.792969 65.121094 62.082031 65.46875 62.402344 65.789062 C 62.71875 66.109375 63.070312 66.394531 63.445312 66.644531 C 63.820312 66.898438 64.21875 67.109375 64.636719 67.28125 C 65.054688 67.457031 65.488281 67.585938 65.929688 67.675781 C 66.375 67.765625 66.824219 67.808594 67.277344 67.808594 Z M 67.277344 67.808594 " fill-opacity="1" fill-rule="nonzero"/></g></svg>