<svg xmlns="http://www.w3.org/2000/svg" xmlns:xlink="http://www.w3.org/1999/xlink" width="500" zoomAndPan="magnify" viewBox="0 0 375 374.999991" height="500" preserveAspectRatio="xMidYMid meet" version="1.0"><defs><clipPath id="3a9052cb08"><path d="M 7 4.773438 L 373 4.773438 L 373 369 L 7 369 Z M 7 4.773438 " clip-rule="nonzero"/></clipPath></defs><g clip-path="url(#3a9052cb08)"><path fill="#333333" d="M 273.246094 179.253906 C 271.742188 176.039062 270.332031 172.78125 268.9375 169.667969 C 282.3125 159.46875 286.054688 148.632812 280.691406 136.574219 C 275.332031 124.519531 264.617188 120.269531 247.058594 123.511719 C 242.867188 114.648438 238.617188 105.699219 234.394531 96.734375 C 226.105469 79.140625 217.972656 61.472656 209.503906 43.964844 C 209.035156 42.984375 208.488281 42.046875 207.863281 41.160156 C 207.234375 40.273438 206.535156 39.445312 205.761719 38.679688 C 204.992188 37.914062 204.160156 37.21875 203.269531 36.597656 C 202.378906 35.972656 201.441406 35.433594 200.453125 34.972656 C 199.46875 34.511719 198.453125 34.140625 197.402344 33.859375 C 196.351562 33.574219 195.285156 33.382812 194.203125 33.285156 C 193.121094 33.183594 192.039062 33.179688 190.953125 33.269531 C 189.871094 33.355469 188.804688 33.539062 187.75 33.8125 C 186.699219 34.085938 185.679688 34.445312 184.6875 34.898438 C 183.699219 35.347656 182.753906 35.878906 181.859375 36.492188 C 180.960938 37.109375 180.121094 37.792969 179.34375 38.554688 C 178.566406 39.3125 177.859375 40.132812 177.222656 41.011719 C 176.585938 41.894531 176.03125 42.824219 175.554688 43.800781 C 175.078125 44.78125 174.691406 45.792969 174.390625 46.835938 C 174.089844 47.882812 173.882812 48.945312 173.765625 50.023438 C 173.652344 51.105469 173.628906 52.1875 173.699219 53.273438 C 176.511719 71.398438 170.714844 87.3125 161.597656 102.265625 C 158.171875 107.828125 154.402344 113.144531 150.292969 118.222656 C 146.179688 123.296875 141.761719 128.089844 137.035156 132.59375 C 132.308594 137.101562 127.3125 141.289062 122.046875 145.152344 C 116.78125 149.019531 111.289062 152.53125 105.574219 155.691406 C 84.773438 167.480469 62.859375 177.410156 41.277344 187.835938 C 13.945312 200.996094 1.535156 229.257812 10.984375 256.757812 C 11.558594 258.382812 12.207031 259.980469 12.933594 261.542969 C 13.65625 263.109375 14.453125 264.636719 15.324219 266.125 C 16.191406 267.613281 17.128906 269.058594 18.132812 270.460938 C 19.140625 271.859375 20.207031 273.210938 21.339844 274.511719 C 22.472656 275.8125 23.664062 277.058594 24.914062 278.246094 C 26.164062 279.433594 27.464844 280.558594 28.820312 281.625 C 30.179688 282.691406 31.582031 283.6875 33.03125 284.621094 C 34.480469 285.554688 35.972656 286.417969 37.503906 287.210938 C 39.035156 288.003906 40.601562 288.722656 42.199219 289.367188 C 43.796875 290.011719 45.425781 290.578125 47.078125 291.070312 C 48.730469 291.5625 50.402344 291.976562 52.09375 292.308594 C 53.785156 292.644531 55.488281 292.898438 57.207031 293.070312 C 58.921875 293.242188 60.640625 293.335938 62.363281 293.347656 C 64.089844 293.359375 65.808594 293.289062 67.527344 293.136719 C 69.246094 292.984375 70.953125 292.753906 72.648438 292.441406 C 74.34375 292.132812 76.023438 291.738281 77.679688 291.269531 C 81.199219 290.1875 82.929688 291.410156 84.714844 294.304688 C 89.945312 302.78125 95.464844 311.078125 100.867188 319.453125 C 109.332031 332.582031 117.722656 345.761719 126.285156 358.824219 C 126.839844 359.753906 127.464844 360.636719 128.15625 361.46875 C 128.851562 362.304688 129.605469 363.078125 130.417969 363.792969 C 131.234375 364.507812 132.097656 365.15625 133.015625 365.738281 C 133.929688 366.316406 134.882812 366.820312 135.878906 367.253906 C 136.875 367.683594 137.898438 368.03125 138.945312 368.304688 C 139.996094 368.574219 141.058594 368.761719 142.140625 368.863281 C 143.21875 368.96875 144.296875 368.988281 145.378906 368.921875 C 146.460938 368.855469 147.53125 368.707031 148.589844 368.472656 C 149.617188 368.367188 150.625 368.179688 151.621094 367.910156 C 152.613281 367.640625 153.578125 367.289062 154.515625 366.863281 C 155.453125 366.433594 156.347656 365.933594 157.203125 365.355469 C 158.054688 364.78125 158.859375 364.140625 159.609375 363.433594 C 160.355469 362.726562 161.042969 361.964844 161.667969 361.144531 C 162.292969 360.324219 162.84375 359.460938 163.328125 358.550781 C 163.808594 357.640625 164.214844 356.695312 164.542969 355.71875 C 164.871094 354.742188 165.117188 353.746094 165.28125 352.730469 C 165.648438 349.75 165.617188 346.769531 165.191406 343.796875 C 164.769531 340.824219 163.960938 337.957031 162.773438 335.199219 C 155.792969 318.839844 147.835938 302.90625 140.28125 286.847656 C 159.996094 275.816406 161.886719 272.605469 157.773438 257.414062 C 158.460938 256.886719 159.203125 256.457031 160.003906 256.121094 C 171.355469 252.425781 182.96875 249.988281 194.847656 248.808594 C 206.722656 247.628906 218.589844 247.730469 230.445312 249.117188 C 234.515625 249.503906 238.523438 250.222656 242.46875 251.273438 C 246.417969 252.328125 250.253906 253.695312 253.972656 255.386719 C 257.695312 257.074219 261.25 259.058594 264.640625 261.339844 C 268.03125 263.621094 271.210938 266.164062 274.175781 268.972656 C 282.382812 277.257812 292.195312 278.695312 300.34375 272.90625 C 308.328125 267.234375 310.191406 257.835938 305.308594 247.410156 C 294.625 224.683594 283.9375 201.964844 273.246094 179.253906 Z M 268.34375 141.515625 C 271.214844 147.1875 269.667969 152.011719 262.808594 156.964844 L 253.164062 136.519531 C 260.863281 134.410156 265.605469 136.148438 268.34375 141.515625 Z M 71.3125 278.828125 C 70.144531 279.125 68.964844 279.367188 67.773438 279.558594 C 66.585938 279.746094 65.386719 279.882812 64.183594 279.960938 C 62.984375 280.042969 61.777344 280.070312 60.574219 280.039062 C 59.367188 280.011719 58.167969 279.929688 56.96875 279.789062 C 55.773438 279.652344 54.582031 279.460938 53.402344 279.214844 C 52.222656 278.96875 51.058594 278.667969 49.90625 278.316406 C 48.753906 277.964844 47.617188 277.5625 46.5 277.105469 C 45.386719 276.648438 44.292969 276.144531 43.222656 275.589844 C 42.152344 275.035156 41.109375 274.433594 40.09375 273.78125 C 39.078125 273.132812 38.097656 272.4375 37.144531 271.699219 C 36.191406 270.960938 35.277344 270.179688 34.394531 269.355469 C 33.511719 268.53125 32.671875 267.671875 31.871094 266.773438 C 31.066406 265.875 30.304688 264.9375 29.589844 263.972656 C 28.871094 263.003906 28.199219 262.003906 27.574219 260.972656 C 26.945312 259.945312 26.367188 258.886719 25.835938 257.804688 C 25.304688 256.722656 24.824219 255.621094 24.394531 254.492188 C 23.914062 253.390625 23.484375 252.265625 23.105469 251.125 C 22.726562 249.984375 22.398438 248.828125 22.121094 247.65625 C 21.84375 246.484375 21.617188 245.304688 21.445312 244.113281 C 21.273438 242.921875 21.152344 241.722656 21.089844 240.523438 C 21.023438 239.320312 21.007812 238.117188 21.050781 236.914062 C 21.089844 235.714844 21.183594 234.515625 21.332031 233.320312 C 21.476562 232.125 21.679688 230.941406 21.929688 229.761719 C 22.183594 228.585938 22.488281 227.421875 22.84375 226.273438 C 23.199219 225.125 23.605469 223.992188 24.058594 222.878906 C 24.515625 221.765625 25.019531 220.671875 25.574219 219.605469 C 26.128906 218.535156 26.726562 217.492188 27.371094 216.476562 C 28.019531 215.460938 28.707031 214.476562 29.441406 213.523438 C 30.171875 212.566406 30.945312 211.648438 31.761719 210.761719 C 32.578125 209.875 33.429688 209.027344 34.320312 208.21875 C 35.210938 207.410156 36.132812 206.640625 37.09375 205.910156 C 38.050781 205.183594 39.039062 204.5 40.058594 203.859375 C 51.8125 196.847656 64.640625 191.613281 77.671875 185.238281 C 89.683594 210.765625 101.386719 235.585938 113.527344 261.351562 C 99.792969 267.992188 85.71875 273.816406 71.3125 278.828125 Z M 151.015625 341 C 154.089844 347.546875 153.3125 352.417969 148.523438 354.546875 C 142.980469 357.007812 139.191406 354.492188 136.113281 349.675781 C 122.40625 328.179688 108.511719 306.78125 94.308594 284.765625 L 118.6875 273.230469 C 119.664062 274.9375 120.621094 276.386719 121.355469 277.957031 C 131.265625 298.957031 141.152344 319.972656 151.015625 341 Z M 134.371094 273.777344 C 133.425781 271.886719 132.421875 269.996094 131.0625 267.285156 L 143.742188 261.660156 C 147.511719 268.929688 146.625 269.996094 134.371094 273.777344 Z M 294.558594 259.707031 C 294.125 260.742188 293.40625 261.519531 292.410156 262.035156 C 289.628906 261.382812 285.949219 261.636719 284.199219 259.925781 C 280.917969 256.796875 277.410156 253.945312 273.679688 251.363281 C 269.953125 248.785156 266.042969 246.507812 261.960938 244.539062 C 257.875 242.570312 253.664062 240.929688 249.320312 239.617188 C 244.980469 238.304688 240.5625 237.339844 236.070312 236.71875 C 204.871094 231.515625 174.800781 236.769531 145.359375 247.039062 C 138.789062 249.332031 132.378906 252.078125 125.199219 254.890625 C 113.269531 229.53125 101.664062 204.855469 90.6875 181.550781 C 107.574219 169.789062 124.625 159.390625 139.949219 146.882812 C 162.058594 128.828125 179.316406 106.765625 185.679688 78.050781 C 187.015625 70.933594 187.5625 63.757812 187.324219 56.523438 C 187.324219 52.570312 185.988281 48.355469 190.8125 46.8125 C 196.285156 45.058594 197.550781 49.804688 199.265625 53.429688 C 216.984375 91.085938 234.691406 128.730469 252.398438 166.363281 C 265.582031 194.382812 278.777344 222.398438 291.976562 250.414062 C 292.449219 251.457031 292.792969 252.113281 293.339844 253.480469 C 295.125 257.996094 294.71875 259.292969 294.558594 259.71875 Z M 247.28125 36.207031 C 246.984375 35.574219 246.777344 34.910156 246.65625 34.222656 C 246.535156 33.53125 246.503906 32.835938 246.566406 32.140625 C 246.628906 31.441406 246.78125 30.765625 247.023438 30.109375 C 247.265625 29.453125 247.585938 28.835938 247.992188 28.265625 C 252.414062 21.644531 256.90625 15.027344 261.460938 8.554688 C 261.851562 7.96875 262.308594 7.441406 262.832031 6.96875 C 263.351562 6.496094 263.925781 6.09375 264.546875 5.765625 C 265.167969 5.433594 265.824219 5.1875 266.507812 5.019531 C 267.191406 4.851562 267.886719 4.769531 268.589844 4.773438 C 269.320312 4.800781 270.039062 4.917969 270.742188 5.125 C 271.445312 5.335938 272.113281 5.625 272.742188 6.003906 C 273.371094 6.378906 273.941406 6.828125 274.460938 7.347656 C 274.976562 7.871094 275.417969 8.445312 275.789062 9.078125 L 276.324219 9.875 L 276.097656 10.820312 C 276.027344 11.324219 275.949219 11.835938 275.898438 12.382812 C 275.804688 14.007812 275.363281 15.53125 274.574219 16.953125 C 270.082031 23.871094 265.308594 30.765625 260.777344 37.179688 C 259.96875 38.394531 258.910156 39.320312 257.601562 39.960938 C 256.980469 40.253906 256.332031 40.464844 255.652344 40.582031 C 254.976562 40.703125 254.292969 40.730469 253.609375 40.667969 C 252.925781 40.605469 252.261719 40.449219 251.617188 40.207031 C 250.972656 39.964844 250.371094 39.640625 249.816406 39.238281 C 248.707031 38.449219 247.855469 37.441406 247.261719 36.214844 Z M 370.421875 237.28125 L 369.855469 238.046875 L 368.910156 238.148438 C 368.410156 238.25 367.90625 238.351562 367.375 238.484375 C 365.820312 238.933594 364.242188 239.027344 362.644531 238.757812 C 354.609375 236.832031 346.53125 234.636719 338.96875 232.503906 C 337.558594 232.148438 336.332031 231.457031 335.292969 230.4375 C 334.808594 229.953125 334.398438 229.410156 334.058594 228.8125 C 333.71875 228.214844 333.46875 227.585938 333.300781 226.917969 C 333.128906 226.253906 333.054688 225.578125 333.066406 224.890625 C 333.078125 224.207031 333.183594 223.53125 333.378906 222.875 C 333.515625 222.378906 333.703125 221.902344 333.933594 221.445312 C 334.167969 220.984375 334.445312 220.554688 334.761719 220.148438 C 335.082031 219.746094 335.433594 219.375 335.824219 219.042969 C 336.21875 218.707031 336.636719 218.414062 337.085938 218.164062 C 337.535156 217.910156 338.003906 217.707031 338.492188 217.546875 C 338.980469 217.386719 339.480469 217.277344 339.992188 217.21875 C 340.503906 217.15625 341.015625 217.144531 341.527344 217.1875 C 342.042969 217.226562 342.546875 217.316406 343.039062 217.457031 C 350.765625 219.417969 358.492188 221.445312 366.117188 223.578125 C 366.800781 223.753906 367.453125 224.007812 368.074219 224.34375 C 368.695312 224.679688 369.265625 225.085938 369.785156 225.5625 C 370.308594 226.039062 370.761719 226.574219 371.148438 227.167969 C 371.535156 227.757812 371.84375 228.386719 372.074219 229.054688 C 372.292969 229.753906 372.421875 230.46875 372.460938 231.203125 C 372.5 231.933594 372.445312 232.660156 372.304688 233.378906 C 372.160156 234.097656 371.925781 234.785156 371.609375 235.449219 C 371.289062 236.109375 370.894531 236.71875 370.421875 237.28125 Z M 341.441406 109.890625 C 334.492188 114.347656 327.300781 118.664062 320.53125 122.65625 C 319.292969 123.425781 317.945312 123.832031 316.488281 123.878906 C 315.800781 123.890625 315.125 123.8125 314.457031 123.640625 C 313.789062 123.46875 313.15625 123.214844 312.558594 122.875 C 311.960938 122.535156 311.417969 122.121094 310.933594 121.632812 C 310.445312 121.144531 310.03125 120.601562 309.691406 120.003906 C 309.429688 119.558594 309.214844 119.09375 309.046875 118.605469 C 308.878906 118.117188 308.757812 117.617188 308.6875 117.105469 C 308.617188 116.59375 308.597656 116.078125 308.632812 115.566406 C 308.664062 115.050781 308.746094 114.542969 308.875 114.042969 C 309.007812 113.542969 309.1875 113.0625 309.414062 112.597656 C 309.640625 112.132812 309.910156 111.695312 310.226562 111.285156 C 310.539062 110.875 310.886719 110.5 311.277344 110.160156 C 311.664062 109.816406 312.082031 109.519531 312.527344 109.257812 C 319.296875 105.046875 326.109375 100.875 332.929688 96.855469 C 333.527344 96.480469 334.164062 96.183594 334.835938 95.96875 C 335.507812 95.753906 336.195312 95.625 336.902344 95.578125 C 337.605469 95.535156 338.304688 95.578125 339 95.707031 C 339.695312 95.839844 340.363281 96.050781 341.003906 96.347656 C 341.660156 96.675781 342.265625 97.078125 342.820312 97.558594 C 343.375 98.039062 343.859375 98.582031 344.277344 99.183594 C 344.695312 99.785156 345.035156 100.433594 345.289062 101.121094 C 345.542969 101.808594 345.710938 102.515625 345.789062 103.246094 L 345.949219 104.191406 L 345.347656 104.960938 C 345.074219 105.390625 344.800781 105.820312 344.523438 106.300781 C 343.769531 107.730469 342.742188 108.929688 341.441406 109.890625 Z M 341.441406 109.890625 " fill-opacity="1" fill-rule="nonzero"/></g></svg>