<svg xmlns="http://www.w3.org/2000/svg" xmlns:xlink="http://www.w3.org/1999/xlink" width="500" zoomAndPan="magnify" viewBox="0 0 375 374.999991" height="500" preserveAspectRatio="xMidYMid meet" version="1.0"><path fill="#333333" d="M 347.714844 126.355469 L 342.910156 104.371094 L 340.386719 105.226562 C 337.679688 106.167969 335.109375 107.394531 332.675781 108.90625 C 330.242188 110.417969 328 112.175781 325.957031 114.183594 C 323.914062 116.191406 322.113281 118.398438 320.558594 120.804688 C 319 123.210938 317.726562 125.757812 316.738281 128.449219 C 315.714844 131.644531 315.152344 134.925781 315.054688 138.28125 C 314.960938 141.636719 315.328125 144.941406 316.164062 148.195312 L 313.40625 151.574219 C 307.421875 146.621094 300.984375 142.347656 294.09375 138.753906 C 287.207031 135.164062 280.019531 132.328125 272.53125 130.253906 L 272.53125 78.988281 C 272.53125 62.191406 264.441406 54.007812 247.738281 54.007812 L 206.675781 54.007812 C 203.105469 39.253906 196.492188 34.257812 181.027344 34.257812 L 179.457031 34.210938 C 178.167969 34.148438 176.882812 34.179688 175.601562 34.304688 C 174.992188 34.4375 174.40625 34.375 173.839844 34.117188 C 173.648438 33.972656 173.363281 33.496094 173.222656 32.070312 C 173.113281 31.070312 172.964844 30.082031 172.769531 29.09375 C 172.574219 28.109375 172.339844 27.136719 172.058594 26.171875 C 171.78125 25.207031 171.460938 24.257812 171.097656 23.320312 C 170.734375 22.382812 170.335938 21.464844 169.890625 20.5625 C 169.449219 19.660156 168.96875 18.78125 168.453125 17.921875 C 167.933594 17.0625 167.378906 16.226562 166.785156 15.414062 C 166.195312 14.601562 165.570312 13.820312 164.910156 13.0625 C 164.25 12.304688 163.558594 11.578125 162.835938 10.882812 C 162.113281 10.183594 161.363281 9.519531 160.582031 8.890625 C 159.800781 8.257812 158.992188 7.664062 158.160156 7.101562 C 157.328125 6.539062 156.472656 6.015625 155.59375 5.53125 C 154.714844 5.042969 153.820312 4.597656 152.902344 4.1875 C 151.984375 3.78125 151.050781 3.410156 150.101562 3.085938 C 149.152344 2.757812 148.191406 2.472656 147.21875 2.230469 C 146.242188 1.984375 145.261719 1.785156 144.269531 1.628906 C 143.277344 1.46875 142.28125 1.355469 141.277344 1.285156 C 140.277344 1.214844 139.273438 1.1875 138.269531 1.203125 C 137.265625 1.21875 136.265625 1.28125 135.265625 1.382812 C 134.269531 1.488281 133.277344 1.632812 132.289062 1.824219 C 131.304688 2.015625 130.328125 2.246094 129.363281 2.523438 C 128.398438 2.796875 127.445312 3.113281 126.507812 3.472656 C 125.570312 3.828125 124.648438 4.226562 123.746094 4.664062 C 122.84375 5.101562 121.960938 5.578125 121.097656 6.09375 C 120.238281 6.609375 119.398438 7.160156 118.585938 7.75 C 117.769531 8.335938 116.984375 8.960938 116.226562 9.617188 C 115.464844 10.273438 114.734375 10.960938 114.035156 11.679688 C 113.335938 12.402344 112.667969 13.148438 112.035156 13.925781 C 111.398438 14.707031 110.800781 15.511719 110.234375 16.339844 C 109.671875 17.171875 109.144531 18.023438 108.652344 18.898438 C 108.164062 19.777344 107.714844 20.671875 107.300781 21.585938 C 106.890625 22.503906 106.515625 23.433594 106.1875 24.382812 C 105.855469 25.332031 105.566406 26.289062 105.320312 27.265625 C 105.089844 28.207031 104.914062 29.15625 104.796875 30.117188 C 104.558594 31.640625 104.273438 33.6875 103.652344 34.117188 C 102.09375 34.65625 100.507812 34.753906 98.894531 34.402344 C 97.964844 34.214844 97.03125 34.164062 96.085938 34.257812 C 81.335938 34.257812 74.246094 39.824219 71.199219 54.007812 L 29.421875 54.007812 C 13.625 54.023438 5.25 62.429688 5.25 78.371094 L 5.25 350.476562 C 5.175781 351.269531 5.148438 352.058594 5.160156 352.855469 C 5.175781 353.648438 5.234375 354.4375 5.335938 355.226562 C 5.4375 356.011719 5.582031 356.792969 5.765625 357.5625 C 5.953125 358.335938 6.183594 359.09375 6.453125 359.839844 C 6.722656 360.589844 7.03125 361.316406 7.382812 362.03125 C 7.734375 362.742188 8.121094 363.433594 8.546875 364.105469 C 8.972656 364.773438 9.433594 365.417969 9.929688 366.039062 C 10.425781 366.65625 10.957031 367.25 11.519531 367.808594 C 12.078125 368.371094 12.667969 368.898438 13.289062 369.398438 C 13.910156 369.894531 14.554688 370.355469 15.222656 370.78125 C 15.894531 371.207031 16.585938 371.59375 17.296875 371.945312 C 18.007812 372.292969 18.738281 372.605469 19.484375 372.875 C 20.234375 373.144531 20.992188 373.375 21.761719 373.558594 C 22.535156 373.746094 23.316406 373.890625 24.101562 373.992188 C 24.890625 374.09375 25.679688 374.152344 26.472656 374.164062 C 27.269531 374.179688 28.058594 374.152344 28.851562 374.078125 L 248.261719 374.078125 C 264.15625 374.078125 272.578125 365.703125 272.578125 349.859375 L 272.578125 329.113281 C 275.097656 328.421875 277.589844 327.636719 280.050781 326.757812 C 282.507812 325.878906 284.933594 324.90625 287.320312 323.84375 C 289.707031 322.78125 292.046875 321.625 294.347656 320.382812 C 296.644531 319.140625 298.894531 317.8125 301.089844 316.402344 C 303.289062 314.988281 305.429688 313.492188 307.511719 311.914062 C 309.59375 310.339844 311.617188 308.6875 313.574219 306.957031 C 315.53125 305.226562 317.421875 303.421875 319.242188 301.546875 C 321.0625 299.675781 322.808594 297.734375 324.480469 295.726562 C 326.152344 293.71875 327.746094 291.652344 329.261719 289.523438 C 330.777344 287.394531 332.207031 285.210938 333.558594 282.972656 C 334.90625 280.734375 336.167969 278.449219 337.34375 276.117188 C 338.515625 273.78125 339.601562 271.40625 340.59375 268.992188 C 341.589844 266.574219 342.488281 264.125 343.296875 261.640625 C 344.101562 259.152344 344.816406 256.640625 345.429688 254.101562 C 346.046875 251.5625 346.566406 249.003906 346.984375 246.425781 C 347.40625 243.847656 347.730469 241.257812 347.953125 238.652344 C 348.25 235.238281 348.378906 231.8125 348.339844 228.386719 C 348.300781 224.957031 348.097656 221.535156 347.726562 218.128906 C 347.355469 214.71875 346.820312 211.335938 346.121094 207.980469 C 345.417969 204.621094 344.554688 201.308594 343.53125 198.035156 C 342.507812 194.761719 341.328125 191.546875 339.992188 188.386719 C 338.652344 185.230469 337.167969 182.144531 335.527344 179.132812 C 333.890625 176.121094 332.109375 173.195312 330.1875 170.355469 C 328.265625 167.515625 326.207031 164.777344 324.015625 162.136719 L 326.871094 159.757812 C 330.789062 160.515625 334.726562 160.632812 338.683594 160.113281 C 342.636719 159.589844 346.410156 158.457031 350 156.710938 C 352.351562 155.488281 354.554688 154.03125 356.609375 152.34375 C 358.660156 150.660156 360.515625 148.777344 362.171875 146.707031 C 363.832031 144.632812 365.257812 142.410156 366.457031 140.039062 C 367.652344 137.671875 368.589844 135.203125 369.269531 132.636719 L 369.890625 130.113281 Z M 87.855469 71.089844 C 87.808594 66.378906 87.808594 61.621094 87.855469 56.910156 C 87.902344 52.484375 89.519531 50.914062 93.898438 50.816406 C 97.039062 50.722656 100.226562 50.769531 103.367188 50.769531 L 111.027344 50.769531 C 117.882812 50.675781 120.59375 47.914062 120.785156 41.015625 L 120.832031 39.015625 C 120.792969 37.25 120.871094 35.492188 121.070312 33.734375 C 121.195312 32.660156 121.417969 31.601562 121.734375 30.566406 C 122.050781 29.53125 122.457031 28.53125 122.957031 27.570312 C 123.453125 26.605469 124.035156 25.695312 124.699219 24.839844 C 125.359375 23.980469 126.09375 23.191406 126.898438 22.464844 C 127.707031 21.742188 128.570312 21.09375 129.492188 20.527344 C 130.414062 19.957031 131.382812 19.476562 132.390625 19.085938 C 133.402344 18.691406 134.4375 18.390625 135.5 18.1875 C 136.566406 17.980469 137.640625 17.871094 138.722656 17.859375 L 138.867188 17.859375 C 139.960938 17.859375 141.046875 17.960938 142.125 18.160156 C 143.203125 18.355469 144.253906 18.652344 145.277344 19.039062 C 146.300781 19.429688 147.28125 19.910156 148.214844 20.476562 C 149.152344 21.046875 150.03125 21.695312 150.847656 22.425781 C 151.664062 23.152344 152.410156 23.949219 153.082031 24.8125 C 153.753906 25.679688 154.34375 26.597656 154.847656 27.570312 C 155.355469 28.542969 155.765625 29.550781 156.085938 30.597656 C 156.410156 31.644531 156.632812 32.714844 156.757812 33.800781 C 156.949219 35.46875 156.949219 37.132812 156.996094 38.796875 C 156.996094 39.894531 156.996094 40.941406 157.042969 41.988281 C 156.992188 42.578125 157.003906 43.167969 157.082031 43.757812 C 157.160156 44.347656 157.304688 44.921875 157.507812 45.480469 C 157.710938 46.035156 157.976562 46.566406 158.296875 47.066406 C 158.617188 47.566406 158.988281 48.023438 159.414062 48.441406 C 159.835938 48.859375 160.296875 49.226562 160.800781 49.542969 C 161.304688 49.859375 161.835938 50.117188 162.398438 50.316406 C 162.957031 50.515625 163.53125 50.648438 164.121094 50.722656 C 164.710938 50.792969 165.300781 50.800781 165.894531 50.742188 C 169.175781 50.835938 172.414062 50.789062 175.648438 50.789062 C 178.265625 50.789062 180.882812 50.789062 183.5 50.835938 C 188.402344 50.886719 189.925781 52.40625 189.972656 57.402344 C 189.972656 62.972656 190.019531 68.539062 189.972656 74.105469 C 189.925781 78.769531 188.355469 80.386719 183.691406 80.386719 C 172.9375 80.433594 162.183594 80.386719 151.378906 80.386719 L 94.898438 80.386719 C 89.1875 80.386719 87.855469 79.007812 87.855469 73.15625 Z M 255.925781 350.269531 C 255.925781 356.074219 254.589844 357.453125 248.832031 357.453125 L 28.992188 357.453125 C 27.984375 357.582031 26.988281 357.523438 26.003906 357.277344 C 25.019531 357.03125 24.113281 356.613281 23.28125 356.023438 C 22.695312 355.1875 22.28125 354.273438 22.035156 353.277344 C 21.789062 352.285156 21.726562 351.28125 21.855469 350.269531 L 21.902344 278.320312 C 21.949219 243.679688 21.964844 209.035156 21.949219 174.394531 C 21.949219 154.933594 21.933594 135.4375 21.902344 115.914062 L 21.902344 78.132812 C 21.738281 77.058594 21.777344 75.992188 22.015625 74.933594 C 22.253906 73.875 22.675781 72.894531 23.28125 71.992188 C 24.207031 71.398438 25.203125 70.984375 26.277344 70.746094 C 27.347656 70.507812 28.429688 70.464844 29.515625 70.613281 L 71.199219 70.613281 L 71.199219 71.230469 C 71.199219 72.800781 71.199219 74.277344 71.25 75.753906 C 71.246094 76.445312 71.28125 77.132812 71.34375 77.820312 C 71.410156 78.507812 71.511719 79.191406 71.644531 79.867188 C 71.777344 80.546875 71.945312 81.21875 72.144531 81.878906 C 72.339844 82.539062 72.574219 83.191406 72.835938 83.828125 C 73.097656 84.46875 73.390625 85.09375 73.714844 85.703125 C 74.039062 86.3125 74.390625 86.90625 74.773438 87.484375 C 75.15625 88.058594 75.566406 88.613281 76.003906 89.148438 C 76.4375 89.683594 76.902344 90.199219 77.386719 90.6875 C 77.875 91.179688 78.382812 91.644531 78.917969 92.082031 C 79.449219 92.523438 80 92.9375 80.574219 93.324219 C 81.148438 93.707031 81.738281 94.066406 82.347656 94.394531 C 82.953125 94.722656 83.578125 95.019531 84.214844 95.285156 C 84.851562 95.554688 85.5 95.789062 86.160156 95.992188 C 86.820312 96.195312 87.488281 96.367188 88.167969 96.503906 C 88.84375 96.640625 89.527344 96.746094 90.214844 96.816406 C 90.902344 96.886719 91.589844 96.925781 92.28125 96.925781 C 122.496094 97.070312 153.855469 97.070312 185.5 96.925781 C 186.191406 96.925781 186.878906 96.890625 187.570312 96.820312 C 188.257812 96.75 188.941406 96.648438 189.617188 96.511719 C 190.296875 96.375 190.964844 96.203125 191.628906 96 C 192.289062 95.796875 192.941406 95.5625 193.578125 95.296875 C 194.214844 95.03125 194.839844 94.734375 195.449219 94.40625 C 196.058594 94.078125 196.652344 93.722656 197.226562 93.335938 C 197.800781 92.949219 198.355469 92.539062 198.886719 92.097656 C 199.421875 91.65625 199.933594 91.191406 200.421875 90.703125 C 200.90625 90.210938 201.371094 89.699219 201.808594 89.164062 C 202.246094 88.625 202.65625 88.070312 203.039062 87.496094 C 203.421875 86.917969 203.777344 86.324219 204.101562 85.714844 C 204.425781 85.105469 204.722656 84.480469 204.984375 83.839844 C 205.25 83.199219 205.480469 82.546875 205.679688 81.886719 C 205.878906 81.222656 206.046875 80.554688 206.179688 79.875 C 206.3125 79.195312 206.414062 78.511719 206.480469 77.824219 C 206.546875 77.132812 206.578125 76.445312 206.578125 75.753906 C 206.625 74.421875 206.578125 73.039062 206.578125 71.421875 L 206.578125 70.613281 L 247.359375 70.613281 C 255.066406 70.613281 255.925781 71.46875 255.925781 78.988281 L 255.925781 127.046875 C 252.335938 126.644531 248.738281 126.429688 245.128906 126.410156 C 241.515625 126.386719 237.917969 126.558594 234.324219 126.921875 C 230.734375 127.285156 227.171875 127.839844 223.636719 128.585938 C 220.105469 129.328125 216.621094 130.257812 213.1875 131.375 C 209.753906 132.488281 206.390625 133.785156 203.097656 135.261719 C 199.800781 136.734375 196.59375 138.382812 193.476562 140.199219 C 190.355469 142.019531 187.34375 143.996094 184.433594 146.136719 C 181.527344 148.277344 178.742188 150.5625 176.078125 153 L 134.867188 153 C 133.722656 152.976562 132.582031 153.023438 131.441406 153.144531 C 130.949219 153.195312 130.460938 153.289062 129.984375 153.425781 C 129.507812 153.566406 129.046875 153.746094 128.601562 153.972656 C 128.15625 154.195312 127.734375 154.457031 127.339844 154.757812 C 126.941406 155.054688 126.574219 155.390625 126.238281 155.757812 C 125.90625 156.125 125.605469 156.519531 125.339844 156.941406 C 125.078125 157.363281 124.855469 157.804688 124.671875 158.265625 C 124.488281 158.730469 124.347656 159.207031 124.253906 159.695312 C 124.15625 160.183594 124.105469 160.675781 124.101562 161.171875 C 124.09375 161.667969 124.132812 162.164062 124.21875 162.652344 C 124.304688 163.144531 124.429688 163.621094 124.601562 164.089844 C 124.773438 164.554688 124.988281 165.003906 125.242188 165.429688 C 125.496094 165.859375 125.785156 166.261719 126.113281 166.636719 C 126.441406 167.011719 126.796875 167.351562 127.1875 167.660156 C 127.578125 167.972656 127.992188 168.242188 128.429688 168.476562 C 128.871094 168.710938 129.328125 168.902344 129.800781 169.050781 C 130.273438 169.203125 130.757812 169.308594 131.253906 169.371094 C 132.183594 169.503906 133.121094 169.566406 134.058594 169.5625 L 161.46875 169.5625 C 158.886719 173.191406 156.554688 176.972656 154.46875 180.90625 C 152.382812 184.84375 150.5625 188.894531 149.007812 193.070312 C 147.453125 197.242188 146.179688 201.5 145.183594 205.839844 C 144.183594 210.179688 143.476562 214.566406 143.054688 219 L 134.773438 219 C 133.613281 218.976562 132.453125 219.023438 131.300781 219.144531 C 130.804688 219.199219 130.316406 219.300781 129.839844 219.449219 C 129.363281 219.59375 128.902344 219.78125 128.460938 220.011719 C 128.019531 220.242188 127.601562 220.507812 127.207031 220.816406 C 126.8125 221.125 126.453125 221.464844 126.121094 221.835938 C 125.789062 222.210938 125.496094 222.609375 125.238281 223.035156 C 124.980469 223.464844 124.765625 223.910156 124.589844 224.378906 C 124.414062 224.84375 124.28125 225.324219 124.191406 225.816406 C 124.105469 226.304688 124.0625 226.800781 124.066406 227.300781 C 124.070312 227.796875 124.117188 228.292969 124.210938 228.78125 C 124.304688 229.273438 124.441406 229.75 124.621094 230.214844 C 124.804688 230.679688 125.027344 231.125 125.289062 231.546875 C 125.550781 231.972656 125.851562 232.367188 126.183594 232.738281 C 126.519531 233.109375 126.886719 233.441406 127.285156 233.746094 C 127.679688 234.046875 128.101562 234.3125 128.546875 234.535156 C 128.992188 234.761719 129.453125 234.945312 129.933594 235.082031 C 130.410156 235.222656 130.898438 235.320312 131.394531 235.371094 C 132.058594 235.464844 132.722656 235.511719 133.394531 235.511719 L 142.71875 235.511719 C 143.21875 244.300781 144.808594 252.882812 147.492188 261.265625 C 150.175781 269.648438 153.867188 277.558594 158.566406 285 L 134.296875 285 C 134.058594 285 133.773438 284.953125 133.488281 284.953125 C 132.824219 284.808594 132.164062 284.808594 131.5 284.949219 C 130.835938 285.089844 130.230469 285.363281 129.683594 285.761719 L 129.015625 286.378906 C 126.832031 287.957031 125.261719 290.003906 124.304688 292.519531 C 124.0625 293.355469 124 294.203125 124.117188 295.0625 C 124.234375 295.925781 124.515625 296.726562 124.972656 297.46875 C 125.566406 298.398438 126.316406 299.175781 127.222656 299.804688 C 128.132812 300.433594 129.125 300.859375 130.207031 301.085938 C 131.710938 301.398438 133.234375 301.523438 134.773438 301.464844 L 171.652344 301.464844 C 174.039062 303.933594 176.539062 306.277344 179.160156 308.496094 C 181.78125 310.714844 184.503906 312.796875 187.335938 314.742188 C 190.164062 316.6875 193.082031 318.484375 196.09375 320.136719 C 199.101562 321.789062 202.1875 323.289062 205.347656 324.632812 C 208.507812 325.976562 211.726562 327.15625 215.003906 328.175781 C 218.28125 329.199219 221.601562 330.050781 224.964844 330.738281 C 228.328125 331.429688 231.71875 331.945312 235.132812 332.292969 C 238.550781 332.640625 241.972656 332.820312 245.40625 332.824219 C 248.921875 332.824219 252.429688 332.632812 255.925781 332.253906 Z M 311.3125 287.664062 C 306.109375 293.585938 300.222656 298.71875 293.652344 303.070312 C 287.082031 307.417969 280.058594 310.835938 272.578125 313.3125 C 267.15625 315.132812 261.605469 316.367188 255.925781 317.023438 C 253.761719 317.351562 251.589844 317.558594 249.40625 317.644531 C 244.550781 317.902344 239.710938 317.746094 234.882812 317.179688 C 230.058594 316.609375 225.3125 315.636719 220.652344 314.257812 C 215.992188 312.882812 211.480469 311.117188 207.121094 308.96875 C 202.761719 306.824219 198.617188 304.320312 194.683594 301.464844 C 191.894531 299.480469 189.242188 297.324219 186.734375 294.992188 C 183.375 291.882812 180.253906 288.550781 177.363281 285 C 174.511719 281.496094 171.941406 277.796875 169.65625 273.902344 C 167.367188 270.007812 165.390625 265.964844 163.71875 261.765625 C 162.046875 257.570312 160.707031 253.273438 159.691406 248.871094 C 158.675781 244.46875 158 240.015625 157.660156 235.511719 C 157.519531 234.132812 157.472656 232.707031 157.425781 231.324219 C 157.328125 227.203125 157.515625 223.097656 157.996094 219 C 158.527344 214.394531 159.429688 209.859375 160.695312 205.394531 C 161.960938 200.933594 163.574219 196.601562 165.539062 192.402344 C 167.503906 188.199219 169.792969 184.183594 172.410156 180.351562 C 175.023438 176.519531 177.925781 172.921875 181.121094 169.5625 C 181.523438 169.0625 181.953125 168.585938 182.40625 168.132812 C 188.203125 162.175781 194.703125 157.132812 201.914062 153 C 208.53125 149.199219 215.527344 146.3125 222.902344 144.347656 C 230.273438 142.378906 237.777344 141.394531 245.40625 141.390625 C 248.929688 141.375 252.433594 141.597656 255.925781 142.058594 C 260.195312 142.566406 264.410156 143.390625 268.558594 144.527344 C 272.710938 145.667969 276.753906 147.105469 280.6875 148.847656 C 284.625 150.589844 288.40625 152.613281 292.039062 154.921875 C 295.675781 157.230469 299.117188 159.792969 302.367188 162.613281 L 286.1875 178.171875 C 281.929688 174.9375 277.378906 172.195312 272.53125 169.941406 C 267.238281 167.445312 261.703125 165.734375 255.921875 164.800781 C 250.277344 163.882812 244.617188 163.757812 238.9375 164.421875 C 236.117188 164.683594 233.324219 165.128906 230.5625 165.753906 C 226.582031 166.628906 222.730469 167.878906 219 169.511719 C 213.621094 171.867188 208.667969 174.90625 204.132812 178.632812 C 199.597656 182.359375 195.65625 186.632812 192.304688 191.449219 C 189.355469 195.535156 186.914062 199.90625 184.984375 204.558594 C 183.054688 209.214844 181.6875 214.027344 180.882812 219 C 179.953125 224.480469 179.761719 229.984375 180.3125 235.511719 C 180.71875 239.519531 181.488281 243.457031 182.613281 247.328125 C 183.738281 251.195312 185.203125 254.929688 187.007812 258.53125 C 188.8125 262.132812 190.925781 265.542969 193.351562 268.757812 C 195.777344 271.976562 198.472656 274.945312 201.441406 277.671875 C 204.359375 280.429688 207.53125 282.855469 210.957031 284.953125 C 215.238281 287.667969 219.78125 289.839844 224.582031 291.464844 C 229.386719 293.089844 234.3125 294.121094 239.363281 294.566406 C 244.90625 295.128906 250.425781 294.957031 255.921875 294.042969 C 261.492188 293.175781 266.851562 291.597656 272.003906 289.304688 C 277.152344 287.011719 281.910156 284.085938 286.28125 280.527344 C 287.925781 279.199219 289.5 277.796875 291.007812 276.316406 C 292.515625 274.835938 293.949219 273.285156 295.308594 271.667969 C 296.667969 270.050781 297.949219 268.371094 299.144531 266.632812 C 300.34375 264.890625 301.457031 263.097656 302.480469 261.25 C 303.507812 259.40625 304.441406 257.511719 305.289062 255.578125 C 306.132812 253.640625 306.882812 251.667969 307.535156 249.65625 C 308.191406 247.648438 308.75 245.613281 309.207031 243.550781 C 309.667969 241.488281 310.027344 239.410156 310.289062 237.3125 C 310.546875 235.214844 310.707031 233.113281 310.765625 231 C 310.820312 228.886719 310.777344 226.777344 310.632812 224.671875 C 310.488281 222.5625 310.242188 220.464844 309.898438 218.382812 C 309.550781 216.296875 309.105469 214.234375 308.5625 212.195312 C 308.019531 210.152344 307.378906 208.140625 306.640625 206.160156 C 305.90625 204.179688 305.074219 202.242188 304.152344 200.339844 C 303.226562 198.441406 302.214844 196.589844 301.113281 194.785156 C 300.015625 192.980469 298.828125 191.234375 297.558594 189.546875 L 313.167969 173.796875 C 314.832031 175.777344 316.402344 177.832031 317.882812 179.957031 C 319.363281 182.082031 320.746094 184.265625 322.03125 186.511719 C 323.316406 188.761719 324.496094 191.0625 325.578125 193.414062 C 326.65625 195.765625 327.628906 198.164062 328.492188 200.601562 C 329.359375 203.042969 330.113281 205.515625 330.757812 208.023438 C 331.402344 210.53125 331.933594 213.0625 332.351562 215.617188 C 332.769531 218.171875 333.074219 220.738281 333.261719 223.320312 C 333.449219 225.902344 333.523438 228.488281 333.480469 231.078125 C 333.4375 233.664062 333.28125 236.246094 333.007812 238.820312 C 332.734375 241.394531 332.347656 243.953125 331.847656 246.492188 C 331.347656 249.03125 330.734375 251.542969 330.007812 254.027344 C 329.28125 256.511719 328.445312 258.960938 327.503906 261.371094 C 326.558594 263.78125 325.507812 266.144531 324.351562 268.460938 C 323.199219 270.777344 321.941406 273.039062 320.585938 275.242188 C 319.226562 277.449219 317.773438 279.585938 316.226562 281.660156 C 314.675781 283.734375 313.039062 285.738281 311.3125 287.664062 Z M 213.097656 267.871094 C 210.691406 265.839844 208.5 263.601562 206.515625 261.152344 C 204.53125 258.707031 202.796875 256.097656 201.304688 253.324219 C 199.816406 250.550781 198.597656 247.664062 197.652344 244.660156 C 196.707031 241.65625 196.050781 238.59375 195.683594 235.464844 C 195.585938 234.609375 195.492188 233.753906 195.445312 232.847656 C 195.117188 228.179688 195.46875 223.566406 196.492188 219 C 197.421875 214.617188 198.90625 210.433594 200.949219 206.449219 C 202.992188 202.460938 205.515625 198.808594 208.53125 195.496094 C 210.746094 193.070312 213.175781 190.890625 215.824219 188.949219 C 218.472656 187.007812 221.285156 185.34375 224.261719 183.960938 C 227.238281 182.574219 230.320312 181.496094 233.511719 180.722656 C 236.703125 179.949219 239.9375 179.496094 243.21875 179.363281 C 244.027344 179.316406 244.835938 179.316406 245.691406 179.316406 C 249.144531 179.289062 252.554688 179.65625 255.925781 180.410156 C 261.9375 181.605469 267.472656 183.9375 272.53125 187.40625 C 273.578125 188.117188 274.578125 188.878906 275.578125 189.6875 L 261.300781 203.964844 C 259.574219 203.046875 257.78125 202.285156 255.925781 201.679688 C 254.15625 201.027344 252.339844 200.535156 250.484375 200.210938 C 248.625 199.886719 246.753906 199.734375 244.867188 199.75 C 242.980469 199.765625 241.113281 199.953125 239.257812 200.308594 C 237.40625 200.664062 235.601562 201.1875 233.84375 201.871094 C 233.058594 202.207031 232.285156 202.574219 231.53125 202.976562 C 230.773438 203.378906 230.039062 203.8125 229.320312 204.277344 C 228.601562 204.742188 227.902344 205.238281 227.226562 205.761719 C 226.550781 206.285156 225.898438 206.839844 225.269531 207.421875 C 224.640625 208 224.039062 208.609375 223.464844 209.242188 C 222.886719 209.875 222.339844 210.53125 221.820312 211.210938 C 221.296875 211.890625 220.808594 212.589844 220.347656 213.3125 C 219.890625 214.03125 219.460938 214.773438 219.0625 215.53125 C 218.667969 216.289062 218.304688 217.0625 217.976562 217.851562 C 217.644531 218.644531 217.347656 219.445312 217.089844 220.261719 C 216.828125 221.074219 216.601562 221.898438 216.410156 222.734375 C 216.21875 223.570312 216.066406 224.410156 215.949219 225.257812 C 215.828125 226.105469 215.75 226.957031 215.703125 227.8125 C 215.660156 228.664062 215.648438 229.519531 215.679688 230.375 C 215.707031 231.230469 215.769531 232.082031 215.871094 232.933594 C 215.972656 233.785156 216.113281 234.628906 216.285156 235.464844 C 216.769531 237.941406 217.5625 240.3125 218.667969 242.578125 C 219.773438 244.84375 221.152344 246.929688 222.804688 248.835938 C 223.796875 249.988281 224.871094 251.058594 226.023438 252.046875 C 227.175781 253.035156 228.398438 253.933594 229.6875 254.738281 C 230.976562 255.542969 232.320312 256.242188 233.714844 256.84375 C 235.113281 257.445312 236.546875 257.9375 238.015625 258.324219 C 239.484375 258.707031 240.976562 258.980469 242.488281 259.140625 C 244 259.296875 245.515625 259.34375 247.03125 259.273438 C 248.550781 259.203125 250.054688 259.019531 251.546875 258.722656 C 253.035156 258.421875 254.496094 258.015625 255.925781 257.496094 C 257.535156 256.921875 259.074219 256.191406 260.539062 255.308594 C 262.035156 254.296875 263.425781 253.15625 264.707031 251.886719 C 265.992188 250.617188 267.148438 249.238281 268.171875 247.753906 C 269.199219 246.269531 270.078125 244.699219 270.808594 243.050781 C 271.542969 241.402344 272.117188 239.695312 272.53125 237.941406 C 273.054688 235.96875 273.402344 233.964844 273.582031 231.933594 C 273.757812 229.902344 273.757812 227.871094 273.585938 225.835938 C 273.410156 223.804688 273.066406 221.800781 272.546875 219.828125 C 272.023438 217.859375 271.339844 215.945312 270.488281 214.089844 L 285.046875 199.664062 C 297.847656 213.746094 300.226562 242.15625 284 261.425781 C 280.679688 265.371094 276.875 268.765625 272.578125 271.609375 C 267.449219 274.9375 261.898438 277.253906 255.925781 278.558594 C 253.699219 279.078125 251.445312 279.425781 249.167969 279.605469 C 245.921875 279.875 242.679688 279.824219 239.445312 279.449219 C 236.207031 279.074219 233.042969 278.378906 229.945312 277.371094 C 226.847656 276.363281 223.882812 275.054688 221.046875 273.453125 C 218.210938 271.851562 215.558594 269.984375 213.097656 267.851562 Z M 233.511719 220.761719 L 234.367188 219.621094 C 234.996094 218.867188 235.699219 218.195312 236.476562 217.597656 C 237.253906 217.003906 238.085938 216.5 238.972656 216.085938 C 239.863281 215.675781 240.785156 215.367188 241.742188 215.160156 C 242.699219 214.953125 243.667969 214.855469 244.644531 214.859375 C 245.933594 214.859375 247.203125 215.015625 248.453125 215.335938 L 240.886719 223.425781 C 240.648438 223.679688 240.335938 224.03125 239.992188 224.46875 C 239.992188 224.46875 239.578125 224.992188 239.269531 225.472656 C 238.691406 226.394531 238.320312 227.390625 238.152344 228.46875 C 237.988281 229.542969 238.042969 230.605469 238.316406 231.660156 C 238.746094 232.914062 239.460938 233.976562 240.457031 234.847656 C 240.816406 235.195312 241.199219 235.511719 241.609375 235.796875 C 242.105469 236.132812 242.636719 236.402344 243.199219 236.601562 C 243.265625 236.625 243.300781 236.664062 243.371094 236.6875 C 243.441406 236.710938 243.527344 236.6875 243.605469 236.726562 C 244.238281 236.925781 244.886719 237.035156 245.550781 237.058594 C 246.707031 236.957031 247.800781 236.636719 248.832031 236.101562 C 249.859375 235.566406 250.75 234.851562 251.5 233.964844 C 253.019531 232.347656 254.496094 230.636719 255.925781 229.015625 C 256.351562 228.542969 256.734375 228.113281 257.113281 227.636719 L 259.113281 225.640625 C 259.53125 226.847656 259.773438 228.09375 259.84375 229.371094 C 259.917969 230.648438 259.8125 231.910156 259.527344 233.160156 C 259.246094 234.40625 258.800781 235.59375 258.1875 236.714844 C 257.574219 237.839844 256.820312 238.859375 255.925781 239.773438 C 255.386719 240.316406 254.816406 240.824219 254.210938 241.292969 C 253.515625 241.804688 252.78125 242.25 252.007812 242.632812 C 251.238281 243.011719 250.4375 243.328125 249.609375 243.570312 C 248.785156 243.8125 247.941406 243.984375 247.085938 244.082031 C 246.230469 244.175781 245.371094 244.199219 244.511719 244.148438 C 243.652344 244.097656 242.800781 243.972656 241.964844 243.773438 C 241.125 243.574219 240.308594 243.304688 239.519531 242.960938 C 238.726562 242.621094 237.96875 242.214844 237.25 241.742188 C 236.527344 241.273438 235.855469 240.742188 235.222656 240.152344 C 233.796875 238.796875 232.703125 237.210938 231.941406 235.394531 C 231.445312 234.203125 231.109375 232.972656 230.921875 231.699219 C 230.738281 230.425781 230.714844 229.148438 230.851562 227.867188 C 230.988281 226.585938 231.285156 225.34375 231.734375 224.136719 C 232.183594 222.929688 232.777344 221.800781 233.511719 220.742188 Z M 341.148438 144.054688 C 339.582031 144.84375 337.921875 145.296875 336.171875 145.414062 C 334.421875 145.527344 332.71875 145.296875 331.058594 144.722656 C 329.109375 136.585938 329.824219 133.253906 333.628906 129.96875 L 335.816406 138.820312 L 344.90625 140.820312 C 343.886719 142.164062 342.632812 143.234375 341.148438 144.035156 Z M 40.699219 167.066406 C 40.125 166.492188 39.648438 165.851562 39.265625 165.136719 C 38.882812 164.421875 38.613281 163.667969 38.453125 162.871094 C 38.292969 162.078125 38.25 161.277344 38.324219 160.472656 C 38.398438 159.664062 38.589844 158.886719 38.894531 158.136719 C 39.199219 157.382812 39.605469 156.691406 40.113281 156.0625 C 40.621094 155.429688 41.207031 154.886719 41.875 154.429688 C 42.542969 153.96875 43.265625 153.617188 44.035156 153.371094 C 44.808594 153.125 45.597656 152.996094 46.410156 152.980469 C 47.574219 153.015625 48.6875 153.261719 49.757812 153.71875 C 50.828125 154.179688 51.773438 154.824219 52.59375 155.648438 C 55.925781 158.976562 59.113281 162.402344 62.445312 165.972656 L 65.394531 169.113281 L 89.617188 140.085938 C 90.710938 138.753906 91.804688 137.421875 92.996094 136.183594 C 93.328125 135.765625 93.699219 135.386719 94.105469 135.042969 C 94.515625 134.699219 94.953125 134.398438 95.421875 134.140625 C 95.890625 133.882812 96.378906 133.675781 96.886719 133.515625 C 97.394531 133.355469 97.914062 133.246094 98.445312 133.1875 C 98.976562 133.128906 99.507812 133.125 100.039062 133.171875 C 100.574219 133.21875 101.09375 133.320312 101.605469 133.46875 C 102.117188 133.621094 102.609375 133.820312 103.082031 134.070312 C 103.554688 134.320312 104 134.609375 104.414062 134.949219 C 105.277344 135.617188 105.980469 136.425781 106.523438 137.375 C 107.066406 138.320312 107.410156 139.335938 107.554688 140.417969 C 107.660156 141.582031 107.539062 142.71875 107.195312 143.832031 C 106.847656 144.941406 106.300781 145.949219 105.558594 146.84375 C 101.75 151.601562 97.800781 156.3125 93.898438 160.976562 L 84.429688 172.300781 C 80.71875 176.726562 77.007812 181.152344 73.390625 185.625 C 72.632812 186.710938 71.683594 187.59375 70.546875 188.273438 C 69.410156 188.953125 68.1875 189.371094 66.871094 189.527344 C 66.730469 189.566406 66.585938 189.582031 66.441406 189.574219 C 65.339844 189.535156 64.289062 189.289062 63.28125 188.835938 C 62.277344 188.382812 61.394531 187.757812 60.636719 186.957031 C 54.738281 181.34375 48.597656 175.203125 40.699219 167.066406 Z M 106.460938 211.53125 C 105.898438 212.582031 105.199219 213.53125 104.367188 214.386719 L 103.84375 215.003906 C 93.992188 226.851562 84.144531 238.667969 74.292969 250.453125 C 73.449219 251.789062 72.371094 252.886719 71.046875 253.75 C 69.726562 254.613281 68.289062 255.164062 66.726562 255.402344 L 66.441406 255.402344 C 64.90625 255.230469 63.460938 254.769531 62.105469 254.019531 C 60.753906 253.269531 59.597656 252.285156 58.636719 251.074219 C 52.785156 245.269531 47.171875 239.652344 41.554688 233.988281 C 41.078125 233.628906 40.644531 233.21875 40.253906 232.765625 C 39.867188 232.3125 39.527344 231.820312 39.246094 231.292969 C 38.960938 230.765625 38.734375 230.214844 38.570312 229.640625 C 38.402344 229.066406 38.300781 228.480469 38.261719 227.882812 C 38.222656 227.285156 38.246094 226.6875 38.332031 226.097656 C 38.421875 225.503906 38.570312 224.929688 38.78125 224.367188 C 38.996094 223.808594 39.261719 223.277344 39.589844 222.773438 C 39.914062 222.273438 40.289062 221.8125 40.714844 221.390625 C 41.140625 220.96875 41.605469 220.597656 42.109375 220.273438 C 42.617188 219.953125 43.148438 219.6875 43.710938 219.480469 C 44.273438 219.273438 44.847656 219.128906 45.441406 219.046875 C 46.035156 218.960938 46.628906 218.941406 47.226562 218.988281 C 47.824219 219.03125 48.410156 219.140625 48.984375 219.3125 C 49.558594 219.480469 50.105469 219.710938 50.632812 220 C 51.15625 220.289062 51.644531 220.628906 52.09375 221.023438 C 52.546875 221.414062 52.953125 221.851562 53.308594 222.332031 C 56.402344 225.425781 59.449219 228.566406 62.683594 231.847656 L 65.585938 234.894531 L 90.140625 205.488281 C 91.257812 204.058594 92.460938 202.710938 93.753906 201.441406 C 94.105469 201.0625 94.484375 200.71875 94.902344 200.414062 C 95.320312 200.109375 95.761719 199.847656 96.230469 199.628906 C 96.695312 199.410156 97.183594 199.242188 97.683594 199.121094 C 98.183594 199 98.695312 198.929688 99.210938 198.910156 C 99.726562 198.890625 100.238281 198.921875 100.746094 199.003906 C 101.257812 199.085938 101.753906 199.214844 102.238281 199.398438 C 102.722656 199.578125 103.183594 199.804688 103.621094 200.074219 C 104.058594 200.347656 104.464844 200.660156 104.84375 201.015625 C 105.222656 201.320312 105.566406 201.660156 105.882812 202.03125 C 106.199219 202.402344 106.476562 202.800781 106.71875 203.222656 C 106.964844 203.644531 107.164062 204.085938 107.324219 204.546875 C 107.488281 205.007812 107.605469 205.480469 107.679688 205.960938 C 107.753906 206.441406 107.78125 206.925781 107.765625 207.414062 C 107.75 207.902344 107.691406 208.382812 107.585938 208.859375 C 107.484375 209.335938 107.335938 209.796875 107.148438 210.246094 C 106.957031 210.695312 106.730469 211.125 106.460938 211.53125 Z M 104.746094 267.203125 C 108.507812 270.488281 108.410156 275.4375 104.558594 280.148438 C 101.941406 283.335938 99.324219 286.476562 96.707031 289.570312 L 87.425781 300.75 C 82.90625 306.128906 78.386719 311.535156 73.867188 316.976562 C 73.042969 318.183594 72.007812 319.167969 70.765625 319.929688 C 69.519531 320.695312 68.175781 321.167969 66.726562 321.355469 C 66.621094 321.390625 66.507812 321.40625 66.394531 321.402344 C 65.046875 321.289062 63.769531 320.921875 62.566406 320.304688 C 61.363281 319.6875 60.324219 318.863281 59.449219 317.835938 C 53.402344 311.839844 47.359375 305.84375 41.414062 299.800781 C 40.449219 298.890625 39.699219 297.828125 39.160156 296.613281 C 38.625 295.402344 38.34375 294.128906 38.320312 292.804688 C 38.355469 291.722656 38.601562 290.691406 39.054688 289.707031 C 39.507812 288.726562 40.136719 287.871094 40.9375 287.140625 C 41.363281 286.757812 41.824219 286.421875 42.320312 286.132812 C 42.8125 285.84375 43.332031 285.605469 43.875 285.421875 C 44.417969 285.238281 44.976562 285.109375 45.542969 285.039062 C 46.113281 284.964844 46.683594 284.953125 47.253906 284.996094 C 47.828125 285.042969 48.390625 285.144531 48.941406 285.300781 C 49.492188 285.460938 50.019531 285.671875 50.527344 285.9375 C 51.035156 286.207031 51.511719 286.519531 51.957031 286.882812 C 52.402344 287.246094 52.804688 287.648438 53.167969 288.09375 C 56.355469 291.28125 59.449219 294.515625 62.683594 297.894531 L 65.585938 300.941406 L 90.042969 271.582031 C 90.566406 270.914062 91.136719 270.25 91.710938 269.582031 C 92.59375 268.375 93.671875 267.386719 94.949219 266.609375 C 96.230469 265.835938 97.605469 265.335938 99.085938 265.109375 C 100.132812 265.058594 101.148438 265.214844 102.128906 265.578125 C 103.113281 265.941406 103.988281 266.484375 104.746094 267.203125 Z M 104.746094 267.203125 " fill-opacity="1" fill-rule="nonzero"/></svg>