<svg xmlns="http://www.w3.org/2000/svg" xmlns:xlink="http://www.w3.org/1999/xlink" width="500" zoomAndPan="magnify" viewBox="0 0 375 374.999991" height="500" preserveAspectRatio="xMidYMid meet" version="1.0"><defs><clipPath id="4a21ecd210"><path d="M 0 21.136719 L 375 21.136719 L 375 354 L 0 354 Z M 0 21.136719 " clip-rule="nonzero"/></clipPath></defs><g clip-path="url(#4a21ecd210)"><path fill="#333333" d="M 239.503906 148.203125 C 239.507812 146.863281 239.335938 145.546875 238.988281 144.25 C 238.640625 142.957031 238.128906 141.730469 237.457031 140.570312 C 236.78125 139.410156 235.964844 138.363281 235.011719 137.421875 C 234.054688 136.480469 232.992188 135.679688 231.824219 135.019531 L 147.226562 87.496094 C 146.65625 87.175781 146.070312 86.894531 145.464844 86.652344 C 144.859375 86.410156 144.238281 86.207031 143.605469 86.046875 C 142.972656 85.882812 142.332031 85.761719 141.6875 85.683594 C 141.039062 85.605469 140.386719 85.570312 139.734375 85.574219 C 139.082031 85.582031 138.433594 85.628906 137.785156 85.71875 C 137.140625 85.8125 136.5 85.941406 135.871094 86.117188 C 135.242188 86.289062 134.628906 86.503906 134.027344 86.757812 C 133.425781 87.011719 132.84375 87.300781 132.277344 87.632812 C 131.714844 87.960938 131.175781 88.328125 130.660156 88.726562 C 130.144531 89.125 129.65625 89.558594 129.195312 90.019531 C 128.734375 90.484375 128.308594 90.976562 127.910156 91.496094 C 127.515625 92.011719 127.15625 92.554688 126.828125 93.121094 C 126.503906 93.6875 126.21875 94.273438 125.96875 94.875 C 125.71875 95.480469 125.511719 96.097656 125.339844 96.726562 C 125.171875 97.355469 125.046875 97.996094 124.960938 98.644531 C 124.875 99.289062 124.832031 99.941406 124.828125 100.59375 L 124.828125 194.195312 C 124.835938 195.175781 124.9375 196.152344 125.136719 197.117188 C 125.332031 198.078125 125.621094 199.015625 126 199.921875 C 126.382812 200.832031 126.84375 201.695312 127.394531 202.511719 C 127.941406 203.328125 128.5625 204.085938 129.261719 204.78125 C 129.957031 205.476562 130.710938 206.097656 131.53125 206.644531 C 132.347656 207.195312 133.207031 207.660156 134.117188 208.039062 C 135.023438 208.417969 135.960938 208.707031 136.925781 208.902344 C 137.886719 209.101562 138.863281 209.203125 139.847656 209.210938 C 142.398438 209.1875 144.804688 208.578125 147.054688 207.375 L 231.65625 161.300781 C 232.832031 160.65625 233.90625 159.871094 234.871094 158.941406 C 235.839844 158.011719 236.667969 156.96875 237.359375 155.820312 C 238.050781 154.667969 238.574219 153.445312 238.941406 152.15625 C 239.304688 150.863281 239.492188 149.546875 239.503906 148.203125 Z M 225.511719 150.039062 L 140.914062 196.113281 C 140.574219 196.304688 140.210938 196.398438 139.820312 196.390625 C 139.429688 196.382812 139.070312 196.277344 138.738281 196.070312 C 138.390625 195.886719 138.117188 195.628906 137.914062 195.289062 C 137.714844 194.953125 137.621094 194.585938 137.628906 194.195312 L 137.628906 100.59375 C 137.617188 100.195312 137.714844 99.824219 137.914062 99.476562 C 138.113281 99.132812 138.386719 98.863281 138.738281 98.671875 C 139.082031 98.484375 139.453125 98.386719 139.847656 98.375 C 140.238281 98.363281 140.609375 98.445312 140.957031 98.628906 L 225.554688 146.15625 C 225.910156 146.355469 226.191406 146.628906 226.398438 146.980469 C 226.605469 147.332031 226.707031 147.710938 226.707031 148.117188 C 226.699219 148.523438 226.589844 148.898438 226.375 149.246094 C 226.160156 149.589844 225.875 149.855469 225.511719 150.039062 Z M 344.625 214.585938 L 344.625 58.058594 C 344.625 56.855469 344.5625 55.65625 344.445312 54.460938 C 344.328125 53.265625 344.152344 52.078125 343.917969 50.898438 C 343.679688 49.722656 343.390625 48.554688 343.039062 47.40625 C 342.691406 46.257812 342.285156 45.125 341.828125 44.015625 C 341.367188 42.90625 340.855469 41.820312 340.289062 40.757812 C 339.722656 39.699219 339.105469 38.667969 338.4375 37.671875 C 337.769531 36.671875 337.054688 35.707031 336.292969 34.777344 C 335.53125 33.847656 334.722656 32.957031 333.875 32.105469 C 333.027344 31.257812 332.136719 30.449219 331.207031 29.6875 C 330.28125 28.921875 329.316406 28.207031 328.316406 27.539062 C 327.316406 26.871094 326.289062 26.25 325.230469 25.683594 C 324.171875 25.117188 323.085938 24.601562 321.976562 24.140625 C 320.867188 23.679688 319.734375 23.273438 318.585938 22.921875 C 317.4375 22.574219 316.273438 22.28125 315.09375 22.042969 C 313.914062 21.808594 312.726562 21.628906 311.53125 21.507812 C 310.335938 21.390625 309.136719 21.328125 307.933594 21.328125 L 36.730469 21.328125 C 35.53125 21.328125 34.328125 21.386719 33.132812 21.507812 C 31.9375 21.625 30.746094 21.800781 29.566406 22.039062 C 28.386719 22.273438 27.222656 22.566406 26.074219 22.914062 C 24.921875 23.265625 23.789062 23.671875 22.679688 24.128906 C 21.570312 24.589844 20.484375 25.105469 19.421875 25.671875 C 18.363281 26.238281 17.332031 26.859375 16.332031 27.527344 C 15.332031 28.195312 14.367188 28.910156 13.4375 29.671875 C 12.507812 30.4375 11.617188 31.242188 10.765625 32.09375 C 9.917969 32.945312 9.109375 33.835938 8.347656 34.765625 C 7.582031 35.695312 6.867188 36.660156 6.199219 37.660156 C 5.53125 38.660156 4.914062 39.6875 4.347656 40.75 C 3.777344 41.808594 3.265625 42.894531 2.804688 44.007812 C 2.34375 45.117188 1.9375 46.25 1.589844 47.398438 C 1.238281 48.550781 0.945312 49.714844 0.710938 50.894531 C 0.476562 52.074219 0.296875 53.261719 0.179688 54.460938 C 0.0625 55.65625 0 56.855469 0 58.058594 L 0 236.726562 C 0.00390625 237.929688 0.0625 239.128906 0.183594 240.324219 C 0.300781 241.519531 0.480469 242.707031 0.714844 243.886719 C 0.953125 245.066406 1.246094 246.230469 1.597656 247.378906 C 1.945312 248.527344 2.351562 249.660156 2.8125 250.769531 C 3.273438 251.878906 3.789062 252.960938 4.355469 254.023438 C 4.925781 255.082031 5.542969 256.109375 6.210938 257.109375 C 6.878906 258.109375 7.597656 259.070312 8.359375 260 C 9.121094 260.929688 9.929688 261.816406 10.78125 262.667969 C 11.628906 263.515625 12.519531 264.324219 13.449219 265.085938 C 14.378906 265.847656 15.34375 266.5625 16.34375 267.230469 C 17.34375 267.898438 18.371094 268.511719 19.433594 269.078125 C 20.492188 269.644531 21.578125 270.160156 22.6875 270.621094 C 23.800781 271.078125 24.929688 271.484375 26.078125 271.832031 C 27.230469 272.183594 28.394531 272.472656 29.574219 272.707031 C 30.75 272.945312 31.9375 273.121094 33.136719 273.238281 C 34.332031 273.355469 35.53125 273.417969 36.730469 273.417969 L 173.464844 273.417969 C 173.519531 275.046875 173.675781 276.667969 173.933594 278.28125 C 174.328125 280.5625 174.941406 282.785156 175.769531 284.949219 C 176.601562 287.109375 177.632812 289.171875 178.867188 291.132812 C 180.097656 293.09375 181.507812 294.917969 183.097656 296.601562 C 184.6875 298.285156 186.425781 299.800781 188.3125 301.148438 C 191.242188 303.292969 194.429688 304.941406 197.875 306.09375 C 201.320312 307.242188 204.859375 307.84375 208.488281 307.886719 C 209.082031 307.828125 209.652344 307.914062 210.195312 308.152344 C 210.742188 308.386719 211.199219 308.738281 211.5625 309.210938 C 211.816406 309.601562 212.03125 310.011719 212.203125 310.449219 C 216.980469 322.949219 221.972656 335.40625 226.835938 347.863281 C 227.988281 350.847656 229.179688 352.597656 230.84375 353.28125 C 230.886719 353.28125 230.886719 353.28125 230.929688 353.324219 C 231.996094 353.574219 233.074219 353.628906 234.160156 353.488281 C 235.246094 353.351562 236.273438 353.023438 237.242188 352.511719 C 243.730469 350.039062 250.257812 347.480469 256.699219 344.832031 C 256.941406 344.789062 257.183594 344.726562 257.421875 344.652344 C 257.660156 344.578125 257.890625 344.488281 258.117188 344.382812 C 258.34375 344.28125 258.5625 344.164062 258.777344 344.03125 C 258.988281 343.902344 259.191406 343.757812 259.386719 343.601562 C 259.582031 343.445312 259.765625 343.277344 259.9375 343.101562 C 260.113281 342.921875 260.273438 342.734375 260.425781 342.535156 C 260.578125 342.335938 260.714844 342.128906 260.839844 341.914062 C 260.964844 341.699219 261.078125 341.476562 261.175781 341.246094 C 261.273438 341.015625 261.355469 340.78125 261.425781 340.542969 C 261.492188 340.304688 261.546875 340.0625 261.585938 339.816406 C 261.625 339.570312 261.648438 339.320312 261.65625 339.070312 C 261.667969 338.824219 261.660156 338.574219 261.636719 338.324219 C 261.613281 338.078125 261.578125 337.832031 261.527344 337.589844 C 261.472656 337.34375 261.40625 337.105469 261.324219 336.871094 C 261.242188 336.632812 261.144531 336.40625 261.035156 336.179688 C 260.925781 335.957031 260.800781 335.742188 260.664062 335.535156 C 255.675781 322.734375 250.640625 309.980469 245.308594 296.371094 C 247.011719 296.328125 248.71875 296.242188 250.425781 296.199219 C 278.015625 295.21875 305.617188 294.25 333.234375 293.296875 C 338.3125 293.085938 343.386719 292.914062 348.464844 292.742188 C 352.902344 292.574219 357.335938 292.402344 361.773438 292.273438 L 373.25 291.890625 L 373.25 291.847656 C 373.847656 291.847656 374.488281 291.804688 375.085938 291.804688 C 364.933594 266.035156 354.777344 240.296875 344.625 214.585938 Z M 175 260.617188 L 36.730469 260.617188 C 35.949219 260.617188 35.167969 260.578125 34.390625 260.503906 C 33.609375 260.425781 32.835938 260.3125 32.070312 260.160156 C 31.300781 260.003906 30.542969 259.816406 29.792969 259.589844 C 29.042969 259.359375 28.308594 259.097656 27.585938 258.796875 C 26.859375 258.5 26.152344 258.164062 25.464844 257.796875 C 24.773438 257.425781 24.101562 257.027344 23.449219 256.589844 C 22.800781 256.15625 22.171875 255.691406 21.566406 255.195312 C 20.960938 254.699219 20.378906 254.175781 19.824219 253.621094 C 19.273438 253.066406 18.746094 252.488281 18.25 251.882812 C 17.75 251.28125 17.285156 250.652344 16.847656 250.003906 C 16.414062 249.351562 16.011719 248.679688 15.640625 247.992188 C 15.269531 247.300781 14.9375 246.59375 14.636719 245.871094 C 14.335938 245.148438 14.070312 244.414062 13.839844 243.664062 C 13.613281 242.917969 13.421875 242.15625 13.265625 241.390625 C 13.113281 240.621094 12.996094 239.847656 12.917969 239.070312 C 12.839844 238.292969 12.800781 237.511719 12.796875 236.726562 L 12.796875 58.058594 C 12.800781 57.273438 12.839844 56.492188 12.914062 55.714844 C 12.992188 54.933594 13.109375 54.160156 13.261719 53.390625 C 13.414062 52.621094 13.605469 51.863281 13.832031 51.113281 C 14.0625 50.363281 14.324219 49.625 14.625 48.902344 C 14.925781 48.179688 15.261719 47.472656 15.628906 46.78125 C 16 46.089844 16.402344 45.417969 16.835938 44.765625 C 17.273438 44.113281 17.738281 43.484375 18.238281 42.878906 C 18.734375 42.273438 19.257812 41.695312 19.8125 41.140625 C 20.367188 40.585938 20.949219 40.058594 21.554688 39.5625 C 22.160156 39.066406 22.789062 38.601562 23.4375 38.164062 C 24.089844 37.730469 24.761719 37.324219 25.453125 36.957031 C 26.144531 36.585938 26.851562 36.253906 27.574219 35.953125 C 28.300781 35.652344 29.035156 35.386719 29.785156 35.160156 C 30.535156 34.933594 31.296875 34.742188 32.0625 34.589844 C 32.832031 34.433594 33.605469 34.320312 34.386719 34.242188 C 35.167969 34.164062 35.949219 34.125 36.730469 34.125 L 307.933594 34.125 C 308.71875 34.125 309.5 34.164062 310.277344 34.242188 C 311.058594 34.320312 311.832031 34.4375 312.597656 34.589844 C 313.367188 34.742188 314.125 34.933594 314.875 35.164062 C 315.625 35.390625 316.359375 35.65625 317.082031 35.953125 C 317.808594 36.253906 318.511719 36.589844 319.203125 36.960938 C 319.894531 37.328125 320.566406 37.734375 321.214844 38.167969 C 321.867188 38.605469 322.492188 39.070312 323.097656 39.566406 C 323.703125 40.066406 324.28125 40.589844 324.835938 41.144531 C 325.390625 41.699219 325.914062 42.28125 326.410156 42.886719 C 326.90625 43.492188 327.371094 44.121094 327.804688 44.769531 C 328.242188 45.421875 328.640625 46.09375 329.011719 46.785156 C 329.378906 47.476562 329.714844 48.183594 330.011719 48.90625 C 330.3125 49.632812 330.574219 50.367188 330.800781 51.117188 C 331.027344 51.867188 331.21875 52.625 331.371094 53.394531 C 331.523438 54.160156 331.636719 54.9375 331.710938 55.714844 C 331.789062 56.496094 331.828125 57.277344 331.824219 58.058594 L 331.824219 182.121094 C 327.261719 170.558594 322.695312 158.953125 318.132812 147.394531 C 317.980469 147.433594 317.839844 147.488281 317.703125 147.5625 C 317.492188 147.734375 317.234375 147.949219 316.9375 148.203125 C 315.273438 149.65625 312.160156 152.300781 308.105469 155.753906 C 305.160156 158.273438 301.707031 161.214844 297.953125 164.414062 C 294.835938 167.0625 291.46875 169.917969 287.96875 172.90625 C 265.742188 191.71875 238.523438 214.800781 232.636719 219.535156 C 230.589844 221.199219 228.925781 222.394531 227.945312 223.074219 C 223.402344 226.238281 218.613281 228.953125 213.566406 231.222656 C 205.714844 234.722656 204.011719 234.851562 197.226562 237.582031 C 194.621094 238.53125 192.15625 239.761719 189.832031 241.273438 C 187.507812 242.785156 185.382812 244.539062 183.457031 246.535156 C 181.53125 248.53125 179.855469 250.71875 178.425781 253.097656 C 177 255.472656 175.855469 257.980469 175 260.617188 Z M 211.347656 296.070312 C 209.855469 296.324219 208.351562 296.414062 206.835938 296.335938 C 205.324219 296.257812 203.835938 296.015625 202.375 295.613281 C 200.917969 295.207031 199.519531 294.644531 198.183594 293.933594 C 196.84375 293.21875 195.601562 292.367188 194.453125 291.378906 C 194.324219 291.328125 194.222656 291.242188 194.15625 291.121094 C 192.261719 289.554688 190.628906 287.75 189.257812 285.710938 C 187.886719 283.671875 186.832031 281.476562 186.09375 279.132812 C 185.65625 277.808594 185.339844 276.457031 185.140625 275.078125 C 184.941406 273.699219 184.859375 272.3125 184.902344 270.921875 C 184.941406 269.527344 185.101562 268.148438 185.378906 266.785156 C 185.660156 265.417969 186.054688 264.085938 186.566406 262.789062 C 187.074219 261.496094 187.691406 260.25 188.417969 259.0625 C 189.144531 257.871094 189.96875 256.753906 190.886719 255.707031 C 191.804688 254.660156 192.808594 253.699219 193.894531 252.828125 C 194.980469 251.953125 196.132812 251.179688 197.355469 250.507812 C 205.714844 246.371094 214.460938 243.210938 223.550781 239.371094 C 223.761719 239.886719 223.976562 240.4375 224.1875 240.953125 C 230.078125 255.882812 235.878906 270.644531 242.066406 286.34375 C 232.003906 290.144531 221.761719 293.386719 211.347656 296.070312 Z M 248.335938 335.660156 C 244.539062 337.195312 240.914062 338.691406 236.859375 340.355469 C 236.699219 340.398438 236.542969 340.457031 236.390625 340.523438 C 231.785156 328.835938 227.304688 317.445312 222.652344 305.753906 C 226.621094 304.132812 230.375 302.640625 234.597656 300.976562 C 234.726562 301.316406 234.898438 301.703125 235.027344 302.042969 C 239.460938 313.261719 243.8125 324.269531 248.335938 335.660156 Z M 356.910156 279.433594 C 352.390625 279.601562 347.867188 279.730469 343.34375 279.859375 C 339.292969 279.988281 335.238281 280.074219 331.1875 280.199219 C 305.332031 280.96875 279.480469 281.722656 253.625 282.460938 C 253.15625 281.863281 252.730469 281.222656 252.304688 280.585938 C 252.132812 280.328125 251.960938 280.113281 251.792969 279.859375 C 247.824219 269.40625 244.367188 260.40625 241.636719 253.367188 C 239.890625 248.800781 238.394531 245.003906 237.285156 242.230469 C 236.050781 239.289062 235.238281 237.410156 234.898438 236.8125 C 234.359375 235.929688 234.175781 234.976562 234.34375 233.953125 C 234.546875 233.203125 234.957031 232.589844 235.582031 232.121094 C 252.515625 218.042969 269.453125 203.992188 286.390625 189.96875 C 288.695312 188.050781 291 186.128906 293.34375 184.167969 C 296.460938 181.609375 299.574219 179.007812 302.6875 176.445312 C 306.101562 173.585938 309.554688 170.730469 313.011719 167.828125 C 313.207031 167.699219 313.390625 167.558594 313.566406 167.402344 C 314.292969 169.238281 315.015625 171.113281 315.742188 172.949219 C 319.285156 181.949219 322.78125 190.910156 326.324219 199.867188 C 327.988281 204.175781 329.734375 208.484375 331.398438 212.792969 C 340.144531 234.980469 348.890625 257.25 357.59375 279.433594 Z M 356.910156 279.433594 " fill-opacity="1" fill-rule="nonzero"/></g></svg>