<svg xmlns="http://www.w3.org/2000/svg" xmlns:xlink="http://www.w3.org/1999/xlink" width="155" zoomAndPan="magnify" viewBox="0 0 116.25 135.000003" height="180" preserveAspectRatio="xMidYMid meet" version="1.0"><defs><clipPath id="a7681a6a8c"><path d="M 1.824219 1.878906 L 113.5 1.878906 L 113.5 132.164062 L 1.824219 132.164062 Z M 1.824219 1.878906 " clip-rule="nonzero"/></clipPath></defs><g clip-path="url(#a7681a6a8c)"><path fill="#383849" d="M 74.941406 42.355469 C 77.351562 42.355469 79.328125 44.328125 79.328125 46.742188 C 79.328125 49.152344 77.351562 51.128906 74.941406 51.128906 C 72.527344 51.128906 70.554688 49.152344 70.554688 46.742188 C 70.554688 44.328125 72.484375 42.355469 74.941406 42.355469 Z M 40.558594 42.355469 C 42.96875 42.355469 44.945312 44.328125 44.945312 46.742188 C 44.945312 49.152344 42.96875 51.128906 40.558594 51.128906 C 38.144531 51.128906 36.171875 49.152344 36.171875 46.742188 C 36.171875 44.328125 38.144531 42.355469 40.558594 42.355469 Z M 6.21875 42.355469 C 8.632812 42.355469 10.605469 44.328125 10.605469 46.742188 C 10.605469 49.152344 8.632812 51.128906 6.21875 51.128906 C 3.808594 51.128906 1.835938 49.152344 1.835938 46.742188 C 1.835938 44.328125 3.808594 42.355469 6.21875 42.355469 Z M 109.28125 42.355469 C 111.691406 42.355469 113.664062 44.328125 113.664062 46.742188 C 113.664062 49.152344 111.691406 51.128906 109.28125 51.128906 C 106.867188 51.128906 104.894531 49.152344 104.894531 46.742188 C 104.894531 44.328125 106.867188 42.355469 109.28125 42.355469 Z M 74.941406 82.878906 C 77.351562 82.878906 79.328125 84.851562 79.328125 87.265625 C 79.328125 89.675781 77.351562 91.648438 74.941406 91.648438 C 72.527344 91.648438 70.554688 89.675781 70.554688 87.265625 C 70.554688 84.851562 72.484375 82.878906 74.941406 82.878906 Z M 40.558594 82.878906 C 42.96875 82.878906 44.945312 84.851562 44.945312 87.265625 C 44.945312 89.675781 42.96875 91.648438 40.558594 91.648438 C 38.144531 91.648438 36.171875 89.675781 36.171875 87.265625 C 36.171875 84.851562 38.144531 82.878906 40.558594 82.878906 Z M 6.21875 82.878906 C 8.632812 82.878906 10.605469 84.851562 10.605469 87.265625 C 10.605469 89.675781 8.632812 91.648438 6.21875 91.648438 C 3.808594 91.648438 1.835938 89.675781 1.835938 87.265625 C 1.835938 84.851562 3.808594 82.878906 6.21875 82.878906 Z M 109.28125 82.878906 C 111.691406 82.878906 113.664062 84.851562 113.664062 87.265625 C 113.664062 89.675781 111.691406 91.648438 109.28125 91.648438 C 106.867188 91.648438 104.894531 89.675781 104.894531 87.265625 C 104.894531 84.851562 106.867188 82.878906 109.28125 82.878906 Z M 74.941406 1.878906 C 77.351562 1.878906 79.328125 3.851562 79.328125 6.261719 C 79.328125 8.675781 77.351562 10.648438 74.941406 10.648438 C 72.527344 10.648438 70.554688 8.675781 70.554688 6.261719 C 70.554688 3.851562 72.484375 1.878906 74.941406 1.878906 Z M 40.558594 1.878906 C 42.96875 1.878906 44.945312 3.851562 44.945312 6.261719 C 44.945312 8.675781 42.96875 10.648438 40.558594 10.648438 C 38.144531 10.648438 36.171875 8.675781 36.171875 6.261719 C 36.171875 3.851562 38.144531 1.878906 40.558594 1.878906 Z M 6.21875 1.878906 C 8.632812 1.878906 10.605469 3.851562 10.605469 6.261719 C 10.605469 8.675781 8.632812 10.648438 6.21875 10.648438 C 3.808594 10.648438 1.835938 8.675781 1.835938 6.261719 C 1.835938 3.851562 3.808594 1.878906 6.21875 1.878906 Z M 109.28125 1.878906 C 111.691406 1.878906 113.664062 3.851562 113.664062 6.261719 C 113.664062 8.675781 111.691406 10.648438 109.28125 10.648438 C 106.867188 10.648438 104.894531 8.675781 104.894531 6.261719 C 104.894531 3.851562 106.867188 1.878906 109.28125 1.878906 Z M 74.941406 123.355469 C 77.351562 123.355469 79.328125 125.332031 79.328125 127.742188 C 79.328125 130.15625 77.351562 132.128906 74.941406 132.128906 C 72.527344 132.128906 70.554688 130.15625 70.554688 127.742188 C 70.554688 125.332031 72.484375 123.355469 74.941406 123.355469 Z M 40.558594 123.355469 C 42.96875 123.355469 44.945312 125.332031 44.945312 127.742188 C 44.945312 130.15625 42.96875 132.128906 40.558594 132.128906 C 38.144531 132.128906 36.171875 130.15625 36.171875 127.742188 C 36.171875 125.332031 38.144531 123.355469 40.558594 123.355469 Z M 6.21875 123.355469 C 8.632812 123.355469 10.605469 125.332031 10.605469 127.742188 C 10.605469 130.15625 8.632812 132.128906 6.21875 132.128906 C 3.808594 132.128906 1.835938 130.15625 1.835938 127.742188 C 1.835938 125.332031 3.808594 123.355469 6.21875 123.355469 Z M 109.28125 123.355469 C 111.691406 123.355469 113.664062 125.332031 113.664062 127.742188 C 113.664062 130.15625 111.691406 132.128906 109.28125 132.128906 C 106.867188 132.128906 104.894531 130.15625 104.894531 127.742188 C 104.894531 125.332031 106.867188 123.355469 109.28125 123.355469 Z M 109.28125 123.355469 " fill-opacity="1" fill-rule="nonzero"/></g></svg>