<svg xmlns="http://www.w3.org/2000/svg" width="500" height="500" version="1.0" viewBox="0 0 375 375"><defs><clipPath id="a"><path d="M13.64 0h347.903v286.848H13.641Zm0 0"/></clipPath><clipPath id="b"><path d="M99 122.598h177.203V375H99Zm0 0"/></clipPath></defs><path fill="none" stroke="#fff" stroke-width="3" d="M79.086 210.477h120"/><g clip-path="url(#a)"><path d="M224.457 286.824c-10.953 0-19.973-2.332-25.445-6.883a3.289 3.289 0 0 1-.418-4.632 3.284 3.284 0 0 1 4.629-.422c7.285 6.054 24.761 7.043 43.488 2.453 19.098-4.684 42.223-16.149 49.809-34.293.515-1.234 1.722-1.996 3.07-2.024l.55.008c30.231 0 54.82-24.578 54.82-54.785 0-25.844-18.347-48.402-43.62-53.644a3.281 3.281 0 0 1-2.469-2.227 3.284 3.284 0 0 1 .734-3.242 50.41 50.41 0 0 0 13.637-34.547c0-27.91-22.722-50.617-50.64-50.617-10.91 0-21.301 3.414-30.051 9.87a3.294 3.294 0 0 1-5.21-2.16c-3.661-24.574-25.189-43.1-50.087-43.1-25.074 0-46.11 17.937-50.016 42.648a3.299 3.299 0 0 1-1.98 2.523 3.322 3.322 0 0 1-3.192-.36c-8.609-6.163-18.793-9.421-29.418-9.421-27.93 0-50.644 22.707-50.644 50.617 0 11.61 4.027 22.957 11.355 31.945.692.848.918 1.989.59 3.04a3.257 3.257 0 0 1-2.195 2.183c-24.45 7.375-41.527 30.375-41.527 55.93 0 31.636 25.734 57.836 57.367 58.406a3.301 3.301 0 0 1 3.035 2.144c8.098 21.907 34.437 32.508 55.469 33.09 16.687.446 29.55-4.976 33.547-14.183a3.29 3.29 0 0 1 6.04 2.621c-5.091 11.722-20.35 18.668-39.767 18.136-22.523-.62-50.664-11.941-60.637-35.308-16.293-.836-31.488-7.653-42.98-19.34-12.035-12.23-18.66-28.41-18.66-45.566 0-14.239 4.527-27.758 13.082-39.098 7.343-9.723 17.422-17.29 28.742-21.625a57.37 57.37 0 0 1-10.047-32.375c0-31.54 25.672-57.195 57.23-57.195 10.336 0 20.293 2.73 29.079 7.925 2.855-11.386 9.199-21.71 18.187-29.46A57.229 57.229 0 0 1 187.254.003a57.249 57.249 0 0 1 37.531 14.016c8.996 7.824 15.309 18.222 18.094 29.683 8.93-5.453 19.11-8.312 29.723-8.312 31.558 0 57.222 25.656 57.222 57.195 0 12.73-4.191 24.937-11.894 34.91 25.566 7.73 43.613 31.629 43.613 58.75 0 33.316-26.715 60.524-59.856 61.344-9.289 19.23-33.433 31.242-53.414 36.14-8.472 2.075-16.562 3.094-23.816 3.094"/></g><g clip-path="url(#b)"><path d="M172.137 368.426h30.687l-4.992-90.832a3.277 3.277 0 0 1 .606-2.082l22.996-32.453a3.294 3.294 0 0 1 2.68-1.391h26.359l14.672-30.313-29.887 17.512c-.453.266-.961.418-1.485.45l-22.527 1.25-14.008 25.445a3.29 3.29 0 0 1-6.172-1.586v-70.313c0-.73.243-1.433.688-2.015l16.234-20.993-20.668 7.184a3.284 3.284 0 0 1-3.574-.957l-20.789-24.11 15.512 38.305c.144.368.226.758.23 1.157l1.352 56.789a3.284 3.284 0 0 1-5.703 2.304l-30.098-32.695-26.777.84 21.34 9.023c.5.207.933.535 1.277.953l35.172 43.274c.508.617.765 1.398.738 2.195Zm34.172 6.578h-37.594a3.29 3.29 0 0 1-2.363-1.008 3.327 3.327 0 0 1-.918-2.41l3.941-105.23-33.879-41.672-34.418-14.555a3.292 3.292 0 0 1-1.957-3.633 3.292 3.292 0 0 1 3.133-2.684l43.297-1.351a3.288 3.288 0 0 1 2.52 1.059l25.195 27.375-1.13-47.458-22.773-56.234a3.288 3.288 0 0 1 1.336-4.043 3.299 3.299 0 0 1 4.211.664l32.363 37.516 29.004-10.082a3.289 3.289 0 0 1 3.684 5.117l-22.313 28.863v56.383l8.7-15.824a3.306 3.306 0 0 1 2.71-1.7l23.551-1.308 38.551-22.582a3.3 3.3 0 0 1 3.902.418 3.297 3.297 0 0 1 .727 3.852l-20.297 41.914a3.277 3.277 0 0 1-2.965 1.859H225.82l-21.347 30.129 5.117 93.156a3.283 3.283 0 0 1-.899 2.442 3.321 3.321 0 0 1-2.382 1.027"/></g></svg>