<svg xmlns="http://www.w3.org/2000/svg" xmlns:xlink="http://www.w3.org/1999/xlink" width="385" zoomAndPan="magnify" viewBox="0 0 288.75 89.999999" height="120" preserveAspectRatio="xMidYMid meet" version="1.0"><defs><g/><clipPath id="721b2b6856"><path d="M 0 51 L 38 51 L 38 89.960938 L 0 89.960938 Z M 0 51 " clip-rule="nonzero"/></clipPath><clipPath id="9897fc2315"><path d="M 252 51 L 282 51 L 282 89.960938 L 252 89.960938 Z M 252 51 " clip-rule="nonzero"/></clipPath></defs><g fill="#000000" fill-opacity="1"><g transform="translate(0, 40.156509)"><g><path d="M 12.367188 -26.226562 C 12.367188 -27.152344 12.34375 -27.957031 12.296875 -28.640625 C 12.25 -29.324219 12.191406 -29.957031 12.125 -30.535156 C 12.054688 -31.113281 11.996094 -31.6875 11.949219 -32.253906 C 11.902344 -32.820312 11.878906 -33.453125 11.878906 -34.148438 C 11.878906 -34.378906 11.84375 -34.59375 11.777344 -34.789062 C 11.707031 -34.988281 11.648438 -35.1875 11.601562 -35.398438 C 11.140625 -35.398438 10.640625 -35.289062 10.109375 -35.066406 C 9.574219 -34.847656 9.066406 -34.5625 8.582031 -34.214844 C 8.09375 -33.867188 7.660156 -33.480469 7.277344 -33.054688 C 6.894531 -32.625 6.625 -32.203125 6.460938 -31.785156 C 6.460938 -31.667969 6.457031 -31.523438 6.445312 -31.351562 C 6.433594 -31.175781 6.410156 -30.992188 6.375 -30.792969 C 6.339844 -30.597656 6.300781 -30.402344 6.253906 -30.203125 C 6.207031 -30.007812 6.136719 -29.851562 6.042969 -29.734375 C 5.859375 -29.804688 5.71875 -29.875 5.628906 -29.945312 C 5.535156 -30.011719 5.472656 -30.082031 5.4375 -30.152344 C 5.402344 -30.222656 5.371094 -30.296875 5.347656 -30.378906 C 5.328125 -30.460938 5.304688 -30.546875 5.28125 -30.636719 C 4.886719 -31.007812 4.5625 -31.328125 4.308594 -31.59375 C 4.050781 -31.859375 3.828125 -32.125 3.628906 -32.394531 C 3.433594 -32.660156 3.257812 -32.953125 3.109375 -33.277344 C 2.957031 -33.601562 2.777344 -33.996094 2.570312 -34.460938 C 2.246094 -34.714844 1.917969 -34.957031 1.582031 -35.1875 C 1.246094 -35.421875 0.949219 -35.6875 0.695312 -35.988281 C 0.695312 -36.3125 0.808594 -36.574219 1.042969 -36.769531 C 1.273438 -36.964844 1.570312 -37.117188 1.929688 -37.222656 C 2.285156 -37.324219 2.679688 -37.390625 3.109375 -37.414062 C 3.539062 -37.433594 3.9375 -37.445312 4.308594 -37.445312 C 4.609375 -37.445312 5.066406 -37.417969 5.679688 -37.359375 C 6.292969 -37.300781 6.964844 -37.238281 7.695312 -37.167969 C 8.425781 -37.101562 9.183594 -37.035156 9.96875 -36.976562 C 10.757812 -36.921875 11.488281 -36.890625 12.15625 -36.890625 C 12.503906 -36.890625 13.054688 -36.921875 13.808594 -36.976562 C 14.5625 -37.035156 15.378906 -37.101562 16.257812 -37.167969 C 17.136719 -37.238281 18 -37.300781 18.84375 -37.359375 C 19.691406 -37.417969 20.355469 -37.445312 20.84375 -37.445312 C 22.023438 -37.445312 23.042969 -37.433594 23.898438 -37.414062 C 24.757812 -37.390625 25.503906 -37.355469 26.140625 -37.308594 C 26.777344 -37.261719 27.351562 -37.214844 27.859375 -37.167969 C 28.367188 -37.121094 28.878906 -37.066406 29.386719 -36.996094 C 29.339844 -36.855469 29.167969 -36.683594 28.867188 -36.472656 C 28.566406 -36.265625 28.222656 -36.058594 27.84375 -35.847656 C 27.460938 -35.640625 27.101562 -35.449219 26.765625 -35.277344 C 26.429688 -35.101562 26.214844 -34.992188 26.121094 -34.945312 C 25.519531 -34.113281 24.992188 -33.289062 24.542969 -32.480469 C 24.089844 -31.667969 23.691406 -30.730469 23.34375 -29.664062 C 23.226562 -29.664062 23.089844 -29.886719 22.925781 -30.324219 C 22.765625 -30.765625 22.601562 -31.296875 22.441406 -31.921875 C 22.277344 -32.550781 22.117188 -33.210938 21.953125 -33.902344 C 21.792969 -34.597656 21.652344 -35.199219 21.539062 -35.710938 L 17.4375 -35.535156 C 17.53125 -33.800781 17.605469 -32.058594 17.664062 -30.308594 C 17.722656 -28.558594 17.75 -26.792969 17.75 -25.011719 C 17.75 -22.671875 17.679688 -20.332031 17.542969 -17.992188 C 17.402344 -15.65625 17.171875 -13.316406 16.847656 -10.976562 C 16.847656 -10.28125 16.898438 -9.375 17.003906 -8.25 C 17.109375 -7.128906 17.257812 -6.027344 17.457031 -4.949219 C 17.652344 -3.875 17.90625 -2.945312 18.21875 -2.171875 C 18.53125 -1.394531 18.898438 -1.007812 19.3125 -1.007812 L 19.765625 0.171875 C 19.347656 0.171875 18.886719 0.144531 18.375 0.0859375 C 17.867188 0.0273438 17.4375 0 17.089844 0 C 16.882812 0 16.574219 0.015625 16.171875 0.0507812 C 15.765625 0.0859375 15.324219 0.128906 14.851562 0.171875 C 14.375 0.21875 13.902344 0.261719 13.425781 0.296875 C 12.953125 0.328125 12.527344 0.347656 12.15625 0.347656 C 11.507812 0.347656 10.867188 0.300781 10.230469 0.207031 C 9.59375 0.117188 8.960938 0.046875 8.335938 0 C 8.636719 -0.230469 8.949219 -0.457031 9.273438 -0.675781 C 9.597656 -0.898438 9.90625 -1.132812 10.195312 -1.390625 C 10.484375 -1.644531 10.746094 -1.921875 10.976562 -2.222656 C 11.207031 -2.523438 11.371094 -2.871094 11.464844 -3.265625 C 11.464844 -3.472656 11.445312 -3.878906 11.410156 -4.480469 C 11.375 -5.082031 11.332031 -5.765625 11.273438 -6.53125 C 11.214844 -7.292969 11.167969 -8.070312 11.132812 -8.859375 C 11.097656 -9.644531 11.082031 -10.316406 11.082031 -10.871094 C 11.082031 -10.894531 11.109375 -11.152344 11.167969 -11.636719 C 11.226562 -12.125 11.308594 -12.765625 11.410156 -13.566406 C 11.515625 -14.363281 11.621094 -15.285156 11.722656 -16.328125 C 11.828125 -17.367188 11.933594 -18.453125 12.035156 -19.574219 C 12.140625 -20.699219 12.222656 -21.832031 12.28125 -22.980469 C 12.335938 -24.125 12.367188 -25.207031 12.367188 -26.226562 Z M 12.367188 -26.226562 "/></g></g></g><g fill="#000000" fill-opacity="1"><g transform="translate(30.082154, 40.156509)"><g><path d="M 20.632812 0.207031 C 20.242188 0.046875 20.042969 -0.171875 20.042969 -0.453125 C 20.042969 -0.660156 20.171875 -0.878906 20.425781 -1.113281 C 20.679688 -1.34375 20.964844 -1.570312 21.277344 -1.789062 C 21.589844 -2.007812 21.875 -2.21875 22.128906 -2.414062 C 22.382812 -2.609375 22.511719 -2.777344 22.511719 -2.917969 C 22.511719 -3.75 22.453125 -4.601562 22.335938 -5.472656 C 22.21875 -6.339844 22.164062 -7.15625 22.164062 -7.921875 C 22.164062 -8.546875 22.179688 -9.261719 22.214844 -10.074219 C 22.25 -10.882812 22.289062 -11.667969 22.335938 -12.417969 C 22.382812 -13.171875 22.421875 -13.84375 22.457031 -14.433594 C 22.492188 -15.023438 22.511719 -15.421875 22.511719 -15.632812 C 22.511719 -15.980469 22.476562 -16.441406 22.40625 -17.019531 C 22.335938 -17.601562 22.265625 -18.230469 22.199219 -18.914062 C 22.128906 -19.597656 22.058594 -20.296875 21.988281 -21.015625 C 21.917969 -21.734375 21.882812 -22.40625 21.882812 -23.03125 C 21.882812 -23.839844 21.929688 -24.535156 22.023438 -25.113281 C 22.117188 -25.695312 22.164062 -26.167969 22.164062 -26.539062 C 20.980469 -25.707031 19.945312 -24.738281 19.054688 -23.640625 C 18.160156 -22.539062 17.316406 -21.398438 16.519531 -20.21875 C 15.71875 -19.035156 14.925781 -17.855469 14.136719 -16.675781 C 13.351562 -15.492188 12.480469 -14.394531 11.53125 -13.375 C 11.277344 -12.863281 11.097656 -12.320312 10.996094 -11.742188 C 10.890625 -11.164062 10.820312 -10.566406 10.785156 -9.953125 C 10.75 -9.339844 10.726562 -8.71875 10.714844 -8.09375 C 10.703125 -7.46875 10.664062 -6.878906 10.59375 -6.320312 C 10.527344 -5.652344 10.4375 -5.078125 10.335938 -4.601562 C 10.230469 -4.128906 10.179688 -3.695312 10.179688 -3.300781 C 10.179688 -2.789062 10.324219 -2.339844 10.613281 -1.945312 C 10.902344 -1.550781 11.488281 -1.101562 12.367188 -0.589844 C 12.367188 -0.429688 12.222656 -0.296875 11.933594 -0.191406 C 11.644531 -0.0859375 11.300781 -0.00390625 10.90625 0.0507812 C 10.515625 0.109375 10.121094 0.152344 9.726562 0.171875 C 9.332031 0.195312 9.054688 0.207031 8.894531 0.207031 C 8.589844 0.207031 8.265625 0.195312 7.921875 0.171875 C 7.574219 0.152344 7.171875 0.128906 6.722656 0.105469 C 6.269531 0.0820312 5.742188 0.0585938 5.140625 0.0351562 C 4.539062 0.0117188 3.84375 0 3.058594 0 L 2.917969 -0.902344 C 3.449219 -1.644531 3.832031 -2.253906 4.0625 -2.726562 C 4.296875 -3.203125 4.410156 -3.695312 4.410156 -4.203125 C 4.410156 -4.550781 4.367188 -4.933594 4.273438 -5.347656 C 4.179688 -5.765625 4.050781 -6.277344 3.890625 -6.878906 C 3.890625 -7.828125 4.007812 -8.683594 4.238281 -9.449219 C 4.46875 -10.210938 4.632812 -11 4.722656 -11.8125 C 4.65625 -12.480469 4.566406 -13.152344 4.464844 -13.824219 C 4.359375 -14.496094 4.308594 -15.167969 4.308594 -15.839844 C 4.308594 -16.675781 4.277344 -17.484375 4.21875 -18.273438 C 4.164062 -19.058594 4.097656 -19.839844 4.03125 -20.617188 C 3.960938 -21.390625 3.894531 -22.179688 3.839844 -22.980469 C 3.78125 -23.777344 3.75 -24.605469 3.75 -25.460938 C 3.75 -26.132812 3.804688 -26.800781 3.90625 -27.460938 C 4.011719 -28.121094 4.121094 -28.785156 4.238281 -29.457031 C 4.355469 -30.128906 4.464844 -30.800781 4.566406 -31.472656 C 4.671875 -32.144531 4.722656 -32.816406 4.722656 -33.488281 C 4.722656 -34.042969 4.691406 -34.5625 4.621094 -35.050781 C 3.761719 -35.375 3.015625 -35.691406 2.378906 -36.003906 C 1.742188 -36.316406 1.179688 -36.730469 0.695312 -37.238281 C 1.066406 -37.425781 1.4375 -37.515625 1.804688 -37.515625 C 2.363281 -37.515625 2.964844 -37.429688 3.613281 -37.257812 C 4.261719 -37.082031 4.863281 -36.9375 5.417969 -36.820312 C 5.996094 -36.914062 6.570312 -37.035156 7.136719 -37.1875 C 7.707031 -37.335938 8.324219 -37.445312 8.996094 -37.515625 C 9.597656 -37.445312 10.085938 -37.394531 10.457031 -37.359375 C 10.828125 -37.324219 11.140625 -37.289062 11.394531 -37.257812 C 11.648438 -37.222656 11.886719 -37.179688 12.105469 -37.132812 C 12.324219 -37.089844 12.585938 -37.019531 12.886719 -36.925781 C 12.75 -36.625 12.585938 -36.359375 12.402344 -36.128906 C 12.214844 -35.894531 12.035156 -35.65625 11.863281 -35.414062 C 11.6875 -35.171875 11.519531 -34.921875 11.359375 -34.667969 C 11.195312 -34.414062 11.070312 -34.125 10.976562 -33.800781 C 10.976562 -32.386719 10.914062 -30.863281 10.785156 -29.230469 C 10.660156 -27.597656 10.59375 -26.042969 10.59375 -24.558594 C 10.59375 -23.957031 10.535156 -23.402344 10.421875 -22.890625 C 10.304688 -22.382812 10.246094 -21.863281 10.246094 -21.328125 C 10.246094 -21.027344 10.257812 -20.722656 10.28125 -20.410156 C 10.304688 -20.09375 10.351562 -19.753906 10.421875 -19.382812 C 10.492188 -18.945312 10.527344 -18.503906 10.527344 -18.0625 C 10.527344 -17.625 10.546875 -17.183594 10.59375 -16.742188 C 10.894531 -16.742188 11.167969 -16.785156 11.410156 -16.863281 C 11.65625 -16.945312 11.886719 -17.054688 12.105469 -17.195312 C 12.324219 -17.335938 12.546875 -17.496094 12.765625 -17.679688 C 12.984375 -17.867188 13.222656 -18.0625 13.476562 -18.273438 C 14.035156 -19.152344 14.589844 -20.003906 15.144531 -20.824219 C 15.703125 -21.648438 16.285156 -22.441406 16.898438 -23.203125 C 17.511719 -23.96875 18.171875 -24.714844 18.878906 -25.445312 C 19.585938 -26.175781 20.367188 -26.886719 21.226562 -27.582031 C 21.894531 -28.113281 22.375 -28.785156 22.667969 -29.597656 C 22.957031 -30.40625 23.101562 -31.4375 23.101562 -32.6875 C 23.101562 -33.152344 23.070312 -33.585938 23.011719 -33.992188 C 22.957031 -34.394531 22.847656 -34.738281 22.683594 -35.015625 C 22.683594 -35.917969 22.855469 -36.484375 23.203125 -36.71875 C 23.550781 -36.949219 24.050781 -37.066406 24.699219 -37.066406 C 25 -37.066406 25.429688 -37.105469 25.984375 -37.1875 C 26.539062 -37.269531 27.050781 -37.308594 27.511719 -37.308594 C 27.71875 -37.308594 27.957031 -37.296875 28.222656 -37.273438 C 28.492188 -37.25 28.746094 -37.222656 28.988281 -37.1875 C 29.230469 -37.152344 29.453125 -37.121094 29.648438 -37.101562 C 29.84375 -37.078125 29.988281 -37.066406 30.082031 -37.066406 L 28.554688 -35.882812 C 28.554688 -35.511719 28.605469 -35.136719 28.710938 -34.753906 C 28.816406 -34.371094 28.867188 -33.960938 28.867188 -33.523438 C 28.867188 -33.242188 28.832031 -32.953125 28.761719 -32.652344 C 28.761719 -31.148438 28.710938 -29.664062 28.605469 -28.207031 C 28.503906 -26.746094 28.324219 -25.21875 28.066406 -23.621094 C 28.066406 -23.089844 28.050781 -22.476562 28.015625 -21.78125 C 27.980469 -21.085938 27.941406 -20.410156 27.894531 -19.75 C 27.847656 -19.089844 27.808594 -18.484375 27.773438 -17.941406 C 27.738281 -17.398438 27.71875 -17.019531 27.71875 -16.8125 C 27.71875 -16.488281 27.777344 -16.148438 27.894531 -15.789062 C 28.011719 -15.429688 28.066406 -15.074219 28.066406 -14.730469 C 27.976562 -14.289062 27.882812 -13.84375 27.789062 -13.390625 C 27.699219 -12.941406 27.652344 -12.480469 27.652344 -12.019531 C 27.652344 -11.625 27.675781 -11.203125 27.71875 -10.75 C 27.765625 -10.300781 27.8125 -9.855469 27.859375 -9.414062 C 27.90625 -8.972656 27.953125 -8.558594 28 -8.164062 C 28.042969 -7.769531 28.066406 -7.433594 28.066406 -7.15625 C 28.066406 -6.390625 28.097656 -5.691406 28.15625 -5.054688 C 28.210938 -4.417969 28.335938 -3.816406 28.519531 -3.246094 C 28.703125 -2.679688 28.972656 -2.128906 29.320312 -1.597656 C 29.664062 -1.066406 30.140625 -0.53125 30.742188 0 C 30.535156 0 30.214844 -0.0273438 29.789062 -0.0859375 C 29.359375 -0.144531 28.882812 -0.203125 28.363281 -0.261719 C 27.84375 -0.320312 27.316406 -0.375 26.78125 -0.433594 C 26.25 -0.492188 25.785156 -0.519531 25.394531 -0.519531 C 24.582031 -0.519531 23.777344 -0.398438 22.980469 -0.15625 C 22.179688 0.0859375 21.398438 0.207031 20.632812 0.207031 Z M 20.632812 0.207031 "/></g></g></g><g fill="#000000" fill-opacity="1"><g transform="translate(61.519046, 40.156509)"><g><path d="M 40.710938 0.207031 C 39.925781 0.207031 38.898438 0.203125 37.636719 0.191406 C 36.375 0.179688 34.96875 0.160156 33.417969 0.140625 C 31.867188 0.117188 30.210938 0.09375 28.449219 0.0703125 C 26.691406 0.046875 24.917969 0.0234375 23.136719 0 C 21.351562 -0.0234375 19.597656 -0.046875 17.871094 -0.0703125 C 16.148438 -0.09375 14.550781 -0.117188 13.078125 -0.140625 C 11.609375 -0.160156 10.300781 -0.179688 9.152344 -0.191406 C 8.007812 -0.203125 7.121094 -0.207031 6.496094 -0.207031 C 5.800781 -0.207031 5.125 -0.140625 4.464844 0 C 3.804688 0.140625 3.148438 0.207031 2.5 0.207031 C 2.339844 0.207031 2.152344 0.195312 1.945312 0.171875 C 1.738281 0.152344 1.539062 0.121094 1.355469 0.0859375 C 1.167969 0.0507812 1.011719 0.015625 0.886719 -0.015625 C 0.757812 -0.0507812 0.695312 -0.09375 0.695312 -0.140625 C 0.695312 -0.277344 0.878906 -0.480469 1.25 -0.746094 C 1.621094 -1.011719 2.03125 -1.320312 2.484375 -1.667969 C 2.933594 -2.015625 3.351562 -2.386719 3.734375 -2.777344 C 4.117188 -3.171875 4.308594 -3.566406 4.308594 -3.960938 C 4.308594 -5.488281 4.375 -7.082031 4.515625 -8.738281 C 4.65625 -10.390625 4.722656 -11.949219 4.722656 -13.410156 C 4.722656 -14.382812 4.65625 -15.324219 4.515625 -16.238281 C 4.375 -17.15625 4.308594 -18.074219 4.308594 -19 C 4.308594 -20.089844 4.375 -21.269531 4.515625 -22.542969 C 4.65625 -23.820312 4.722656 -25.070312 4.722656 -26.296875 C 4.722656 -26.875 4.65625 -27.449219 4.515625 -28.015625 C 4.375 -28.582031 4.308594 -29.308594 4.308594 -30.1875 C 4.308594 -30.949219 4.375 -31.726562 4.515625 -32.515625 C 4.65625 -33.300781 4.722656 -33.925781 4.722656 -34.390625 C 4.722656 -35.175781 4.597656 -35.726562 4.34375 -36.039062 C 4.085938 -36.351562 3.636719 -36.589844 2.988281 -36.753906 C 2.988281 -36.890625 3.160156 -37 3.507812 -37.082031 C 3.855469 -37.164062 4.253906 -37.222656 4.707031 -37.257812 C 5.160156 -37.289062 5.597656 -37.3125 6.027344 -37.324219 C 6.457031 -37.335938 6.761719 -37.34375 6.949219 -37.34375 C 7.804688 -37.34375 8.667969 -37.300781 9.535156 -37.222656 C 10.402344 -37.140625 11.277344 -37.042969 12.15625 -36.925781 C 12.203125 -36.878906 12.261719 -36.839844 12.332031 -36.804688 C 12.402344 -36.769531 12.480469 -36.730469 12.574219 -36.683594 C 12.179688 -36.359375 11.839844 -36.082031 11.550781 -35.847656 C 11.261719 -35.617188 11.011719 -35.378906 10.804688 -35.136719 C 10.59375 -34.894531 10.414062 -34.609375 10.265625 -34.285156 C 10.113281 -33.960938 10.003906 -33.535156 9.933594 -33 C 9.820312 -32.257812 9.738281 -31.496094 9.691406 -30.707031 C 9.644531 -29.921875 9.621094 -29.167969 9.621094 -28.449219 C 9.621094 -26.621094 9.667969 -24.835938 9.761719 -23.101562 C 9.855469 -21.363281 9.953125 -19.671875 10.054688 -18.027344 C 10.160156 -16.382812 10.257812 -14.785156 10.351562 -13.234375 C 10.445312 -11.683594 10.492188 -10.191406 10.492188 -8.753906 C 10.492188 -8.152344 10.457031 -7.578125 10.386719 -7.035156 C 10.316406 -6.488281 10.28125 -5.941406 10.28125 -5.382812 C 10.28125 -4.992188 10.292969 -4.578125 10.316406 -4.152344 C 10.339844 -3.722656 10.398438 -3.265625 10.492188 -2.777344 C 10.699219 -2.617188 11.027344 -2.449219 11.480469 -2.273438 C 11.933594 -2.101562 12.441406 -1.945312 13.007812 -1.804688 C 13.578125 -1.667969 14.179688 -1.558594 14.816406 -1.476562 C 15.453125 -1.394531 16.058594 -1.355469 16.640625 -1.355469 C 17.425781 -1.355469 18.0625 -1.4375 18.550781 -1.597656 C 18.597656 -2.175781 18.660156 -2.753906 18.742188 -3.335938 C 18.820312 -3.914062 18.863281 -4.492188 18.863281 -5.070312 C 18.863281 -6.230469 18.808594 -7.351562 18.707031 -8.441406 C 18.601562 -9.53125 18.550781 -10.605469 18.550781 -11.671875 C 18.550781 -12.621094 18.597656 -13.566406 18.6875 -14.503906 C 18.78125 -15.441406 18.886719 -16.382812 19 -17.335938 C 19.117188 -18.285156 19.222656 -19.238281 19.3125 -20.199219 C 19.40625 -21.160156 19.453125 -22.128906 19.453125 -23.101562 C 19.453125 -24.027344 19.4375 -25.003906 19.402344 -26.035156 C 19.367188 -27.066406 19.332031 -28.085938 19.296875 -29.09375 C 19.261719 -30.101562 19.234375 -31.066406 19.210938 -31.992188 C 19.1875 -32.917969 19.175781 -33.742188 19.175781 -34.460938 C 18.988281 -34.875 18.839844 -35.21875 18.722656 -35.484375 C 18.609375 -35.75 18.515625 -35.988281 18.445312 -36.195312 C 17.820312 -36.589844 17.484375 -36.890625 17.4375 -37.101562 C 18.179688 -37.144531 18.925781 -37.222656 19.679688 -37.324219 C 20.429688 -37.429688 21.191406 -37.480469 21.953125 -37.480469 C 22.878906 -37.480469 23.796875 -37.40625 24.699219 -37.257812 C 25.601562 -37.105469 26.550781 -36.9375 27.546875 -36.753906 C 27.546875 -36.613281 27.449219 -36.472656 27.25 -36.335938 C 27.054688 -36.195312 26.835938 -36.0625 26.589844 -35.9375 C 26.347656 -35.808594 26.097656 -35.699219 25.84375 -35.605469 C 25.589844 -35.511719 25.417969 -35.433594 25.324219 -35.363281 C 25 -33.996094 24.785156 -32.566406 24.679688 -31.074219 C 24.578125 -29.578125 24.523438 -28.066406 24.523438 -26.539062 C 24.523438 -25.3125 24.558594 -24.109375 24.628906 -22.925781 C 24.699219 -21.746094 24.773438 -20.585938 24.855469 -19.453125 C 24.9375 -18.316406 25.011719 -17.1875 25.082031 -16.066406 C 25.148438 -14.941406 25.183594 -13.8125 25.183594 -12.679688 C 25.183594 -12.125 25.144531 -11.589844 25.0625 -11.082031 C 24.980469 -10.570312 24.890625 -10.0625 24.785156 -9.554688 C 24.679688 -9.042969 24.589844 -8.539062 24.507812 -8.042969 C 24.425781 -7.542969 24.386719 -7.015625 24.386719 -6.460938 C 24.386719 -5.671875 24.46875 -4.839844 24.628906 -3.960938 C 24.792969 -3.078125 24.976562 -2.246094 25.183594 -1.457031 C 25.808594 -1.390625 26.421875 -1.355469 27.027344 -1.355469 C 28.066406 -1.355469 29.058594 -1.4375 29.996094 -1.597656 C 30.933594 -1.761719 31.957031 -1.933594 33.070312 -2.117188 C 33.070312 -2.351562 33.097656 -2.558594 33.15625 -2.746094 C 33.214844 -2.929688 33.273438 -3.121094 33.332031 -3.316406 C 33.386719 -3.515625 33.445312 -3.726562 33.503906 -3.960938 C 33.5625 -4.191406 33.589844 -4.445312 33.589844 -4.722656 C 33.589844 -5.628906 33.5625 -6.703125 33.503906 -7.953125 C 33.445312 -9.207031 33.386719 -10.503906 33.332031 -11.84375 C 33.273438 -13.1875 33.214844 -14.519531 33.15625 -15.839844 C 33.097656 -17.160156 33.070312 -18.339844 33.070312 -19.382812 C 33.070312 -20.148438 33.109375 -21.058594 33.191406 -22.109375 C 33.273438 -23.164062 33.355469 -24.246094 33.433594 -25.359375 C 33.515625 -26.46875 33.597656 -27.542969 33.679688 -28.570312 C 33.757812 -29.601562 33.800781 -30.476562 33.800781 -31.195312 C 33.800781 -32.097656 33.707031 -32.949219 33.523438 -33.746094 C 33.335938 -34.546875 32.894531 -35.175781 32.203125 -35.640625 C 32.203125 -35.917969 32.238281 -36.226562 32.304688 -36.5625 C 32.375 -36.898438 32.492188 -37.066406 32.652344 -37.066406 C 33.253906 -37.066406 33.878906 -37.011719 34.527344 -36.910156 C 35.175781 -36.804688 35.847656 -36.753906 36.542969 -36.753906 C 36.867188 -36.753906 37.191406 -36.839844 37.515625 -37.011719 C 37.839844 -37.1875 38.1875 -37.273438 38.558594 -37.273438 C 38.882812 -37.273438 39.207031 -37.222656 39.53125 -37.117188 C 39.855469 -37.011719 40.15625 -36.820312 40.433594 -36.542969 C 40.179688 -36.3125 39.972656 -36.117188 39.808594 -35.953125 C 39.648438 -35.792969 39.515625 -35.617188 39.410156 -35.433594 C 39.304688 -35.246094 39.207031 -35.039062 39.113281 -34.808594 C 39.023438 -34.574219 38.929688 -34.285156 38.835938 -33.9375 C 38.835938 -33.613281 38.84375 -33.128906 38.855469 -32.480469 C 38.867188 -31.832031 38.886719 -31.089844 38.921875 -30.257812 C 38.957031 -29.421875 38.988281 -28.542969 39.011719 -27.617188 C 39.035156 -26.691406 39.0625 -25.78125 39.097656 -24.890625 C 39.132812 -23.996094 39.15625 -23.164062 39.167969 -22.386719 C 39.179688 -21.613281 39.183594 -20.96875 39.183594 -20.460938 C 39.183594 -20.042969 39.125 -19.667969 39.011719 -19.332031 C 38.894531 -18.996094 38.835938 -18.664062 38.835938 -18.339844 C 38.835938 -17.855469 38.855469 -17.324219 38.886719 -16.742188 C 38.921875 -16.164062 38.964844 -15.609375 39.011719 -15.074219 C 39.054688 -14.542969 39.097656 -14.039062 39.132812 -13.566406 C 39.167969 -13.089844 39.183594 -12.714844 39.183594 -12.4375 C 39.183594 -11.902344 39.167969 -11.214844 39.132812 -10.371094 C 39.097656 -9.523438 39.054688 -8.648438 39.011719 -7.746094 C 38.964844 -6.84375 38.921875 -5.980469 38.886719 -5.160156 C 38.855469 -4.335938 38.835938 -3.695312 38.835938 -3.230469 L 39.183594 -1.113281 C 39.230469 -1.089844 39.371094 -1.046875 39.601562 -0.988281 C 39.832031 -0.933594 40.074219 -0.855469 40.332031 -0.765625 C 40.585938 -0.671875 40.816406 -0.574219 41.023438 -0.46875 C 41.234375 -0.363281 41.335938 -0.265625 41.335938 -0.171875 C 41.335938 -0.0117188 41.128906 0.117188 40.710938 0.207031 Z M 40.710938 0.207031 "/></g></g></g><g fill="#000000" fill-opacity="1"><g transform="translate(103.550692, 40.156509)"><g><path d="M 0.695312 0 C 0.695312 -0.371094 0.78125 -0.648438 0.957031 -0.832031 C 1.128906 -1.019531 1.332031 -1.164062 1.5625 -1.269531 C 1.792969 -1.371094 2.039062 -1.449219 2.292969 -1.492188 C 2.546875 -1.539062 2.746094 -1.597656 2.882812 -1.667969 C 3.183594 -1.828125 3.492188 -2.085938 3.804688 -2.429688 C 4.117188 -2.777344 4.375 -3.101562 4.585938 -3.402344 C 4.746094 -4.355469 5.078125 -5.1875 5.574219 -5.90625 C 6.074219 -6.625 6.644531 -7.292969 7.292969 -7.921875 C 7.941406 -8.546875 8.601562 -9.160156 9.273438 -9.761719 C 9.945312 -10.363281 10.535156 -11.023438 11.046875 -11.742188 C 10.839844 -12.414062 10.6875 -13.003906 10.59375 -13.511719 C 10.503906 -14.023438 10.457031 -14.507812 10.457031 -14.972656 C 10.457031 -15.367188 10.507812 -15.875 10.613281 -16.5 C 10.714844 -17.125 10.859375 -17.773438 11.046875 -18.445312 C 11.230469 -19.117188 11.445312 -19.777344 11.6875 -20.425781 C 11.933594 -21.074219 12.179688 -21.617188 12.4375 -22.058594 C 12.96875 -22.984375 13.605469 -23.847656 14.347656 -24.644531 C 15.085938 -25.445312 15.828125 -26.246094 16.570312 -27.042969 C 17.3125 -27.84375 18.003906 -28.671875 18.652344 -29.527344 C 19.300781 -30.382812 19.8125 -31.320312 20.183594 -32.339844 L 19.871094 -35.640625 C 19.847656 -35.78125 19.65625 -35.925781 19.296875 -36.074219 C 18.9375 -36.226562 18.492188 -36.300781 17.960938 -36.300781 C 17.820312 -36.300781 17.648438 -36.289062 17.4375 -36.265625 C 17.230469 -36.242188 17.019531 -36.214844 16.8125 -36.179688 C 16.605469 -36.144531 16.414062 -36.105469 16.238281 -36.058594 C 16.066406 -36.011719 15.933594 -35.953125 15.839844 -35.882812 C 15.632812 -35.511719 15.464844 -35.171875 15.335938 -34.859375 C 15.210938 -34.546875 15.109375 -34.226562 15.042969 -33.902344 C 14.972656 -33.578125 14.925781 -33.238281 14.902344 -32.878906 C 14.878906 -32.519531 14.867188 -32.097656 14.867188 -31.609375 C 14.867188 -31.332031 14.796875 -31.050781 14.660156 -30.761719 C 14.519531 -30.46875 14.347656 -30.203125 14.136719 -29.960938 C 13.929688 -29.71875 13.703125 -29.515625 13.460938 -29.351562 C 13.21875 -29.191406 12.992188 -29.109375 12.785156 -29.109375 C 11.949219 -29.109375 11.53125 -29.621094 11.53125 -30.636719 C 11.53125 -31.078125 11.613281 -31.414062 11.777344 -31.644531 C 11.9375 -31.878906 12.25 -31.992188 12.714844 -31.992188 C 12.96875 -31.992188 13.269531 -31.957031 13.617188 -31.890625 C 13.6875 -32.328125 13.722656 -32.699219 13.722656 -33 C 13.722656 -33.324219 13.6875 -33.597656 13.617188 -33.816406 C 13.546875 -34.035156 13.445312 -34.25 13.304688 -34.460938 C 13.164062 -34.667969 13.003906 -34.894531 12.816406 -35.136719 C 12.632812 -35.378906 12.425781 -35.6875 12.191406 -36.058594 C 12.191406 -36.519531 12.296875 -36.851562 12.503906 -37.046875 C 12.714844 -37.246094 12.875 -37.34375 12.992188 -37.34375 L 27.824219 -36.753906 L 27.582031 -36.128906 C 27.117188 -36.035156 26.742188 -35.925781 26.453125 -35.796875 C 26.164062 -35.667969 25.9375 -35.484375 25.773438 -35.242188 C 25.613281 -35 25.503906 -34.667969 25.445312 -34.25 C 25.386719 -33.835938 25.359375 -33.300781 25.359375 -32.652344 C 25.359375 -31.148438 25.46875 -29.660156 25.6875 -28.191406 C 25.910156 -26.71875 26.019531 -25.253906 26.019531 -23.796875 C 26.019531 -22.753906 26.097656 -21.671875 26.261719 -20.546875 C 26.421875 -19.425781 26.539062 -18.273438 26.609375 -17.089844 C 26.539062 -16.976562 26.503906 -16.617188 26.503906 -16.015625 C 26.503906 -14.949219 26.511719 -13.96875 26.523438 -13.078125 C 26.535156 -12.1875 26.574219 -11.324219 26.644531 -10.492188 C 26.714844 -9.65625 26.8125 -8.816406 26.9375 -7.972656 C 27.066406 -7.128906 27.234375 -6.207031 27.441406 -5.210938 C 27.441406 -4.839844 27.4375 -4.511719 27.425781 -4.21875 C 27.414062 -3.929688 27.40625 -3.671875 27.40625 -3.4375 C 27.40625 -3.089844 27.429688 -2.796875 27.476562 -2.554688 C 27.523438 -2.308594 27.621094 -2.074219 27.773438 -1.839844 C 27.921875 -1.609375 28.144531 -1.382812 28.433594 -1.164062 C 28.722656 -0.945312 29.109375 -0.683594 29.597656 -0.382812 L 24.246094 0 L 20.078125 -0.417969 C 20.542969 -0.808594 20.910156 -1.222656 21.191406 -1.648438 C 21.46875 -2.078125 21.605469 -2.664062 21.605469 -3.402344 C 21.605469 -4.398438 21.484375 -5.320312 21.242188 -6.164062 C 21 -7.011719 20.878906 -7.757812 20.878906 -8.40625 C 20.878906 -8.914062 20.929688 -9.40625 21.035156 -9.882812 C 21.136719 -10.359375 21.191406 -10.816406 21.191406 -11.253906 C 21.191406 -11.53125 21.15625 -11.792969 21.085938 -12.035156 C 21.015625 -12.28125 20.890625 -12.527344 20.703125 -12.785156 C 20.101562 -12.667969 19.515625 -12.570312 18.949219 -12.488281 C 18.382812 -12.40625 17.820312 -12.308594 17.265625 -12.191406 C 16.847656 -12.007812 16.484375 -11.855469 16.171875 -11.742188 C 15.859375 -11.625 15.574219 -11.5 15.320312 -11.359375 C 15.066406 -11.21875 14.832031 -11.039062 14.625 -10.820312 C 14.417969 -10.601562 14.21875 -10.28125 14.035156 -9.867188 C 13.523438 -9.65625 13.0625 -9.339844 12.644531 -8.910156 C 12.226562 -8.480469 11.863281 -7.996094 11.550781 -7.453125 C 11.238281 -6.90625 10.996094 -6.328125 10.820312 -5.714844 C 10.648438 -5.101562 10.558594 -4.515625 10.558594 -3.960938 C 10.558594 -3.636719 10.519531 -3.363281 10.4375 -3.144531 C 10.359375 -2.921875 10.265625 -2.714844 10.160156 -2.519531 C 10.054688 -2.320312 9.964844 -2.140625 9.882812 -1.980469 C 9.800781 -1.816406 9.761719 -1.65625 9.761719 -1.492188 C 9.761719 -1.308594 9.789062 -1.140625 9.847656 -0.988281 C 9.90625 -0.839844 9.992188 -0.613281 10.109375 -0.3125 Z M 15.667969 -13.0625 C 15.96875 -13.128906 16.382812 -13.234375 16.917969 -13.375 C 17.449219 -13.511719 17.992188 -13.691406 18.550781 -13.914062 C 19.105469 -14.132812 19.621094 -14.382812 20.09375 -14.660156 C 20.570312 -14.9375 20.890625 -15.238281 21.050781 -15.5625 L 21.050781 -25.496094 C 21.050781 -26.238281 20.976562 -26.933594 20.824219 -27.582031 C 20.675781 -28.230469 20.496094 -28.832031 20.285156 -29.386719 C 20.101562 -29.339844 19.839844 -29.152344 19.503906 -28.816406 C 19.167969 -28.480469 18.832031 -28.113281 18.496094 -27.71875 C 18.160156 -27.328125 17.855469 -26.9375 17.578125 -26.558594 C 17.300781 -26.175781 17.113281 -25.914062 17.019531 -25.773438 C 16.695312 -25.265625 16.363281 -24.703125 16.015625 -24.089844 C 15.667969 -23.476562 15.296875 -22.902344 14.902344 -22.371094 C 14.578125 -21.421875 14.363281 -20.417969 14.257812 -19.367188 C 14.15625 -18.3125 14.101562 -17.230469 14.101562 -16.117188 C 14.101562 -15.980469 14.136719 -15.742188 14.207031 -15.40625 C 14.277344 -15.070312 14.382812 -14.730469 14.519531 -14.382812 C 14.660156 -14.035156 14.828125 -13.726562 15.023438 -13.460938 C 15.222656 -13.195312 15.433594 -13.0625 15.667969 -13.0625 Z M 15.667969 -13.0625 "/></g></g></g><g fill="#000000" fill-opacity="1"><g transform="translate(133.841262, 40.156509)"><g><path d="M 6.421875 -4.03125 L 6.671875 -3.640625 C 6.347656 -2.421875 5.90625 -1.078125 5.34375 0.390625 C 4.789062 1.867188 4.238281 3.234375 3.6875 4.484375 L 1.421875 4.484375 C 1.742188 3.160156 2.070312 1.710938 2.40625 0.140625 C 2.75 -1.429688 3 -2.820312 3.15625 -4.03125 Z M 6.421875 -4.03125 "/></g></g></g><g fill="#000000" fill-opacity="1"><g transform="translate(143.155465, 40.156509)"><g/></g></g><g clip-path="url(#721b2b6856)"><g fill="#000000" fill-opacity="1"><g transform="translate(0, 88.59143)"><g><path d="M 32.964844 0.417969 C 32.132812 0.230469 31.285156 0.152344 30.429688 0.171875 C 29.574219 0.195312 28.808594 0.117188 28.136719 -0.0703125 C 28.601562 -0.53125 28.941406 -0.878906 29.164062 -1.113281 C 29.382812 -1.34375 29.492188 -1.457031 29.492188 -1.457031 C 29.886719 -2.476562 30.082031 -3.496094 30.082031 -4.515625 C 30.082031 -5.511719 29.945312 -6.472656 29.664062 -7.398438 C 29.386719 -8.324219 29.097656 -9.308594 28.796875 -10.351562 C 28.472656 -10.882812 28.171875 -11.398438 27.894531 -11.898438 C 27.617188 -12.394531 27.316406 -12.875 26.992188 -13.339844 C 26.550781 -13.988281 26.144531 -14.539062 25.773438 -14.988281 C 25.40625 -15.441406 25.023438 -15.804688 24.628906 -16.082031 C 24.234375 -16.363281 23.8125 -16.5625 23.359375 -16.691406 C 22.910156 -16.820312 22.382812 -16.882812 21.78125 -16.882812 C 21.78125 -16.71875 21.792969 -16.382812 21.816406 -15.875 C 21.839844 -15.367188 21.855469 -14.773438 21.867188 -14.101562 C 21.878906 -13.433594 21.894531 -12.714844 21.917969 -11.949219 C 21.941406 -11.183594 21.964844 -10.460938 21.988281 -9.777344 C 22.011719 -9.09375 22.03125 -8.5 22.039062 -7.988281 C 22.050781 -7.480469 22.058594 -7.144531 22.058594 -6.980469 C 22.058594 -6.542969 21.988281 -5.976562 21.851562 -5.28125 C 21.710938 -4.585938 21.640625 -3.902344 21.640625 -3.230469 C 21.640625 -2.90625 21.660156 -2.597656 21.695312 -2.308594 C 21.726562 -2.019531 21.804688 -1.761719 21.917969 -1.527344 C 22.035156 -1.457031 22.207031 -1.359375 22.441406 -1.234375 C 22.671875 -1.105469 22.902344 -0.972656 23.136719 -0.832031 C 23.367188 -0.695312 23.570312 -0.554688 23.742188 -0.417969 C 23.917969 -0.277344 24.003906 -0.160156 24.003906 -0.0703125 C 23.148438 0.046875 22.289062 0.15625 21.433594 0.261719 C 20.578125 0.363281 19.71875 0.417969 18.863281 0.417969 C 17.890625 0.417969 16.933594 0.347656 15.996094 0.207031 C 15.058594 0.0703125 14.148438 0 13.269531 0 C 13.316406 -0.324219 13.4375 -0.636719 13.632812 -0.9375 C 13.832031 -1.238281 14.035156 -1.515625 14.242188 -1.773438 C 14.449219 -2.027344 14.636719 -2.246094 14.796875 -2.429688 C 14.960938 -2.617188 15.042969 -2.765625 15.042969 -2.882812 C 15.042969 -3.460938 15.058594 -4.132812 15.09375 -4.898438 C 15.128906 -5.664062 15.167969 -6.457031 15.214844 -7.277344 C 15.261719 -8.101562 15.300781 -8.914062 15.335938 -9.726562 C 15.371094 -10.535156 15.390625 -11.277344 15.390625 -11.949219 C 15.390625 -12.761719 15.367188 -13.632812 15.320312 -14.574219 C 15.273438 -15.511719 15.226562 -16.28125 15.179688 -16.882812 C 14.371094 -16.953125 13.558594 -17 12.75 -17.019531 C 11.9375 -17.042969 11.371094 -17.054688 11.046875 -17.054688 C 10.257812 -16.128906 9.628906 -15.132812 9.152344 -14.070312 C 8.679688 -13.003906 8.320312 -11.902344 8.078125 -10.769531 C 7.832031 -9.632812 7.671875 -8.488281 7.589844 -7.328125 C 7.507812 -6.171875 7.46875 -5.046875 7.46875 -3.960938 C 7.46875 -3.707031 7.601562 -3.421875 7.867188 -3.109375 C 8.132812 -2.796875 8.429688 -2.484375 8.753906 -2.171875 C 9.078125 -1.859375 9.375 -1.558594 9.640625 -1.269531 C 9.90625 -0.976562 10.039062 -0.730469 10.039062 -0.519531 C 10.039062 -0.335938 9.8125 -0.203125 9.363281 -0.121094 C 8.910156 -0.0390625 8.40625 0 7.851562 0 C 7.363281 0 6.84375 -0.015625 6.289062 -0.0507812 C 5.730469 -0.0859375 5.199219 -0.121094 4.691406 -0.15625 C 4.179688 -0.191406 3.722656 -0.226562 3.316406 -0.261719 C 2.914062 -0.296875 2.605469 -0.3125 2.398438 -0.3125 C 1.65625 -0.3125 1.1875 -0.359375 0.988281 -0.453125 C 0.792969 -0.542969 0.695312 -0.660156 0.695312 -0.800781 C 0.695312 -1.144531 0.78125 -1.609375 0.957031 -2.1875 C 1.128906 -2.765625 1.324219 -3.402344 1.546875 -4.097656 C 1.765625 -4.792969 1.996094 -5.511719 2.242188 -6.253906 C 2.484375 -6.992188 2.675781 -7.675781 2.8125 -8.300781 C 3.253906 -9.414062 3.722656 -10.503906 4.21875 -11.566406 C 4.71875 -12.632812 5.199219 -13.6875 5.664062 -14.730469 C 6.65625 -16.304688 7.636719 -17.703125 8.597656 -18.933594 C 9.558594 -20.160156 10.664062 -21.328125 11.914062 -22.441406 C 12.402344 -23.113281 12.863281 -23.75 13.304688 -24.351562 C 13.746094 -24.953125 14.160156 -25.496094 14.554688 -25.984375 C 14.949219 -26.863281 15.320312 -27.738281 15.667969 -28.605469 C 16.015625 -29.476562 16.316406 -30.3125 16.570312 -31.125 C 16.453125 -32.238281 16.304688 -33.230469 16.117188 -34.113281 C 15.933594 -34.992188 15.574219 -35.835938 15.042969 -36.648438 C 15.042969 -36.742188 15.242188 -36.832031 15.648438 -36.925781 C 16.054688 -37.019531 16.523438 -37.101562 17.054688 -37.167969 C 17.589844 -37.238281 18.121094 -37.289062 18.652344 -37.324219 C 19.1875 -37.359375 19.582031 -37.378906 19.835938 -37.378906 C 20.414062 -37.378906 21 -37.359375 21.589844 -37.324219 C 22.179688 -37.289062 22.765625 -37.203125 23.34375 -37.066406 C 23.34375 -36.996094 23.308594 -36.886719 23.238281 -36.734375 C 23.171875 -36.585938 23.09375 -36.417969 23.011719 -36.230469 C 22.933594 -36.046875 22.855469 -35.859375 22.789062 -35.675781 C 22.71875 -35.488281 22.683594 -35.339844 22.683594 -35.222656 C 22.683594 -34.574219 22.578125 -33.96875 22.371094 -33.398438 C 22.164062 -32.832031 22.058594 -32.246094 22.058594 -31.644531 C 22.058594 -31.230469 22.09375 -30.777344 22.164062 -30.292969 C 22.230469 -29.804688 22.347656 -29.3125 22.511719 -28.816406 C 22.671875 -28.316406 22.875 -27.835938 23.117188 -27.375 C 23.359375 -26.910156 23.644531 -26.515625 23.96875 -26.191406 C 24.617188 -24.964844 25.46875 -23.824219 26.523438 -22.769531 C 27.574219 -21.714844 28.660156 -20.667969 29.769531 -19.625 C 29.933594 -19.558594 30.152344 -19.378906 30.429688 -19.089844 C 30.707031 -18.796875 30.996094 -18.480469 31.296875 -18.132812 C 31.597656 -17.785156 31.878906 -17.457031 32.132812 -17.144531 C 32.386719 -16.832031 32.570312 -16.605469 32.6875 -16.464844 C 32.941406 -16.09375 33.199219 -15.691406 33.453125 -15.25 C 33.707031 -14.808594 33.996094 -14.359375 34.320312 -13.894531 C 34.992188 -12.179688 35.535156 -10.339844 35.953125 -8.371094 C 36.371094 -6.402344 36.578125 -4.492188 36.578125 -2.640625 C 36.578125 -2.523438 36.597656 -2.367188 36.628906 -2.171875 C 36.664062 -1.972656 36.722656 -1.777344 36.804688 -1.582031 C 36.886719 -1.382812 36.996094 -1.191406 37.132812 -1.007812 C 37.273438 -0.820312 37.457031 -0.695312 37.691406 -0.625 C 37.691406 -0.371094 37.535156 -0.214844 37.222656 -0.15625 C 36.910156 -0.0976562 36.519531 -0.0625 36.058594 -0.0507812 C 35.59375 -0.0390625 35.085938 -0.0117188 34.527344 0.0351562 C 33.972656 0.0820312 33.453125 0.207031 32.964844 0.417969 Z M 11.984375 -17.855469 C 12.585938 -17.925781 13.195312 -17.972656 13.808594 -17.992188 C 14.421875 -18.015625 15.042969 -18.027344 15.667969 -18.027344 C 15.898438 -18.027344 16.210938 -18.015625 16.605469 -17.992188 C 17 -17.972656 17.433594 -17.953125 17.90625 -17.941406 C 18.382812 -17.929688 18.875 -17.914062 19.382812 -17.890625 C 19.894531 -17.867188 20.367188 -17.855469 20.808594 -17.855469 C 21.179688 -17.855469 21.550781 -17.878906 21.917969 -17.925781 C 22.289062 -17.972656 22.671875 -18.003906 23.066406 -18.027344 C 22.1875 -19.257812 21.324219 -20.464844 20.476562 -21.660156 C 19.632812 -22.851562 18.910156 -24.050781 18.308594 -25.253906 C 18.121094 -25.648438 17.964844 -26.082031 17.835938 -26.558594 C 17.710938 -27.03125 17.578125 -27.488281 17.4375 -27.929688 C 16.582031 -26.355469 15.65625 -24.796875 14.660156 -23.257812 C 13.664062 -21.714844 12.679688 -20.183594 11.707031 -18.652344 C 11.707031 -18.492188 11.730469 -18.316406 11.777344 -18.132812 C 11.824219 -17.949219 11.890625 -17.855469 11.984375 -17.855469 Z M 11.984375 -17.855469 "/></g></g></g></g><g fill="#000000" fill-opacity="1"><g transform="translate(38.384262, 88.59143)"><g><path d="M 22.855469 0.207031 C 22.53125 0.160156 22.21875 0.140625 21.917969 0.140625 C 21.617188 0.140625 21.347656 0.105469 21.101562 0.0351562 C 20.859375 -0.0351562 20.632812 -0.152344 20.425781 -0.3125 C 20.21875 -0.476562 20.03125 -0.730469 19.871094 -1.078125 C 20.148438 -1.285156 20.390625 -1.390625 20.597656 -1.390625 C 20.714844 -1.390625 20.820312 -1.371094 20.910156 -1.335938 C 21.003906 -1.300781 21.097656 -1.285156 21.191406 -1.285156 C 21.304688 -1.285156 21.421875 -1.355469 21.539062 -1.492188 C 21.652344 -1.632812 21.804688 -1.910156 21.988281 -2.328125 C 21.386719 -4.296875 20.800781 -6.21875 20.234375 -8.09375 C 19.667969 -9.96875 19.082031 -11.8125 18.480469 -13.617188 C 17.578125 -13.894531 16.65625 -14.160156 15.71875 -14.417969 C 14.78125 -14.671875 13.871094 -14.960938 12.992188 -15.285156 C 12.113281 -15.609375 11.261719 -15.984375 10.4375 -16.414062 C 9.617188 -16.84375 8.871094 -17.367188 8.199219 -17.992188 C 8.152344 -17.324219 8.082031 -16.621094 7.988281 -15.890625 C 7.898438 -15.164062 7.851562 -14.449219 7.851562 -13.757812 C 7.851562 -12.921875 7.953125 -12.03125 8.164062 -11.082031 C 8.371094 -10.132812 8.476562 -9.171875 8.476562 -8.199219 C 8.476562 -7.273438 8.5 -6.519531 8.546875 -5.941406 C 8.589844 -5.359375 8.65625 -4.863281 8.738281 -4.445312 C 8.816406 -4.03125 8.90625 -3.648438 8.996094 -3.300781 C 9.089844 -2.953125 9.171875 -2.558594 9.238281 -2.117188 C 9.425781 -1.886719 9.617188 -1.671875 9.8125 -1.476562 C 10.011719 -1.28125 10.109375 -1.054688 10.109375 -0.800781 C 10.109375 -0.613281 9.953125 -0.457031 9.640625 -0.328125 C 9.328125 -0.203125 8.9375 -0.0976562 8.476562 -0.015625 C 8.011719 0.0625 7.507812 0.121094 6.964844 0.15625 C 6.421875 0.191406 5.90625 0.207031 5.417969 0.207031 C 5.09375 0.207031 4.78125 0.195312 4.480469 0.171875 C 4.179688 0.152344 3.851562 0.128906 3.492188 0.105469 C 3.132812 0.0820312 2.734375 0.0585938 2.292969 0.0351562 C 1.851562 0.0117188 1.34375 0 0.765625 0 C 0.949219 -0.464844 1.152344 -0.851562 1.371094 -1.164062 C 1.59375 -1.476562 1.863281 -1.828125 2.1875 -2.222656 C 2.1875 -2.734375 2.199219 -3.445312 2.222656 -4.359375 C 2.246094 -5.273438 2.265625 -6.269531 2.273438 -7.347656 C 2.285156 -8.425781 2.304688 -9.53125 2.328125 -10.664062 C 2.351562 -11.800781 2.363281 -12.851562 2.363281 -13.824219 C 2.363281 -14.496094 2.386719 -15.019531 2.429688 -15.390625 C 2.476562 -15.757812 2.523438 -16.070312 2.570312 -16.328125 C 2.617188 -16.582031 2.664062 -16.835938 2.710938 -17.089844 C 2.753906 -17.34375 2.777344 -17.691406 2.777344 -18.132812 C 2.039062 -19.105469 1.667969 -19.894531 1.667969 -20.496094 C 1.667969 -20.867188 1.765625 -21.242188 1.960938 -21.625 C 2.160156 -22.007812 2.429688 -22.464844 2.777344 -22.996094 C 2.6875 -23.691406 2.59375 -24.398438 2.5 -25.113281 C 2.410156 -25.832031 2.363281 -26.539062 2.363281 -27.234375 C 2.363281 -27.8125 2.410156 -28.582031 2.5 -29.542969 C 2.59375 -30.503906 2.640625 -31.472656 2.640625 -32.445312 C 2.640625 -33.070312 2.605469 -33.65625 2.535156 -34.199219 C 2.464844 -34.742188 2.316406 -35.175781 2.085938 -35.5 C 1.714844 -35.6875 1.390625 -35.90625 1.113281 -36.160156 C 0.832031 -36.417969 0.695312 -36.636719 0.695312 -36.820312 C 0.695312 -37.101562 0.996094 -37.238281 1.597656 -37.238281 C 1.921875 -37.238281 2.28125 -37.179688 2.675781 -37.066406 C 3.070312 -36.949219 3.425781 -36.820312 3.75 -36.683594 C 4.492188 -36.867188 5.316406 -37.03125 6.21875 -37.167969 C 7.121094 -37.308594 8.023438 -37.378906 8.925781 -37.378906 C 9.667969 -37.378906 10.386719 -37.308594 11.082031 -37.167969 C 11.082031 -37.121094 11.117188 -37.054688 11.183594 -36.960938 C 10.699219 -36.566406 10.28125 -36.324219 9.933594 -36.230469 C 9.585938 -36.136719 9.285156 -36.039062 9.03125 -35.9375 C 8.777344 -35.832031 8.5625 -35.648438 8.390625 -35.378906 C 8.214844 -35.113281 8.082031 -34.609375 7.988281 -33.867188 C 8.175781 -32.246094 8.300781 -30.582031 8.371094 -28.867188 C 8.441406 -27.152344 8.476562 -25.429688 8.476562 -23.691406 C 8.523438 -23.484375 8.570312 -23.34375 8.613281 -23.273438 C 9.355469 -23.992188 10.074219 -24.59375 10.769531 -25.082031 C 11.464844 -25.566406 12.179688 -25.988281 12.921875 -26.347656 C 13.664062 -26.707031 14.4375 -27.039062 15.25 -27.339844 C 16.058594 -27.640625 16.953125 -27.976562 17.925781 -28.347656 C 18.179688 -28.808594 18.296875 -29.230469 18.273438 -29.613281 C 18.25 -29.996094 18.273438 -30.40625 18.339844 -30.847656 C 18.480469 -31.820312 18.675781 -32.730469 18.933594 -33.574219 C 19.1875 -34.417969 19.371094 -35.199219 19.488281 -35.917969 C 19.371094 -35.988281 19.234375 -36.0625 19.070312 -36.144531 C 18.910156 -36.226562 18.757812 -36.335938 18.621094 -36.472656 C 18.621094 -36.820312 18.921875 -37.058594 19.523438 -37.1875 C 20.125 -37.3125 20.820312 -37.378906 21.605469 -37.378906 C 22.09375 -37.378906 22.574219 -37.359375 23.046875 -37.324219 C 23.523438 -37.289062 23.945312 -37.257812 24.316406 -37.222656 C 24.6875 -37.1875 24.976562 -37.15625 25.183594 -37.132812 C 25.394531 -37.109375 25.472656 -37.101562 25.429688 -37.101562 L 22.648438 -29.25 C 22.300781 -28.761719 21.941406 -28.460938 21.570312 -28.347656 C 21.203125 -28.230469 20.75 -28.078125 20.21875 -27.894531 C 19.960938 -27.640625 19.707031 -27.390625 19.453125 -27.148438 C 19.199219 -26.902344 18.898438 -26.726562 18.550781 -26.609375 C 17.902344 -26.609375 17.0625 -26.515625 16.03125 -26.332031 C 15 -26.144531 14 -25.855469 13.027344 -25.460938 C 12.054688 -25.070312 11.21875 -24.578125 10.527344 -23.984375 C 9.832031 -23.394531 9.484375 -22.707031 9.484375 -21.917969 C 9.667969 -21.480469 9.761719 -21.003906 9.761719 -20.496094 C 9.761719 -19.847656 9.585938 -19.199219 9.238281 -18.550781 C 10.210938 -17.878906 11.277344 -17.316406 12.4375 -16.863281 C 13.59375 -16.414062 14.832031 -16.117188 16.152344 -15.980469 C 16.824219 -15.632812 17.492188 -15.296875 18.148438 -14.972656 C 18.808594 -14.648438 19.488281 -14.484375 20.183594 -14.484375 C 20.761719 -14.484375 21.257812 -14.574219 21.675781 -14.746094 C 22.09375 -14.917969 22.488281 -15.167969 22.855469 -15.492188 C 23.390625 -15.03125 23.730469 -14.496094 23.882812 -13.894531 C 24.03125 -13.292969 24.152344 -12.660156 24.246094 -12 C 24.339844 -11.34375 24.46875 -10.660156 24.628906 -9.953125 C 24.792969 -9.246094 25.136719 -8.570312 25.671875 -7.921875 C 25.742188 -7.386719 25.808594 -6.824219 25.878906 -6.234375 C 25.949219 -5.644531 26.042969 -5.046875 26.15625 -4.445312 C 26.273438 -3.84375 26.441406 -3.253906 26.660156 -2.675781 C 26.882812 -2.097656 27.1875 -1.574219 27.582031 -1.113281 C 27.699219 -1.089844 27.871094 -1.054688 28.101562 -1.007812 C 28.335938 -0.960938 28.570312 -0.910156 28.816406 -0.851562 C 29.058594 -0.792969 29.285156 -0.730469 29.492188 -0.660156 C 29.699219 -0.589844 29.851562 -0.507812 29.945312 -0.417969 C 29.898438 -0.253906 29.777344 -0.144531 29.578125 -0.0859375 C 29.382812 -0.0273438 29.179688 0 28.972656 0 C 28.507812 0 28.074219 -0.0585938 27.667969 -0.171875 C 27.261719 -0.289062 26.863281 -0.347656 26.46875 -0.347656 C 25.867188 -0.347656 25.28125 -0.277344 24.714844 -0.140625 C 24.148438 0 23.527344 0.117188 22.855469 0.207031 Z M 22.855469 0.207031 "/></g></g></g><g fill="#000000" fill-opacity="1"><g transform="translate(69.022202, 88.59143)"><g><path d="M 0.695312 0 C 0.695312 -0.371094 0.78125 -0.648438 0.957031 -0.832031 C 1.128906 -1.019531 1.332031 -1.164062 1.5625 -1.269531 C 1.792969 -1.371094 2.039062 -1.449219 2.292969 -1.492188 C 2.546875 -1.539062 2.746094 -1.597656 2.882812 -1.667969 C 3.183594 -1.828125 3.492188 -2.085938 3.804688 -2.429688 C 4.117188 -2.777344 4.375 -3.101562 4.585938 -3.402344 C 4.746094 -4.355469 5.078125 -5.1875 5.574219 -5.90625 C 6.074219 -6.625 6.644531 -7.292969 7.292969 -7.921875 C 7.941406 -8.546875 8.601562 -9.160156 9.273438 -9.761719 C 9.945312 -10.363281 10.535156 -11.023438 11.046875 -11.742188 C 10.839844 -12.414062 10.6875 -13.003906 10.59375 -13.511719 C 10.503906 -14.023438 10.457031 -14.507812 10.457031 -14.972656 C 10.457031 -15.367188 10.507812 -15.875 10.613281 -16.5 C 10.714844 -17.125 10.859375 -17.773438 11.046875 -18.445312 C 11.230469 -19.117188 11.445312 -19.777344 11.6875 -20.425781 C 11.933594 -21.074219 12.179688 -21.617188 12.4375 -22.058594 C 12.96875 -22.984375 13.605469 -23.847656 14.347656 -24.644531 C 15.085938 -25.445312 15.828125 -26.246094 16.570312 -27.042969 C 17.3125 -27.84375 18.003906 -28.671875 18.652344 -29.527344 C 19.300781 -30.382812 19.8125 -31.320312 20.183594 -32.339844 L 19.871094 -35.640625 C 19.847656 -35.78125 19.65625 -35.925781 19.296875 -36.074219 C 18.9375 -36.226562 18.492188 -36.300781 17.960938 -36.300781 C 17.820312 -36.300781 17.648438 -36.289062 17.4375 -36.265625 C 17.230469 -36.242188 17.019531 -36.214844 16.8125 -36.179688 C 16.605469 -36.144531 16.414062 -36.105469 16.238281 -36.058594 C 16.066406 -36.011719 15.933594 -35.953125 15.839844 -35.882812 C 15.632812 -35.511719 15.464844 -35.171875 15.335938 -34.859375 C 15.210938 -34.546875 15.109375 -34.226562 15.042969 -33.902344 C 14.972656 -33.578125 14.925781 -33.238281 14.902344 -32.878906 C 14.878906 -32.519531 14.867188 -32.097656 14.867188 -31.609375 C 14.867188 -31.332031 14.796875 -31.050781 14.660156 -30.761719 C 14.519531 -30.46875 14.347656 -30.203125 14.136719 -29.960938 C 13.929688 -29.71875 13.703125 -29.515625 13.460938 -29.351562 C 13.21875 -29.191406 12.992188 -29.109375 12.785156 -29.109375 C 11.949219 -29.109375 11.53125 -29.621094 11.53125 -30.636719 C 11.53125 -31.078125 11.613281 -31.414062 11.777344 -31.644531 C 11.9375 -31.878906 12.25 -31.992188 12.714844 -31.992188 C 12.96875 -31.992188 13.269531 -31.957031 13.617188 -31.890625 C 13.6875 -32.328125 13.722656 -32.699219 13.722656 -33 C 13.722656 -33.324219 13.6875 -33.597656 13.617188 -33.816406 C 13.546875 -34.035156 13.445312 -34.25 13.304688 -34.460938 C 13.164062 -34.667969 13.003906 -34.894531 12.816406 -35.136719 C 12.632812 -35.378906 12.425781 -35.6875 12.191406 -36.058594 C 12.191406 -36.519531 12.296875 -36.851562 12.503906 -37.046875 C 12.714844 -37.246094 12.875 -37.34375 12.992188 -37.34375 L 27.824219 -36.753906 L 27.582031 -36.128906 C 27.117188 -36.035156 26.742188 -35.925781 26.453125 -35.796875 C 26.164062 -35.667969 25.9375 -35.484375 25.773438 -35.242188 C 25.613281 -35 25.503906 -34.667969 25.445312 -34.25 C 25.386719 -33.835938 25.359375 -33.300781 25.359375 -32.652344 C 25.359375 -31.148438 25.46875 -29.660156 25.6875 -28.191406 C 25.910156 -26.71875 26.019531 -25.253906 26.019531 -23.796875 C 26.019531 -22.753906 26.097656 -21.671875 26.261719 -20.546875 C 26.421875 -19.425781 26.539062 -18.273438 26.609375 -17.089844 C 26.539062 -16.976562 26.503906 -16.617188 26.503906 -16.015625 C 26.503906 -14.949219 26.511719 -13.96875 26.523438 -13.078125 C 26.535156 -12.1875 26.574219 -11.324219 26.644531 -10.492188 C 26.714844 -9.65625 26.8125 -8.816406 26.9375 -7.972656 C 27.066406 -7.128906 27.234375 -6.207031 27.441406 -5.210938 C 27.441406 -4.839844 27.4375 -4.511719 27.425781 -4.21875 C 27.414062 -3.929688 27.40625 -3.671875 27.40625 -3.4375 C 27.40625 -3.089844 27.429688 -2.796875 27.476562 -2.554688 C 27.523438 -2.308594 27.621094 -2.074219 27.773438 -1.839844 C 27.921875 -1.609375 28.144531 -1.382812 28.433594 -1.164062 C 28.722656 -0.945312 29.109375 -0.683594 29.597656 -0.382812 L 24.246094 0 L 20.078125 -0.417969 C 20.542969 -0.808594 20.910156 -1.222656 21.191406 -1.648438 C 21.46875 -2.078125 21.605469 -2.664062 21.605469 -3.402344 C 21.605469 -4.398438 21.484375 -5.320312 21.242188 -6.164062 C 21 -7.011719 20.878906 -7.757812 20.878906 -8.40625 C 20.878906 -8.914062 20.929688 -9.40625 21.035156 -9.882812 C 21.136719 -10.359375 21.191406 -10.816406 21.191406 -11.253906 C 21.191406 -11.53125 21.15625 -11.792969 21.085938 -12.035156 C 21.015625 -12.28125 20.890625 -12.527344 20.703125 -12.785156 C 20.101562 -12.667969 19.515625 -12.570312 18.949219 -12.488281 C 18.382812 -12.40625 17.820312 -12.308594 17.265625 -12.191406 C 16.847656 -12.007812 16.484375 -11.855469 16.171875 -11.742188 C 15.859375 -11.625 15.574219 -11.5 15.320312 -11.359375 C 15.066406 -11.21875 14.832031 -11.039062 14.625 -10.820312 C 14.417969 -10.601562 14.21875 -10.28125 14.035156 -9.867188 C 13.523438 -9.65625 13.0625 -9.339844 12.644531 -8.910156 C 12.226562 -8.480469 11.863281 -7.996094 11.550781 -7.453125 C 11.238281 -6.90625 10.996094 -6.328125 10.820312 -5.714844 C 10.648438 -5.101562 10.558594 -4.515625 10.558594 -3.960938 C 10.558594 -3.636719 10.519531 -3.363281 10.4375 -3.144531 C 10.359375 -2.921875 10.265625 -2.714844 10.160156 -2.519531 C 10.054688 -2.320312 9.964844 -2.140625 9.882812 -1.980469 C 9.800781 -1.816406 9.761719 -1.65625 9.761719 -1.492188 C 9.761719 -1.308594 9.789062 -1.140625 9.847656 -0.988281 C 9.90625 -0.839844 9.992188 -0.613281 10.109375 -0.3125 Z M 15.667969 -13.0625 C 15.96875 -13.128906 16.382812 -13.234375 16.917969 -13.375 C 17.449219 -13.511719 17.992188 -13.691406 18.550781 -13.914062 C 19.105469 -14.132812 19.621094 -14.382812 20.09375 -14.660156 C 20.570312 -14.9375 20.890625 -15.238281 21.050781 -15.5625 L 21.050781 -25.496094 C 21.050781 -26.238281 20.976562 -26.933594 20.824219 -27.582031 C 20.675781 -28.230469 20.496094 -28.832031 20.285156 -29.386719 C 20.101562 -29.339844 19.839844 -29.152344 19.503906 -28.816406 C 19.167969 -28.480469 18.832031 -28.113281 18.496094 -27.71875 C 18.160156 -27.328125 17.855469 -26.9375 17.578125 -26.558594 C 17.300781 -26.175781 17.113281 -25.914062 17.019531 -25.773438 C 16.695312 -25.265625 16.363281 -24.703125 16.015625 -24.089844 C 15.667969 -23.476562 15.296875 -22.902344 14.902344 -22.371094 C 14.578125 -21.421875 14.363281 -20.417969 14.257812 -19.367188 C 14.15625 -18.3125 14.101562 -17.230469 14.101562 -16.117188 C 14.101562 -15.980469 14.136719 -15.742188 14.207031 -15.40625 C 14.277344 -15.070312 14.382812 -14.730469 14.519531 -14.382812 C 14.660156 -14.035156 14.828125 -13.726562 15.023438 -13.460938 C 15.222656 -13.195312 15.433594 -13.0625 15.667969 -13.0625 Z M 15.667969 -13.0625 "/></g></g></g><g fill="#000000" fill-opacity="1"><g transform="translate(99.31277, 88.59143)"><g/></g></g><g fill="#000000" fill-opacity="1"><g transform="translate(129.603339, 88.59143)"><g><path d="M 0.695312 -0.207031 C 0.695312 -0.347656 0.878906 -0.515625 1.25 -0.710938 C 1.621094 -0.910156 2.039062 -1.167969 2.5 -1.492188 C 2.964844 -1.816406 3.414062 -2.210938 3.855469 -2.675781 C 4.296875 -3.136719 4.574219 -3.683594 4.691406 -4.308594 C 4.574219 -6.925781 4.433594 -9.53125 4.273438 -12.125 C 4.109375 -14.71875 4.03125 -17.230469 4.03125 -19.660156 C 4.03125 -20.449219 4.050781 -21.402344 4.097656 -22.527344 C 4.144531 -23.652344 4.199219 -24.785156 4.253906 -25.929688 C 4.3125 -27.078125 4.375 -28.160156 4.445312 -29.179688 C 4.515625 -30.199219 4.585938 -31.007812 4.65625 -31.609375 C 4.5625 -32.816406 4.320312 -33.925781 3.925781 -34.945312 C 3.53125 -35.964844 3.183594 -36.914062 2.882812 -37.792969 L 18.621094 -36.996094 C 18.6875 -36.996094 18.910156 -36.910156 19.28125 -36.734375 C 19.648438 -36.5625 20.042969 -36.300781 20.460938 -35.953125 C 20.878906 -35.605469 21.257812 -35.183594 21.605469 -34.683594 C 21.953125 -34.1875 22.128906 -33.625 22.128906 -33 C 22.128906 -32.257812 21.949219 -31.558594 21.589844 -30.898438 C 21.230469 -30.238281 20.765625 -29.644531 20.199219 -29.109375 C 19.632812 -28.578125 19.007812 -28.125 18.324219 -27.753906 C 17.640625 -27.382812 16.976562 -27.117188 16.328125 -26.957031 C 15.980469 -26.769531 15.695312 -26.625 15.476562 -26.523438 C 15.253906 -26.417969 15.03125 -26.332031 14.796875 -26.261719 C 14.566406 -26.191406 14.289062 -26.105469 13.964844 -26 C 13.640625 -25.898438 13.1875 -25.753906 12.609375 -25.566406 C 13.121094 -24.871094 13.703125 -24.316406 14.363281 -23.898438 C 15.023438 -23.484375 15.691406 -23.078125 16.363281 -22.683594 C 17.03125 -22.289062 17.664062 -21.832031 18.253906 -21.3125 C 18.84375 -20.789062 19.335938 -20.101562 19.730469 -19.246094 C 20.449219 -18.597656 21.074219 -17.835938 21.605469 -16.96875 C 22.140625 -16.101562 22.601562 -15.167969 22.996094 -14.171875 C 23.390625 -13.175781 23.738281 -12.15625 24.039062 -11.117188 C 24.339844 -10.074219 24.605469 -9.054688 24.835938 -8.058594 C 24.835938 -7.921875 24.878906 -7.769531 24.957031 -7.609375 C 25.039062 -7.445312 25.125 -7.277344 25.21875 -7.105469 C 25.3125 -6.929688 25.398438 -6.757812 25.480469 -6.582031 C 25.5625 -6.410156 25.601562 -6.253906 25.601562 -6.113281 C 25.601562 -5.765625 25.640625 -5.402344 25.722656 -5.019531 C 25.804688 -4.636719 25.890625 -4.238281 25.984375 -3.820312 C 26.078125 -3.402344 26.164062 -2.96875 26.246094 -2.519531 C 26.324219 -2.066406 26.367188 -1.609375 26.367188 -1.144531 C 26.367188 -0.800781 26.296875 -0.507812 26.15625 -0.277344 C 25.046875 -0.207031 23.929688 -0.144531 22.804688 -0.0859375 C 21.683594 -0.0273438 20.566406 0 19.453125 0 C 18.480469 0 17.414062 -0.0351562 16.257812 -0.105469 C 15.097656 -0.171875 13.980469 -0.242188 12.90625 -0.3125 C 11.828125 -0.382812 10.839844 -0.453125 9.933594 -0.519531 C 9.03125 -0.589844 8.335938 -0.625 7.851562 -0.625 C 7.503906 -0.625 7.046875 -0.589844 6.480469 -0.519531 C 5.910156 -0.453125 5.308594 -0.382812 4.671875 -0.3125 C 4.035156 -0.242188 3.398438 -0.171875 2.761719 -0.105469 C 2.125 -0.0351562 1.574219 0 1.113281 0 Z M 12.261719 -0.832031 C 13.1875 -0.878906 14.113281 -0.949219 15.042969 -1.042969 C 15.96875 -1.132812 16.894531 -1.179688 17.820312 -1.179688 C 17.867188 -1.226562 17.972656 -1.28125 18.132812 -1.335938 C 18.296875 -1.394531 18.472656 -1.449219 18.671875 -1.492188 C 18.867188 -1.539062 19.070312 -1.582031 19.28125 -1.617188 C 19.488281 -1.648438 19.660156 -1.691406 19.800781 -1.738281 C 20.054688 -2.199219 20.308594 -2.664062 20.566406 -3.125 C 20.820312 -3.589844 21.074219 -4.050781 21.328125 -4.515625 C 21.328125 -4.792969 21.324219 -5.007812 21.3125 -5.160156 C 21.300781 -5.308594 21.28125 -5.460938 21.257812 -5.609375 C 21.234375 -5.761719 21.203125 -5.933594 21.15625 -6.132812 C 21.109375 -6.328125 21.050781 -6.625 20.980469 -7.015625 C 20.980469 -7.039062 20.957031 -7.3125 20.910156 -7.832031 C 20.867188 -8.355469 20.789062 -8.992188 20.6875 -9.742188 C 20.582031 -10.496094 20.441406 -11.3125 20.269531 -12.191406 C 20.09375 -13.074219 19.886719 -13.882812 19.644531 -14.625 C 19.402344 -15.367188 19.113281 -15.984375 18.777344 -16.484375 C 18.441406 -16.980469 18.0625 -17.230469 17.648438 -17.230469 C 17.113281 -19.570312 16.140625 -21.292969 14.730469 -22.40625 C 13.316406 -23.515625 11.566406 -24.199219 9.484375 -24.457031 C 9.484375 -23.691406 9.441406 -22.847656 9.363281 -21.917969 C 9.28125 -20.992188 9.238281 -20.066406 9.238281 -19.140625 C 9.238281 -18.398438 9.285156 -17.640625 9.378906 -16.863281 C 9.472656 -16.089844 9.609375 -15.332031 9.796875 -14.589844 C 9.726562 -13.847656 9.691406 -13.085938 9.691406 -12.296875 C 9.691406 -10.90625 9.765625 -9.496094 9.917969 -8.058594 C 10.066406 -6.625 10.234375 -5.1875 10.421875 -3.75 C 10.558594 -3.402344 10.699219 -3.125 10.839844 -2.917969 L 10.839844 -1.179688 C 11.070312 -1.132812 11.300781 -1.078125 11.53125 -1.007812 C 11.765625 -0.9375 12.007812 -0.878906 12.261719 -0.832031 Z M 9.484375 -25.914062 C 10.339844 -25.984375 11.226562 -26.191406 12.140625 -26.539062 C 13.054688 -26.886719 13.90625 -27.351562 14.695312 -27.929688 C 15.480469 -28.507812 16.160156 -29.191406 16.726562 -29.976562 C 17.292969 -30.765625 17.667969 -31.609375 17.855469 -32.515625 C 17.714844 -33.1875 17.53125 -33.730469 17.300781 -34.148438 C 17.066406 -34.5625 16.785156 -34.882812 16.449219 -35.101562 C 16.113281 -35.324219 15.742188 -35.472656 15.335938 -35.554688 C 14.929688 -35.636719 14.496094 -35.675781 14.035156 -35.675781 C 13.59375 -35.675781 13.136719 -35.65625 12.660156 -35.625 C 12.1875 -35.589844 11.695312 -35.570312 11.183594 -35.570312 C 11.046875 -35.410156 10.867188 -35.210938 10.648438 -34.980469 C 10.425781 -34.75 10.167969 -34.472656 9.867188 -34.148438 C 9.773438 -32.78125 9.6875 -31.414062 9.605469 -30.046875 C 9.523438 -28.679688 9.484375 -27.304688 9.484375 -25.914062 Z M 9.484375 -25.914062 "/></g></g></g><g fill="#000000" fill-opacity="1"><g transform="translate(156.66338, 88.59143)"><g><path d="M 24.941406 -5.140625 C 24.941406 -6.066406 24.925781 -6.929688 24.890625 -7.730469 C 24.855469 -8.527344 24.820312 -9.21875 24.785156 -9.796875 C 24.75 -10.375 24.703125 -10.828125 24.644531 -11.152344 C 24.589844 -11.476562 24.546875 -11.636719 24.523438 -11.636719 C 23.761719 -10.570312 22.742188 -9.726562 21.46875 -9.101562 C 20.890625 -9.101562 20.292969 -9.171875 19.679688 -9.308594 C 19.066406 -9.449219 18.503906 -9.667969 17.992188 -9.96875 C 17.484375 -10.269531 17.066406 -10.652344 16.742188 -11.117188 C 16.417969 -11.578125 16.257812 -12.125 16.257812 -12.75 C 16.257812 -13.097656 16.40625 -13.367188 16.707031 -13.566406 C 17.011719 -13.761719 17.367188 -13.917969 17.785156 -14.035156 C 18.203125 -14.148438 18.621094 -14.226562 19.035156 -14.257812 C 19.453125 -14.292969 19.789062 -14.3125 20.042969 -14.3125 L 20.042969 -13.0625 C 20.042969 -12.804688 20.007812 -12.585938 19.9375 -12.402344 C 19.871094 -12.214844 19.835938 -12.042969 19.835938 -11.878906 C 19.835938 -11.71875 19.90625 -11.480469 20.042969 -11.167969 C 20.183594 -10.855469 20.449219 -10.699219 20.84375 -10.699219 C 21.257812 -10.699219 21.617188 -10.726562 21.917969 -10.785156 C 22.21875 -10.84375 22.476562 -10.949219 22.683594 -11.097656 C 22.890625 -11.25 23.070312 -11.457031 23.222656 -11.722656 C 23.371094 -11.992188 23.527344 -12.320312 23.691406 -12.714844 C 23.691406 -12.992188 23.652344 -13.386719 23.570312 -13.894531 C 23.488281 -14.40625 23.414062 -14.890625 23.34375 -15.355469 C 22.71875 -16.417969 21.9375 -17.378906 21 -18.238281 C 20.0625 -19.09375 19.03125 -19.824219 17.90625 -20.425781 C 16.785156 -21.027344 15.585938 -21.492188 14.3125 -21.816406 C 13.039062 -22.140625 11.753906 -22.300781 10.457031 -22.300781 C 9.574219 -22.300781 8.789062 -22.25 8.09375 -22.144531 C 7.398438 -22.039062 6.625 -21.78125 5.765625 -21.363281 C 5.535156 -21.363281 5.332031 -21.648438 5.160156 -22.214844 C 4.984375 -22.78125 4.847656 -23.449219 4.742188 -24.210938 C 4.636719 -24.976562 4.5625 -25.734375 4.515625 -26.488281 C 4.46875 -27.238281 4.445312 -27.8125 4.445312 -28.207031 C 4.445312 -28.949219 4.503906 -29.699219 4.621094 -30.464844 C 4.734375 -31.230469 4.792969 -31.96875 4.792969 -32.6875 C 4.792969 -33.105469 4.742188 -33.457031 4.636719 -33.746094 C 4.535156 -34.035156 4.40625 -34.304688 4.253906 -34.546875 C 4.105469 -34.789062 3.929688 -35.019531 3.734375 -35.242188 C 3.539062 -35.460938 3.359375 -35.710938 3.195312 -35.988281 C 3.011719 -36.035156 2.789062 -36.09375 2.535156 -36.160156 C 2.28125 -36.230469 2.03125 -36.300781 1.789062 -36.371094 C 1.546875 -36.441406 1.324219 -36.519531 1.128906 -36.613281 C 0.933594 -36.707031 0.789062 -36.796875 0.695312 -36.890625 C 0.695312 -37.121094 0.804688 -37.285156 1.023438 -37.378906 C 1.246094 -37.46875 1.550781 -37.515625 1.945312 -37.515625 C 2.386719 -37.515625 2.890625 -37.464844 3.457031 -37.359375 C 4.023438 -37.257812 4.574219 -37.140625 5.105469 -37.011719 C 5.640625 -36.886719 6.109375 -36.769531 6.511719 -36.664062 C 6.917969 -36.5625 7.179688 -36.507812 7.292969 -36.507812 C 7.828125 -36.53125 8.273438 -36.636719 8.632812 -36.820312 C 8.992188 -37.007812 9.34375 -37.101562 9.691406 -37.101562 C 9.898438 -37.101562 10.144531 -37.082031 10.421875 -37.046875 C 10.699219 -37.011719 11.046875 -36.960938 11.464844 -36.890625 C 11.464844 -36.796875 11.382812 -36.671875 11.21875 -36.507812 C 11.058594 -36.347656 10.871094 -36.160156 10.664062 -35.953125 C 10.457031 -35.746094 10.269531 -35.5 10.109375 -35.222656 C 9.945312 -34.945312 9.867188 -34.644531 9.867188 -34.320312 C 9.867188 -34.019531 9.871094 -33.601562 9.882812 -33.070312 C 9.894531 -32.539062 9.898438 -31.957031 9.898438 -31.332031 C 9.898438 -30.730469 9.910156 -30.105469 9.933594 -29.457031 C 9.957031 -28.808594 9.96875 -28.195312 9.96875 -27.617188 C 9.96875 -27.058594 9.976562 -26.585938 9.988281 -26.191406 C 10 -25.796875 10.003906 -25.542969 10.003906 -25.429688 C 10.28125 -25.082031 10.519531 -24.808594 10.714844 -24.613281 C 10.914062 -24.414062 11.121094 -24.253906 11.34375 -24.125 C 11.5625 -23.996094 11.8125 -23.875 12.089844 -23.761719 C 12.367188 -23.644531 12.714844 -23.503906 13.128906 -23.34375 C 15.5625 -23.066406 17.699219 -22.375 19.539062 -21.277344 C 21.382812 -20.175781 23.089844 -18.515625 24.664062 -16.292969 C 24.664062 -17.542969 24.675781 -18.867188 24.699219 -20.269531 C 24.722656 -21.671875 24.75 -23.105469 24.785156 -24.578125 C 24.820312 -26.046875 24.855469 -27.519531 24.890625 -28.988281 C 24.925781 -30.460938 24.941406 -31.890625 24.941406 -33.277344 C 24.941406 -33.648438 24.929688 -33.972656 24.90625 -34.25 C 24.882812 -34.527344 24.832031 -34.796875 24.75 -35.050781 C 24.667969 -35.304688 24.554688 -35.566406 24.402344 -35.832031 C 24.253906 -36.097656 24.0625 -36.429688 23.828125 -36.820312 C 23.921875 -36.914062 24.0625 -36.976562 24.246094 -37.011719 C 24.433594 -37.046875 24.640625 -37.066406 24.871094 -37.066406 C 25.265625 -37.066406 25.652344 -37.035156 26.035156 -36.976562 C 26.417969 -36.921875 26.691406 -36.878906 26.851562 -36.855469 C 27.523438 -37.066406 28.078125 -37.25 28.519531 -37.414062 C 28.960938 -37.574219 29.410156 -37.65625 29.875 -37.65625 C 29.96875 -37.65625 30.175781 -37.644531 30.5 -37.621094 C 30.824219 -37.597656 31.171875 -37.558594 31.542969 -37.5 C 31.914062 -37.441406 32.257812 -37.371094 32.582031 -37.289062 C 32.90625 -37.210938 33.128906 -37.109375 33.242188 -36.996094 C 33.175781 -36.855469 33.058594 -36.710938 32.894531 -36.5625 C 32.734375 -36.410156 32.554688 -36.265625 32.359375 -36.128906 C 32.160156 -35.988281 31.96875 -35.855469 31.785156 -35.726562 C 31.597656 -35.601562 31.449219 -35.5 31.332031 -35.433594 C 31.03125 -34.691406 30.789062 -34.003906 30.605469 -33.367188 C 30.417969 -32.730469 30.273438 -32.089844 30.167969 -31.453125 C 30.066406 -30.816406 29.988281 -30.164062 29.945312 -29.492188 C 29.898438 -28.820312 29.875 -28.066406 29.875 -27.234375 C 29.875 -26.121094 29.855469 -24.949219 29.820312 -23.707031 C 29.789062 -22.46875 29.753906 -21.242188 29.71875 -20.027344 C 29.683594 -18.808594 29.652344 -17.664062 29.632812 -16.585938 C 29.609375 -15.511719 29.597656 -14.578125 29.597656 -13.789062 C 29.597656 -13.210938 29.660156 -12.460938 29.789062 -11.53125 C 29.914062 -10.605469 30.054688 -9.605469 30.203125 -8.527344 C 30.355469 -7.453125 30.492188 -6.339844 30.621094 -5.191406 C 30.75 -4.046875 30.8125 -2.964844 30.8125 -1.945312 C 31.042969 -1.851562 31.269531 -1.765625 31.488281 -1.683594 C 31.710938 -1.605469 31.921875 -1.5 32.132812 -1.371094 C 32.339844 -1.246094 32.527344 -1.089844 32.6875 -0.902344 C 32.851562 -0.71875 33 -0.464844 33.140625 -0.140625 C 33.070312 0.0234375 32.894531 0.132812 32.617188 0.191406 C 32.339844 0.25 32.027344 0.277344 31.679688 0.277344 C 31.378906 0.277344 31.054688 0.253906 30.707031 0.207031 C 30.359375 0.160156 30.03125 0.109375 29.71875 0.0507812 C 29.40625 -0.00390625 29.128906 -0.0585938 28.882812 -0.105469 C 28.640625 -0.152344 28.484375 -0.171875 28.414062 -0.171875 C 28.160156 -0.171875 27.75 -0.152344 27.183594 -0.105469 C 26.613281 -0.0585938 26 -0.00390625 25.339844 0.0507812 C 24.679688 0.109375 24.042969 0.160156 23.429688 0.207031 C 22.816406 0.253906 22.335938 0.277344 21.988281 0.277344 C 22.011719 -0.0703125 22.117188 -0.363281 22.300781 -0.609375 C 22.488281 -0.851562 22.707031 -1.082031 22.960938 -1.300781 C 23.214844 -1.523438 23.488281 -1.75 23.777344 -1.980469 C 24.066406 -2.210938 24.339844 -2.464844 24.59375 -2.746094 Z M 24.941406 -5.140625 "/></g></g></g><g fill="#000000" fill-opacity="1"><g transform="translate(190.601319, 88.59143)"><g><path d="M 20.632812 0.207031 C 20.242188 0.046875 20.042969 -0.171875 20.042969 -0.453125 C 20.042969 -0.660156 20.171875 -0.878906 20.425781 -1.113281 C 20.679688 -1.34375 20.964844 -1.570312 21.277344 -1.789062 C 21.589844 -2.007812 21.875 -2.21875 22.128906 -2.414062 C 22.382812 -2.609375 22.511719 -2.777344 22.511719 -2.917969 C 22.511719 -3.75 22.453125 -4.601562 22.335938 -5.472656 C 22.21875 -6.339844 22.164062 -7.15625 22.164062 -7.921875 C 22.164062 -8.546875 22.179688 -9.261719 22.214844 -10.074219 C 22.25 -10.882812 22.289062 -11.667969 22.335938 -12.417969 C 22.382812 -13.171875 22.421875 -13.84375 22.457031 -14.433594 C 22.492188 -15.023438 22.511719 -15.421875 22.511719 -15.632812 C 22.511719 -15.980469 22.476562 -16.441406 22.40625 -17.019531 C 22.335938 -17.601562 22.265625 -18.230469 22.199219 -18.914062 C 22.128906 -19.597656 22.058594 -20.296875 21.988281 -21.015625 C 21.917969 -21.734375 21.882812 -22.40625 21.882812 -23.03125 C 21.882812 -23.839844 21.929688 -24.535156 22.023438 -25.113281 C 22.117188 -25.695312 22.164062 -26.167969 22.164062 -26.539062 C 20.980469 -25.707031 19.945312 -24.738281 19.054688 -23.640625 C 18.160156 -22.539062 17.316406 -21.398438 16.519531 -20.21875 C 15.71875 -19.035156 14.925781 -17.855469 14.136719 -16.675781 C 13.351562 -15.492188 12.480469 -14.394531 11.53125 -13.375 C 11.277344 -12.863281 11.097656 -12.320312 10.996094 -11.742188 C 10.890625 -11.164062 10.820312 -10.566406 10.785156 -9.953125 C 10.75 -9.339844 10.726562 -8.71875 10.714844 -8.09375 C 10.703125 -7.46875 10.664062 -6.878906 10.59375 -6.320312 C 10.527344 -5.652344 10.4375 -5.078125 10.335938 -4.601562 C 10.230469 -4.128906 10.179688 -3.695312 10.179688 -3.300781 C 10.179688 -2.789062 10.324219 -2.339844 10.613281 -1.945312 C 10.902344 -1.550781 11.488281 -1.101562 12.367188 -0.589844 C 12.367188 -0.429688 12.222656 -0.296875 11.933594 -0.191406 C 11.644531 -0.0859375 11.300781 -0.00390625 10.90625 0.0507812 C 10.515625 0.109375 10.121094 0.152344 9.726562 0.171875 C 9.332031 0.195312 9.054688 0.207031 8.894531 0.207031 C 8.589844 0.207031 8.265625 0.195312 7.921875 0.171875 C 7.574219 0.152344 7.171875 0.128906 6.722656 0.105469 C 6.269531 0.0820312 5.742188 0.0585938 5.140625 0.0351562 C 4.539062 0.0117188 3.84375 0 3.058594 0 L 2.917969 -0.902344 C 3.449219 -1.644531 3.832031 -2.253906 4.0625 -2.726562 C 4.296875 -3.203125 4.410156 -3.695312 4.410156 -4.203125 C 4.410156 -4.550781 4.367188 -4.933594 4.273438 -5.347656 C 4.179688 -5.765625 4.050781 -6.277344 3.890625 -6.878906 C 3.890625 -7.828125 4.007812 -8.683594 4.238281 -9.449219 C 4.46875 -10.210938 4.632812 -11 4.722656 -11.8125 C 4.65625 -12.480469 4.566406 -13.152344 4.464844 -13.824219 C 4.359375 -14.496094 4.308594 -15.167969 4.308594 -15.839844 C 4.308594 -16.675781 4.277344 -17.484375 4.21875 -18.273438 C 4.164062 -19.058594 4.097656 -19.839844 4.03125 -20.617188 C 3.960938 -21.390625 3.894531 -22.179688 3.839844 -22.980469 C 3.78125 -23.777344 3.75 -24.605469 3.75 -25.460938 C 3.75 -26.132812 3.804688 -26.800781 3.90625 -27.460938 C 4.011719 -28.121094 4.121094 -28.785156 4.238281 -29.457031 C 4.355469 -30.128906 4.464844 -30.800781 4.566406 -31.472656 C 4.671875 -32.144531 4.722656 -32.816406 4.722656 -33.488281 C 4.722656 -34.042969 4.691406 -34.5625 4.621094 -35.050781 C 3.761719 -35.375 3.015625 -35.691406 2.378906 -36.003906 C 1.742188 -36.316406 1.179688 -36.730469 0.695312 -37.238281 C 1.066406 -37.425781 1.4375 -37.515625 1.804688 -37.515625 C 2.363281 -37.515625 2.964844 -37.429688 3.613281 -37.257812 C 4.261719 -37.082031 4.863281 -36.9375 5.417969 -36.820312 C 5.996094 -36.914062 6.570312 -37.035156 7.136719 -37.1875 C 7.707031 -37.335938 8.324219 -37.445312 8.996094 -37.515625 C 9.597656 -37.445312 10.085938 -37.394531 10.457031 -37.359375 C 10.828125 -37.324219 11.140625 -37.289062 11.394531 -37.257812 C 11.648438 -37.222656 11.886719 -37.179688 12.105469 -37.132812 C 12.324219 -37.089844 12.585938 -37.019531 12.886719 -36.925781 C 12.75 -36.625 12.585938 -36.359375 12.402344 -36.128906 C 12.214844 -35.894531 12.035156 -35.65625 11.863281 -35.414062 C 11.6875 -35.171875 11.519531 -34.921875 11.359375 -34.667969 C 11.195312 -34.414062 11.070312 -34.125 10.976562 -33.800781 C 10.976562 -32.386719 10.914062 -30.863281 10.785156 -29.230469 C 10.660156 -27.597656 10.59375 -26.042969 10.59375 -24.558594 C 10.59375 -23.957031 10.535156 -23.402344 10.421875 -22.890625 C 10.304688 -22.382812 10.246094 -21.863281 10.246094 -21.328125 C 10.246094 -21.027344 10.257812 -20.722656 10.28125 -20.410156 C 10.304688 -20.09375 10.351562 -19.753906 10.421875 -19.382812 C 10.492188 -18.945312 10.527344 -18.503906 10.527344 -18.0625 C 10.527344 -17.625 10.546875 -17.183594 10.59375 -16.742188 C 10.894531 -16.742188 11.167969 -16.785156 11.410156 -16.863281 C 11.65625 -16.945312 11.886719 -17.054688 12.105469 -17.195312 C 12.324219 -17.335938 12.546875 -17.496094 12.765625 -17.679688 C 12.984375 -17.867188 13.222656 -18.0625 13.476562 -18.273438 C 14.035156 -19.152344 14.589844 -20.003906 15.144531 -20.824219 C 15.703125 -21.648438 16.285156 -22.441406 16.898438 -23.203125 C 17.511719 -23.96875 18.171875 -24.714844 18.878906 -25.445312 C 19.585938 -26.175781 20.367188 -26.886719 21.226562 -27.582031 C 21.894531 -28.113281 22.375 -28.785156 22.667969 -29.597656 C 22.957031 -30.40625 23.101562 -31.4375 23.101562 -32.6875 C 23.101562 -33.152344 23.070312 -33.585938 23.011719 -33.992188 C 22.957031 -34.394531 22.847656 -34.738281 22.683594 -35.015625 C 22.683594 -35.917969 22.855469 -36.484375 23.203125 -36.71875 C 23.550781 -36.949219 24.050781 -37.066406 24.699219 -37.066406 C 25 -37.066406 25.429688 -37.105469 25.984375 -37.1875 C 26.539062 -37.269531 27.050781 -37.308594 27.511719 -37.308594 C 27.71875 -37.308594 27.957031 -37.296875 28.222656 -37.273438 C 28.492188 -37.25 28.746094 -37.222656 28.988281 -37.1875 C 29.230469 -37.152344 29.453125 -37.121094 29.648438 -37.101562 C 29.84375 -37.078125 29.988281 -37.066406 30.082031 -37.066406 L 28.554688 -35.882812 C 28.554688 -35.511719 28.605469 -35.136719 28.710938 -34.753906 C 28.816406 -34.371094 28.867188 -33.960938 28.867188 -33.523438 C 28.867188 -33.242188 28.832031 -32.953125 28.761719 -32.652344 C 28.761719 -31.148438 28.710938 -29.664062 28.605469 -28.207031 C 28.503906 -26.746094 28.324219 -25.21875 28.066406 -23.621094 C 28.066406 -23.089844 28.050781 -22.476562 28.015625 -21.78125 C 27.980469 -21.085938 27.941406 -20.410156 27.894531 -19.75 C 27.847656 -19.089844 27.808594 -18.484375 27.773438 -17.941406 C 27.738281 -17.398438 27.71875 -17.019531 27.71875 -16.8125 C 27.71875 -16.488281 27.777344 -16.148438 27.894531 -15.789062 C 28.011719 -15.429688 28.066406 -15.074219 28.066406 -14.730469 C 27.976562 -14.289062 27.882812 -13.84375 27.789062 -13.390625 C 27.699219 -12.941406 27.652344 -12.480469 27.652344 -12.019531 C 27.652344 -11.625 27.675781 -11.203125 27.71875 -10.75 C 27.765625 -10.300781 27.8125 -9.855469 27.859375 -9.414062 C 27.90625 -8.972656 27.953125 -8.558594 28 -8.164062 C 28.042969 -7.769531 28.066406 -7.433594 28.066406 -7.15625 C 28.066406 -6.390625 28.097656 -5.691406 28.15625 -5.054688 C 28.210938 -4.417969 28.335938 -3.816406 28.519531 -3.246094 C 28.703125 -2.679688 28.972656 -2.128906 29.320312 -1.597656 C 29.664062 -1.066406 30.140625 -0.53125 30.742188 0 C 30.535156 0 30.214844 -0.0273438 29.789062 -0.0859375 C 29.359375 -0.144531 28.882812 -0.203125 28.363281 -0.261719 C 27.84375 -0.320312 27.316406 -0.375 26.78125 -0.433594 C 26.25 -0.492188 25.785156 -0.519531 25.394531 -0.519531 C 24.582031 -0.519531 23.777344 -0.398438 22.980469 -0.15625 C 22.179688 0.0859375 21.398438 0.207031 20.632812 0.207031 Z M 20.632812 0.207031 "/></g></g></g><g fill="#000000" fill-opacity="1"><g transform="translate(222.038211, 88.59143)"><g><path d="M 12.367188 -26.226562 C 12.367188 -27.152344 12.34375 -27.957031 12.296875 -28.640625 C 12.25 -29.324219 12.191406 -29.957031 12.125 -30.535156 C 12.054688 -31.113281 11.996094 -31.6875 11.949219 -32.253906 C 11.902344 -32.820312 11.878906 -33.453125 11.878906 -34.148438 C 11.878906 -34.378906 11.84375 -34.59375 11.777344 -34.789062 C 11.707031 -34.988281 11.648438 -35.1875 11.601562 -35.398438 C 11.140625 -35.398438 10.640625 -35.289062 10.109375 -35.066406 C 9.574219 -34.847656 9.066406 -34.5625 8.582031 -34.214844 C 8.09375 -33.867188 7.660156 -33.480469 7.277344 -33.054688 C 6.894531 -32.625 6.625 -32.203125 6.460938 -31.785156 C 6.460938 -31.667969 6.457031 -31.523438 6.445312 -31.351562 C 6.433594 -31.175781 6.410156 -30.992188 6.375 -30.792969 C 6.339844 -30.597656 6.300781 -30.402344 6.253906 -30.203125 C 6.207031 -30.007812 6.136719 -29.851562 6.042969 -29.734375 C 5.859375 -29.804688 5.71875 -29.875 5.628906 -29.945312 C 5.535156 -30.011719 5.472656 -30.082031 5.4375 -30.152344 C 5.402344 -30.222656 5.371094 -30.296875 5.347656 -30.378906 C 5.328125 -30.460938 5.304688 -30.546875 5.28125 -30.636719 C 4.886719 -31.007812 4.5625 -31.328125 4.308594 -31.59375 C 4.050781 -31.859375 3.828125 -32.125 3.628906 -32.394531 C 3.433594 -32.660156 3.257812 -32.953125 3.109375 -33.277344 C 2.957031 -33.601562 2.777344 -33.996094 2.570312 -34.460938 C 2.246094 -34.714844 1.917969 -34.957031 1.582031 -35.1875 C 1.246094 -35.421875 0.949219 -35.6875 0.695312 -35.988281 C 0.695312 -36.3125 0.808594 -36.574219 1.042969 -36.769531 C 1.273438 -36.964844 1.570312 -37.117188 1.929688 -37.222656 C 2.285156 -37.324219 2.679688 -37.390625 3.109375 -37.414062 C 3.539062 -37.433594 3.9375 -37.445312 4.308594 -37.445312 C 4.609375 -37.445312 5.066406 -37.417969 5.679688 -37.359375 C 6.292969 -37.300781 6.964844 -37.238281 7.695312 -37.167969 C 8.425781 -37.101562 9.183594 -37.035156 9.96875 -36.976562 C 10.757812 -36.921875 11.488281 -36.890625 12.15625 -36.890625 C 12.503906 -36.890625 13.054688 -36.921875 13.808594 -36.976562 C 14.5625 -37.035156 15.378906 -37.101562 16.257812 -37.167969 C 17.136719 -37.238281 18 -37.300781 18.84375 -37.359375 C 19.691406 -37.417969 20.355469 -37.445312 20.84375 -37.445312 C 22.023438 -37.445312 23.042969 -37.433594 23.898438 -37.414062 C 24.757812 -37.390625 25.503906 -37.355469 26.140625 -37.308594 C 26.777344 -37.261719 27.351562 -37.214844 27.859375 -37.167969 C 28.367188 -37.121094 28.878906 -37.066406 29.386719 -36.996094 C 29.339844 -36.855469 29.167969 -36.683594 28.867188 -36.472656 C 28.566406 -36.265625 28.222656 -36.058594 27.84375 -35.847656 C 27.460938 -35.640625 27.101562 -35.449219 26.765625 -35.277344 C 26.429688 -35.101562 26.214844 -34.992188 26.121094 -34.945312 C 25.519531 -34.113281 24.992188 -33.289062 24.542969 -32.480469 C 24.089844 -31.667969 23.691406 -30.730469 23.34375 -29.664062 C 23.226562 -29.664062 23.089844 -29.886719 22.925781 -30.324219 C 22.765625 -30.765625 22.601562 -31.296875 22.441406 -31.921875 C 22.277344 -32.550781 22.117188 -33.210938 21.953125 -33.902344 C 21.792969 -34.597656 21.652344 -35.199219 21.539062 -35.710938 L 17.4375 -35.535156 C 17.53125 -33.800781 17.605469 -32.058594 17.664062 -30.308594 C 17.722656 -28.558594 17.75 -26.792969 17.75 -25.011719 C 17.75 -22.671875 17.679688 -20.332031 17.542969 -17.992188 C 17.402344 -15.65625 17.171875 -13.316406 16.847656 -10.976562 C 16.847656 -10.28125 16.898438 -9.375 17.003906 -8.25 C 17.109375 -7.128906 17.257812 -6.027344 17.457031 -4.949219 C 17.652344 -3.875 17.90625 -2.945312 18.21875 -2.171875 C 18.53125 -1.394531 18.898438 -1.007812 19.3125 -1.007812 L 19.765625 0.171875 C 19.347656 0.171875 18.886719 0.144531 18.375 0.0859375 C 17.867188 0.0273438 17.4375 0 17.089844 0 C 16.882812 0 16.574219 0.015625 16.171875 0.0507812 C 15.765625 0.0859375 15.324219 0.128906 14.851562 0.171875 C 14.375 0.21875 13.902344 0.261719 13.425781 0.296875 C 12.953125 0.328125 12.527344 0.347656 12.15625 0.347656 C 11.507812 0.347656 10.867188 0.300781 10.230469 0.207031 C 9.59375 0.117188 8.960938 0.046875 8.335938 0 C 8.636719 -0.230469 8.949219 -0.457031 9.273438 -0.675781 C 9.597656 -0.898438 9.90625 -1.132812 10.195312 -1.390625 C 10.484375 -1.644531 10.746094 -1.921875 10.976562 -2.222656 C 11.207031 -2.523438 11.371094 -2.871094 11.464844 -3.265625 C 11.464844 -3.472656 11.445312 -3.878906 11.410156 -4.480469 C 11.375 -5.082031 11.332031 -5.765625 11.273438 -6.53125 C 11.214844 -7.292969 11.167969 -8.070312 11.132812 -8.859375 C 11.097656 -9.644531 11.082031 -10.316406 11.082031 -10.871094 C 11.082031 -10.894531 11.109375 -11.152344 11.167969 -11.636719 C 11.226562 -12.125 11.308594 -12.765625 11.410156 -13.566406 C 11.515625 -14.363281 11.621094 -15.285156 11.722656 -16.328125 C 11.828125 -17.367188 11.933594 -18.453125 12.035156 -19.574219 C 12.140625 -20.699219 12.222656 -21.832031 12.28125 -22.980469 C 12.335938 -24.125 12.367188 -25.207031 12.367188 -26.226562 Z M 12.367188 -26.226562 "/></g></g></g><g clip-path="url(#9897fc2315)"><g fill="#000000" fill-opacity="1"><g transform="translate(252.120379, 88.59143)"><g><path d="M 3.613281 -37.445312 C 3.773438 -37.402344 4.15625 -37.359375 4.757812 -37.324219 C 5.359375 -37.289062 6.042969 -37.257812 6.808594 -37.222656 C 7.574219 -37.1875 8.347656 -37.15625 9.136719 -37.132812 C 9.921875 -37.109375 10.59375 -37.101562 11.152344 -37.101562 C 11.5 -37.101562 11.742188 -37.078125 11.878906 -37.03125 C 12.019531 -36.984375 12.089844 -36.9375 12.089844 -36.890625 C 12.089844 -36.777344 11.898438 -36.621094 11.515625 -36.421875 C 11.132812 -36.226562 10.78125 -36.011719 10.457031 -35.78125 C 10.15625 -34.898438 9.953125 -33.984375 9.847656 -33.035156 C 9.742188 -32.085938 9.691406 -31.125 9.691406 -30.152344 C 9.691406 -29.015625 9.738281 -27.894531 9.832031 -26.78125 C 9.921875 -25.671875 10.003906 -24.570312 10.074219 -23.484375 C 10.605469 -23.738281 11.105469 -24.003906 11.566406 -24.28125 C 12.03125 -24.558594 12.585938 -24.699219 13.234375 -24.699219 C 13.628906 -24.699219 14.011719 -24.664062 14.382812 -24.59375 C 14.75 -24.523438 15.132812 -24.433594 15.527344 -24.316406 C 15.945312 -23.785156 16.246094 -23.238281 16.429688 -22.683594 C 16.617188 -22.128906 16.707031 -21.527344 16.707031 -20.878906 C 16.707031 -20.597656 16.691406 -20.316406 16.65625 -20.027344 C 16.621094 -19.738281 16.582031 -19.429688 16.535156 -19.105469 C 16.046875 -19.058594 15.679688 -19.03125 15.421875 -19.019531 C 15.167969 -19.007812 14.953125 -18.988281 14.78125 -18.964844 C 14.605469 -18.945312 14.433594 -18.921875 14.257812 -18.898438 C 14.085938 -18.875 13.847656 -18.828125 13.546875 -18.757812 C 13.710938 -19.335938 13.859375 -19.851562 14 -20.304688 C 14.136719 -20.753906 14.207031 -21.214844 14.207031 -21.675781 C 14.207031 -22.207031 14.113281 -22.597656 13.929688 -22.839844 C 13.746094 -23.082031 13.363281 -23.203125 12.785156 -23.203125 C 12.136719 -23.203125 11.613281 -22.851562 11.21875 -22.144531 C 10.828125 -21.4375 10.628906 -20.554688 10.628906 -19.488281 C 10.628906 -18.976562 10.902344 -18.519531 11.445312 -18.117188 C 11.992188 -17.710938 12.691406 -17.355469 13.546875 -17.054688 C 14.40625 -16.753906 15.367188 -16.5 16.429688 -16.292969 C 17.496094 -16.082031 18.554688 -15.914062 19.609375 -15.789062 C 20.664062 -15.660156 21.652344 -15.566406 22.578125 -15.511719 C 23.503906 -15.453125 24.257812 -15.421875 24.835938 -15.421875 C 24.835938 -15.097656 24.882812 -14.804688 24.976562 -14.539062 C 25.070312 -14.269531 25.179688 -14.003906 25.304688 -13.738281 C 25.433594 -13.472656 25.542969 -13.207031 25.636719 -12.941406 C 25.730469 -12.671875 25.773438 -12.390625 25.773438 -12.089844 C 26.121094 -11.207031 26.394531 -10.328125 26.589844 -9.449219 C 26.789062 -8.570312 26.960938 -7.683594 27.113281 -6.792969 C 27.261719 -5.898438 27.414062 -5.003906 27.5625 -4.097656 C 27.714844 -3.195312 27.917969 -2.292969 28.171875 -1.390625 C 28.289062 -1.320312 28.433594 -1.25 28.605469 -1.179688 C 28.78125 -1.113281 28.941406 -1.046875 29.09375 -0.988281 C 29.242188 -0.933594 29.375 -0.867188 29.492188 -0.800781 C 29.609375 -0.730469 29.664062 -0.660156 29.664062 -0.589844 C 29.664062 0.0117188 29.398438 0.3125 28.867188 0.3125 C 27.824219 0.3125 26.695312 0.289062 25.480469 0.242188 C 24.265625 0.195312 23.082031 0.144531 21.9375 0.0859375 C 20.789062 0.0273438 19.730469 -0.0234375 18.757812 -0.0703125 C 17.785156 -0.117188 17.019531 -0.140625 16.464844 -0.140625 C 15.585938 -0.140625 14.6875 -0.09375 13.773438 0 C 12.859375 0.09375 11.996094 0.140625 11.183594 0.140625 C 11.046875 0.140625 10.726562 0.15625 10.230469 0.191406 C 9.730469 0.226562 9.140625 0.261719 8.457031 0.296875 C 7.777344 0.328125 7.035156 0.363281 6.234375 0.398438 C 5.4375 0.433594 4.679688 0.453125 3.960938 0.453125 C 3.058594 0.453125 2.285156 0.410156 1.648438 0.328125 C 1.011719 0.25 0.695312 0.140625 0.695312 0 C 0.695312 -0.371094 0.886719 -0.683594 1.269531 -0.9375 C 1.648438 -1.191406 2.078125 -1.429688 2.554688 -1.648438 C 3.027344 -1.871094 3.457031 -2.089844 3.839844 -2.308594 C 4.21875 -2.53125 4.410156 -2.777344 4.410156 -3.058594 C 4.410156 -3.820312 4.320312 -4.648438 4.132812 -5.539062 C 3.949219 -6.433594 3.796875 -7.292969 3.683594 -8.128906 C 3.84375 -12.179688 4.007812 -16.234375 4.167969 -20.285156 C 4.332031 -24.339844 4.410156 -28.347656 4.410156 -32.304688 C 4.410156 -32.652344 4.433594 -32.960938 4.480469 -33.226562 C 4.527344 -33.492188 4.550781 -33.753906 4.550781 -34.007812 C 4.550781 -34.332031 4.527344 -34.652344 4.480469 -34.964844 C 4.433594 -35.277344 4.355469 -35.628906 4.238281 -36.023438 C 3.867188 -36.023438 3.550781 -36.144531 3.28125 -36.386719 C 3.015625 -36.628906 2.882812 -36.855469 2.882812 -37.066406 C 2.882812 -37.132812 2.941406 -37.214844 3.058594 -37.308594 C 3.171875 -37.402344 3.359375 -37.445312 3.613281 -37.445312 Z M 13.269531 -1.179688 C 13.546875 -1.179688 13.980469 -1.191406 14.574219 -1.214844 C 15.164062 -1.238281 15.824219 -1.285156 16.550781 -1.355469 C 17.28125 -1.425781 18.039062 -1.503906 18.828125 -1.597656 C 19.613281 -1.691406 20.34375 -1.804688 21.015625 -1.945312 C 21.015625 -2.015625 21.027344 -2.078125 21.050781 -2.136719 C 21.074219 -2.195312 21.101562 -2.285156 21.136719 -2.414062 C 21.171875 -2.542969 21.214844 -2.734375 21.257812 -2.988281 C 21.304688 -3.242188 21.339844 -3.601562 21.363281 -4.0625 C 21.246094 -4.78125 21.148438 -5.523438 21.066406 -6.289062 C 20.988281 -7.050781 20.90625 -7.808594 20.824219 -8.5625 C 20.742188 -9.316406 20.640625 -10.050781 20.511719 -10.769531 C 20.386719 -11.488281 20.21875 -12.15625 20.007812 -12.785156 C 19.3125 -12.785156 18.441406 -12.894531 17.386719 -13.113281 C 16.332031 -13.332031 15.285156 -13.640625 14.242188 -14.035156 C 13.199219 -14.425781 12.269531 -14.886719 11.445312 -15.40625 C 10.625 -15.925781 10.097656 -16.488281 9.867188 -17.089844 C 9.867188 -15.980469 9.835938 -14.84375 9.777344 -13.6875 C 9.722656 -12.527344 9.691406 -11.359375 9.691406 -10.179688 C 9.691406 -8.71875 9.742188 -7.277344 9.847656 -5.851562 C 9.953125 -4.429688 10.167969 -3.035156 10.492188 -1.667969 C 11.207031 -1.367188 12.136719 -1.203125 13.269531 -1.179688 Z M 13.269531 -1.179688 "/></g></g></g></g></svg>