<svg xmlns="http://www.w3.org/2000/svg" xmlns:xlink="http://www.w3.org/1999/xlink" width="500" zoomAndPan="magnify" viewBox="0 0 375 374.999991" height="500" preserveAspectRatio="xMidYMid meet" version="1.0"><path fill="#000000" d="M 363.675781 132.730469 C 356.457031 125.527344 340.886719 121.214844 330.011719 121.214844 L 322.6875 121.214844 C 325.226562 119.59375 327.582031 117.734375 329.75 115.644531 L 330.0625 115.332031 C 332.289062 113.121094 334.234375 110.6875 335.898438 108.027344 C 338.117188 104.539062 339.808594 100.8125 340.980469 96.847656 C 342.148438 92.882812 342.75 88.832031 342.78125 84.699219 C 342.710938 82.15625 342.429688 79.632812 341.941406 77.132812 C 341.457031 74.632812 340.769531 72.1875 339.886719 69.800781 C 339 67.410156 337.925781 65.109375 336.664062 62.898438 C 335.402344 60.683594 333.972656 58.585938 332.367188 56.609375 C 331.578125 55.71875 330.894531 54.984375 330.402344 54.492188 L 330.0625 54.097656 C 328.757812 52.777344 327.359375 51.570312 325.863281 50.476562 C 324.390625 49.34375 322.859375 48.308594 321.257812 47.371094 C 317.515625 45.359375 313.582031 43.859375 309.449219 42.871094 C 305.316406 41.882812 301.128906 41.441406 296.882812 41.542969 C 293.078125 41.769531 289.363281 42.472656 285.734375 43.640625 C 283.984375 44.234375 282.277344 44.933594 280.617188 45.742188 C 278.957031 46.550781 277.351562 47.457031 275.804688 48.46875 C 274.257812 49.480469 272.78125 50.585938 271.375 51.78125 C 269.96875 52.980469 268.644531 54.261719 267.402344 55.628906 C 266.15625 56.992188 265.003906 58.429688 263.945312 59.941406 C 262.882812 61.453125 261.921875 63.027344 261.058594 64.660156 C 260.199219 66.292969 259.445312 67.972656 258.796875 69.703125 C 258.148438 71.429688 257.609375 73.191406 257.1875 74.988281 C 256.402344 78.183594 256.015625 81.425781 256.027344 84.714844 C 256.019531 87.566406 256.292969 90.386719 256.84375 93.183594 C 257.398438 95.976562 258.21875 98.691406 259.3125 101.324219 C 260.40625 103.957031 261.746094 106.457031 263.335938 108.820312 C 264.921875 111.1875 266.730469 113.375 268.75 115.386719 L 268.996094 115.578125 C 271.164062 117.695312 273.519531 119.574219 276.070312 121.214844 L 268.820312 121.214844 C 264.886719 121.230469 261.042969 121.824219 257.289062 123 C 255.519531 123.5625 253.792969 124.230469 252.109375 125.007812 L 251.710938 124.554688 C 251.421875 124.222656 251.125 123.886719 250.800781 123.519531 L 250.488281 123.210938 C 249.492188 122.21875 248.449219 121.273438 247.359375 120.378906 C 246.269531 119.484375 245.140625 118.644531 243.96875 117.863281 C 242.796875 117.078125 241.59375 116.355469 240.351562 115.6875 C 239.109375 115.019531 237.835938 114.417969 236.535156 113.875 C 235.234375 113.332031 233.910156 112.855469 232.5625 112.441406 C 231.214844 112.027344 229.851562 111.679688 228.472656 111.398438 C 227.089844 111.121094 225.699219 110.90625 224.296875 110.761719 C 222.894531 110.617188 221.488281 110.539062 220.078125 110.53125 C 218.667969 110.523438 217.261719 110.585938 215.859375 110.714844 C 214.453125 110.84375 213.0625 111.039062 211.675781 111.304688 C 210.292969 111.570312 208.921875 111.902344 207.570312 112.300781 C 206.21875 112.695312 204.890625 113.160156 203.582031 113.6875 C 202.277344 114.214844 200.996094 114.804688 199.75 115.457031 C 198.5 116.109375 197.285156 116.820312 196.105469 117.589844 C 194.925781 118.359375 193.785156 119.1875 192.6875 120.066406 C 191.585938 120.949219 190.535156 121.882812 189.523438 122.867188 L 189.125 123.207031 C 188.554688 123.777344 188 124.363281 187.460938 124.964844 C 186.917969 125.566406 186.398438 126.179688 185.894531 126.8125 C 185.386719 127.441406 184.902344 128.085938 184.433594 128.742188 C 183.964844 129.402344 183.515625 130.070312 183.082031 130.753906 C 182.652344 131.4375 182.242188 132.132812 181.847656 132.835938 C 181.457031 133.542969 181.082031 134.257812 180.730469 134.984375 C 180.378906 135.710938 180.046875 136.449219 179.738281 137.195312 C 179.425781 137.9375 179.136719 138.691406 178.867188 139.453125 C 178.601562 140.214844 178.351562 140.984375 178.128906 141.757812 C 177.902344 142.53125 177.699219 143.3125 177.515625 144.101562 C 177.335938 144.886719 177.175781 145.679688 177.039062 146.472656 C 176.898438 147.269531 176.785156 148.066406 176.691406 148.871094 C 176.601562 149.671875 176.53125 150.476562 176.480469 151.28125 C 176.433594 152.085938 176.410156 152.894531 176.40625 153.699219 C 176.40625 154.507812 176.425781 155.316406 176.46875 156.121094 C 176.511719 156.925781 176.578125 157.730469 176.664062 158.535156 C 176.753906 159.335938 176.863281 160.136719 176.996094 160.929688 C 177.128906 161.726562 177.28125 162.519531 177.460938 163.308594 C 177.636719 164.09375 177.835938 164.875 178.058594 165.652344 C 178.277344 166.429688 178.519531 167.199219 178.785156 167.960938 C 179.046875 168.726562 179.335938 169.480469 179.640625 170.226562 C 179.945312 170.972656 180.273438 171.710938 180.621094 172.441406 C 180.96875 173.167969 181.335938 173.886719 181.726562 174.59375 C 182.113281 175.304688 182.519531 176 182.949219 176.6875 C 183.375 177.371094 183.820312 178.042969 184.285156 178.703125 C 184.75 179.363281 185.234375 180.011719 185.734375 180.644531 C 186.234375 181.277344 186.753906 181.898438 187.289062 182.5 C 187.824219 183.105469 188.378906 183.695312 188.945312 184.269531 C 189.515625 184.839844 190.101562 185.398438 190.699219 185.9375 C 191.300781 186.480469 191.914062 187.003906 192.542969 187.511719 C 193.171875 188.015625 193.816406 188.503906 194.472656 188.976562 C 195.128906 189.445312 195.800781 189.898438 196.480469 190.332031 L 192.429688 190.332031 C 188.5625 190.3125 184.796875 190.917969 181.128906 192.144531 C 177.460938 193.371094 174.089844 195.15625 171.011719 197.496094 C 166.621094 200.816406 163.152344 204.910156 160.597656 209.78125 C 158.488281 209.296875 156.351562 209.023438 154.183594 208.960938 C 155.339844 208.089844 156.429688 207.144531 157.457031 206.128906 C 158.304688 205.285156 159.109375 204.402344 159.867188 203.480469 C 160.628906 202.558594 161.34375 201.601562 162.007812 200.609375 C 162.675781 199.617188 163.292969 198.597656 163.859375 197.542969 C 164.425781 196.492188 164.941406 195.414062 165.402344 194.3125 C 165.867188 193.210938 166.273438 192.089844 166.625 190.949219 C 166.976562 189.808594 167.273438 188.652344 167.515625 187.480469 C 167.753906 186.308594 167.9375 185.132812 168.0625 183.941406 C 168.1875 182.753906 168.253906 181.5625 168.261719 180.367188 C 168.269531 179.175781 168.21875 177.980469 168.113281 176.792969 C 168.003906 175.601562 167.839844 174.421875 167.617188 173.246094 C 167.390625 172.074219 167.113281 170.914062 166.777344 169.765625 C 166.441406 168.621094 166.046875 167.492188 165.601562 166.382812 C 165.15625 165.277344 164.65625 164.191406 164.105469 163.132812 C 163.550781 162.074219 162.949219 161.042969 162.296875 160.042969 C 161.644531 159.039062 160.945312 158.074219 160.199219 157.140625 C 159.453125 156.207031 158.660156 155.3125 157.828125 154.457031 L 157.464844 154.097656 C 156.015625 152.660156 154.460938 151.355469 152.792969 150.175781 C 151.125 149 149.371094 147.972656 147.53125 147.09375 C 145.691406 146.210938 143.789062 145.492188 141.824219 144.929688 C 139.863281 144.371094 137.867188 143.976562 135.839844 143.753906 C 134.882812 141.71875 133.761719 139.78125 132.472656 137.941406 C 131.144531 135.964844 129.613281 134.15625 127.882812 132.515625 C 124.402344 129.070312 120.402344 126.402344 115.882812 124.515625 C 110.964844 122.335938 105.820312 121.234375 100.441406 121.207031 L 93.230469 121.207031 C 95.792969 119.578125 98.152344 117.699219 100.308594 115.566406 L 100.550781 115.375 C 105.082031 110.820312 108.441406 105.519531 110.621094 99.476562 C 111.417969 95.636719 112.261719 91.851562 113.109375 88.0625 L 113.226562 87.40625 C 113.277344 86.507812 113.324219 85.605469 113.324219 84.707031 C 113.316406 83.226562 113.230469 81.75 113.058594 80.28125 C 113.007812 79.863281 112.957031 79.445312 112.902344 79.070312 L 112.421875 75.992188 C 112.339844 75.707031 112.277344 75.445312 112.210938 75.179688 C 112.144531 74.917969 112.085938 74.664062 112.019531 74.445312 C 111.847656 73.605469 111.628906 72.773438 111.359375 71.957031 C 111.164062 71.355469 110.9375 70.761719 110.683594 70.183594 L 110.578125 69.886719 C 110.351562 69.257812 110.121094 68.636719 109.898438 68.050781 C 109.628906 67.363281 109.3125 66.695312 108.953125 66.050781 L 108.160156 64.304688 C 107.917969 63.851562 107.640625 63.425781 107.394531 63.011719 C 107.210938 62.71875 107.023438 62.421875 106.828125 62.074219 C 106.527344 61.625 106.273438 61.226562 105.996094 60.726562 C 105.453125 59.917969 104.867188 59.144531 104.238281 58.402344 C 104.136719 58.242188 104.027344 58.101562 103.921875 57.953125 C 103.820312 57.800781 103.742188 57.65625 103.589844 57.472656 C 102.761719 56.46875 101.984375 55.605469 101.214844 54.832031 L 101.109375 54.707031 C 101.042969 54.625 100.976562 54.542969 100.90625 54.476562 L 100.539062 54.109375 C 98.800781 52.445312 96.96875 50.894531 95.042969 49.453125 L 94.894531 49.371094 C 94.832031 49.332031 94.777344 49.289062 94.722656 49.242188 C 94.640625 49.171875 94.558594 49.109375 94.496094 49.070312 C 92.574219 47.773438 90.566406 46.632812 88.472656 45.644531 C 88.175781 45.496094 87.882812 45.351562 87.566406 45.164062 C 85.460938 44.234375 83.289062 43.484375 81.058594 42.914062 L 79.960938 42.582031 C 78.8125 42.375 77.96875 42.273438 76.972656 42.148438 C 75.980469 42.023438 74.851562 41.886719 73.21875 41.628906 C 72.980469 41.542969 72.730469 41.496094 72.476562 41.492188 C 68.214844 41.269531 64.007812 41.65625 59.859375 42.65625 C 55.707031 43.65625 51.785156 45.222656 48.09375 47.363281 C 46.464844 48.269531 44.921875 49.304688 43.46875 50.464844 C 41.945312 51.566406 40.539062 52.796875 39.246094 54.15625 L 38.933594 54.464844 C 37.523438 55.878906 36.253906 57.40625 35.121094 59.054688 C 31.882812 62.78125 29.523438 66.996094 28.046875 71.703125 C 26.683594 76.445312 26.191406 81.273438 26.570312 86.191406 C 26.554688 91.328125 27.417969 96.3125 29.160156 101.148438 C 30.023438 103.585938 31.222656 105.84375 32.753906 107.929688 C 33.144531 108.371094 33.445312 108.714844 35.34375 110.9375 L 35.734375 111.386719 C 37.136719 113.046875 38.324219 114.398438 39.246094 115.417969 L 39.566406 115.730469 C 41.730469 117.800781 44.078125 119.625 46.617188 121.214844 L 39.285156 121.214844 C 38.355469 121.214844 37.292969 121.265625 36.242188 121.371094 C 35.199219 121.453125 34.160156 121.59375 33.132812 121.796875 C 29.09375 122.574219 25.242188 123.890625 21.574219 125.75 C 17.90625 127.609375 14.566406 129.941406 11.554688 132.738281 C 9.019531 135.300781 6.867188 138.15625 5.09375 141.296875 C 3.320312 144.4375 1.992188 147.753906 1.109375 151.25 C 0.371094 154.289062 0.00390625 157.375 0 160.503906 L 0 254.773438 C 0.00390625 255.203125 0.046875 255.628906 0.136719 256.050781 C 0.222656 256.472656 0.347656 256.878906 0.511719 257.277344 C 0.679688 257.671875 0.878906 258.050781 1.121094 258.410156 C 1.359375 258.765625 1.628906 259.097656 1.933594 259.402344 C 2.234375 259.707031 2.566406 259.980469 2.921875 260.222656 C 3.277344 260.464844 3.652344 260.667969 4.050781 260.835938 C 4.445312 261.007812 4.855469 261.136719 5.273438 261.222656 C 5.695312 261.3125 6.121094 261.363281 6.550781 261.371094 L 220.726562 261.371094 C 220.945312 262.402344 221.15625 263.371094 221.453125 264.394531 C 221.710938 265.222656 221.96875 266 222.28125 266.828125 L 222.539062 267.601562 C 224.605469 273 227.644531 277.777344 231.65625 281.933594 C 233.519531 283.847656 235.386719 285.761719 237.300781 287.625 C 240.460938 290.78125 243.621094 293.886719 246.832031 297.09375 L 248.179688 298.4375 C 256.515625 306.820312 264.910156 315.148438 273.195312 323.480469 L 277.703125 327.980469 C 278.921875 329.375 280.316406 330.566406 281.886719 331.550781 C 283.457031 332.539062 285.132812 333.277344 286.921875 333.773438 L 291.273438 333.824219 L 291.738281 333.773438 C 293.519531 333.285156 295.191406 332.546875 296.753906 331.558594 C 298.316406 330.574219 299.699219 329.378906 300.90625 327.980469 L 305.101562 323.789062 L 321.519531 307.386719 L 334.832031 294.144531 C 337.265625 291.710938 339.753906 289.230469 342.1875 286.746094 C 343.792969 285.140625 345.398438 283.539062 346.953125 281.933594 C 351.117188 277.667969 354.226562 272.734375 356.277344 267.136719 C 356.792969 265.6875 357.261719 264.242188 357.621094 262.84375 C 357.710938 262.433594 357.796875 262.050781 357.886719 261.652344 L 367.886719 261.652344 C 368.34375 261.621094 368.789062 261.550781 369.230469 261.445312 C 369.671875 261.335938 370.101562 261.191406 370.515625 261.007812 C 370.933594 260.824219 371.332031 260.609375 371.710938 260.359375 C 372.089844 260.109375 372.445312 259.828125 372.777344 259.515625 C 373.109375 259.207031 373.410156 258.867188 373.683594 258.507812 C 373.957031 258.144531 374.195312 257.757812 374.402344 257.355469 C 374.609375 256.949219 374.78125 256.53125 374.914062 256.097656 C 375.050781 255.664062 375.148438 255.222656 375.207031 254.773438 L 375.207031 160.503906 C 375.199219 157.925781 374.941406 155.375 374.433594 152.84375 C 373.925781 150.316406 373.175781 147.863281 372.1875 145.480469 C 371.199219 143.101562 369.988281 140.835938 368.554688 138.691406 C 367.125 136.546875 365.496094 134.558594 363.675781 132.730469 Z M 277.820312 63.53125 L 278.058594 63.339844 C 278.761719 62.644531 279.492188 61.984375 280.257812 61.363281 C 281.023438 60.738281 281.820312 60.15625 282.640625 59.609375 C 283.464844 59.0625 284.3125 58.558594 285.183594 58.09375 C 286.054688 57.632812 286.949219 57.210938 287.863281 56.835938 C 288.773438 56.460938 289.703125 56.128906 290.648438 55.84375 C 291.59375 55.558594 292.550781 55.320312 293.519531 55.128906 C 294.488281 54.933594 295.464844 54.789062 296.445312 54.695312 C 297.429688 54.597656 298.414062 54.546875 299.402344 54.546875 C 300.390625 54.546875 301.375 54.59375 302.359375 54.6875 C 303.339844 54.78125 304.316406 54.925781 305.285156 55.113281 C 306.253906 55.304688 307.214844 55.542969 308.160156 55.824219 C 309.105469 56.109375 310.035156 56.4375 310.949219 56.8125 C 311.863281 57.1875 312.753906 57.601562 313.628906 58.066406 C 314.5 58.527344 315.351562 59.027344 316.175781 59.570312 C 316.996094 60.117188 317.792969 60.699219 318.558594 61.320312 C 319.328125 61.941406 320.0625 62.597656 320.765625 63.292969 L 321.058594 63.644531 C 321.742188 64.347656 322.386719 65.085938 322.996094 65.851562 C 323.601562 66.617188 324.175781 67.414062 324.707031 68.234375 C 325.238281 69.058594 325.730469 69.90625 326.179688 70.773438 C 326.628906 71.644531 327.039062 72.535156 327.402344 73.441406 C 327.765625 74.351562 328.085938 75.277344 328.359375 76.214844 C 328.632812 77.15625 328.863281 78.105469 329.046875 79.070312 C 329.226562 80.03125 329.363281 81 329.453125 81.976562 C 329.542969 82.949219 329.582031 83.925781 329.578125 84.90625 C 329.570312 85.886719 329.519531 86.863281 329.417969 87.835938 C 329.316406 88.808594 329.171875 89.777344 328.976562 90.738281 C 328.785156 91.695312 328.542969 92.644531 328.257812 93.582031 C 327.972656 94.519531 327.640625 95.4375 327.265625 96.34375 C 326.890625 97.25 326.476562 98.132812 326.015625 98.996094 C 325.554688 99.863281 325.054688 100.703125 324.511719 101.519531 C 323.96875 102.332031 323.390625 103.121094 322.769531 103.882812 C 322.152344 104.640625 321.5 105.371094 320.8125 106.066406 L 320.550781 106.320312 C 319.847656 107.003906 319.109375 107.652344 318.34375 108.265625 C 317.574219 108.875 316.777344 109.449219 315.953125 109.984375 C 315.128906 110.519531 314.28125 111.011719 313.410156 111.464844 C 312.535156 111.914062 311.644531 112.324219 310.730469 112.691406 C 309.820312 113.054688 308.890625 113.375 307.949219 113.648438 C 307.003906 113.925781 306.050781 114.152344 305.085938 114.335938 C 304.117188 114.515625 303.144531 114.652344 302.167969 114.738281 C 301.1875 114.828125 300.207031 114.867188 299.226562 114.859375 C 298.242188 114.851562 297.261719 114.792969 296.285156 114.691406 C 295.308594 114.585938 294.339844 114.4375 293.375 114.238281 C 292.414062 114.042969 291.460938 113.796875 290.523438 113.507812 C 289.585938 113.214844 288.664062 112.882812 287.757812 112.5 C 286.851562 112.121094 285.964844 111.699219 285.101562 111.230469 C 284.234375 110.765625 283.394531 110.257812 282.578125 109.710938 C 281.765625 109.164062 280.976562 108.578125 280.21875 107.953125 C 279.460938 107.328125 278.734375 106.667969 278.042969 105.972656 C 277.347656 105.277344 276.6875 104.550781 276.066406 103.792969 C 275.441406 103.03125 274.859375 102.246094 274.3125 101.429688 C 273.765625 100.613281 273.261719 99.769531 272.796875 98.90625 C 272.332031 98.039062 271.910156 97.15625 271.535156 96.25 C 271.15625 95.34375 270.824219 94.421875 270.535156 93.480469 C 270.25 92.542969 270.007812 91.59375 269.8125 90.632812 C 269.617188 89.667969 269.46875 88.699219 269.367188 87.722656 C 269.269531 86.746094 269.214844 85.769531 269.210938 84.785156 C 269.203125 83.804688 269.246094 82.824219 269.335938 81.847656 C 269.429688 80.871094 269.566406 79.898438 269.75 78.933594 C 269.9375 77.972656 270.167969 77.019531 270.445312 76.078125 C 270.722656 75.136719 271.046875 74.210938 271.414062 73.300781 C 271.785156 72.390625 272.195312 71.5 272.652344 70.628906 C 273.105469 69.757812 273.601562 68.914062 274.140625 68.09375 C 274.675781 67.269531 275.253906 66.476562 275.867188 65.710938 C 276.484375 64.945312 277.132812 64.210938 277.820312 63.507812 Z M 189.570312 153.835938 C 189.5625 151.855469 189.746094 149.890625 190.125 147.945312 C 190.503906 146 191.074219 144.113281 191.828125 142.28125 C 192.585938 140.445312 193.515625 138.707031 194.617188 137.058594 C 195.71875 135.410156 196.972656 133.886719 198.378906 132.488281 L 198.5625 132.289062 L 198.5625 132.226562 L 198.675781 132.085938 C 199.382812 131.40625 200.121094 130.761719 200.886719 130.152344 C 201.65625 129.542969 202.453125 128.972656 203.277344 128.441406 C 204.101562 127.910156 204.949219 127.417969 205.820312 126.96875 C 206.691406 126.519531 207.582031 126.113281 208.492188 125.75 C 209.402344 125.382812 210.328125 125.066406 211.269531 124.792969 C 212.210938 124.519531 213.164062 124.289062 214.128906 124.109375 C 215.09375 123.925781 216.0625 123.792969 217.039062 123.703125 C 218.015625 123.617188 218.996094 123.578125 219.976562 123.582031 C 220.957031 123.589844 221.933594 123.644531 222.910156 123.746094 C 223.886719 123.847656 224.855469 123.996094 225.816406 124.191406 C 226.777344 124.386719 227.726562 124.628906 228.664062 124.917969 C 229.601562 125.203125 230.523438 125.535156 231.425781 125.914062 C 232.332031 126.289062 233.21875 126.710938 234.082031 127.171875 C 234.949219 127.632812 235.789062 128.136719 236.605469 128.679688 C 237.417969 129.222656 238.207031 129.804688 238.96875 130.425781 C 239.726562 131.046875 240.453125 131.699219 241.148438 132.390625 L 241.449219 132.6875 C 242.757812 134.035156 243.9375 135.484375 244.988281 137.042969 C 245.03125 137.195312 245.105469 137.335938 245.210938 137.457031 C 246.0625 138.785156 246.789062 140.175781 247.394531 141.632812 C 247.558594 141.96875 247.703125 142.3125 247.832031 142.664062 L 247.992188 143.074219 C 248.445312 144.289062 248.816406 145.53125 249.109375 146.792969 C 249.242188 147.261719 249.332031 147.726562 249.421875 148.164062 L 249.46875 148.402344 C 249.804688 150.15625 249.988281 151.925781 250.023438 153.710938 L 250.023438 153.753906 C 249.992188 155.585938 249.808594 157.402344 249.46875 159.207031 L 249.164062 160.59375 C 248.804688 162.078125 248.347656 163.53125 247.789062 164.953125 C 247.734375 165.105469 247.6875 165.25 247.640625 165.398438 C 247.613281 165.503906 247.578125 165.605469 247.542969 165.707031 C 246.820312 167.347656 245.957031 168.910156 244.953125 170.390625 C 244.847656 170.574219 244.730469 170.746094 244.597656 170.910156 L 244.390625 171.214844 C 243.53125 172.382812 242.601562 173.496094 241.605469 174.554688 C 241.414062 174.746094 241.234375 174.949219 241.054688 175.15625 C 240.878906 175.363281 240.742188 175.523438 240.589844 175.671875 C 239.375 176.785156 238.09375 177.820312 236.753906 178.777344 C 236.585938 178.859375 236.414062 178.957031 236.234375 179.058594 C 236.054688 179.15625 235.945312 179.222656 235.746094 179.320312 C 234.609375 180.027344 233.433594 180.65625 232.214844 181.203125 C 230.992188 181.753906 229.742188 182.21875 228.460938 182.605469 C 227.179688 182.988281 225.878906 183.285156 224.558594 183.496094 C 223.234375 183.707031 221.90625 183.828125 220.566406 183.863281 C 219.230469 183.898438 217.898438 183.84375 216.566406 183.699219 C 215.234375 183.558594 213.921875 183.328125 212.621094 183.011719 C 211.320312 182.695312 210.046875 182.292969 208.800781 181.808594 C 207.554688 181.320312 206.347656 180.753906 205.175781 180.109375 C 204.003906 179.460938 202.878906 178.742188 201.804688 177.945312 C 200.730469 177.152344 199.710938 176.289062 198.75 175.355469 C 197.789062 174.425781 196.894531 173.4375 196.066406 172.386719 C 195.238281 171.339844 194.484375 170.238281 193.800781 169.089844 C 193.117188 167.941406 192.515625 166.75 191.988281 165.519531 C 191.464844 164.292969 191.023438 163.03125 190.667969 161.746094 C 190.308594 160.457031 190.039062 159.148438 189.855469 157.824219 C 189.671875 156.503906 189.578125 155.171875 189.570312 153.835938 Z M 127.101562 156.804688 C 128.992188 156.433594 130.902344 156.300781 132.828125 156.398438 C 134.753906 156.5 136.636719 156.835938 138.480469 157.402344 C 140.324219 157.96875 142.070312 158.75 143.71875 159.75 C 145.367188 160.75 146.867188 161.933594 148.222656 163.304688 L 148.523438 163.609375 C 149.328125 164.441406 150.066406 165.328125 150.742188 166.265625 C 151.414062 167.207031 152.015625 168.191406 152.546875 169.21875 C 153.074219 170.246094 153.527344 171.308594 153.902344 172.402344 C 154.277344 173.496094 154.566406 174.613281 154.777344 175.75 C 154.988281 176.886719 155.113281 178.03125 155.15625 179.1875 C 155.199219 180.34375 155.15625 181.496094 155.03125 182.644531 C 154.902344 183.796875 154.691406 184.929688 154.398438 186.046875 C 154.105469 187.164062 153.734375 188.257812 153.277344 189.320312 C 152.824219 190.386719 152.296875 191.410156 151.695312 192.398438 C 151.089844 193.382812 150.417969 194.320312 149.675781 195.210938 C 148.933594 196.097656 148.132812 196.925781 147.269531 197.699219 C 146.40625 198.46875 145.492188 199.171875 144.527344 199.808594 C 143.558594 200.445312 142.554688 201.007812 141.503906 201.5 C 140.457031 201.988281 139.375 202.398438 138.269531 202.730469 C 137.160156 203.0625 136.03125 203.3125 134.886719 203.476562 C 133.742188 203.644531 132.589844 203.726562 131.429688 203.726562 L 131.042969 203.726562 C 129.484375 203.703125 127.945312 203.527344 126.421875 203.195312 C 124.902344 202.867188 123.425781 202.394531 122 201.773438 C 120.570312 201.148438 119.21875 200.394531 117.941406 199.503906 C 116.664062 198.613281 115.488281 197.605469 114.410156 196.480469 C 113.882812 195.929688 113.378906 195.351562 112.90625 194.75 C 112.429688 194.152344 111.984375 193.527344 111.570312 192.886719 C 111.15625 192.242188 110.773438 191.578125 110.425781 190.898438 C 110.074219 190.21875 109.757812 189.523438 109.472656 188.8125 C 109.191406 188.101562 108.941406 187.378906 108.730469 186.644531 C 108.515625 185.910156 108.339844 185.164062 108.199219 184.414062 C 108.054688 183.660156 107.949219 182.90625 107.882812 182.140625 C 107.8125 181.378906 107.78125 180.617188 107.789062 179.851562 C 107.792969 179.085938 107.835938 178.324219 107.914062 177.5625 C 107.992188 176.800781 108.109375 176.046875 108.261719 175.296875 C 108.410156 174.546875 108.597656 173.804688 108.824219 173.074219 C 109.046875 172.339844 109.304688 171.621094 109.597656 170.914062 C 109.890625 170.207031 110.214844 169.515625 110.578125 168.839844 C 110.9375 168.164062 111.328125 167.507812 111.75 166.871094 C 112.171875 166.234375 112.625 165.617188 113.109375 165.023438 C 113.589844 164.429688 114.101562 163.859375 114.640625 163.3125 C 114.960938 163.027344 115.300781 162.761719 115.675781 162.484375 L 116.300781 161.96875 C 119.039062 159.644531 122.148438 158.035156 125.625 157.132812 C 126.113281 156.996094 126.605469 156.898438 127.101562 156.804688 Z M 40.296875 91.027344 L 40.296875 90.640625 C 39.890625 88.6875 39.683594 86.710938 39.675781 84.714844 C 39.683594 82.882812 39.867188 81.066406 40.230469 79.269531 L 40.585938 77.648438 C 40.886719 76.449219 41.261719 75.273438 41.714844 74.121094 C 41.90625 73.546875 42.144531 72.964844 42.410156 72.335938 C 42.929688 71.257812 43.488281 70.179688 44.050781 69.183594 C 44.246094 68.910156 44.417969 68.621094 44.570312 68.320312 C 44.6875 68.113281 44.808594 67.902344 44.925781 67.71875 C 45.929688 66.289062 47.027344 64.9375 48.222656 63.664062 L 48.539062 63.355469 C 51.265625 60.628906 54.402344 58.511719 57.953125 57.007812 L 58.222656 56.871094 C 59.894531 56.160156 61.621094 55.621094 63.402344 55.257812 C 63.542969 55.257812 63.675781 55.199219 63.800781 55.175781 C 63.953125 55.128906 64.109375 55.101562 64.269531 55.089844 C 66.136719 54.714844 68.023438 54.515625 69.929688 54.492188 C 71.921875 54.496094 73.898438 54.695312 75.851562 55.089844 C 77.804688 55.484375 79.703125 56.066406 81.539062 56.835938 C 83.378906 57.601562 85.125 58.542969 86.78125 59.652344 C 88.433594 60.765625 89.964844 62.027344 91.367188 63.441406 C 91.886719 63.960938 92.332031 64.558594 92.785156 65.140625 C 93.023438 65.445312 93.269531 65.75 93.5 66.035156 C 93.734375 66.320312 93.972656 66.613281 94.214844 66.894531 C 94.460938 67.171875 94.8125 67.585938 95.070312 67.925781 C 95.488281 68.609375 95.871094 69.3125 96.214844 70.03125 C 96.371094 70.34375 96.535156 70.664062 96.734375 70.996094 L 97.195312 71.824219 C 97.421875 72.214844 97.65625 72.625 97.832031 72.960938 C 98.210938 74.101562 98.640625 75.394531 98.957031 76.628906 C 99.023438 76.925781 99.117188 77.21875 99.214844 77.515625 C 99.351562 77.898438 99.453125 78.289062 99.519531 78.6875 C 99.925781 80.589844 100.128906 82.507812 100.125 84.453125 C 100.125 84.613281 100.164062 84.738281 100.179688 84.695312 C 100.15625 86.613281 99.957031 88.507812 99.570312 90.386719 C 99.542969 90.507812 99.523438 90.632812 99.515625 90.757812 C 99.503906 90.855469 99.488281 90.953125 99.46875 91.046875 C 99.261719 92.015625 99.003906 92.96875 98.703125 93.914062 C 98.402344 94.855469 98.054688 95.78125 97.660156 96.6875 C 97.269531 97.597656 96.832031 98.484375 96.351562 99.347656 C 95.871094 100.214844 95.351562 101.054688 94.789062 101.867188 C 94.226562 102.683594 93.625 103.46875 92.988281 104.222656 C 92.347656 104.976562 91.671875 105.699219 90.960938 106.390625 C 90.253906 107.078125 89.511719 107.734375 88.734375 108.351562 C 87.960938 108.964844 87.160156 109.542969 86.328125 110.082031 C 85.496094 110.621094 84.640625 111.117188 83.761719 111.570312 C 82.882812 112.027344 81.980469 112.4375 81.0625 112.800781 C 80.140625 113.167969 79.207031 113.488281 78.253906 113.761719 C 77.304688 114.039062 76.339844 114.265625 75.367188 114.445312 C 74.394531 114.625 73.414062 114.757812 72.425781 114.84375 C 71.441406 114.929688 70.449219 114.964844 69.460938 114.953125 C 68.46875 114.9375 67.484375 114.878906 66.5 114.769531 C 65.515625 114.660156 64.539062 114.503906 63.570312 114.296875 C 60.785156 113.691406 58.136719 112.71875 55.625 111.378906 C 53.113281 110.039062 50.828125 108.386719 48.777344 106.414062 L 48.5 106.105469 C 46.433594 104.039062 44.703125 101.722656 43.308594 99.160156 C 41.910156 96.59375 40.90625 93.882812 40.296875 91.027344 Z M 83.511719 222.480469 C 81.308594 225.730469 79.773438 229.269531 78.910156 233.101562 C 78.441406 235.242188 78.210938 237.40625 78.222656 239.597656 L 78.222656 248.21875 L 13.105469 248.21875 L 13.105469 160.457031 C 13.109375 158.738281 13.28125 157.039062 13.625 155.355469 C 13.964844 153.671875 14.464844 152.039062 15.128906 150.453125 C 15.792969 148.867188 16.605469 147.363281 17.5625 145.9375 C 18.523438 144.511719 19.613281 143.195312 20.832031 141.984375 C 22.84375 140.011719 25.121094 138.414062 27.660156 137.1875 C 31.332031 135.40625 35.207031 134.445312 39.285156 134.304688 L 100.484375 134.304688 C 103.207031 134.296875 105.863281 134.710938 108.457031 135.550781 C 111.046875 136.386719 113.445312 137.605469 115.648438 139.203125 C 117.824219 140.734375 119.722656 142.550781 121.347656 144.65625 C 119.972656 145.046875 118.628906 145.527344 117.316406 146.097656 C 117.207031 146.140625 117.097656 146.191406 116.992188 146.25 C 116.855469 146.324219 116.710938 146.382812 116.5625 146.421875 C 114.847656 147.207031 113.199219 148.113281 111.625 149.148438 L 110.304688 149.992188 C 108.628906 151.136719 107.074219 152.425781 105.640625 153.863281 L 105.402344 154.046875 C 104.550781 154.898438 103.738281 155.789062 102.972656 156.71875 C 102.203125 157.652344 101.484375 158.617188 100.8125 159.617188 C 100.140625 160.621094 99.519531 161.652344 98.949219 162.714844 C 98.382812 163.777344 97.863281 164.867188 97.402344 165.980469 C 96.9375 167.09375 96.53125 168.226562 96.179688 169.378906 C 95.832031 170.53125 95.535156 171.699219 95.300781 172.882812 C 95.066406 174.066406 94.886719 175.253906 94.769531 176.457031 C 94.652344 177.65625 94.589844 178.859375 94.589844 180.0625 C 94.589844 181.269531 94.652344 182.472656 94.769531 183.671875 C 94.886719 184.871094 95.066406 186.0625 95.300781 187.242188 C 95.535156 188.425781 95.832031 189.59375 96.179688 190.746094 C 96.53125 191.902344 96.9375 193.035156 97.402344 194.148438 C 97.863281 195.261719 98.382812 196.347656 98.949219 197.410156 C 99.519531 198.472656 100.140625 199.507812 100.8125 200.507812 C 101.484375 201.507812 102.203125 202.476562 102.972656 203.40625 C 103.738281 204.335938 104.550781 205.226562 105.402344 206.078125 C 106.421875 207.101562 107.492188 208.0625 108.621094 208.960938 C 106.683594 208.988281 104.765625 209.183594 102.867188 209.546875 C 100.925781 209.984375 99.039062 210.59375 97.210938 211.378906 C 95.382812 212.164062 93.640625 213.109375 91.984375 214.214844 C 90.332031 215.320312 88.792969 216.570312 87.367188 217.957031 C 85.941406 219.347656 84.65625 220.855469 83.511719 222.480469 Z M 171.496094 248.226562 L 91.367188 248.226562 L 91.367188 239.609375 C 91.359375 238.417969 91.476562 237.238281 91.71875 236.070312 C 92.078125 234.390625 92.664062 232.796875 93.480469 231.285156 C 94.296875 229.773438 95.308594 228.40625 96.515625 227.1875 L 96.757812 226.945312 C 97.5625 226.199219 98.414062 225.507812 99.308594 224.875 C 100.734375 223.945312 102.265625 223.238281 103.898438 222.753906 C 105.53125 222.269531 107.195312 222.027344 108.898438 222.027344 L 153.960938 222.027344 C 156.917969 222.066406 159.679688 222.816406 162.25 224.28125 C 163.183594 224.765625 164.0625 225.34375 164.875 226.011719 C 165.03125 226.148438 165.195312 226.269531 165.367188 226.394531 C 165.566406 226.539062 165.757812 226.695312 165.9375 226.867188 C 166.988281 227.859375 167.917969 228.949219 168.730469 230.144531 L 169.023438 230.664062 C 169.628906 231.765625 170.132812 232.910156 170.542969 234.097656 C 170.691406 234.496094 170.789062 234.84375 170.890625 235.1875 C 171.285156 236.636719 171.484375 238.113281 171.484375 239.613281 Z M 220.207031 245.410156 L 219.761719 248.226562 L 184.652344 248.226562 L 184.652344 239.609375 C 184.636719 237.796875 184.464844 235.996094 184.132812 234.214844 C 184.070312 233.902344 183.992188 233.617188 183.914062 233.332031 C 183.863281 233.136719 183.808594 232.941406 183.769531 232.757812 C 183.484375 231.433594 183.09375 230.140625 182.601562 228.878906 L 182.132812 227.632812 C 181.535156 226.121094 180.789062 224.683594 179.890625 223.328125 L 179.746094 223.125 C 179.402344 222.597656 179.023438 222.089844 178.617188 221.605469 C 178.394531 221.324219 178.167969 221.046875 177.929688 220.71875 C 177.691406 220.394531 177.503906 220.203125 177.300781 219.933594 C 176.988281 219.492188 176.644531 219.074219 176.265625 218.6875 C 176.214844 218.5625 176.136719 218.453125 176.039062 218.359375 L 175.675781 217.992188 C 174.976562 217.316406 174.230469 216.695312 173.4375 216.132812 C 173.253906 215.96875 173.082031 215.796875 172.917969 215.613281 C 172.78125 215.480469 172.640625 215.34375 172.488281 215.214844 C 174.101562 212.3125 176.234375 209.867188 178.890625 207.878906 C 180.859375 206.421875 183.003906 205.304688 185.328125 204.53125 C 187.652344 203.757812 190.039062 203.363281 192.488281 203.351562 L 247.183594 203.351562 C 249.90625 203.339844 252.539062 203.824219 255.078125 204.804688 C 257.390625 205.707031 259.464844 207 261.292969 208.675781 C 255.164062 209.007812 249.347656 210.515625 243.832031 213.207031 C 243.660156 213.289062 243.507812 213.390625 243.367188 213.519531 C 241.835938 214.28125 240.359375 215.132812 238.929688 216.074219 C 237.5 217.015625 236.136719 218.039062 234.832031 219.140625 C 233.527344 220.246094 232.292969 221.425781 231.128906 222.679688 C 229.96875 223.929688 228.882812 225.25 227.878906 226.632812 C 226.875 228.015625 225.957031 229.453125 225.125 230.945312 C 224.292969 232.4375 223.554688 233.976562 222.910156 235.558594 C 222.265625 237.140625 221.714844 238.753906 221.261719 240.402344 C 220.8125 242.050781 220.460938 243.71875 220.207031 245.410156 Z M 343.898438 263.414062 C 342.414062 267.074219 340.273438 270.300781 337.472656 273.085938 L 337.421875 273.085938 C 326.597656 284.210938 315.355469 295.335938 304.53125 306.148438 C 299.714844 310.90625 294.949219 315.667969 290.132812 320.425781 C 289.40625 321.203125 289.40625 321.355469 288.476562 320.425781 L 274.515625 306.507812 C 263.378906 295.4375 252.246094 284.367188 241.210938 273.085938 C 238.707031 270.574219 236.703125 267.710938 235.203125 264.5 C 233.839844 261.441406 233.011719 258.246094 232.730469 254.914062 C 232.445312 251.578125 232.71875 248.289062 233.546875 245.046875 L 233.910156 244.582031 L 233.910156 243.546875 C 233.972656 243.378906 234.027344 243.207031 234.0625 243.027344 C 234.425781 242.046875 234.789062 241.113281 235.203125 240.183594 C 235.515625 239.40625 235.824219 238.632812 235.980469 238.21875 L 236.5 237.128906 C 237.816406 234.554688 239.503906 232.246094 241.558594 230.203125 C 243.609375 228.160156 245.929688 226.484375 248.515625 225.179688 C 248.914062 225.070312 249.292969 224.914062 249.65625 224.714844 L 250.328125 224.402344 C 250.980469 224.078125 251.65625 223.800781 252.347656 223.574219 C 254.007812 222.933594 255.71875 222.46875 257.476562 222.179688 C 258.863281 221.910156 260.261719 221.71875 261.671875 221.609375 C 262.136719 221.566406 262.601562 221.550781 263.070312 221.558594 C 264.058594 221.574219 265.042969 221.644531 266.023438 221.765625 C 270.109375 222.15625 273.976562 223.296875 277.625 225.179688 L 277.933594 225.285156 C 280.136719 226.582031 282.175781 228.097656 284.046875 229.835938 L 284.617188 230.300781 C 285.078125 230.734375 285.578125 231.113281 286.117188 231.441406 L 286.53125 231.648438 C 286.636719 231.746094 286.757812 231.816406 286.894531 231.855469 L 288.449219 232.371094 L 291.816406 232.164062 L 292.59375 231.441406 C 293.117188 231.089844 293.617188 230.710938 294.09375 230.300781 L 294.613281 229.886719 C 296.410156 228.21875 298.363281 226.753906 300.464844 225.488281 L 301.085938 225.179688 C 304.824219 223.15625 308.8125 221.984375 313.050781 221.660156 C 314.398438 221.566406 315.746094 221.550781 317.09375 221.609375 C 318.4375 221.714844 319.835938 221.921875 321.289062 222.179688 C 323.0625 222.492188 324.789062 222.976562 326.46875 223.628906 C 327.101562 223.839844 327.722656 224.078125 328.332031 224.351562 L 329.003906 224.714844 C 329.265625 224.816406 329.679688 225.023438 330.144531 225.179688 C 332.8125 226.527344 335.199219 228.261719 337.296875 230.386719 C 339.398438 232.511719 341.105469 234.914062 342.421875 237.597656 L 343.300781 239.613281 C 343.613281 240.492188 343.972656 241.320312 344.285156 242.148438 L 344.335938 243.082031 L 345.011719 244.476562 C 345.859375 247.609375 346.191406 250.792969 346.003906 254.035156 C 345.820312 257.273438 345.125 260.398438 343.921875 263.414062 Z M 358.398438 245.410156 C 358.046875 243.164062 357.527344 240.957031 356.84375 238.785156 C 355.988281 236.078125 354.871094 233.476562 353.492188 230.992188 C 352.117188 228.503906 350.507812 226.175781 348.667969 224.007812 C 346.824219 221.839844 344.789062 219.875 342.554688 218.113281 C 340.324219 216.351562 337.9375 214.828125 335.402344 213.539062 L 334.675781 213.175781 C 329.234375 210.503906 323.484375 209.003906 317.429688 208.675781 C 316.753906 208.625 316.03125 208.625 315.304688 208.625 C 313.1875 208.605469 311.082031 208.761719 308.988281 209.089844 C 305.714844 209.582031 302.550781 210.445312 299.484375 211.6875 C 296.421875 212.929688 293.546875 214.511719 290.859375 216.4375 C 290.535156 216.625 290.222656 216.832031 289.925781 217.058594 C 289.71875 217.160156 289.511719 217.316406 289.304688 217.417969 C 289.199219 217.367188 289.148438 217.316406 289.046875 217.265625 C 288.628906 216.953125 288.214844 216.695312 287.800781 216.4375 C 284.613281 214.195312 281.1875 212.414062 277.519531 211.085938 L 277.464844 210.703125 C 277.066406 207.589844 275.894531 204.796875 273.945312 202.332031 C 273.945312 202.332031 273.253906 201.535156 272.515625 200.78125 C 270.855469 199.109375 269.046875 197.617188 267.089844 196.300781 C 265.128906 194.988281 263.0625 193.878906 260.882812 192.976562 C 258.707031 192.070312 256.460938 191.390625 254.144531 190.929688 C 251.832031 190.472656 249.496094 190.242188 247.136719 190.246094 L 243.144531 190.246094 C 244.0625 189.648438 244.867188 189.074219 245.734375 188.410156 L 246.734375 187.679688 C 248.007812 186.691406 249.261719 185.527344 250.109375 184.726562 L 250.421875 184.417969 C 251.527344 183.304688 252.5625 182.132812 253.527344 180.898438 C 253.714844 180.714844 253.871094 180.507812 253.988281 180.277344 C 254.839844 179.230469 255.632812 178.140625 256.363281 177.007812 L 256.53125 176.707031 C 256.660156 176.574219 256.753906 176.417969 256.824219 176.246094 L 256.941406 176.066406 C 257.460938 175.203125 257.9375 174.285156 258.40625 173.375 C 258.644531 172.914062 258.882812 172.460938 259.128906 172.003906 L 259.199219 171.804688 C 259.226562 171.679688 259.273438 171.566406 259.335938 171.457031 C 259.382812 171.363281 259.429688 171.265625 259.464844 171.183594 C 260.191406 169.527344 260.820312 167.835938 261.351562 166.105469 C 261.449219 165.792969 261.519531 165.476562 261.5625 165.148438 C 261.976562 163.710938 262.292969 162.25 262.511719 160.769531 C 262.5625 160.523438 262.605469 160.277344 262.644531 160.035156 C 262.6875 159.789062 262.71875 159.59375 262.773438 159.304688 C 263.003906 157.457031 263.125 155.605469 263.140625 153.746094 C 263.136719 151.832031 262.996094 149.925781 262.722656 148.03125 C 262.722656 147.828125 262.660156 147.621094 262.625 147.40625 C 262.589844 147.1875 262.546875 146.933594 262.515625 146.664062 C 262.238281 144.964844 261.859375 143.285156 261.375 141.632812 C 261.367188 141.5625 261.351562 141.496094 261.328125 141.433594 L 261.246094 141.113281 L 261.246094 141.058594 L 261.175781 140.746094 C 260.628906 139.21875 260.066406 137.640625 259.367188 136.089844 C 259.925781 135.851562 260.527344 135.632812 261.152344 135.4375 C 263.660156 134.6875 266.21875 134.320312 268.835938 134.332031 L 330.003906 134.332031 C 344.539062 134.332031 362.09375 145.996094 362.09375 160.476562 L 362.09375 238.785156 L 362.125 238.984375 L 362.148438 239.097656 L 362.148438 248.71875 L 358.890625 248.71875 Z M 358.398438 245.410156 " fill-opacity="1" fill-rule="nonzero"/></svg>