<svg xmlns="http://www.w3.org/2000/svg" xmlns:xlink="http://www.w3.org/1999/xlink" width="500" zoomAndPan="magnify" viewBox="0 0 375 374.999991" height="500" preserveAspectRatio="xMidYMid meet" version="1.0"><defs><clipPath id="c1e4f8e8a7"><path d="M 13.640625 0 L 361.542969 0 L 361.542969 286.847656 L 13.640625 286.847656 Z M 13.640625 0 " clip-rule="nonzero"/></clipPath><clipPath id="9dcb71db4c"><path d="M 99 122.597656 L 276.203125 122.597656 L 276.203125 375 L 99 375 Z M 99 122.597656 " clip-rule="nonzero"/></clipPath></defs><path stroke-linecap="butt" transform="matrix(0.75, 0, 0, 0.75, 79.086429, 208.975928)" fill="none" stroke-linejoin="miter" d="M -0.000655209 2.000846 L 159.999355 2.000846 " stroke="#ffffff" stroke-width="4" stroke-opacity="1" stroke-miterlimit="4"/><g clip-path="url(#c1e4f8e8a7)"><path fill="#000000" d="M 224.457031 286.824219 C 213.503906 286.824219 204.484375 284.492188 199.011719 279.941406 C 197.617188 278.78125 197.429688 276.703125 198.59375 275.308594 C 199.75 273.914062 201.824219 273.722656 203.222656 274.886719 C 210.507812 280.941406 227.984375 281.929688 246.710938 277.339844 C 265.808594 272.65625 288.933594 261.191406 296.519531 243.046875 C 297.035156 241.8125 298.242188 241.050781 299.589844 241.023438 L 300.140625 241.03125 C 330.371094 241.03125 354.960938 216.453125 354.960938 186.246094 C 354.960938 160.402344 336.613281 137.84375 311.339844 132.601562 C 310.171875 132.359375 309.230469 131.511719 308.871094 130.375 C 308.507812 129.242188 308.792969 128.003906 309.605469 127.132812 C 318.398438 117.730469 323.242188 105.460938 323.242188 92.585938 C 323.242188 64.675781 300.519531 41.96875 272.601562 41.96875 C 261.691406 41.96875 251.300781 45.382812 242.550781 51.839844 C 241.625 52.527344 240.398438 52.675781 239.339844 52.234375 C 238.265625 51.789062 237.511719 50.820312 237.339844 49.679688 C 233.679688 25.105469 212.152344 6.578125 187.253906 6.578125 C 162.179688 6.578125 141.144531 24.515625 137.238281 49.226562 C 137.054688 50.355469 136.3125 51.308594 135.257812 51.75 C 134.203125 52.1875 133.003906 52.050781 132.066406 51.390625 C 123.457031 45.226562 113.273438 41.96875 102.648438 41.96875 C 74.71875 41.96875 52.003906 64.675781 52.003906 92.585938 C 52.003906 104.195312 56.03125 115.542969 63.359375 124.53125 C 64.050781 125.378906 64.277344 126.519531 63.949219 127.570312 C 63.632812 128.621094 62.8125 129.4375 61.753906 129.753906 C 37.304688 137.128906 20.226562 160.128906 20.226562 185.683594 C 20.226562 217.320312 45.960938 243.519531 77.59375 244.089844 C 78.949219 244.113281 80.15625 244.964844 80.628906 246.234375 C 88.726562 268.140625 115.066406 278.742188 136.097656 279.324219 C 152.785156 279.769531 165.648438 274.347656 169.644531 265.140625 C 170.371094 263.476562 172.308594 262.710938 173.972656 263.433594 C 175.640625 264.15625 176.40625 266.09375 175.683594 267.761719 C 170.59375 279.484375 155.335938 286.429688 135.917969 285.898438 C 113.394531 285.277344 85.253906 273.957031 75.28125 250.589844 C 58.988281 249.753906 43.792969 242.9375 32.300781 231.25 C 20.265625 219.019531 13.640625 202.839844 13.640625 185.683594 C 13.640625 171.445312 18.167969 157.925781 26.722656 146.585938 C 34.066406 136.863281 44.144531 129.296875 55.464844 124.960938 C 48.960938 115.480469 45.417969 104.148438 45.417969 92.585938 C 45.417969 61.046875 71.089844 35.390625 102.648438 35.390625 C 112.984375 35.390625 122.941406 38.121094 131.726562 43.316406 C 134.582031 31.929688 140.925781 21.605469 149.914062 13.855469 C 160.28125 4.925781 173.539062 0.00390625 187.253906 0.00390625 C 201.050781 0.00390625 214.378906 4.984375 224.785156 14.019531 C 233.78125 21.84375 240.09375 32.242188 242.878906 43.703125 C 251.808594 38.25 261.988281 35.390625 272.601562 35.390625 C 304.160156 35.390625 329.824219 61.046875 329.824219 92.585938 C 329.824219 105.316406 325.632812 117.523438 317.929688 127.496094 C 343.496094 135.226562 361.542969 159.125 361.542969 186.246094 C 361.542969 219.5625 334.828125 246.769531 301.6875 247.589844 C 292.398438 266.820312 268.253906 278.832031 248.273438 283.730469 C 239.800781 285.804688 231.710938 286.824219 224.457031 286.824219 " fill-opacity="1" fill-rule="nonzero"/></g><g clip-path="url(#9dcb71db4c)"><path fill="#000000" d="M 172.136719 368.425781 L 202.824219 368.425781 L 197.832031 277.59375 C 197.792969 276.851562 198.003906 276.117188 198.4375 275.511719 L 221.433594 243.058594 C 222.050781 242.1875 223.054688 241.667969 224.113281 241.667969 L 250.472656 241.667969 L 265.144531 211.355469 L 235.257812 228.867188 C 234.804688 229.132812 234.296875 229.285156 233.773438 229.316406 L 211.246094 230.566406 L 197.238281 256.011719 C 196.519531 257.324219 194.992188 257.984375 193.535156 257.613281 C 192.082031 257.238281 191.066406 255.929688 191.066406 254.425781 L 191.066406 184.113281 C 191.066406 183.382812 191.308594 182.679688 191.753906 182.097656 L 207.988281 161.105469 L 187.320312 168.289062 C 186.046875 168.734375 184.621094 168.355469 183.746094 167.332031 L 162.957031 143.222656 L 178.46875 181.527344 C 178.613281 181.894531 178.695312 182.285156 178.699219 182.683594 L 180.050781 239.472656 C 180.089844 240.84375 179.269531 242.085938 177.996094 242.605469 C 176.730469 243.117188 175.273438 242.789062 174.347656 241.777344 L 144.25 209.082031 L 117.472656 209.921875 L 138.8125 218.945312 C 139.3125 219.152344 139.746094 219.480469 140.089844 219.898438 L 175.261719 263.171875 C 175.769531 263.789062 176.027344 264.570312 176 265.367188 Z M 206.308594 375.003906 L 168.714844 375.003906 C 167.824219 375.003906 166.96875 374.636719 166.351562 373.996094 C 165.734375 373.351562 165.402344 372.476562 165.433594 371.585938 L 169.375 266.355469 L 135.496094 224.683594 L 101.078125 210.128906 C 99.652344 209.527344 98.839844 208.015625 99.121094 206.496094 C 99.40625 204.976562 100.710938 203.859375 102.253906 203.8125 L 145.550781 202.460938 C 146.503906 202.433594 147.425781 202.816406 148.070312 203.519531 L 173.265625 230.894531 L 172.136719 183.4375 L 149.363281 127.203125 C 148.761719 125.710938 149.320312 123.996094 150.699219 123.160156 C 152.070312 122.324219 153.855469 122.601562 154.910156 123.824219 L 187.273438 161.339844 L 216.277344 151.257812 C 217.644531 150.777344 219.171875 151.261719 220.027344 152.445312 C 220.875 153.625 220.851562 155.222656 219.960938 156.375 L 197.648438 185.238281 L 197.648438 241.621094 L 206.347656 225.796875 C 206.898438 224.804688 207.917969 224.160156 209.058594 224.097656 L 232.609375 222.789062 L 271.160156 200.207031 C 272.414062 199.472656 273.996094 199.644531 275.0625 200.625 C 276.121094 201.609375 276.421875 203.171875 275.789062 204.476562 L 255.492188 246.390625 C 254.945312 247.53125 253.796875 248.25 252.527344 248.25 L 225.820312 248.25 L 204.472656 278.378906 L 209.589844 371.535156 C 209.640625 372.433594 209.316406 373.316406 208.691406 373.976562 C 208.070312 374.625 207.203125 375.003906 206.308594 375.003906 " fill-opacity="1" fill-rule="nonzero"/></g></svg>