<svg xmlns="http://www.w3.org/2000/svg" xmlns:xlink="http://www.w3.org/1999/xlink" width="500" zoomAndPan="magnify" viewBox="0 0 375 374.999991" height="500" preserveAspectRatio="xMidYMid meet" version="1.0"><defs><clipPath id="2ac1e98913"><path d="M 9 2.886719 L 358 2.886719 L 358 371.886719 L 9 371.886719 Z M 9 2.886719 " clip-rule="nonzero"/></clipPath></defs><path fill="#000000" d="M 195.636719 108.925781 C 191.550781 108.925781 188.234375 112.246094 188.234375 116.328125 L 188.234375 124.1875 C 188.234375 128.269531 191.554688 131.59375 195.636719 131.59375 L 200.398438 131.59375 C 201.023438 133.550781 201.808594 135.441406 202.746094 137.253906 L 199.367188 140.628906 C 196.480469 143.515625 196.480469 148.207031 199.367188 151.09375 L 204.941406 156.664062 C 206.382812 158.109375 208.277344 158.828125 210.167969 158.828125 C 212.066406 158.828125 213.960938 158.109375 215.402344 156.664062 L 218.777344 153.292969 C 220.589844 154.230469 222.484375 155.015625 224.441406 155.636719 L 224.441406 160.398438 C 224.441406 164.480469 227.761719 167.804688 231.847656 167.804688 L 239.703125 167.804688 C 243.785156 167.804688 247.109375 164.480469 247.109375 160.398438 L 247.109375 155.636719 C 249.066406 155.015625 250.957031 154.230469 252.773438 153.292969 L 256.144531 156.664062 C 257.542969 158.0625 259.402344 158.832031 261.378906 158.828125 L 261.382812 158.828125 C 263.363281 158.828125 265.21875 158.058594 266.609375 156.664062 L 272.179688 151.09375 C 275.066406 148.207031 275.066406 143.515625 272.179688 140.628906 L 268.808594 137.253906 C 269.746094 135.441406 270.53125 133.550781 271.152344 131.59375 L 275.914062 131.59375 C 279.996094 131.59375 283.316406 128.273438 283.316406 124.1875 L 283.316406 116.328125 C 283.316406 112.246094 279.996094 108.925781 275.914062 108.925781 L 271.152344 108.925781 C 270.53125 106.96875 269.746094 105.074219 268.808594 103.261719 L 272.179688 99.886719 C 273.578125 98.492188 274.347656 96.632812 274.347656 94.652344 C 274.347656 92.675781 273.578125 90.820312 272.179688 89.421875 L 266.613281 83.855469 C 265.21875 82.457031 263.363281 81.6875 261.382812 81.6875 L 261.378906 81.6875 C 259.402344 81.6875 257.542969 82.453125 256.144531 83.851562 L 252.773438 87.222656 C 250.957031 86.285156 249.066406 85.5 247.109375 84.878906 L 247.109375 80.117188 C 247.109375 76.035156 243.785156 72.710938 239.703125 72.710938 L 231.847656 72.710938 C 227.761719 72.710938 224.441406 76.035156 224.441406 80.117188 L 224.441406 84.878906 C 222.484375 85.5 220.589844 86.285156 218.777344 87.222656 L 215.402344 83.851562 C 212.523438 80.964844 207.828125 80.960938 204.941406 83.851562 L 199.367188 89.421875 C 197.972656 90.816406 197.203125 92.675781 197.203125 94.652344 C 197.203125 96.632812 197.972656 98.492188 199.367188 99.882812 L 202.746094 103.261719 C 201.804688 105.074219 201.019531 106.964844 200.398438 108.921875 L 195.636719 108.921875 Z M 210.167969 90.214844 L 215.195312 95.238281 C 215.210938 95.253906 215.230469 95.257812 215.25 95.273438 C 215.597656 95.613281 216 95.867188 216.429688 96.0625 C 216.53125 96.105469 216.625 96.136719 216.726562 96.175781 C 217.164062 96.328125 217.617188 96.4375 218.085938 96.4375 C 218.089844 96.4375 218.09375 96.441406 218.09375 96.441406 L 218.097656 96.441406 C 218.558594 96.441406 219.019531 96.332031 219.464844 96.171875 C 219.597656 96.125 219.714844 96.0625 219.84375 96 C 219.996094 95.929688 220.15625 95.886719 220.300781 95.792969 C 223.085938 94.011719 226.15625 92.742188 229.421875 92.019531 C 229.550781 91.992188 229.644531 91.90625 229.765625 91.867188 C 230.035156 91.78125 230.277344 91.671875 230.519531 91.535156 C 230.746094 91.40625 230.957031 91.273438 231.152344 91.109375 C 231.355469 90.9375 231.519531 90.75 231.6875 90.542969 C 231.851562 90.339844 231.996094 90.132812 232.121094 89.902344 C 232.242188 89.675781 232.324219 89.441406 232.398438 89.191406 C 232.484375 88.925781 232.539062 88.664062 232.5625 88.378906 C 232.574219 88.253906 232.636719 88.144531 232.636719 88.015625 L 232.636719 80.914062 L 238.90625 80.914062 L 238.90625 88.015625 C 238.90625 88.144531 238.96875 88.253906 238.980469 88.378906 C 239.007812 88.664062 239.0625 88.925781 239.144531 89.191406 C 239.222656 89.441406 239.304688 89.675781 239.425781 89.902344 C 239.546875 90.132812 239.691406 90.339844 239.859375 90.542969 C 240.023438 90.75 240.191406 90.9375 240.394531 91.105469 C 240.589844 91.273438 240.800781 91.40625 241.027344 91.53125 C 241.269531 91.667969 241.511719 91.78125 241.78125 91.867188 C 241.902344 91.90625 241.996094 91.992188 242.125 92.019531 C 245.390625 92.742188 248.460938 94.007812 251.246094 95.792969 C 251.390625 95.886719 251.550781 95.925781 251.703125 96 C 251.832031 96.0625 251.949219 96.125 252.082031 96.171875 C 252.53125 96.332031 252.988281 96.4375 253.449219 96.4375 L 253.453125 96.4375 C 253.453125 96.4375 253.457031 96.4375 253.457031 96.4375 C 253.929688 96.4375 254.382812 96.328125 254.820312 96.171875 C 254.921875 96.136719 255.019531 96.101562 255.117188 96.058594 C 255.546875 95.867188 255.949219 95.613281 256.296875 95.273438 C 256.316406 95.257812 256.335938 95.253906 256.351562 95.238281 L 261.378906 90.214844 L 265.8125 94.652344 L 260.792969 99.675781 C 260.699219 99.769531 260.667969 99.890625 260.585938 99.988281 C 260.40625 100.207031 260.257812 100.429688 260.128906 100.679688 C 260.003906 100.910156 259.898438 101.132812 259.824219 101.378906 C 259.746094 101.628906 259.703125 101.875 259.675781 102.136719 C 259.648438 102.402344 259.632812 102.652344 259.65625 102.917969 C 259.679688 103.171875 259.734375 103.414062 259.804688 103.664062 C 259.875 103.933594 259.96875 104.179688 260.097656 104.433594 C 260.160156 104.546875 260.164062 104.671875 260.234375 104.78125 C 262.015625 107.566406 263.285156 110.636719 264.011719 113.90625 C 264.042969 114.050781 264.128906 114.164062 264.171875 114.300781 C 264.238281 114.5 264.3125 114.6875 264.40625 114.871094 C 264.546875 115.144531 264.714844 115.382812 264.910156 115.613281 C 265.035156 115.765625 265.148438 115.90625 265.292969 116.039062 C 265.535156 116.257812 265.804688 116.421875 266.089844 116.578125 C 266.238281 116.660156 266.371094 116.757812 266.53125 116.820312 C 267 117.003906 267.492188 117.121094 268.011719 117.121094 C 268.011719 117.121094 268.015625 117.121094 268.015625 117.121094 L 275.113281 117.121094 L 275.113281 123.390625 L 268.015625 123.390625 C 267.886719 123.390625 267.777344 123.449219 267.652344 123.460938 C 267.367188 123.488281 267.105469 123.542969 266.832031 123.625 C 266.585938 123.703125 266.355469 123.785156 266.132812 123.902344 C 265.894531 124.027344 265.691406 124.175781 265.484375 124.339844 C 265.277344 124.503906 265.09375 124.671875 264.921875 124.871094 C 264.753906 125.070312 264.621094 125.28125 264.492188 125.511719 C 264.359375 125.75 264.246094 125.992188 264.160156 126.257812 C 264.121094 126.378906 264.039062 126.476562 264.007812 126.601562 C 263.285156 129.871094 262.015625 132.941406 260.234375 135.726562 C 260.160156 135.835938 260.15625 135.964844 260.097656 136.078125 C 259.96875 136.328125 259.875 136.578125 259.800781 136.84375 C 259.730469 137.097656 259.675781 137.339844 259.652344 137.59375 C 259.632812 137.859375 259.644531 138.109375 259.671875 138.371094 C 259.699219 138.632812 259.742188 138.878906 259.820312 139.128906 C 259.894531 139.375 260 139.601562 260.125 139.832031 C 260.253906 140.078125 260.402344 140.304688 260.582031 140.523438 C 260.664062 140.621094 260.695312 140.742188 260.789062 140.832031 L 265.8125 145.855469 L 261.371094 150.296875 L 256.347656 145.273438 C 256.253906 145.183594 256.132812 145.148438 256.035156 145.066406 C 255.816406 144.886719 255.59375 144.738281 255.347656 144.609375 C 255.117188 144.488281 254.894531 144.382812 254.648438 144.304688 C 254.394531 144.226562 254.148438 144.1875 253.886719 144.15625 C 253.625 144.128906 253.375 144.117188 253.109375 144.140625 C 252.855469 144.160156 252.613281 144.214844 252.359375 144.285156 C 252.09375 144.359375 251.84375 144.453125 251.589844 144.585938 C 251.476562 144.644531 251.351562 144.648438 251.238281 144.71875 C 248.457031 146.503906 245.386719 147.769531 242.121094 148.496094 C 241.992188 148.523438 241.898438 148.609375 241.777344 148.644531 C 241.507812 148.730469 241.265625 148.84375 241.023438 148.980469 C 240.796875 149.109375 240.585938 149.238281 240.390625 149.40625 C 240.1875 149.578125 240.019531 149.761719 239.855469 149.96875 C 239.6875 150.171875 239.542969 150.378906 239.417969 150.609375 C 239.300781 150.835938 239.21875 151.070312 239.140625 151.320312 C 239.058594 151.585938 239.003906 151.851562 238.976562 152.132812 C 238.964844 152.257812 238.902344 152.367188 238.902344 152.496094 L 238.902344 159.597656 L 232.632812 159.597656 L 232.632812 152.496094 C 232.632812 152.367188 232.570312 152.257812 232.558594 152.132812 C 232.53125 151.851562 232.476562 151.585938 232.394531 151.320312 C 232.320312 151.070312 232.234375 150.835938 232.113281 150.609375 C 231.992188 150.375 231.847656 150.171875 231.683594 149.96875 C 231.515625 149.761719 231.347656 149.574219 231.148438 149.40625 C 230.953125 149.238281 230.742188 149.105469 230.511719 148.976562 C 230.269531 148.839844 230.03125 148.730469 229.761719 148.644531 C 229.640625 148.605469 229.546875 148.519531 229.417969 148.492188 C 226.152344 147.769531 223.078125 146.5 220.296875 144.71875 C 220.1875 144.648438 220.058594 144.640625 219.945312 144.582031 C 219.695312 144.453125 219.449219 144.359375 219.183594 144.285156 C 218.929688 144.214844 218.679688 144.160156 218.417969 144.136719 C 218.164062 144.117188 217.921875 144.128906 217.667969 144.15625 C 217.394531 144.183594 217.140625 144.226562 216.878906 144.308594 C 216.644531 144.382812 216.425781 144.484375 216.203125 144.601562 C 215.949219 144.734375 215.722656 144.882812 215.496094 145.070312 C 215.402344 145.152344 215.28125 145.183594 215.1875 145.273438 L 210.164062 150.296875 L 205.722656 145.859375 L 210.753906 140.835938 C 210.847656 140.742188 210.878906 140.621094 210.964844 140.519531 C 211.144531 140.304688 211.289062 140.078125 211.421875 139.832031 C 211.542969 139.601562 211.648438 139.378906 211.722656 139.132812 C 211.800781 138.878906 211.84375 138.632812 211.871094 138.371094 C 211.898438 138.105469 211.910156 137.855469 211.886719 137.589844 C 211.867188 137.335938 211.8125 137.097656 211.742188 136.84375 C 211.667969 136.574219 211.574219 136.324219 211.441406 136.074219 C 211.382812 135.957031 211.375 135.832031 211.304688 135.722656 C 209.523438 132.941406 208.257812 129.875 207.53125 126.601562 C 207.5 126.476562 207.417969 126.378906 207.378906 126.257812 C 207.292969 125.988281 207.183594 125.75 207.046875 125.507812 C 206.917969 125.277344 206.785156 125.066406 206.617188 124.871094 C 206.445312 124.667969 206.261719 124.503906 206.058594 124.339844 C 205.847656 124.171875 205.644531 124.023438 205.40625 123.902344 C 205.183594 123.78125 204.953125 123.699219 204.707031 123.625 C 204.4375 123.542969 204.167969 123.484375 203.882812 123.457031 C 203.757812 123.449219 203.652344 123.386719 203.527344 123.386719 L 196.429688 123.386719 L 196.429688 117.121094 L 203.527344 117.121094 C 204.046875 117.121094 204.542969 117.003906 205.007812 116.820312 C 205.167969 116.757812 205.300781 116.65625 205.453125 116.574219 C 205.738281 116.421875 206.007812 116.257812 206.25 116.039062 C 206.394531 115.910156 206.507812 115.765625 206.632812 115.613281 C 206.824219 115.386719 206.992188 115.144531 207.132812 114.871094 C 207.226562 114.683594 207.300781 114.5 207.367188 114.300781 C 207.414062 114.164062 207.5 114.050781 207.53125 113.90625 C 208.253906 110.632812 209.523438 107.566406 211.304688 104.785156 C 211.375 104.675781 211.382812 104.550781 211.441406 104.4375 C 211.574219 104.183594 211.667969 103.933594 211.742188 103.664062 C 211.8125 103.414062 211.867188 103.171875 211.886719 102.917969 C 211.910156 102.652344 211.898438 102.402344 211.871094 102.140625 C 211.84375 101.878906 211.800781 101.628906 211.722656 101.375 C 211.648438 101.132812 211.542969 100.910156 211.421875 100.679688 C 211.289062 100.433594 211.144531 100.207031 210.960938 99.984375 C 210.878906 99.886719 210.84375 99.765625 210.753906 99.675781 L 205.730469 94.652344 Z M 210.167969 90.214844 " fill-opacity="1" fill-rule="nonzero"/><path fill="#000000" d="M 245.335938 117.113281 C 245.667969 118.125 245.835938 119.183594 245.835938 120.257812 C 245.835938 125.804688 241.324219 130.316406 235.773438 130.316406 C 234.390625 130.316406 233.050781 130.042969 231.796875 129.5 C 229.726562 128.605469 227.308594 129.558594 226.410156 131.640625 C 225.511719 133.722656 226.46875 136.132812 228.554688 137.03125 C 230.839844 138.015625 233.269531 138.519531 235.773438 138.519531 C 245.84375 138.519531 254.035156 130.324219 254.035156 120.257812 C 254.035156 118.316406 253.734375 116.398438 253.128906 114.5625 C 252.417969 112.410156 250.105469 111.242188 247.953125 111.941406 C 245.800781 112.648438 244.632812 114.964844 245.335938 117.113281 Z M 245.335938 117.113281 " fill-opacity="1" fill-rule="nonzero"/><path fill="#000000" d="M 222.386719 128.972656 C 222.828125 128.972656 223.28125 128.898438 223.726562 128.746094 C 225.863281 128.003906 227 125.667969 226.261719 123.527344 C 225.902344 122.488281 225.714844 121.386719 225.714844 120.257812 C 225.714844 114.710938 230.230469 110.199219 235.773438 110.199219 C 237.203125 110.199219 238.582031 110.492188 239.871094 111.066406 C 241.949219 111.980469 244.367188 111.054688 245.28125 108.988281 C 246.207031 106.921875 245.273438 104.496094 243.210938 103.574219 C 240.859375 102.527344 238.359375 102 235.773438 102 C 225.707031 102 217.515625 110.191406 217.515625 120.257812 C 217.515625 122.300781 217.851562 124.308594 218.507812 126.214844 C 219.097656 127.90625 220.6875 128.972656 222.386719 128.972656 Z M 222.386719 128.972656 " fill-opacity="1" fill-rule="nonzero"/><g clip-path="url(#2ac1e98913)"><path fill="#000000" d="M 319.023438 37.964844 C 299.074219 19.636719 267.53125 13.34375 246.65625 9.179688 C 243.832031 8.613281 241.214844 8.09375 238.871094 7.589844 C 224.613281 4.515625 208.722656 2.886719 192.929688 2.886719 C 137.960938 2.886719 90.542969 21.578125 66.097656 52.886719 C 51.226562 71.925781 45.714844 95.804688 42.277344 116.652344 C 40.34375 128.410156 41.785156 146.449219 44.300781 157.089844 C 44.664062 158.644531 44.792969 159.964844 44.699219 161.238281 C 44.464844 164.503906 41.875 173 36.679688 178.777344 L 36.347656 179.144531 C 19.640625 197.722656 11.480469 207.476562 10.292969 212.675781 C 9.078125 217.96875 10.761719 224.046875 14.578125 228.164062 C 16.507812 230.242188 21.667969 232.589844 29.914062 235.140625 C 32.308594 236.316406 32.980469 237.273438 33.027344 237.40625 C 32.960938 238.019531 31.71875 239.730469 30.976562 240.753906 C 28.75 243.824219 25.378906 248.46875 26.789062 254.5625 C 27.539062 257.800781 29.484375 260.328125 31.542969 262.226562 C 30.332031 263.898438 29.332031 265.777344 28.976562 267.695312 C 27.621094 275.019531 31.429688 280.5625 35.542969 282.617188 C 37.414062 283.550781 36.804688 287.046875 36.410156 288.316406 C 35.984375 289.714844 35.390625 291.066406 34.8125 292.414062 C 33.835938 294.6875 32.734375 297.261719 32.144531 300.136719 C 30.078125 310.203125 35.300781 325.226562 46.117188 330.6875 C 52.125 333.722656 59.410156 335.199219 68.375 335.199219 C 74.722656 335.199219 80.96875 334.503906 87.007812 333.824219 C 89.699219 333.523438 92.316406 333.230469 94.808594 333.019531 C 96.777344 332.859375 98.730469 332.773438 100.65625 332.773438 C 112.796875 332.773438 129.46875 336.242188 139.941406 352.777344 C 141.25 354.84375 142.394531 357.054688 143.328125 359.34375 C 146.445312 366.964844 153.730469 371.886719 161.890625 371.886719 L 274.308594 371.886719 C 280.015625 371.886719 285.285156 369.296875 288.769531 364.777344 C 292.289062 360.214844 293.460938 354.382812 291.992188 348.78125 C 281.90625 310.425781 300.09375 281.78125 319.351562 251.449219 C 328.117188 237.644531 337.183594 223.371094 343.65625 207.90625 C 365.789062 155.035156 364.433594 79.683594 319.023438 37.964844 Z M 332.3125 203.160156 C 326.242188 217.660156 317.460938 231.488281 308.972656 244.859375 C 289.144531 276.078125 268.648438 308.363281 280.09375 351.910156 C 280.589844 353.796875 280.199219 355.75 279.027344 357.273438 C 278.359375 358.136719 276.863281 359.589844 274.308594 359.589844 L 161.890625 359.589844 C 158.75 359.589844 155.929688 357.664062 154.710938 354.691406 C 153.503906 351.730469 152.03125 348.875 150.332031 346.195312 C 139.671875 329.367188 122.496094 320.476562 100.65625 320.476562 C 98.410156 320.476562 96.097656 320.574219 93.785156 320.769531 C 91.179688 320.984375 88.449219 321.289062 85.640625 321.601562 C 79.933594 322.242188 74.035156 322.902344 68.375 322.902344 C 61.378906 322.902344 55.917969 321.859375 51.660156 319.710938 C 46.398438 317.050781 43.101562 307.9375 44.195312 302.613281 C 44.53125 300.960938 45.304688 299.164062 46.121094 297.261719 C 46.835938 295.589844 47.578125 293.863281 48.164062 291.949219 C 50.402344 284.714844 49.066406 275.621094 41.289062 271.777344 C 41.160156 271.640625 40.867188 271.046875 40.988281 270.253906 C 41.328125 269.441406 43.175781 267.394531 44.785156 266.050781 C 46.25 264.839844 47.074219 263.015625 47.007812 261.117188 C 46.949219 259.214844 46.011719 257.453125 44.472656 256.339844 C 44.171875 256.121094 43.703125 255.824219 43.109375 255.464844 C 39.585938 253.328125 38.878906 252.242188 38.773438 251.785156 C 38.628906 251.15625 40.015625 249.246094 40.933594 247.984375 C 43.113281 244.976562 46.410156 240.4375 44.984375 234.5625 C 43.898438 230.101562 40.457031 226.488281 34.769531 223.828125 C 34.507812 223.707031 34.238281 223.601562 33.964844 223.519531 C 26.871094 221.347656 24.113281 219.917969 23.300781 219.441406 C 22.449219 218.304688 22 216.644531 22.222656 215.644531 C 23.753906 211.542969 38.984375 194.605469 45.492188 187.371094 L 45.824219 187 C 53.234375 178.761719 56.59375 167.363281 56.96875 162.117188 C 57.148438 159.605469 56.921875 157.042969 56.273438 154.273438 C 54.089844 145.007812 52.753906 128.753906 54.421875 118.652344 C 57.761719 98.363281 62.664062 77.269531 75.796875 60.457031 C 97.925781 32.109375 141.714844 15.1875 192.929688 15.1875 C 207.867188 15.1875 222.859375 16.71875 236.277344 19.613281 C 238.679688 20.132812 241.355469 20.664062 244.25 21.242188 C 263.777344 25.136719 293.289062 31.023438 310.703125 47.023438 C 351.5 84.503906 352.285156 155.441406 332.3125 203.160156 Z M 332.3125 203.160156 " fill-opacity="1" fill-rule="nonzero"/></g><path fill="#000000" d="M 311.851562 104.183594 C 312.355469 102.046875 312.65625 99.832031 312.753906 97.605469 C 313.617188 76.988281 295.984375 59.445312 273.445312 58.492188 C 271.546875 58.417969 269.519531 58.460938 267.34375 58.640625 C 264.246094 58.953125 261.105469 57.730469 258.902344 55.390625 C 251.429688 47.542969 241.058594 42.957031 229.691406 42.480469 C 222.519531 42.171875 215.570312 43.574219 209.421875 46.480469 C 206.140625 48 202.003906 48 198.351562 46.46875 C 193.570312 44.476562 188.460938 43.355469 183.160156 43.128906 C 171.65625 42.660156 160.472656 46.640625 152.441406 54.074219 C 150.125 56.203125 146.84375 57.195312 143.449219 56.761719 C 142.683594 56.664062 141.917969 56.589844 141.144531 56.53125 C 138.277344 56.304688 135.863281 58.449219 135.65625 61.265625 C 135.449219 64.089844 137.570312 66.546875 140.390625 66.753906 C 140.980469 66.796875 141.570312 66.851562 142.167969 66.929688 C 148.582031 67.726562 154.84375 65.789062 159.394531 61.605469 C 165.445312 56.003906 173.984375 53 182.726562 53.371094 C 186.816406 53.542969 190.746094 54.402344 194.398438 55.925781 C 200.753906 58.582031 207.792969 58.523438 213.761719 55.761719 C 218.457031 53.542969 223.847656 52.5 229.261719 52.71875 C 237.832031 53.078125 245.925781 56.625 251.460938 62.441406 C 255.800781 67.046875 262.097656 69.4375 268.257812 68.847656 C 269.9375 68.710938 271.546875 68.664062 273.015625 68.734375 C 289.910156 69.445312 303.136719 82.199219 302.511719 97.171875 C 302.441406 98.75 302.230469 100.320312 301.882812 101.796875 C 300.566406 107.191406 301.714844 112.714844 305.011719 116.925781 C 308.808594 121.820312 310.6875 127.523438 310.4375 133.410156 C 310.125 140.902344 306.46875 147.714844 300.148438 152.597656 C 296.300781 155.578125 294.019531 160.007812 293.875 165.042969 C 293.355469 177.398438 283.480469 187.785156 269.757812 190.320312 C 269.433594 190.386719 269.132812 190.46875 268.851562 190.5625 C 263.796875 191.941406 259.105469 196.09375 254.511719 203.253906 C 252.988281 205.636719 253.679688 208.808594 256.0625 210.335938 C 256.917969 210.882812 257.875 211.144531 258.824219 211.144531 C 260.511719 211.144531 262.164062 210.3125 263.144531 208.789062 C 267.285156 202.328125 270.238281 200.78125 271.632812 200.429688 C 271.742188 200.402344 271.847656 200.371094 271.957031 200.335938 C 290.1875 196.867188 303.394531 182.5625 304.117188 165.476562 C 304.117188 165.449219 304.128906 165.074219 304.128906 165.050781 C 304.179688 163.332031 304.972656 161.828125 306.421875 160.707031 C 315.046875 154.042969 320.242188 144.25 320.679688 133.839844 C 321.027344 125.5 318.410156 117.480469 313.097656 110.628906 C 311.730469 108.886719 311.273438 106.554688 311.851562 104.183594 Z M 311.851562 104.183594 " fill-opacity="1" fill-rule="nonzero"/><path fill="#000000" d="M 254.046875 214.519531 C 251.433594 213.390625 248.433594 214.601562 247.3125 217.199219 C 245.515625 221.386719 244.125 225.171875 243.453125 226.996094 C 241.585938 232.105469 236.390625 235.375 230.867188 235.132812 L 229.144531 235.058594 C 222.449219 234.777344 217.253906 227.519531 216.277344 220.953125 C 215.820312 217.875 215.589844 211.53125 215.351562 204.8125 C 215.0625 196.726562 214.730469 187.5625 213.917969 179.8125 C 213.328125 174.207031 209.246094 170.667969 203.261719 170.570312 C 202.019531 170.550781 200.910156 170.945312 199.453125 171.488281 C 196.257812 172.6875 190.316406 174.914062 182.839844 172.507812 C 177.519531 170.792969 175.847656 167.328125 174.851562 165.257812 C 174.648438 164.84375 174.476562 164.492188 174.324219 164.214844 C 172.027344 160.03125 167.121094 158.269531 162.425781 159.945312 C 155.378906 162.445312 148.863281 163.820312 139.933594 162.394531 C 131.265625 161.007812 124.515625 155.625 121.433594 147.644531 C 119.304688 142.074219 113.246094 140.679688 109.242188 139.753906 L 108.558594 139.597656 C 101.394531 137.863281 89.417969 132.613281 89.707031 116.917969 C 89.828125 110.914062 92.257812 106.644531 97.339844 103.484375 C 103.769531 99.503906 107.332031 91.21875 108.429688 85.335938 C 110.65625 73.425781 121.476562 69.210938 127.730469 67.757812 C 130.484375 67.113281 132.203125 64.359375 131.5625 61.601562 C 130.917969 58.847656 128.183594 57.136719 125.410156 57.769531 C 110.621094 61.207031 100.761719 70.570312 98.355469 83.453125 C 97.601562 87.484375 95.101562 92.816406 91.9375 94.777344 C 83.964844 99.730469 79.648438 107.316406 79.457031 116.722656 C 79.15625 133.167969 89.136719 145.445312 106.1875 149.570312 L 106.941406 149.746094 C 108.476562 150.097656 111.339844 150.757812 111.863281 151.324219 C 116.308594 162.816406 125.949219 170.539062 138.316406 172.515625 C 149.816406 174.347656 158.183594 172.296875 165.617188 169.703125 L 165.621094 169.714844 C 166.875 172.308594 170.199219 179.207031 179.707031 182.265625 C 190.578125 185.769531 199.316406 182.492188 203.046875 181.089844 C 203.277344 181.007812 203.480469 180.929688 203.660156 180.863281 C 203.691406 180.867188 203.734375 180.863281 203.726562 180.882812 C 204.503906 188.285156 204.828125 197.261719 205.113281 205.183594 C 205.375 212.5 205.601562 218.816406 206.144531 222.460938 C 207.753906 233.289062 216.636719 244.792969 228.714844 245.304688 L 230.4375 245.375 C 230.777344 245.390625 231.117188 245.394531 231.460938 245.394531 C 241.179688 245.394531 249.792969 239.519531 253.082031 230.527344 C 253.71875 228.792969 255.046875 225.179688 256.734375 221.253906 C 257.847656 218.652344 256.648438 215.636719 254.046875 214.519531 Z M 254.046875 214.519531 " fill-opacity="1" fill-rule="nonzero"/><path stroke-linecap="butt" transform="matrix(0.75, 0, 0, 0.75, 79.086429, 208.975928)" fill="none" stroke-linejoin="miter" d="M -0.000655209 2.000846 L 159.999355 2.000846 " stroke="#ffffff" stroke-width="4" stroke-opacity="1" stroke-miterlimit="4"/></svg>