<svg xmlns="http://www.w3.org/2000/svg" xmlns:xlink="http://www.w3.org/1999/xlink" width="500" zoomAndPan="magnify" viewBox="0 0 375 374.999991" height="500" preserveAspectRatio="xMidYMid meet" version="1.0"><path stroke-linecap="butt" transform="matrix(0.75, 0, 0, 0.75, 79.086429, 208.975928)" fill="none" stroke-linejoin="miter" d="M -0.000655209 2.000846 L 159.999355 2.000846 " stroke="#ffffff" stroke-width="4" stroke-opacity="1" stroke-miterlimit="4"/><path fill="#000000" d="M 199.828125 121.800781 C 255.625 120.054688 258.691406 171.230469 258.777344 173.359375 C 258.863281 175.488281 260.097656 177.40625 262.011719 178.339844 C 262.820312 178.722656 263.671875 178.9375 264.609375 178.9375 C 265.757812 178.9375 266.992188 178.554688 268.011719 177.832031 C 277.292969 171.144531 282.058594 158.332031 282.570312 156.839844 C 283.121094 155.351562 282.996094 153.773438 282.3125 152.371094 C 244.984375 75.179688 262.4375 17.320312 262.605469 16.765625 C 263.414062 14.296875 262.480469 11.613281 260.308594 10.167969 C 258.179688 8.761719 255.371094 8.890625 253.371094 10.507812 C 179.484375 71.136719 193.484375 115.96875 194.082031 117.839844 C 194.933594 120.226562 197.230469 121.929688 199.828125 121.800781 Z M 248.050781 30.605469 C 244.984375 54.105469 244.390625 99.449219 270.738281 155.09375 C 270.097656 156.457031 269.246094 158.246094 268.140625 160.035156 C 263.5 141.898438 249.03125 110.988281 204.464844 110.136719 C 203.617188 99.703125 205.699219 69.984375 248.050781 30.605469 Z M 248.050781 30.605469 " fill-opacity="1" fill-rule="nonzero"/><path fill="#000000" d="M 355.09375 175.617188 C 354.371094 174.722656 337.261719 153.519531 315.300781 153.519531 C 299.421875 153.519531 285.847656 164.164062 275.078125 184.941406 C 272.90625 188.601562 265.757812 198.140625 258.519531 200.269531 C 258.4375 190.601562 256.351562 171.871094 243.328125 156.246094 C 231.109375 141.640625 212.46875 133.507812 188.039062 132.019531 C 120.660156 126.867188 71.671875 93.191406 48.519531 73.5625 C 36.644531 63.472656 30.171875 56.019531 30.089844 55.9375 C 28.855469 54.53125 26.9375 53.851562 25.195312 53.976562 C 23.789062 53.808594 19.617188 54.234375 18.894531 60.449219 C 15.957031 84.589844 30.597656 220.40625 161.777344 260.171875 C 145.390625 271.835938 109.210938 294.359375 70.183594 298.449219 C 68.222656 298.703125 66.480469 299.894531 65.585938 301.640625 C 65.074219 302.703125 52.859375 327.613281 62.734375 348.984375 C 68.394531 361.289062 79.972656 369.632812 96.996094 373.847656 C 97.507812 373.933594 97.933594 374.019531 98.402344 374.019531 C 100.914062 374.019531 103.210938 372.402344 103.933594 369.890625 C 104.0625 369.464844 117.085938 329.058594 172.800781 326.078125 C 175.90625 326.675781 187.695312 328.71875 203.785156 328.71875 C 238.515625 328.71875 285.675781 319.480469 313.128906 275.625 C 315.554688 272.476562 325.515625 256.128906 323.003906 205.417969 C 324.28125 202.054688 330.664062 188.007812 351.390625 184.984375 C 353.433594 184.683594 355.179688 183.28125 355.945312 181.40625 C 356.710938 179.449219 356.414062 177.277344 355.09375 175.617188 Z M 311.511719 203.164062 C 311.339844 203.757812 311.257812 204.355469 311.339844 204.953125 C 314.023438 254.765625 303.976562 268.472656 303.976562 268.429688 C 303.808594 268.6875 303.59375 268.898438 303.507812 269.15625 C 278.824219 308.792969 235.664062 317.09375 203.785156 317.09375 C 186.71875 317.09375 174.546875 314.539062 174.460938 314.539062 C 173.949219 314.5 173.480469 314.457031 172.96875 314.457031 C 120.746094 316.882812 100.914062 348.386719 94.953125 361.160156 C 84.183594 357.671875 76.949219 351.964844 73.332031 344.171875 C 67.371094 331.402344 72.351562 315.902344 74.820312 309.644531 C 129.683594 302.492188 176.460938 263.875 178.460938 262.171875 C 180.164062 260.808594 180.929688 258.511719 180.417969 256.425781 C 179.949219 254.253906 178.289062 252.59375 176.121094 252.039062 C 56.730469 222.535156 32.515625 110.519531 30.300781 72.839844 C 33.152344 75.605469 36.726562 78.84375 41.027344 82.417969 C 65.246094 102.980469 116.53125 138.234375 187.273438 143.640625 C 208.425781 144.917969 224.300781 151.644531 234.34375 163.609375 C 249.242188 181.363281 246.730469 205.25 246.6875 205.417969 C 246.347656 208.398438 248.222656 211.082031 251.03125 211.804688 C 252.605469 212.144531 254.179688 212.402344 255.753906 212.402344 C 271.714844 212.402344 283.675781 193.199219 285.164062 190.644531 C 293.976562 173.742188 304.0625 165.144531 315.257812 165.144531 C 324.664062 165.144531 333.472656 171.019531 339.175781 176 C 317.042969 183.664062 311.765625 202.226562 311.511719 203.164062 Z M 311.511719 203.164062 " fill-opacity="1" fill-rule="nonzero"/></svg>