<svg xmlns="http://www.w3.org/2000/svg" xmlns:xlink="http://www.w3.org/1999/xlink" width="500" zoomAndPan="magnify" viewBox="0 0 375 374.999991" height="500" preserveAspectRatio="xMidYMid meet" version="1.0"><defs><clipPath id="aa946d0aa1"><path d="M 0.398438 11.25 L 374.601562 11.25 L 374.601562 363.75 L 0.398438 363.75 Z M 0.398438 11.25 " clip-rule="nonzero"/></clipPath></defs><path stroke-linecap="butt" transform="matrix(0.75, 0, 0, 0.75, 79.086429, 208.975928)" fill="none" stroke-linejoin="miter" d="M -0.000655209 2.000846 L 159.999355 2.000846 " stroke="#ffffff" stroke-width="4" stroke-opacity="1" stroke-miterlimit="4"/><g clip-path="url(#aa946d0aa1)"><path fill="#000000" d="M 272.222656 149.96875 L 316.863281 30.195312 L 319.054688 29.113281 L 364.105469 149.96875 Z M 102.777344 272.167969 L 10.894531 272.167969 L 55.15625 153.417969 C 56.265625 153.796875 57.464844 153.945312 58.691406 153.855469 Z M 373.929688 150.785156 C 373.460938 150.261719 372.789062 149.96875 372.117188 149.96875 L 370.332031 149.96875 L 323.96875 25.605469 C 325.925781 23.003906 326.511719 19.464844 324.992188 16.335938 C 322.855469 11.921875 317.566406 10.050781 313.121094 12.128906 L 54.101562 136.960938 C 49.71875 139.121094 47.875 144.414062 50.007812 148.859375 C 50.125 149.0625 50.300781 149.207031 50.449219 149.414062 L 4.667969 272.167969 L 2.882812 272.167969 C 2.210938 272.167969 1.539062 272.460938 1.070312 272.957031 C 0.601562 273.484375 0.339844 274.15625 0.398438 274.828125 C 1.773438 293.746094 17.558594 308.683594 36.824219 308.683594 L 76.847656 308.683594 C 96.113281 308.683594 111.898438 293.746094 113.273438 274.828125 C 113.300781 274.15625 113.070312 273.484375 112.601562 272.957031 C 112.132812 272.460938 111.460938 272.167969 110.789062 272.167969 L 109.003906 272.167969 L 64.1875 151.957031 L 178.554688 96.847656 L 178.554688 328.503906 L 133.445312 328.503906 C 121.546875 328.503906 111.898438 338.152344 111.898438 350.050781 C 111.898438 357.652344 118.066406 363.820312 125.667969 363.820312 L 249.332031 363.820312 C 256.933594 363.820312 263.101562 357.652344 263.101562 350.050781 C 263.101562 338.152344 253.453125 328.503906 241.554688 328.503906 L 196.445312 328.503906 L 196.445312 88.226562 L 199.429688 86.761719 L 309.320312 33.820312 L 265.996094 149.96875 L 264.242188 149.96875 C 263.539062 149.96875 262.867188 150.261719 262.398438 150.785156 C 261.929688 151.285156 261.667969 151.957031 261.726562 152.65625 C 263.101562 171.574219 278.886719 186.484375 298.152344 186.484375 L 338.175781 186.484375 C 357.441406 186.484375 373.226562 171.574219 374.601562 152.65625 C 374.660156 151.957031 374.398438 151.285156 373.929688 150.785156 " fill-opacity="1" fill-rule="nonzero"/></g></svg>