<svg xmlns="http://www.w3.org/2000/svg" width="970" height="1800" version="1.0" viewBox="0 0 727.5 1350"><path fill="#faca09" d="M2.703 1324.574c7.793.985 14.86 2.012 21.922 2.738 9.68.985 19.36 2.141 29.078 2.57 9.723.43 19.484.43 29.207-.042 13.445-.684 26.977-1.328 40.293-3.125 35.887-4.84 69.758-16.36 100.379-35.63 14.773-9.292 28.004-21.155 41.367-32.503 7.235-6.121 13.403-13.574 19.867-20.598 10.793-11.73 19.786-24.75 26.98-39.011 4.454-8.82 9.294-17.512 13.017-26.633 3.898-9.594 7.453-19.527 9.722-29.594 3.64-16.312 7.363-32.758 8.777-49.328 2.958-34.262-.257-68.262-6.292-102.133-3.856-21.668-6.211-43.68-8.223-65.605-1.242-13.79-.172-27.836 5.223-40.852 8.738-21.113 25.18-32.59 47.62-35.715 29.72-4.152 59.438-2.011 89.2-.558 31.09 1.543 62.176 4.71 93.351.558 36.274-4.84 65.434-20.77 84.918-52.715 12.118-19.87 20.043-41.496 27.364-63.421 4.28-12.801 8.48-25.649 11.992-38.668 3.34-12.375 6.207-24.88 8.347-37.512 2.657-15.461 5.098-31.047 6.297-46.676 1.2-15.504.43-31.09 1.07-46.637.9-21.879-3.64-43.164-6.253-64.703-3.383-27.836-12.801-53.87-22.953-79.523-6.637-16.7-15.844-32.63-25.563-47.832-13.746-21.625-29.976-41.453-48.82-59.094-21.195-19.871-44.278-37.215-69.758-50.96-38.625-20.938-80.078-33.7-123.84-38.282-28.008-2.914-56.097-3.168-84.105 0-21.582 2.484-43.121 5.351-64.664 7.965-15.07 1.84-30.145 4.28-45.477 2.312-15.242-1.969-26.121-10.02-30.144-24.625-3.942-14.215-5.954-29.031-8.567-43.637-3.125-17.64-5.18-35.542-9.164-52.968-3.77-16.403-11.95-30.875-22.91-44.024-8.691-10.449-19.184-18.37-30.875-24.238-9.508-4.754-20.254-7.191-30.531-10.363-24.453-7.578-49.332-5.094-74.086-6.336-3.766-.172-5.18-1.285-4.965-5.14.297-4.626.21-9.25 0-13.872-.129-3.3.984-4.668 4.367-4.625 21.41.168 42.863-.43 64.234.555 10.704.515 21.282 3.855 31.903 5.953 5.953 1.2 11.988 2.14 17.812 3.812 4.496 1.282 8.782 3.254 13.02 5.223 5.781 2.742 11.648 5.438 17.086 8.777 15.289 9.422 27.449 21.84 36.87 37.344 10.833 17.77 14.99 37.555 19.7 57.254 3.168 13.273 4.879 26.89 7.965 40.211 4.836 21.195 19.055 32.887 40.168 34.941 17.297 1.672 34.812 1.63 52.285 1.84 27.836.301 55.668-1.496 83.547 1.5 42.094 4.54 82.562 14.817 121.23 31.86 20.512 9.035 40.211 19.87 58.024 33.617 15.547 11.988 31.219 23.98 45.351 37.512 12.16 11.605 22.825 24.964 33.059 38.328 9.121 11.902 17.559 24.449 24.879 37.511 7.324 13.059 13.148 26.977 19.183 40.766 18.715 42.867 24.625 88.516 27.836 134.55 1.157 16.614-.43 33.446-1.285 50.145-.597 12.117-1.539 24.239-3.297 36.227a470.314 470.314 0 0 1-7.707 40.726c-3.683 15.63-7.793 31.176-12.632 46.461-9.207 29.207-19.614 58.067-34.989 84.66-16.527 28.563-41.664 46.036-73.695 53.786-25.61 6.21-51.602 5.437-77.637 4.925-26.168-.558-52.289-.472-78.453-.644-12.375-.082-24.535 1.242-36.355 5.355-11.008 3.813-18.63 11.391-24.196 21.024-10.277 17.773-10.793 37.515-9.722 57.172 1.37 25.777 4.242 51.515 5.312 77.293 1.242 29.89.13 59.695-5.824 89.285-3.898 19.398-9.078 38.285-16.871 56.312-5.953 13.703-13.277 26.934-21.156 39.653-7.239 11.691-15.246 23.125-24.239 33.488-8.433 9.762-18.797 17.855-28.09 26.934-12.503 12.207-28.007 20.085-42.351 29.636-19.313 12.844-40.555 20.766-62.48 26.762a328.336 328.336 0 0 1-51.899 9.766c-24.152 2.566-48.477 2.996-72.758.812-11.39-1.027-22.738-2.785-34.043-4.41-1.113-.172-2.785-1.715-2.828-2.7-.297-4.238-.125-8.476-.125-13.187Zm0 0"/><path fill="#faca09" d="M2.703 1290.016c7.492 1.07 14.258 2.011 20.98 2.953 26.766 3.726 53.614 3.984 80.38.601 12.16-1.543 24.238-4.41 36.144-7.41 23.938-6.039 46.29-15.973 66.672-29.89 21.625-14.774 40.039-32.672 54.984-54.426 16.059-23.34 26.98-48.778 32.461-76.313 4.969-24.879 7.153-50.23 2.656-75.496-3.94-22.223-8.437-44.32-12.976-66.418-4.84-23.422-11.133-46.59-14.688-70.226-3.468-22.868-.214-45.266 14.602-64.32 11.133-14.344 25.906-23.551 43.25-29.036 16.402-5.18 33.316-6.722 50.23-6.722 31.305.042 62.653.94 93.954 1.757 23.808.64 47.578 2.14 71.3-1.027 33.102-4.457 61.965-17.047 80.977-45.734 7.836-11.864 13.789-25.223 18.887-38.586 9.422-24.793 17.43-50.188 21.41-76.48 2.996-19.743 5.566-39.696 6.465-59.61.902-19.399-.082-38.926-.985-58.367-1.242-25.82-7.707-50.871-15.414-75.239-7.582-24.066-17.773-47.449-32.289-68.472-6.765-9.852-13.191-20.086-21.07-28.993-10.918-12.375-22.653-24.152-34.813-35.414-15.886-14.73-33.875-26.68-53.23-36.355-30.36-15.203-62.133-25.738-96.137-29.508-45.95-5.094-90.613.645-134.121 15.29-25.777 8.648-51 18.8-76.652 27.835-14.516 5.137-29.203 9.848-45.004 9.164-13.406-.558-28.008-11.734-33.016-24.11-6.64-16.444-8.308-33.831-11.222-51.003-3.34-19.695-5.481-39.652-9.208-59.266-4.109-21.539-10.148-42.652-24.964-59.738-7.32-8.477-15.414-15.93-25.52-21.71-15.203-8.692-31.95-10.493-48.348-14.13-5.14-1.156-7.453-2.785-6.808-8.265.469-3.899.254-7.88.043-11.82-.172-3.34 1.156-4.884 4.453-4.41C23.215 61.52 40.813 62.16 57.3 66.784c26.078 7.324 47.148 23.34 59.652 47.621 6.68 12.973 10.02 27.918 13.488 42.309 3.254 13.574 4.84 27.578 6.895 41.41 1.457 9.805 2.312 19.652 3.77 29.46 2.183 14.946 4.921 29.806 15.328 41.665 4.882 5.57 11.39 8.266 18.714 9.465 13.063 2.226 25.48-.387 37.942-3.813 28.347-7.836 56.61-16.015 85.172-23.078 38.113-9.422 76.824-11.094 115.793-6.469 42.097 4.97 81.578 18.243 117.804 40.04 15.59 9.378 30.364 20.554 44.024 32.59 14.176 12.503 27.406 26.292 39.523 40.808 9.336 11.219 16.66 24.195 24.239 36.785 23.34 38.625 34.859 81.45 41.28 125.512 4.243 29.078 4.712 58.496 2.055 88.004-2.652 29.59-7.277 58.836-15.714 87.183-7.024 23.555-14.86 47.149-25.266 69.375-17.941 38.41-50.316 57.512-91.938 62.606-23.64 2.87-47.19 1.37-70.789.344-39.652-1.715-79.39-5.395-119.003-.344-20.98 2.699-40.254 10.492-53.141 28.734-8.61 12.16-12.719 25.906-13.192 40.852-.726 23.468 3.34 46.293 8.395 69.074 7.281 32.758 13.703 65.605 14.688 99.348.726 25.007-1.372 49.59-8.094 73.613-5.996 21.453-14.774 41.754-26.723 60.766-14.898 23.636-33.957 42.82-56.137 59.695-16.703 12.719-34.43 23.293-54 30.144-18.8 6.598-37.898 12.59-57.941 15.504-25.95 3.77-51.813 3.64-77.809 1.457-9.035-.773-17.984-2.355-27.02-3.172-5.394-.511-7.538-2.91-6.679-8.218.297-1.63.086-3.344.086-6.04Zm0 0"/><path fill="#faca09" d="M3.215 1258.453c9.637 1.242 18.887 2.785 28.223 3.555 19.269 1.629 38.496 1.844 57.808-1.156 17.473-2.739 34.215-7.45 50.961-13.188 19.91-6.766 37.383-17.3 52.926-30.617 11.562-9.895 21.969-21.672 30.703-34.133 14.348-20.555 22.656-43.719 26.68-68.855 4.882-30.664 1.543-60.383-5.61-89.93-5.48-22.61-12.418-44.836-18.156-67.36-5.098-19.957-8.648-40.124-6.809-60.894 3.938-44.32 27.149-74.555 67.36-92.324 20.683-9.164 42.695-13.063 64.96-13.832 42.782-1.457 85.606-1.586 128.384-2.399 21.968-.43 43.765-2.226 64.918-8.734 30.878-9.465 52.628-29.078 65.69-58.453 10.02-22.485 16.317-46.121 20.13-70.36 3.039-19.226 5.695-38.539 6.933-57.937 1.329-20.64 0-41.324-2.953-61.879-4.023-28.266-11.605-55.371-22.523-81.793-9.164-22.266-21.969-42.18-36.442-60.937-12.804-16.614-28.136-31.344-45.308-43.594-17.985-12.844-37.125-23.422-58.153-30.918-24.41-8.692-49.332-13.871-75.195-14.172-28.48-.3-56.226 4.195-83.164 13.703-29.676 10.45-57.469 24.621-84.445 40.766-17 10.148-34.43 19.742-52.285 28.351-16.059 7.75-33.317 10.532-50.918 5.008-11.989-3.77-21.153-11.605-28.735-21.453-10.492-13.617-15.414-29.719-19.613-45.95-7.664-29.417-14.3-59.136-22.18-88.515-3.425-12.719-8.136-25.266-13.746-37.168-3.511-7.453-10.492-13.148-14.73-20.34-5.567-9.422-15.332-12.59-23.512-18.203-1.242-.855-2.61-2.523-2.652-3.894-.215-8.864-.13-17.73-.13-27.407 2.098.555 3.723.77 5.18 1.371 7.75 3.211 15.715 6.079 23.083 10.02 4.668 2.484 8.863 6.25 12.503 10.148 5.055 5.352 9.848 11.09 13.961 17.215 7.707 11.563 12.805 24.453 15.844 37.899 6.809 30.316 12.719 60.894 19.442 91.254 3.253 14.816 6.507 29.804 14.43 43.12 8.823 14.903 21.5 24.497 39.01 25.696 11.864.813 23.727-1.2 34.602-6.168a1538.555 1538.555 0 0 0 54.985-26.504c29.332-14.902 58.797-29.293 91.168-36.785 36.656-8.523 73.527-10.363 110.57-3.086 25.992 5.098 50.79 13.703 73.867 26.895 22.7 12.976 42.996 28.691 61.196 47.617 31.218 32.547 51.172 71.215 64.746 113.566 8.351 26.035 12.035 52.887 13.832 80.121 1.844 27.621.43 55.07-3.895 82.305-5.14 32.332-12.89 64.148-26.25 94.125-15.761 35.285-44.023 54.898-81.578 61.836-27.836 5.14-55.926 4.367-83.976 3.77-42.266-.86-84.66-2.958-126.582 4.667-30.192 5.48-56.27 18.625-73.743 45.004-11.175 16.875-15.714 35.801-15.414 56.012.254 18.844 4.282 37 9.035 55.027 4.54 17.215 9.547 34.301 13.875 51.559 7.536 30.02 11.989 60.426 9.164 91.469-1.628 17.86-5.398 35.332-12.035 52.203-7.066 17.941-16.058 34.644-29.246 48.73-8.008 8.567-17 16.188-25.008 24.754-10.023 10.79-22.398 18.371-35.46 24.024-16.528 7.191-33.829 12.718-51.13 17.855-10.578 3.125-21.71 4.969-32.714 5.867-13.235 1.07-26.637.985-39.953.555-10.407-.297-20.813-1.625-31.133-2.953-13.02-1.715-11.906-.984-10.793-14.176Zm0 0"/><path fill="#faca09" d="M3.3 199.281c3 3.508 6.212 6.895 8.95 10.574 3.129 4.2 6.168 8.48 8.61 13.106 4.581 8.691 9.378 17.344 12.804 26.508 4.922 13.101 8.691 26.633 12.973 39.996 7.152 22.48 14.09 45.047 21.496 67.488 6.894 20.813 18.285 38.668 36.402 51.559 16.145 11.476 34.13 14.258 53.313 10.062 18.543-4.023 34.816-12.976 50.488-23.254 19.742-12.972 39.312-26.164 59.266-38.797 30.191-19.097 62.992-32.03 98.363-36.87 41.238-5.653 81.148-.598 119.219 17.429 20.941 9.938 39.953 22.356 56.785 38.113 29.418 27.621 49.8 61.32 63.676 98.836 9.035 24.406 14.386 49.844 16.316 76.008 2.012 26.766 1.668 53.402-2.27 79.863-4.156 28.137-9.593 56.055-21.968 82.008-12.203 25.606-32.118 42.692-58.54 52.328-18.027 6.551-36.828 9.594-55.882 10.192-32.16 1.07-64.363 1.414-96.567 2.527-27.406.941-54.77 2.828-81.578 9.121-33.101 7.793-61.879 22.996-82.347 51.258-13.704 18.93-20.684 40.254-22.395 63.55-2.14 28.989 4.324 56.739 10.875 84.618 5.738 24.45 11.18 49.031 15.246 73.824 3.77 22.953 2.356 45.992-4.152 68.602-4.367 15.203-10.492 29.55-19.102 42.78-3.254 5.013-6.722 9.977-10.832 14.22-13.875 14.257-28.219 28.218-46.336 36.91-19.27 9.25-39.097 17.086-60.636 20.172-25.434 3.64-50.786 3.511-76.137-.387-7.54-1.156-7.496-1.285-6.04-11.648 4.41.386 8.907 1.027 13.403 1.156 17.258.344 34.559 1.672 51.73.43 15.93-1.157 31.563-5.27 46.805-10.88 16.274-6.035 31.39-13.913 44.407-25.136 8.824-7.578 16.445-16.7 23.94-25.692 14.774-17.644 22.31-38.71 25.864-60.98 2.91-18.242 3.34-36.871-.172-55.2-6.039-31.386-13.02-62.648-18.882-94.081-5.485-29.203-6.684-58.535 2.355-87.399 12.547-40.125 39.738-66.675 77.809-82.949 22.78-9.719 46.933-14.258 71.382-16.016 35.844-2.527 71.817-3.34 107.7-5.78 21.796-1.497 43.851-3.04 65.218-7.407 45.778-9.422 73.313-38.926 85.09-83.59 9.293-35.285 14.602-71.086 12.977-107.656-1.285-27.922-5.528-55.285-14.047-82.133-5.867-18.5-14.09-35.8-23.723-52.203-10.281-17.43-23.082-33.316-37.984-47.531-17.215-16.403-36.656-29.121-58.113-38.801-18.454-8.305-37.813-13.574-58.239-15.5-17.043-1.586-33.742-1.586-50.613 1.156-25.098 4.11-48.777 12.203-71.215 24.024-26.422 13.96-50.617 31.175-74.812 48.605-13.145 9.461-27.063 18.2-41.54 25.39-21.882 10.837-45.132 14.65-68.472 4.243-20.168-8.992-35.844-23.64-45.348-43.594-8.523-17.902-15.972-36.312-23.082-54.812-6.636-17.215-11.949-34.946-18.37-52.246-4.071-10.961-8.907-21.711-13.876-32.329-3.082-6.597-7.11-12.718-10.664-19.058-.426-.727-.898-1.54-.898-2.356-.043-10.535-.043-21.066-.043-31.601.386-.215.902-.473 1.414-.77Zm0 0"/><path fill="#faca09" d="M3.344 284.152C9.766 299.055 16.19 314 22.656 328.902c10.922 25.051 20.985 50.532 33.059 75.028 9.422 19.183 23.125 35.457 41.539 47.273 22.012 14.176 45.476 16.66 70.36 9.594 21.624-6.125 40.292-17.684 58.152-30.832 22.437-16.531 44.277-34.043 67.703-49.074 39.91-25.61 83.886-37.34 131.594-31.688 17.386 2.055 34.042 6.938 50.101 14.129 18.586 8.352 34.984 19.57 50.188 33.059 24.582 21.84 42.265 48.605 55.027 78.324 12.504 29.035 18.93 59.781 20.254 91.598 1.629 38.324-2.442 75.84-13.746 112.453-10.574 34.214-33.188 57.168-67.102 68.945-18.285 6.336-37.254 9.121-56.398 10.402-31.258 2.102-62.563 3.13-93.782 5.399-33.101 2.398-66.16 5.824-97.636 17.426-44.32 16.316-75.965 45.609-90.824 91.171-8.137 24.965-9.465 50.828-5.825 76.696 3.895 27.578 8.778 55.07 13.317 82.562 3.984 24.067 5.996 48.262 2.226 72.496-2.61 16.875-7.62 32.977-17.215 47.621-6.808 10.364-14.73 19.356-23.507 28.047-8.438 8.352-17.645 15.418-28.137 20.258-16.399 7.535-33.145 14.086-51.344 16.914-20.297 3.168-40.379 2.953-60.637.942-7.492-.727-7.878-1.243-7.023-12.29 1.715 0 3.555-.171 5.313.043 17.726 2.098 35.37 2.27 53.097-.644 25.91-4.281 50.149-12.676 70.445-29.633 10.106-8.434 18.883-18.414 25.864-29.934 17.945-29.632 20.812-62.003 17.687-95.32-1.93-20.258-5.312-40.34-8.05-60.512-4.282-31.257-8.051-62.476-2.614-93.992 8.137-47.406 33.188-82.863 74.727-106.843 22.996-13.278 48.176-19.957 74.125-24.454 36.312-6.336 73.054-8.136 109.754-10.492 28.007-1.797 55.968-3.594 83.164-11.816 38.238-11.52 62.734-36.317 73.824-74.512 6.082-20.941 8.863-42.437 10.45-64.148 1.71-23.512.558-46.891-3.77-69.93-2.485-13.191-6.852-26.078-10.575-39.012-5.441-18.969-15.332-36.015-26.254-51.988-9.89-14.516-21.238-28.477-35.968-38.969-5.824-4.152-11.176-8.949-17.13-12.972-19.913-13.532-41.839-21.668-65.69-25.696-29.72-5.05-58.282-1.328-86.286 8.739-19.441 6.976-37.515 16.785-54.215 28.902-18.671 13.531-36.742 27.879-55.242 41.668-22.953 17.086-47.148 31.687-75.883 37.086-28.988 5.437-54.64-1.117-76.863-20.64-18.031-15.849-31.39-35.204-41.84-56.614-9.336-19.184-18.027-38.668-27.105-57.98-3.555-7.54-7.453-14.946-11.133-22.399-.43-.898-1.031-1.883-1.031-2.824-.082-11.906-.043-23.856-.043-35.758.515-.3 1.031-.43 1.586-.559Zm0 0"/><path fill="#faca09" d="M1.676 364.617c12.672 22.695 24.535 45.051 37.511 66.719 12.72 21.195 27.536 40.894 48.047 55.539 17.172 12.336 36.57 17.086 57.297 15.332 38.11-3.21 70.742-20.125 100.805-42.652 22.437-16.828 43.848-35.243 67.36-50.403 41.41-26.718 86.671-36.914 135.363-23.207 20.253 5.696 38.41 15.5 54.984 28.774 21.281 17.004 37.555 37.984 50.102 61.707 14.988 28.308 22.738 58.883 24.878 90.914 1.887 28.219-.214 56.055-6.293 83.633-9.55 43.164-35.628 71.172-78.195 82.52-19.226 5.136-39.27 7.964-59.094 10.062-45.093 4.754-90.484 6.34-135.062 15.629-34.133 7.109-66.078 19.101-93.055 42.011-34.172 28.989-51.472 66.59-56.355 110.61-3.297 29.847.086 59.48 2.785 89.113 2.226 24.367 4.75 48.691 2.781 73.27-1.539 19.742-6.68 38.542-16.101 55.714-4.883 8.95-12.204 16.871-19.57 24.067-7.15 6.98-15.157 13.531-23.895 18.242-17.684 9.59-36.656 15.973-57.082 16.484-9.89.258-19.828-.34-29.676 0-5.566.172-7.453-1.925-6.594-7.148.172-1.156.13-2.356.172-3.813 5.438 0 10.703-.043 15.93 0 17.215.13 33.87-2.527 50.273-8.093 11.606-3.942 22.094-9.551 31.344-17.043 8.953-7.239 16.617-15.93 22.867-25.953 8.652-13.829 14.305-28.774 17.172-44.622 4.07-22.308 3.64-44.918 2.227-67.53-1.883-30.231-4.707-60.38-2.782-90.74 4.883-76.183 48.09-133.694 120.203-158.874 25.82-9.035 52.543-14.129 79.563-17.383 37.215-4.496 74.512-7.922 111.726-12.59 13.016-1.629 25.993-4.71 38.54-8.566 42.738-13.059 67.53-42.395 75.668-86.031 5.91-31.73 6.808-63.59.812-95.407-3.297-17.644-7.492-35.203-16.016-51.218-6.98-13.102-13.445-26.762-22.48-38.368-9.25-11.863-20.813-22.14-32.332-31.945-17.258-14.648-37.942-23.082-59.95-27.45-35.374-7.066-68.816 0-100.292 16.657-24.621 13.02-46.461 30.149-68.086 47.578-24.582 19.739-51.305 36.012-81.235 46.418-21.925 7.621-44.238 11.863-67.617 8.266-16.703-2.57-30.746-10.235-43.125-21.242-18.37-16.313-32.16-36.356-44.96-57.082-9.337-15.118-18.2-30.532-27.239-45.82-.684-1.157-1.281-2.528-1.324-3.766-.043-7.282 0-14.606 0-22.313Zm0 0"/><path fill="#faca09" d="M2.79 418.488c3.468 5.184 6.976 10.364 10.444 15.543 15.504 23.125 29.977 46.938 48.907 67.535 24.195 26.336 54.168 34.426 88.64 28.52 41.11-7.024 78.067-23.98 111.942-47.836 18.754-13.188 36.527-27.746 55.195-40.98 18.156-12.848 38.027-22.61 59.738-27.75 25.266-5.993 50.446-5.48 75.156 3.511 13.872 5.055 26.375 12.336 38.196 21.285 19.398 14.73 34 33.403 45.18 54.426 14.257 26.852 21.667 55.883 23.207 86.418 1.156 22.352-.086 44.406-5.395 66.16-8.648 35.328-30.574 58.797-64.234 71.856-20.082 7.793-41.11 11.476-62.348 14.176-44.535 5.652-89.414 8.734-133.352 18.5-36.656 8.136-71.086 21.066-100.117 45.777-29.762 25.39-48.476 57.34-57.597 95.363-7.75 32.375-7.41 65.133-6.422 97.98.941 29.934 2.27 59.907-4.625 89.415-4.243 18.113-11.434 34.77-24.239 48.816-9.164 10.063-19.015 19.313-31.433 24.836-15.93 7.066-32.5 12.293-50.274 12.25-4.238 0-8.476.297-12.718.555-2.782.172-3.938-.856-4.067-3.77-.386-8.476-.086-8.133 8.606-8.734 9.465-.64 18.93-2.313 28.18-4.367 6.593-1.457 13.187-3.641 19.226-6.637 28.648-14.133 45.734-37.473 54.086-68.047 6.637-24.41 7.105-49.246 7.406-74.21.3-21.712.215-43.509 1.758-65.134 3.894-54.812 22.824-102.902 65.473-139.644 21.968-18.93 47.234-31.946 74.812-40.469 32.375-9.977 65.692-15.5 99.219-19.867 33.36-4.371 67.02-6.856 99.734-15.375 20-5.223 39.012-12.719 54.942-26.55 19.484-16.872 29.336-38.84 33.015-63.763 4.114-27.664 2.957-55.113-3.636-82.433-5.528-22.824-14.606-43.809-27.75-63.38-7.75-11.562-17.172-21.41-27.579-30.019-18.925-15.715-40.68-25.691-65.691-28.304-34.512-3.598-64.918 7.238-93.05 25.609-19.915 12.973-38.84 27.45-58.626 40.637-37.855 25.222-78.664 43.68-123.844 51.43-17.515 3-35.027 3.34-52.37-2.098-15.547-4.883-28.094-14.258-38.544-26.25-9.164-10.535-17.468-21.84-25.648-33.188-9.852-13.703-19.227-27.793-28.605-41.836-1.329-1.972-1.887-4.668-2.055-7.066-.344-4.07-.086-8.18-.086-12.29.469-.214.855-.429 1.242-.6Zm0 0"/><path fill="#faca09" d="M2.957 460.54c4.54 6.296 9.04 12.675 13.578 18.929C28.012 495.184 38.93 511.37 51.09 526.53c22.27 27.707 52.074 35.414 86.117 30.274 48.82-7.364 93.781-25.438 135.879-50.575 21.582-12.886 41.879-27.875 63.117-41.32 26.336-16.66 54.73-27.023 86.504-23.726 20.598 2.14 39.27 9.421 55.969 22.183 16.527 12.633 29.504 28.176 39.437 46.035 13.875 24.88 20.258 52.07 21.84 80.504 1.07 18.801-.125 37.344-6.035 55.285-10.32 31.391-33.23 50.145-63.25 61.407-20.297 7.625-41.582 11.18-62.863 14.648-39.442 6.422-79.051 12.074-118.278 19.781-33.914 6.684-66.03 18.973-94.464 39.399-43.336 31.133-68.305 73.824-78.922 125.511-6.125 29.805-6.809 60.125-8.309 90.399-1.027 20.512-2.527 41.027-7.965 60.937-5.351 19.743-13.96 38.028-29.336 51.903-10.36 9.336-21.754 17.726-36.14 20.597-7.024 1.415-13.875 3.512-20.899 4.926-3.254.64-6.722.426-10.449.64-.168-2.097-.168-3.597-.383-5.054-.898-5.308 1.926-6.422 6.637-6.98 16.144-1.883 31.047-6.766 44.45-16.785 22.78-17 34.558-40.34 39.355-67.23 3.894-22.013 5.996-44.364 8.007-66.677 2.954-32.586 5.868-65.09 16.914-96.265 21.157-59.653 62.094-100.118 120.332-123.63 28.993-11.69 59.352-18.37 90.012-23.722 36.016-6.297 72.156-11.992 108.13-18.672 17.214-3.21 33.655-9.25 48.858-18.199 26.036-15.332 40.98-37.984 45.563-67.832 3.855-25.18.687-49.672-5.738-74.082-5.18-19.7-14.215-37.555-26.59-53.313-10.75-13.66-23.813-25.054-40.04-32.804-20.214-9.676-41.07-13.059-62.866-9.465-19.485 3.215-37.125 11.476-53.997 21.672-29.847 18.113-58.753 37.851-90.613 52.457-35.93 16.484-72.715 30.23-111.894 36.785-13.746 2.312-27.535 3.34-41.41 1.2-20-3.13-36.7-12.548-49.118-28.31-12.25-15.5-23.34-31.945-34.945-48.003-2.91-4.024-5.48-8.309-8.648-12.075-4.582-5.355-3.086-11.39-3.297-17.257.34-.172.77-.387 1.195-.559Zm0 0"/><path fill="#faca09" d="M2.273 494.5c6.68 10.063 12.891 19.613 19.27 29.031 11.477 16.918 22.953 33.875 40.598 45.266 14.472 9.336 30.574 11.86 47.488 11.433 22.61-.558 44.281-5.996 65.777-12.25 39.48-11.433 77.594-26.418 113.95-45.648 16.617-8.777 32.632-18.668 49.074-27.832 17.472-9.766 35.16-19.145 55.199-22.781 24.195-4.371 46.933-.903 68.305 11.902 18.367 11.008 31.515 26.852 41.492 45.094 14.86 27.062 20.984 56.566 18.285 87.273-3.211 36.657-22.781 62.176-56.27 77.25-19.097 8.567-39.222 13.574-59.605 17.43-23.555 4.453-47.149 8.437-70.79 12.289-30.1 4.883-59.694 11.82-88.468 21.797-34.09 11.82-64.363 29.933-89.371 56.183-27.277 28.606-44.195 62.778-53.488 100.977-6.852 28.09-9.207 56.824-12.461 85.43-2.313 20.64-5.051 41.281-12.246 60.894-5.61 15.246-13.317 29.203-25.778 40.254-8.78 7.793-18.16 14.43-29.336 18.028-6.55 2.14-13.445 3.296-21.152 5.097 0-3.898-.215-7.238.129-10.535.125-.941 1.883-2.27 3.04-2.441 15.327-2.356 28.175-9.508 39.48-19.829 22.484-20.425 30.105-47.746 35.289-76.093 6.25-34.172 8.605-68.989 17.511-102.692 11.907-44.918 33.875-83.715 69.203-114.336 27.364-23.765 59.395-38.925 93.868-49.332 32.246-9.718 65.261-16.058 98.406-21.922 28.648-5.054 57.469-9.507 84.96-19.484 20.895-7.539 39.911-17.945 53.184-36.57 9.852-13.79 14.688-29.38 15.676-46.25 1.324-22.996-2.613-45.008-12.633-65.778-4.113-8.562-7.964-17.597-13.875-24.878-23.082-28.348-54.472-45.692-97.25-35.286-18.671 4.54-35.457 13.36-52.203 22.141-44.277 23.164-89.543 44.02-137.16 59.48-26.164 8.477-52.457 16.399-79.734 20.297-19.614 2.782-39.27 2.739-57.598-6.636-13.832-7.067-24.281-17.989-33.102-30.45-7.367-10.406-13.617-21.625-21.453-31.687C2.66 512.055.22 504.52 2.274 494.5Zm0 0"/><path fill="#faca09" d="M1.887 529.742c6.082 9.164 11.308 17.301 16.832 25.266 9.078 13.101 18.414 25.906 32.328 34.515 16.66 10.278 34.945 12.332 53.871 10.45 32.246-3.215 62.95-12.891 93.57-22.7 44.535-14.257 87.871-31.601 130.266-51.43 16.23-7.62 32.758-14.816 49.59-20.98 24.32-8.867 48.687-8.652 72.027 3.895 11.004 5.91 19.738 14.39 27.363 24.238 18.07 23.254 26.336 49.676 24.793 78.965-1.672 31.902-18.07 54.43-45.777 69.332-20.254 10.875-42.223 16.656-64.535 21.324-31.86 6.723-63.89 12.547-95.621 19.742-32.676 7.364-64.664 17.172-94.211 33.485-58.754 32.46-95.238 82.265-111.852 146.582-6.937 26.894-11.261 54.515-16.703 81.793-4.238 21.324-9.164 42.437-20.512 61.406-7.105 11.906-16.015 21.797-28.261 28.906-6.895 3.985-13.79 7.196-21.41 9.164-2.485-8.351-1.801-9.804 5.394-12.59 20.297-7.835 33.36-23.168 42.867-41.921 8.992-17.73 13.403-36.871 17.383-56.141 6.727-32.246 12.379-64.793 24.195-95.754 27.024-70.7 77.555-116.863 148.254-142 35.285-12.547 71.77-20.383 108.34-27.832 27.235-5.566 54.684-10.492 80.766-20.555 18.414-7.109 35.586-16.273 47.875-32.375 12.46-16.359 16.785-34.902 15.414-55.414-1.324-19.953-7.707-38.066-19.055-53.87-18.2-25.348-46.336-39.395-81.75-32.544-24.922 4.84-47.832 15.543-71.043 25.137-65.219 26.934-131.422 51.043-200.45 66.504-20.128 4.496-40.597 6.594-60.894.086-14.347-4.582-25.695-13.45-34.687-25.223-7.024-9.207-12.977-19.27-20.254-28.308-4.754-6.25-4.54-12.758-4.113-21.153Zm0 0"/><path fill="#faca09" d="M2.059 571.793c7.238 9.078 14.261 18.543 22.011 27.363 16.059 18.285 37.086 24.067 60.551 22.399 31.133-2.184 60.766-11.22 90.184-20.684 51.218-16.488 102.175-33.875 153.304-50.617 18.16-5.953 36.36-12.117 54.942-16.574 18.37-4.453 36.957-4.067 54.515 4.668 18.114 9.035 29.075 24.109 36.442 42.437 6.254 15.504 6.937 31.39 2.527 47.235-5.523 19.87-18.93 33.703-36.484 43.722-19.442 11.133-40.727 17.473-62.352 22.696-33.058 7.964-66.332 15.203-99.219 23.808-35.543 9.336-69.843 22.012-100.718 42.61-46.977 31.347-78.707 74.511-96.309 127.738-8.95 26.98-15.375 54.816-22.91 82.265-6.082 22.137-12.59 44.106-27.664 62.133-4.324 5.14-9.676 9.551-14.988 13.703-3.684 2.871-8.094 4.84-12.29 7.239-1.925-7.836-1.8-9.465 4.797-13.403 18.668-11.176 29.547-28.39 36.313-48.047 8.48-24.668 15.332-49.89 22.695-74.984 9.723-33.102 22.313-64.832 42.051-93.438 31.691-45.906 75.156-76.054 127.055-95.109 36.015-13.234 73.27-21.883 110.484-30.703 26.723-6.34 53.527-12.46 78.281-24.84 17.899-8.95 33.016-20.98 40.594-40.168 5.27-13.36 6.168-27.234 1.844-41.066-2.145-6.766-4.07-14-7.969-19.739-8.433-12.421-19.566-22.054-34.344-26.765-20.597-6.55-41.152-4.067-61.105 1.926-46.465 13.875-92.625 28.863-139.047 42.867-38.54 11.605-77.207 22.996-116.09 33.445-17.988 4.836-36.656 7.149-55.285 2.824-17.043-3.937-30.234-13.66-40.426-27.664-1.496-2.054-3.039-4.152-4.797-6.035-5.609-6.168-8.82-12.976-6.593-21.242Zm0 0"/><path fill="#faca09" d="M2.445 602.54c3.082 3.554 6.164 7.108 9.25 10.706 12.375 14.387 27.707 22.996 46.934 24.152 20.855 1.286 40.937-2.957 60.68-8.695 42.007-12.203 83.761-25.305 125.77-37.598 37.597-11.003 75.28-21.753 113.093-31.902 14.86-3.98 30.277-5.566 45.82-3.851 24.324 2.695 41.84 15.027 50.36 37.937 7.664 20.555 3.468 39.7-11.09 56.356-11.735 13.445-26.938 21.925-43.422 27.32-25.61 8.351-51.602 15.633-77.637 22.484-37.77 9.934-75.539 19.781-111.254 35.969-64.535 29.25-109.797 77.125-135.707 142.73-10.66 26.977-18.625 54.985-27.832 82.477-6.34 18.883-13.45 37.383-26.293 52.969-4.84 5.91-10.238 11.304-17.816 14.687-1.2-5.008-.344-8.05 3.726-11.304 13.403-10.704 22.524-24.88 28.563-40.637 8.734-22.781 16.488-45.992 24.535-69.031 11.95-34.258 26.98-66.887 49.418-95.707 31.219-40.125 71.602-67.403 118.621-85.774 36.484-14.262 74.34-23.77 112.066-33.789 24.11-6.422 48.22-13.02 70.442-24.836 10.066-5.355 19.398-11.82 26.336-20.941 11.347-14.903 15.59-31.133 8.265-49.418-8.093-20.168-24.109-29.29-44.363-32.246-19.656-2.868-38.926.859-57.984 5.14-65.133 14.688-128.68 34.985-192.442 54.34-24.71 7.496-49.289 15.59-75.07 18.586-18.156 2.098-36.184 1.973-51.687-9.46-7.364-5.442-14.043-11.993-20.082-18.888-2.227-2.527-1.758-7.453-2.528-11.304.387-.172.856-.301 1.328-.473Zm0 0"/></svg>