<svg xmlns="http://www.w3.org/2000/svg" xmlns:xlink="http://www.w3.org/1999/xlink" width="970" zoomAndPan="magnify" viewBox="0 0 727.5 1349.999938" height="1800" preserveAspectRatio="xMidYMid meet" version="1.0"><path fill="#faca09" d="M 2.703125 1324.574219 C 10.496094 1325.558594 17.5625 1326.585938 24.625 1327.3125 C 34.304688 1328.296875 43.984375 1329.453125 53.703125 1329.882812 C 63.425781 1330.3125 73.1875 1330.3125 82.910156 1329.839844 C 96.355469 1329.15625 109.886719 1328.511719 123.203125 1326.714844 C 159.089844 1321.875 192.960938 1310.355469 223.582031 1291.085938 C 238.355469 1281.792969 251.585938 1269.929688 264.949219 1258.582031 C 272.183594 1252.460938 278.351562 1245.007812 284.816406 1237.984375 C 295.609375 1226.253906 304.601562 1213.234375 311.796875 1198.972656 C 316.25 1190.152344 321.089844 1181.460938 324.8125 1172.339844 C 328.710938 1162.746094 332.265625 1152.8125 334.535156 1142.746094 C 338.175781 1126.433594 341.898438 1109.988281 343.3125 1093.417969 C 346.269531 1059.15625 343.054688 1025.15625 337.019531 991.285156 C 333.164062 969.617188 330.808594 947.605469 328.796875 925.679688 C 327.554688 911.890625 328.625 897.84375 334.019531 884.828125 C 342.757812 863.714844 359.199219 852.238281 381.640625 849.113281 C 411.359375 844.960938 441.078125 847.101562 470.839844 848.554688 C 501.929688 850.097656 533.015625 853.265625 564.191406 849.113281 C 600.464844 844.273438 629.625 828.34375 649.109375 796.398438 C 661.226562 776.527344 669.152344 754.902344 676.472656 732.976562 C 680.753906 720.175781 684.953125 707.328125 688.464844 694.308594 C 691.804688 681.933594 694.671875 669.429688 696.8125 656.796875 C 699.46875 641.335938 701.910156 625.75 703.109375 610.121094 C 704.308594 594.617188 703.539062 579.03125 704.179688 563.484375 C 705.078125 541.605469 700.539062 520.320312 697.925781 498.78125 C 694.542969 470.945312 685.125 444.910156 674.972656 419.257812 C 668.335938 402.558594 659.128906 386.628906 649.410156 371.425781 C 635.664062 349.800781 619.433594 329.972656 600.589844 312.332031 C 579.394531 292.460938 556.3125 275.117188 530.832031 261.371094 C 492.207031 240.433594 450.753906 227.671875 406.992188 223.089844 C 378.984375 220.175781 350.894531 219.921875 322.886719 223.089844 C 301.304688 225.574219 279.765625 228.441406 258.222656 231.054688 C 243.152344 232.894531 228.078125 235.335938 212.746094 233.367188 C 197.503906 231.398438 186.625 223.347656 182.601562 208.742188 C 178.660156 194.527344 176.648438 179.710938 174.035156 165.105469 C 170.910156 147.464844 168.855469 129.5625 164.871094 112.136719 C 161.101562 95.734375 152.921875 81.261719 141.960938 68.113281 C 133.269531 57.664062 122.777344 49.742188 111.085938 43.875 C 101.578125 39.121094 90.832031 36.683594 80.554688 33.511719 C 56.101562 25.933594 31.222656 28.417969 6.46875 27.175781 C 2.703125 27.003906 1.289062 25.890625 1.503906 22.035156 C 1.800781 17.410156 1.714844 12.785156 1.503906 8.164062 C 1.375 4.863281 2.488281 3.496094 5.871094 3.539062 C 27.28125 3.707031 48.734375 3.109375 70.105469 4.09375 C 80.808594 4.609375 91.386719 7.949219 102.007812 10.046875 C 107.960938 11.246094 113.996094 12.1875 119.820312 13.859375 C 124.316406 15.140625 128.601562 17.113281 132.839844 19.082031 C 138.621094 21.824219 144.488281 24.519531 149.925781 27.859375 C 165.214844 37.28125 177.375 49.699219 186.796875 65.203125 C 197.628906 82.972656 201.785156 102.757812 206.496094 122.457031 C 209.664062 135.730469 211.375 149.347656 214.460938 162.667969 C 219.296875 183.863281 233.515625 195.554688 254.628906 197.609375 C 271.925781 199.28125 289.441406 199.238281 306.914062 199.449219 C 334.75 199.75 362.582031 197.953125 390.460938 200.949219 C 432.554688 205.488281 473.023438 215.765625 511.691406 232.808594 C 532.203125 241.84375 551.902344 252.679688 569.714844 266.425781 C 585.261719 278.414062 600.933594 290.40625 615.066406 303.9375 C 627.226562 315.542969 637.890625 328.902344 648.125 342.265625 C 657.246094 354.167969 665.683594 366.714844 673.003906 379.777344 C 680.328125 392.835938 686.152344 406.753906 692.1875 420.542969 C 710.902344 463.410156 716.8125 509.058594 720.023438 555.09375 C 721.179688 571.707031 719.59375 588.539062 718.738281 605.238281 C 718.140625 617.355469 717.199219 629.476562 715.441406 641.464844 C 713.472656 655.125 710.902344 668.746094 707.734375 682.191406 C 704.050781 697.820312 699.941406 713.367188 695.101562 728.652344 C 685.894531 757.859375 675.488281 786.71875 660.113281 813.3125 C 643.585938 841.875 618.449219 859.347656 586.417969 867.097656 C 560.808594 873.308594 534.816406 872.535156 508.78125 872.023438 C 482.613281 871.464844 456.492188 871.550781 430.328125 871.378906 C 417.953125 871.296875 405.792969 872.621094 393.972656 876.734375 C 382.964844 880.546875 375.34375 888.125 369.777344 897.757812 C 359.5 915.53125 358.984375 935.273438 360.054688 954.929688 C 361.425781 980.707031 364.296875 1006.445312 365.367188 1032.222656 C 366.609375 1062.113281 365.496094 1091.917969 359.542969 1121.507812 C 355.644531 1140.90625 350.464844 1159.792969 342.671875 1177.820312 C 336.71875 1191.523438 329.394531 1204.753906 321.515625 1217.472656 C 314.277344 1229.164062 306.269531 1240.597656 297.277344 1250.960938 C 288.84375 1260.722656 278.480469 1268.816406 269.1875 1277.894531 C 256.683594 1290.101562 241.179688 1297.980469 226.835938 1307.53125 C 207.523438 1320.375 186.28125 1328.296875 164.355469 1334.292969 C 147.441406 1338.917969 129.925781 1342.214844 112.457031 1344.058594 C 88.304688 1346.625 63.980469 1347.054688 39.699219 1344.871094 C 28.308594 1343.84375 16.960938 1342.085938 5.65625 1340.460938 C 4.542969 1340.289062 2.871094 1338.746094 2.828125 1337.761719 C 2.53125 1333.523438 2.703125 1329.285156 2.703125 1324.574219 Z M 2.703125 1324.574219 " fill-opacity="1" fill-rule="nonzero"/><path fill="#faca09" d="M 2.703125 1290.015625 C 10.195312 1291.085938 16.960938 1292.027344 23.683594 1292.96875 C 50.449219 1296.695312 77.296875 1296.953125 104.0625 1293.570312 C 116.222656 1292.027344 128.300781 1289.160156 140.207031 1286.160156 C 164.144531 1280.121094 186.496094 1270.1875 206.878906 1256.269531 C 228.503906 1241.496094 246.917969 1223.597656 261.863281 1201.84375 C 277.921875 1178.503906 288.84375 1153.066406 294.324219 1125.53125 C 299.292969 1100.652344 301.476562 1075.300781 296.980469 1050.035156 C 293.039062 1027.8125 288.542969 1005.714844 284.003906 983.617188 C 279.164062 960.195312 272.871094 937.027344 269.316406 913.390625 C 265.847656 890.523438 269.101562 868.125 283.917969 849.070312 C 295.050781 834.726562 309.824219 825.519531 327.167969 820.035156 C 343.570312 814.855469 360.484375 813.3125 377.398438 813.3125 C 408.703125 813.355469 440.050781 814.253906 471.351562 815.070312 C 495.160156 815.710938 518.929688 817.210938 542.652344 814.042969 C 575.753906 809.585938 604.617188 796.996094 623.628906 768.308594 C 631.464844 756.445312 637.417969 743.085938 642.515625 729.722656 C 651.9375 704.929688 659.945312 679.535156 663.925781 653.242188 C 666.921875 633.5 669.492188 613.546875 670.390625 593.632812 C 671.292969 574.234375 670.308594 554.707031 669.40625 535.265625 C 668.164062 509.445312 661.699219 484.394531 653.992188 460.027344 C 646.410156 435.960938 636.21875 412.578125 621.703125 391.554688 C 614.9375 381.703125 608.511719 371.46875 600.632812 362.5625 C 589.714844 350.1875 577.980469 338.410156 565.820312 327.148438 C 549.933594 312.417969 531.945312 300.46875 512.589844 290.792969 C 482.230469 275.589844 450.457031 265.054688 416.453125 261.285156 C 370.503906 256.191406 325.839844 261.929688 282.332031 276.574219 C 256.554688 285.222656 231.332031 295.375 205.679688 304.410156 C 191.164062 309.546875 176.476562 314.257812 160.675781 313.574219 C 147.269531 313.015625 132.667969 301.839844 127.660156 289.464844 C 121.019531 273.019531 119.351562 255.632812 116.4375 238.460938 C 113.097656 218.765625 110.957031 198.808594 107.230469 179.195312 C 103.121094 157.65625 97.082031 136.542969 82.265625 119.457031 C 74.945312 110.980469 66.851562 103.527344 56.746094 97.746094 C 41.542969 89.054688 24.796875 87.253906 8.398438 83.617188 C 3.257812 82.460938 0.945312 80.832031 1.589844 75.351562 C 2.058594 71.453125 1.84375 67.472656 1.632812 63.53125 C 1.460938 60.191406 2.789062 58.648438 6.085938 59.121094 C 23.214844 61.519531 40.8125 62.160156 57.300781 66.785156 C 83.378906 74.109375 104.449219 90.125 116.953125 114.40625 C 123.632812 127.378906 126.972656 142.324219 130.441406 156.714844 C 133.695312 170.289062 135.28125 184.292969 137.335938 198.125 C 138.792969 207.929688 139.648438 217.777344 141.105469 227.585938 C 143.289062 242.53125 146.027344 257.390625 156.433594 269.25 C 161.316406 274.820312 167.824219 277.515625 175.148438 278.714844 C 188.210938 280.941406 200.628906 278.328125 213.089844 274.902344 C 241.4375 267.066406 269.699219 258.886719 298.261719 251.824219 C 336.375 242.402344 375.085938 240.730469 414.054688 245.355469 C 456.152344 250.324219 495.632812 263.597656 531.859375 285.394531 C 547.449219 294.773438 562.222656 305.949219 575.882812 317.984375 C 590.058594 330.488281 603.289062 344.277344 615.40625 358.792969 C 624.742188 370.011719 632.066406 382.988281 639.644531 395.578125 C 662.984375 434.203125 674.503906 477.027344 680.925781 521.089844 C 685.167969 550.167969 685.636719 579.585938 682.980469 609.09375 C 680.328125 638.683594 675.703125 667.929688 667.265625 696.277344 C 660.242188 719.832031 652.40625 743.425781 642 765.652344 C 624.058594 804.0625 591.683594 823.164062 550.0625 828.257812 C 526.421875 831.128906 502.871094 829.628906 479.273438 828.601562 C 439.621094 826.886719 399.882812 823.207031 360.269531 828.257812 C 339.289062 830.957031 320.015625 838.75 307.128906 856.992188 C 298.519531 869.152344 294.410156 882.898438 293.9375 897.84375 C 293.210938 921.3125 297.277344 944.136719 302.332031 966.917969 C 309.613281 999.675781 316.035156 1032.523438 317.019531 1066.265625 C 317.746094 1091.273438 315.648438 1115.855469 308.925781 1139.878906 C 302.929688 1161.332031 294.152344 1181.632812 282.203125 1200.644531 C 267.304688 1224.28125 248.246094 1243.464844 226.066406 1260.339844 C 209.363281 1273.058594 191.636719 1283.632812 172.066406 1290.484375 C 153.265625 1297.082031 134.167969 1303.074219 114.125 1305.988281 C 88.175781 1309.757812 62.3125 1309.628906 36.316406 1307.445312 C 27.28125 1306.671875 18.332031 1305.089844 9.296875 1304.273438 C 3.902344 1303.761719 1.757812 1301.363281 2.617188 1296.054688 C 2.914062 1294.425781 2.703125 1292.710938 2.703125 1290.015625 Z M 2.703125 1290.015625 " fill-opacity="1" fill-rule="nonzero"/><path fill="#faca09" d="M 3.214844 1258.453125 C 12.851562 1259.695312 22.101562 1261.238281 31.4375 1262.007812 C 50.707031 1263.636719 69.933594 1263.851562 89.246094 1260.851562 C 106.71875 1258.113281 123.460938 1253.402344 140.207031 1247.664062 C 160.117188 1240.898438 177.589844 1230.363281 193.132812 1217.046875 C 204.695312 1207.152344 215.101562 1195.375 223.835938 1182.914062 C 238.183594 1162.359375 246.492188 1139.195312 250.515625 1114.058594 C 255.398438 1083.394531 252.058594 1053.675781 244.90625 1024.128906 C 239.425781 1001.519531 232.488281 979.292969 226.75 956.769531 C 221.652344 936.8125 218.101562 916.644531 219.941406 895.875 C 223.878906 851.554688 247.089844 821.320312 287.300781 803.550781 C 307.984375 794.386719 329.996094 790.488281 352.261719 789.71875 C 395.042969 788.261719 437.867188 788.132812 480.644531 787.320312 C 502.613281 786.890625 524.410156 785.09375 545.5625 778.585938 C 576.441406 769.121094 598.191406 749.507812 611.253906 720.132812 C 621.273438 697.648438 627.570312 674.011719 631.382812 649.773438 C 634.421875 630.546875 637.078125 611.234375 638.316406 591.835938 C 639.644531 571.195312 638.316406 550.511719 635.363281 529.957031 C 631.339844 501.691406 623.757812 474.585938 612.839844 448.164062 C 603.675781 425.898438 590.871094 405.984375 576.398438 387.226562 C 563.59375 370.613281 548.261719 355.882812 531.089844 343.632812 C 513.105469 330.789062 493.964844 320.210938 472.9375 312.714844 C 448.527344 304.023438 423.605469 298.84375 397.742188 298.542969 C 369.261719 298.242188 341.515625 302.738281 314.578125 312.246094 C 284.902344 322.695312 257.109375 336.867188 230.132812 353.011719 C 213.132812 363.160156 195.703125 372.753906 177.847656 381.363281 C 161.789062 389.113281 144.53125 391.894531 126.929688 386.371094 C 114.941406 382.601562 105.777344 374.765625 98.195312 364.917969 C 87.703125 351.300781 82.78125 335.199219 78.582031 318.96875 C 70.917969 289.550781 64.28125 259.832031 56.402344 230.453125 C 52.976562 217.734375 48.265625 205.1875 42.65625 193.285156 C 39.144531 185.832031 32.164062 180.136719 27.925781 172.945312 C 22.359375 163.523438 12.59375 160.355469 4.414062 154.742188 C 3.171875 153.886719 1.804688 152.21875 1.761719 150.847656 C 1.546875 141.984375 1.632812 133.117188 1.632812 123.441406 C 3.730469 123.996094 5.355469 124.210938 6.8125 124.8125 C 14.5625 128.023438 22.527344 130.890625 29.894531 134.832031 C 34.5625 137.316406 38.757812 141.082031 42.398438 144.980469 C 47.453125 150.332031 52.246094 156.070312 56.359375 162.195312 C 64.066406 173.757812 69.164062 186.648438 72.203125 200.09375 C 79.011719 230.410156 84.921875 260.988281 91.644531 291.347656 C 94.898438 306.164062 98.152344 321.152344 106.074219 334.46875 C 114.898438 349.371094 127.574219 358.964844 145.085938 360.164062 C 156.949219 360.976562 168.8125 358.964844 179.6875 353.996094 C 198.1875 345.519531 216.515625 336.699219 234.671875 327.492188 C 264.003906 312.589844 293.46875 298.199219 325.839844 290.707031 C 362.496094 282.183594 399.367188 280.34375 436.410156 287.621094 C 462.402344 292.71875 487.199219 301.324219 510.277344 314.515625 C 532.976562 327.492188 553.273438 343.207031 571.472656 362.132812 C 602.691406 394.679688 622.644531 433.347656 636.21875 475.699219 C 644.570312 501.734375 648.253906 528.585938 650.050781 555.820312 C 651.894531 583.441406 650.480469 610.890625 646.15625 638.125 C 641.015625 670.457031 633.265625 702.273438 619.90625 732.25 C 604.144531 767.535156 575.882812 787.148438 538.328125 794.085938 C 510.492188 799.226562 482.402344 798.453125 454.351562 797.855469 C 412.085938 796.996094 369.691406 794.898438 327.769531 802.523438 C 297.578125 808.003906 271.5 821.148438 254.027344 847.527344 C 242.851562 864.402344 238.3125 883.328125 238.613281 903.539062 C 238.867188 922.382812 242.894531 940.539062 247.648438 958.566406 C 252.1875 975.78125 257.195312 992.867188 261.523438 1010.125 C 269.058594 1040.144531 273.511719 1070.550781 270.6875 1101.59375 C 269.058594 1119.453125 265.289062 1136.925781 258.652344 1153.796875 C 251.585938 1171.738281 242.59375 1188.441406 229.40625 1202.527344 C 221.398438 1211.09375 212.40625 1218.714844 204.398438 1227.28125 C 194.375 1238.070312 182 1245.652344 168.9375 1251.304688 C 152.410156 1258.496094 135.109375 1264.023438 117.808594 1269.160156 C 107.230469 1272.285156 96.097656 1274.128906 85.09375 1275.027344 C 71.859375 1276.097656 58.457031 1276.011719 45.140625 1275.582031 C 34.734375 1275.285156 24.328125 1273.957031 14.007812 1272.628906 C 0.988281 1270.914062 2.101562 1271.644531 3.214844 1258.453125 Z M 3.214844 1258.453125 " fill-opacity="1" fill-rule="nonzero"/><path fill="#faca09" d="M 3.300781 199.28125 C 6.300781 202.789062 9.511719 206.175781 12.25 209.855469 C 15.378906 214.054688 18.417969 218.335938 20.859375 222.960938 C 25.441406 231.652344 30.238281 240.304688 33.664062 249.46875 C 38.585938 262.570312 42.355469 276.101562 46.636719 289.464844 C 53.789062 311.945312 60.726562 334.511719 68.132812 356.953125 C 75.027344 377.765625 86.417969 395.621094 104.535156 408.511719 C 120.679688 419.988281 138.664062 422.769531 157.847656 418.574219 C 176.390625 414.550781 192.664062 405.597656 208.335938 395.320312 C 228.078125 382.347656 247.648438 369.15625 267.601562 356.523438 C 297.792969 337.425781 330.59375 324.492188 365.964844 319.652344 C 407.203125 314 447.113281 319.054688 485.183594 337.082031 C 506.125 347.019531 525.136719 359.4375 541.96875 375.195312 C 571.386719 402.816406 591.769531 436.515625 605.644531 474.03125 C 614.679688 498.4375 620.03125 523.875 621.960938 550.039062 C 623.972656 576.804688 623.628906 603.441406 619.691406 629.902344 C 615.535156 658.039062 610.097656 685.957031 597.722656 711.910156 C 585.519531 737.515625 565.605469 754.601562 539.183594 764.238281 C 521.15625 770.789062 502.355469 773.832031 483.300781 774.429688 C 451.140625 775.5 418.9375 775.84375 386.734375 776.957031 C 359.328125 777.898438 331.964844 779.785156 305.15625 786.078125 C 272.054688 793.871094 243.277344 809.074219 222.808594 837.335938 C 209.105469 856.265625 202.125 877.589844 200.414062 900.886719 C 198.273438 929.875 204.738281 957.625 211.289062 985.503906 C 217.027344 1009.953125 222.46875 1034.535156 226.535156 1059.328125 C 230.304688 1082.28125 228.890625 1105.320312 222.382812 1127.929688 C 218.015625 1143.132812 211.890625 1157.480469 203.28125 1170.710938 C 200.027344 1175.722656 196.558594 1180.6875 192.449219 1184.929688 C 178.574219 1199.1875 164.230469 1213.148438 146.113281 1221.839844 C 126.84375 1231.089844 107.015625 1238.925781 85.476562 1242.011719 C 60.042969 1245.652344 34.691406 1245.523438 9.339844 1241.625 C 1.800781 1240.46875 1.84375 1240.339844 3.300781 1229.976562 C 7.710938 1230.363281 12.207031 1231.003906 16.703125 1231.132812 C 33.960938 1231.476562 51.261719 1232.804688 68.433594 1231.5625 C 84.363281 1230.40625 99.996094 1226.292969 115.238281 1220.683594 C 131.511719 1214.648438 146.628906 1206.769531 159.644531 1195.546875 C 168.46875 1187.96875 176.089844 1178.847656 183.585938 1169.855469 C 198.359375 1152.210938 205.894531 1131.144531 209.449219 1108.875 C 212.359375 1090.632812 212.789062 1072.003906 209.277344 1053.675781 C 203.238281 1022.289062 196.257812 991.027344 190.394531 959.59375 C 184.910156 930.390625 183.710938 901.058594 192.75 872.195312 C 205.296875 832.070312 232.488281 805.519531 270.558594 789.246094 C 293.339844 779.527344 317.492188 774.988281 341.941406 773.230469 C 377.785156 770.703125 413.757812 769.890625 449.640625 767.449219 C 471.4375 765.953125 493.492188 764.410156 514.859375 760.042969 C 560.636719 750.621094 588.171875 721.117188 599.949219 676.453125 C 609.242188 641.167969 614.550781 605.367188 612.925781 568.796875 C 611.640625 540.875 607.398438 513.511719 598.878906 486.664062 C 593.011719 468.164062 584.789062 450.863281 575.15625 434.460938 C 564.875 417.03125 552.074219 401.144531 537.171875 386.929688 C 519.957031 370.527344 500.515625 357.808594 479.058594 348.128906 C 460.605469 339.824219 441.246094 334.554688 420.820312 332.628906 C 403.777344 331.042969 387.078125 331.042969 370.207031 333.785156 C 345.109375 337.894531 321.429688 345.988281 298.992188 357.808594 C 272.570312 371.769531 248.375 388.984375 224.179688 406.414062 C 211.035156 415.875 197.117188 424.613281 182.640625 431.804688 C 160.757812 442.640625 137.507812 446.453125 114.167969 436.046875 C 94 427.054688 78.324219 412.40625 68.820312 392.453125 C 60.296875 374.550781 52.847656 356.140625 45.738281 337.640625 C 39.101562 320.425781 33.789062 302.695312 27.367188 285.394531 C 23.296875 274.433594 18.460938 263.683594 13.492188 253.066406 C 10.410156 246.46875 6.382812 240.347656 2.828125 234.007812 C 2.402344 233.28125 1.929688 232.46875 1.929688 231.652344 C 1.886719 221.117188 1.886719 210.585938 1.886719 200.050781 C 2.273438 199.835938 2.789062 199.578125 3.300781 199.28125 Z M 3.300781 199.28125 " fill-opacity="1" fill-rule="nonzero"/><path fill="#faca09" d="M 3.34375 284.152344 C 9.765625 299.054688 16.191406 314 22.65625 328.902344 C 33.578125 353.953125 43.640625 379.433594 55.714844 403.929688 C 65.136719 423.113281 78.839844 439.386719 97.253906 451.203125 C 119.265625 465.378906 142.730469 467.863281 167.613281 460.796875 C 189.238281 454.671875 207.90625 443.113281 225.765625 429.964844 C 248.203125 413.433594 270.042969 395.921875 293.46875 380.890625 C 333.378906 355.28125 377.355469 343.550781 425.0625 349.203125 C 442.449219 351.257812 459.105469 356.140625 475.164062 363.332031 C 493.75 371.683594 510.148438 382.902344 525.351562 396.390625 C 549.933594 418.230469 567.617188 444.996094 580.378906 474.714844 C 592.882812 503.75 599.308594 534.496094 600.632812 566.3125 C 602.261719 604.636719 598.191406 642.152344 586.886719 678.765625 C 576.3125 712.980469 553.699219 735.933594 519.785156 747.710938 C 501.5 754.046875 482.53125 756.832031 463.386719 758.113281 C 432.128906 760.214844 400.824219 761.242188 369.605469 763.511719 C 336.503906 765.910156 303.445312 769.335938 271.96875 780.9375 C 227.648438 797.253906 196.003906 826.546875 181.144531 872.109375 C 173.007812 897.074219 171.679688 922.9375 175.320312 948.804688 C 179.214844 976.382812 184.097656 1003.875 188.636719 1031.367188 C 192.621094 1055.433594 194.632812 1079.628906 190.863281 1103.863281 C 188.253906 1120.738281 183.242188 1136.839844 173.648438 1151.484375 C 166.839844 1161.847656 158.917969 1170.839844 150.140625 1179.53125 C 141.703125 1187.882812 132.496094 1194.949219 122.003906 1199.789062 C 105.605469 1207.324219 88.859375 1213.875 70.660156 1216.703125 C 50.363281 1219.871094 30.28125 1219.65625 10.023438 1217.644531 C 2.53125 1216.917969 2.144531 1216.402344 3 1205.355469 C 4.714844 1205.355469 6.554688 1205.183594 8.3125 1205.398438 C 26.039062 1207.496094 43.683594 1207.667969 61.410156 1204.753906 C 87.320312 1200.472656 111.558594 1192.078125 131.855469 1175.121094 C 141.960938 1166.6875 150.738281 1156.707031 157.71875 1145.1875 C 175.664062 1115.554688 178.53125 1083.183594 175.40625 1049.867188 C 173.476562 1029.609375 170.09375 1009.527344 167.355469 989.355469 C 163.074219 958.097656 159.304688 926.878906 164.742188 895.363281 C 172.878906 847.957031 197.929688 812.5 239.46875 788.519531 C 262.464844 775.242188 287.644531 768.5625 313.59375 764.066406 C 349.90625 757.730469 386.648438 755.929688 423.347656 753.574219 C 451.355469 751.777344 479.316406 749.980469 506.511719 741.757812 C 544.75 730.238281 569.246094 705.441406 580.335938 667.246094 C 586.417969 646.304688 589.199219 624.808594 590.785156 603.097656 C 592.496094 579.585938 591.34375 556.207031 587.015625 533.167969 C 584.53125 519.976562 580.164062 507.089844 576.441406 494.15625 C 571 475.1875 561.109375 458.140625 550.1875 442.167969 C 540.296875 427.652344 528.949219 413.691406 514.21875 403.199219 C 508.394531 399.046875 503.042969 394.25 497.089844 390.226562 C 477.175781 376.695312 455.25 368.558594 431.398438 364.53125 C 401.679688 359.480469 373.117188 363.203125 345.113281 373.269531 C 325.671875 380.246094 307.597656 390.054688 290.898438 402.171875 C 272.226562 415.703125 254.15625 430.050781 235.65625 443.839844 C 212.703125 460.925781 188.507812 475.527344 159.773438 480.925781 C 130.785156 486.363281 105.132812 479.808594 82.910156 460.285156 C 64.878906 444.4375 51.519531 425.082031 41.070312 403.671875 C 31.734375 384.488281 23.042969 365.003906 13.964844 345.691406 C 10.410156 338.152344 6.511719 330.746094 2.832031 323.292969 C 2.402344 322.394531 1.800781 321.410156 1.800781 320.46875 C 1.71875 308.5625 1.757812 296.613281 1.757812 284.710938 C 2.273438 284.410156 2.789062 284.28125 3.34375 284.152344 Z M 3.34375 284.152344 " fill-opacity="1" fill-rule="nonzero"/><path fill="#faca09" d="M 1.675781 364.617188 C 14.347656 387.3125 26.210938 409.667969 39.1875 431.335938 C 51.90625 452.53125 66.722656 472.230469 87.234375 486.875 C 104.40625 499.210938 123.804688 503.960938 144.53125 502.207031 C 182.640625 498.996094 215.273438 482.082031 245.335938 459.554688 C 267.773438 442.726562 289.183594 424.3125 312.695312 409.152344 C 354.105469 382.433594 399.367188 372.238281 448.058594 385.945312 C 468.3125 391.640625 486.46875 401.445312 503.042969 414.71875 C 524.324219 431.722656 540.597656 452.703125 553.144531 476.425781 C 568.132812 504.734375 575.882812 535.308594 578.023438 567.339844 C 579.910156 595.558594 577.808594 623.394531 571.730469 650.972656 C 562.179688 694.136719 536.101562 722.144531 493.535156 733.492188 C 474.308594 738.628906 454.265625 741.457031 434.441406 743.554688 C 389.347656 748.308594 343.957031 749.894531 299.378906 759.183594 C 265.246094 766.292969 233.300781 778.285156 206.324219 801.195312 C 172.152344 830.183594 154.851562 867.785156 149.96875 911.804688 C 146.671875 941.652344 150.054688 971.285156 152.753906 1000.917969 C 154.980469 1025.285156 157.503906 1049.609375 155.535156 1074.1875 C 153.996094 1093.929688 148.855469 1112.730469 139.433594 1129.902344 C 134.550781 1138.851562 127.230469 1146.773438 119.863281 1153.96875 C 112.714844 1160.949219 104.707031 1167.5 95.96875 1172.210938 C 78.285156 1181.800781 59.3125 1188.183594 38.886719 1188.695312 C 28.996094 1188.953125 19.058594 1188.355469 9.210938 1188.695312 C 3.644531 1188.867188 1.757812 1186.769531 2.617188 1181.546875 C 2.789062 1180.390625 2.746094 1179.191406 2.789062 1177.734375 C 8.226562 1177.734375 13.492188 1177.691406 18.71875 1177.734375 C 35.933594 1177.863281 52.589844 1175.207031 68.992188 1169.640625 C 80.597656 1165.699219 91.085938 1160.089844 100.335938 1152.597656 C 109.289062 1145.359375 116.953125 1136.667969 123.203125 1126.644531 C 131.855469 1112.816406 137.507812 1097.871094 140.375 1082.023438 C 144.445312 1059.714844 144.015625 1037.105469 142.601562 1014.492188 C 140.71875 984.261719 137.894531 954.113281 139.820312 923.753906 C 144.703125 847.570312 187.910156 790.058594 260.023438 764.878906 C 285.84375 755.84375 312.566406 750.75 339.585938 747.496094 C 376.800781 743 414.097656 739.574219 451.3125 734.90625 C 464.328125 733.277344 477.304688 730.195312 489.851562 726.339844 C 532.589844 713.28125 557.382812 683.945312 565.519531 640.308594 C 571.429688 608.578125 572.328125 576.71875 566.332031 544.902344 C 563.035156 527.257812 558.839844 509.699219 550.316406 493.683594 C 543.335938 480.582031 536.871094 466.921875 527.835938 455.316406 C 518.585938 443.453125 507.023438 433.175781 495.503906 423.371094 C 478.246094 408.722656 457.5625 400.289062 435.554688 395.921875 C 400.179688 388.855469 366.738281 395.921875 335.261719 412.578125 C 310.640625 425.597656 288.800781 442.726562 267.175781 460.15625 C 242.59375 479.894531 215.871094 496.167969 185.941406 506.574219 C 164.015625 514.195312 141.703125 518.4375 118.324219 514.839844 C 101.621094 512.269531 87.578125 504.605469 75.199219 493.597656 C 56.828125 477.285156 43.039062 457.242188 30.238281 436.515625 C 20.902344 421.398438 12.039062 405.984375 3 390.695312 C 2.316406 389.539062 1.71875 388.167969 1.675781 386.929688 C 1.632812 379.648438 1.675781 372.324219 1.675781 364.617188 Z M 1.675781 364.617188 " fill-opacity="1" fill-rule="nonzero"/><path fill="#faca09" d="M 2.789062 418.488281 C 6.257812 423.671875 9.765625 428.851562 13.234375 434.03125 C 28.738281 457.15625 43.210938 480.96875 62.140625 501.566406 C 86.335938 527.902344 116.308594 535.992188 150.78125 530.085938 C 191.890625 523.0625 228.847656 506.105469 262.722656 482.25 C 281.476562 469.0625 299.25 454.503906 317.917969 441.269531 C 336.074219 428.421875 355.945312 418.660156 377.65625 413.519531 C 402.921875 407.527344 428.101562 408.039062 452.8125 417.03125 C 466.683594 422.085938 479.1875 429.367188 491.007812 438.316406 C 510.40625 453.046875 525.007812 471.71875 536.1875 492.742188 C 550.445312 519.59375 557.855469 548.625 559.394531 579.160156 C 560.550781 601.511719 559.308594 623.566406 554 645.320312 C 545.351562 680.648438 523.425781 704.117188 489.765625 717.175781 C 469.683594 724.96875 448.65625 728.652344 427.417969 731.351562 C 382.882812 737.003906 338.003906 740.085938 294.066406 749.851562 C 257.410156 757.988281 222.980469 770.917969 193.949219 795.628906 C 164.1875 821.019531 145.472656 852.96875 136.351562 890.992188 C 128.601562 923.367188 128.941406 956.125 129.929688 988.972656 C 130.871094 1018.90625 132.199219 1048.878906 125.304688 1078.386719 C 121.0625 1096.5 113.871094 1113.15625 101.066406 1127.203125 C 91.902344 1137.265625 82.050781 1146.515625 69.632812 1152.039062 C 53.703125 1159.105469 37.132812 1164.332031 19.359375 1164.289062 C 15.121094 1164.289062 10.882812 1164.585938 6.640625 1164.84375 C 3.859375 1165.015625 2.703125 1163.988281 2.574219 1161.074219 C 2.1875 1152.597656 2.488281 1152.941406 11.179688 1152.339844 C 20.644531 1151.699219 30.109375 1150.027344 39.359375 1147.972656 C 45.953125 1146.515625 52.546875 1144.332031 58.585938 1141.335938 C 87.234375 1127.203125 104.320312 1103.863281 112.671875 1073.289062 C 119.308594 1048.878906 119.777344 1024.042969 120.078125 999.078125 C 120.378906 977.367188 120.292969 955.570312 121.835938 933.945312 C 125.730469 879.132812 144.660156 831.042969 187.308594 794.300781 C 209.277344 775.371094 234.542969 762.355469 262.121094 753.832031 C 294.496094 743.855469 327.8125 738.332031 361.339844 733.964844 C 394.699219 729.59375 428.359375 727.109375 461.074219 718.589844 C 481.074219 713.367188 500.085938 705.871094 516.015625 692.039062 C 535.5 675.167969 545.351562 653.199219 549.03125 628.277344 C 553.144531 600.613281 551.988281 573.164062 545.394531 545.84375 C 539.867188 523.019531 530.789062 502.035156 517.644531 482.464844 C 509.894531 470.902344 500.472656 461.054688 490.066406 452.445312 C 471.140625 436.730469 449.386719 426.753906 424.375 424.140625 C 389.863281 420.542969 359.457031 431.378906 331.324219 449.75 C 311.410156 462.722656 292.484375 477.199219 272.699219 490.386719 C 234.84375 515.609375 194.035156 534.066406 148.855469 541.816406 C 131.339844 544.816406 113.828125 545.15625 96.484375 539.71875 C 80.9375 534.835938 68.390625 525.460938 57.941406 513.46875 C 48.777344 502.933594 40.472656 491.628906 32.292969 480.28125 C 22.441406 466.578125 13.066406 452.488281 3.6875 438.445312 C 2.359375 436.472656 1.800781 433.777344 1.632812 431.378906 C 1.289062 427.308594 1.546875 423.199219 1.546875 419.089844 C 2.015625 418.875 2.402344 418.660156 2.789062 418.488281 Z M 2.789062 418.488281 " fill-opacity="1" fill-rule="nonzero"/><path fill="#faca09" d="M 2.957031 460.539062 C 7.496094 466.835938 11.996094 473.214844 16.535156 479.46875 C 28.011719 495.183594 38.929688 511.371094 51.089844 526.53125 C 73.359375 554.238281 103.164062 561.945312 137.207031 556.804688 C 186.027344 549.441406 230.988281 531.367188 273.085938 506.230469 C 294.667969 493.34375 314.964844 478.355469 336.203125 464.910156 C 362.539062 448.25 390.933594 437.886719 422.707031 441.183594 C 443.304688 443.324219 461.976562 450.605469 478.675781 463.367188 C 495.203125 476 508.179688 491.542969 518.113281 509.402344 C 531.988281 534.28125 538.371094 561.472656 539.953125 589.90625 C 541.023438 608.707031 539.828125 627.25 533.917969 645.191406 C 523.597656 676.582031 500.6875 695.335938 470.667969 706.597656 C 450.371094 714.222656 429.085938 717.777344 407.804688 721.246094 C 368.363281 727.667969 328.753906 733.320312 289.527344 741.027344 C 255.613281 747.710938 223.496094 760 195.0625 780.425781 C 151.726562 811.558594 126.757812 854.25 116.140625 905.9375 C 110.015625 935.742188 109.332031 966.0625 107.832031 996.335938 C 106.804688 1016.847656 105.304688 1037.363281 99.867188 1057.273438 C 94.515625 1077.015625 85.90625 1095.300781 70.53125 1109.175781 C 60.171875 1118.511719 48.777344 1126.902344 34.390625 1129.773438 C 27.367188 1131.1875 20.515625 1133.285156 13.492188 1134.699219 C 10.238281 1135.339844 6.769531 1135.125 3.042969 1135.339844 C 2.875 1133.242188 2.875 1131.742188 2.660156 1130.285156 C 1.761719 1124.976562 4.585938 1123.863281 9.296875 1123.304688 C 25.441406 1121.421875 40.34375 1116.539062 53.746094 1106.519531 C 76.527344 1089.519531 88.304688 1066.179688 93.101562 1039.289062 C 96.996094 1017.277344 99.097656 994.925781 101.109375 972.613281 C 104.0625 940.027344 106.976562 907.523438 118.023438 876.347656 C 139.179688 816.695312 180.117188 776.230469 238.355469 752.71875 C 267.347656 741.027344 297.707031 734.347656 328.367188 728.996094 C 364.382812 722.699219 400.523438 717.003906 436.496094 710.324219 C 453.710938 707.113281 470.152344 701.074219 485.355469 692.125 C 511.390625 676.792969 526.335938 654.140625 530.917969 624.292969 C 534.773438 599.113281 531.605469 574.621094 525.179688 550.210938 C 520 530.511719 510.964844 512.65625 498.589844 496.898438 C 487.839844 483.238281 474.777344 471.84375 458.550781 464.09375 C 438.335938 454.417969 417.480469 451.035156 395.683594 454.628906 C 376.199219 457.84375 358.558594 466.105469 341.6875 476.300781 C 311.839844 494.414062 282.933594 514.152344 251.074219 528.757812 C 215.144531 545.242188 178.359375 558.988281 139.179688 565.542969 C 125.433594 567.855469 111.644531 568.882812 97.769531 566.742188 C 77.769531 563.613281 61.070312 554.195312 48.652344 538.433594 C 36.402344 522.933594 25.3125 506.488281 13.707031 490.429688 C 10.796875 486.40625 8.226562 482.121094 5.058594 478.355469 C 0.476562 473 1.972656 466.964844 1.761719 461.097656 C 2.101562 460.925781 2.53125 460.710938 2.957031 460.539062 Z M 2.957031 460.539062 " fill-opacity="1" fill-rule="nonzero"/><path fill="#faca09" d="M 2.273438 494.5 C 8.953125 504.5625 15.164062 514.113281 21.542969 523.53125 C 33.019531 540.449219 44.496094 557.40625 62.140625 568.796875 C 76.613281 578.132812 92.714844 580.65625 109.628906 580.230469 C 132.238281 579.671875 153.910156 574.234375 175.40625 567.980469 C 214.886719 556.546875 253 541.5625 289.355469 522.332031 C 305.972656 513.554688 321.988281 503.664062 338.429688 494.5 C 355.902344 484.734375 373.589844 475.355469 393.628906 471.71875 C 417.824219 467.347656 440.5625 470.816406 461.933594 483.621094 C 480.300781 494.628906 493.449219 510.472656 503.425781 528.714844 C 518.285156 555.777344 524.410156 585.28125 521.710938 615.988281 C 518.5 652.644531 498.929688 678.164062 465.441406 693.238281 C 446.34375 701.804688 426.21875 706.8125 405.835938 710.667969 C 382.28125 715.121094 358.6875 719.105469 335.046875 722.957031 C 304.945312 727.839844 275.351562 734.777344 246.578125 744.753906 C 212.488281 756.574219 182.214844 774.6875 157.207031 800.9375 C 129.929688 829.542969 113.011719 863.714844 103.71875 901.914062 C 96.867188 930.003906 94.511719 958.738281 91.257812 987.34375 C 88.945312 1007.984375 86.207031 1028.625 79.011719 1048.238281 C 73.402344 1063.484375 65.695312 1077.441406 53.234375 1088.492188 C 44.453125 1096.285156 35.074219 1102.921875 23.898438 1106.519531 C 17.347656 1108.660156 10.453125 1109.816406 2.746094 1111.617188 C 2.746094 1107.71875 2.53125 1104.378906 2.875 1101.082031 C 3 1100.140625 4.757812 1098.8125 5.914062 1098.640625 C 21.242188 1096.285156 34.089844 1089.132812 45.394531 1078.8125 C 67.878906 1058.386719 75.5 1031.066406 80.683594 1002.71875 C 86.933594 968.546875 89.289062 933.730469 98.195312 900.027344 C 110.101562 855.109375 132.070312 816.3125 167.398438 785.691406 C 194.761719 761.925781 226.792969 746.765625 261.265625 736.359375 C 293.511719 726.640625 326.527344 720.300781 359.671875 714.4375 C 388.320312 709.382812 417.140625 704.929688 444.632812 694.953125 C 465.527344 687.414062 484.542969 677.007812 497.816406 658.382812 C 507.667969 644.59375 512.503906 629.003906 513.492188 612.132812 C 514.816406 589.136719 510.878906 567.125 500.859375 546.355469 C 496.746094 537.792969 492.894531 528.757812 486.984375 521.476562 C 463.902344 493.128906 432.511719 475.785156 389.734375 486.191406 C 371.0625 490.730469 354.277344 499.550781 337.53125 508.332031 C 293.253906 531.496094 247.988281 552.351562 200.371094 567.8125 C 174.207031 576.289062 147.914062 584.210938 120.636719 588.109375 C 101.023438 590.890625 81.367188 590.847656 63.039062 581.472656 C 49.207031 574.40625 38.757812 563.484375 29.9375 551.023438 C 22.570312 540.617188 16.320312 529.398438 8.484375 519.335938 C 2.660156 512.054688 0.21875 504.519531 2.273438 494.5 Z M 2.273438 494.5 " fill-opacity="1" fill-rule="nonzero"/><path fill="#faca09" d="M 1.886719 529.742188 C 7.96875 538.90625 13.195312 547.042969 18.71875 555.007812 C 27.796875 568.109375 37.132812 580.914062 51.046875 589.523438 C 67.707031 599.800781 85.992188 601.855469 104.917969 599.972656 C 137.164062 596.757812 167.867188 587.082031 198.488281 577.273438 C 243.023438 563.015625 286.359375 545.671875 328.753906 525.84375 C 344.984375 518.222656 361.511719 511.027344 378.34375 504.863281 C 402.664062 495.996094 427.03125 496.210938 450.371094 508.757812 C 461.375 514.667969 470.109375 523.148438 477.734375 532.996094 C 495.804688 556.25 504.070312 582.671875 502.527344 611.960938 C 500.855469 643.863281 484.457031 666.390625 456.75 681.292969 C 436.496094 692.167969 414.527344 697.949219 392.214844 702.617188 C 360.355469 709.339844 328.324219 715.164062 296.59375 722.359375 C 263.917969 729.722656 231.929688 739.53125 202.382812 755.84375 C 143.628906 788.304688 107.144531 838.109375 90.53125 902.425781 C 83.59375 929.320312 79.269531 956.941406 73.828125 984.21875 C 69.589844 1005.542969 64.664062 1026.65625 53.316406 1045.625 C 46.210938 1057.53125 37.300781 1067.421875 25.054688 1074.53125 C 18.160156 1078.515625 11.265625 1081.726562 3.644531 1083.695312 C 1.160156 1075.34375 1.84375 1073.890625 9.039062 1071.105469 C 29.335938 1063.269531 42.398438 1047.9375 51.90625 1029.183594 C 60.898438 1011.453125 65.308594 992.3125 69.289062 973.042969 C 76.015625 940.796875 81.667969 908.25 93.484375 877.289062 C 120.507812 806.589844 171.039062 760.425781 241.738281 735.289062 C 277.023438 722.742188 313.507812 714.90625 350.078125 707.457031 C 377.3125 701.890625 404.761719 696.964844 430.84375 686.902344 C 449.257812 679.792969 466.429688 670.628906 478.71875 654.527344 C 491.179688 638.167969 495.503906 619.625 494.132812 599.113281 C 492.808594 579.160156 486.425781 561.046875 475.078125 545.242188 C 456.878906 519.894531 428.742188 505.847656 393.328125 512.699219 C 368.40625 517.539062 345.496094 528.242188 322.285156 537.835938 C 257.066406 564.769531 190.863281 588.878906 121.835938 604.339844 C 101.707031 608.835938 81.238281 610.933594 60.941406 604.425781 C 46.59375 599.84375 35.246094 590.976562 26.253906 579.203125 C 19.230469 569.996094 13.277344 559.933594 6 550.894531 C 1.246094 544.644531 1.460938 538.136719 1.886719 529.742188 Z M 1.886719 529.742188 " fill-opacity="1" fill-rule="nonzero"/><path fill="#faca09" d="M 2.058594 571.792969 C 9.296875 580.871094 16.320312 590.335938 24.070312 599.15625 C 40.128906 617.441406 61.15625 623.222656 84.621094 621.554688 C 115.753906 619.371094 145.386719 610.335938 174.804688 600.871094 C 226.023438 584.382812 276.980469 566.996094 328.109375 550.253906 C 346.269531 544.300781 364.46875 538.136719 383.050781 533.679688 C 401.421875 529.226562 420.007812 529.613281 437.566406 538.347656 C 455.679688 547.382812 466.640625 562.457031 474.007812 580.785156 C 480.261719 596.289062 480.945312 612.175781 476.535156 628.019531 C 471.011719 647.890625 457.605469 661.722656 440.050781 671.742188 C 420.609375 682.875 399.324219 689.214844 377.699219 694.4375 C 344.640625 702.402344 311.367188 709.640625 278.480469 718.246094 C 242.9375 727.582031 208.636719 740.257812 177.761719 760.855469 C 130.785156 792.203125 99.054688 835.367188 81.453125 888.59375 C 72.503906 915.574219 66.078125 943.410156 58.542969 970.859375 C 52.460938 992.996094 45.953125 1014.964844 30.878906 1032.992188 C 26.554688 1038.132812 21.203125 1042.542969 15.890625 1046.695312 C 12.207031 1049.566406 7.796875 1051.535156 3.601562 1053.933594 C 1.675781 1046.097656 1.800781 1044.46875 8.398438 1040.53125 C 27.066406 1029.355469 37.945312 1012.140625 44.710938 992.484375 C 53.191406 967.816406 60.042969 942.59375 67.40625 917.5 C 77.128906 884.398438 89.71875 852.667969 109.457031 824.0625 C 141.148438 778.15625 184.613281 748.007812 236.511719 728.953125 C 272.527344 715.71875 309.78125 707.070312 346.996094 698.25 C 373.71875 691.910156 400.523438 685.789062 425.277344 673.410156 C 443.175781 664.460938 458.292969 652.429688 465.871094 633.242188 C 471.140625 619.882812 472.039062 606.007812 467.714844 592.175781 C 465.570312 585.410156 463.644531 578.175781 459.746094 572.4375 C 451.3125 560.015625 440.179688 550.382812 425.402344 545.671875 C 404.804688 539.121094 384.25 541.605469 364.296875 547.597656 C 317.832031 561.472656 271.671875 576.460938 225.25 590.464844 C 186.710938 602.070312 148.042969 613.460938 109.160156 623.910156 C 91.171875 628.746094 72.503906 631.058594 53.875 626.734375 C 36.832031 622.796875 23.640625 613.074219 13.449219 599.070312 C 11.953125 597.015625 10.410156 594.917969 8.652344 593.035156 C 3.042969 586.867188 -0.167969 580.058594 2.058594 571.792969 Z M 2.058594 571.792969 " fill-opacity="1" fill-rule="nonzero"/><path fill="#faca09" d="M 2.445312 602.539062 C 5.527344 606.09375 8.609375 609.648438 11.695312 613.246094 C 24.070312 627.632812 39.402344 636.242188 58.628906 637.398438 C 79.484375 638.683594 99.566406 634.441406 119.308594 628.703125 C 161.316406 616.5 203.070312 603.398438 245.078125 591.105469 C 282.675781 580.101562 320.359375 569.351562 358.171875 559.203125 C 373.03125 555.222656 388.449219 553.636719 403.992188 555.351562 C 428.316406 558.046875 445.832031 570.378906 454.351562 593.289062 C 462.015625 613.84375 457.820312 632.988281 443.261719 649.644531 C 431.527344 663.089844 416.324219 671.570312 399.839844 676.964844 C 374.230469 685.316406 348.238281 692.597656 322.203125 699.449219 C 284.433594 709.382812 246.664062 719.230469 210.949219 735.417969 C 146.414062 764.667969 101.152344 812.542969 75.242188 878.148438 C 64.582031 905.125 56.617188 933.132812 47.410156 960.625 C 41.070312 979.507812 33.960938 998.007812 21.117188 1013.59375 C 16.277344 1019.503906 10.878906 1024.898438 3.300781 1028.28125 C 2.101562 1023.273438 2.957031 1020.230469 7.027344 1016.976562 C 20.429688 1006.273438 29.550781 992.097656 35.589844 976.339844 C 44.324219 953.558594 52.078125 930.347656 60.125 907.308594 C 72.074219 873.050781 87.105469 840.421875 109.542969 811.601562 C 140.761719 771.476562 181.144531 744.199219 228.164062 725.828125 C 264.648438 711.566406 302.503906 702.058594 340.230469 692.039062 C 364.339844 685.617188 388.449219 679.019531 410.671875 667.203125 C 420.738281 661.847656 430.070312 655.382812 437.007812 646.261719 C 448.355469 631.359375 452.597656 615.128906 445.273438 596.84375 C 437.179688 576.675781 421.164062 567.554688 400.910156 564.597656 C 381.253906 561.730469 361.984375 565.457031 342.925781 569.738281 C 277.792969 584.425781 214.246094 604.722656 150.484375 624.078125 C 125.773438 631.574219 101.195312 639.667969 75.414062 642.664062 C 57.257812 644.761719 39.230469 644.636719 23.726562 633.203125 C 16.363281 627.761719 9.683594 621.210938 3.644531 614.316406 C 1.417969 611.789062 1.886719 606.863281 1.117188 603.011719 C 1.503906 602.839844 1.972656 602.710938 2.445312 602.539062 Z M 2.445312 602.539062 " fill-opacity="1" fill-rule="nonzero"/></svg>